<?xml version="1.0" encoding="UTF-8"?>
<svg id="a" data-name="Ebene 1" xmlns="http://www.w3.org/2000/svg" width="210mm" height="209.99999mm" viewBox="0 0 595.27559 595.27557">
  <path d="m529.29995,283.81785c0-11.29327,8.48828-14.94812.29346-22.71838-8.64307-8.19513-12.03564,1.27716-23.94678,1.27716-11.91016,0-11.91016-1.54517-23.8208-1.54517s-11.91064-.96887-23.82129-.96887-11.91064,1.90173-23.82178,1.90173-11.91113-.11664-23.82227-.11664c-11.9126,0-11.9126-.41168-23.8252-.41168-11.91162,0-11.91162-.46844-23.82324-.46844s-11.91162,1.0824-23.82373,1.0824-11.91162.10779-23.82373.10779-11.91162-1.25165-23.82324-1.25159c-11.91211,0-11.91211-.76831-23.82422-.76831s-11.9126,2.01843-23.82471,2.01843c-11.91064,0-11.91064-2.02258-23.8208-2.02258-11.91162,0-11.91162,2.2204-23.82324,2.2204s-11.91162-.03754-23.82324-.03754c-11.91357,0-11.91357-1.69788-23.82666-1.69788s-11.91357-.52228-23.82715-.52228-11.91309,2.22803-23.82666,2.22803-11.91357-.84412-23.82764-.84412c-11.91553,0-11.91553,1.09094-23.83105,1.09094s-14.55127-8.67041-23.19971-.47375c-8.19629,7.76868.80029,10.68634-1.45898,21.75128-2.33887,11.45282-6.65625,14.23535,1.53906,22.00562,8.64307,8.19513,11.19922-.49341,23.11035-.49341,1.48633,0,2.78662-.0022,3.94824-.0061.10938,2.33441.16992,5.0932.57471,9.44958,1.07666,11.58887.58105,11.63495,1.65771,23.22382q1.07666,11.5882,2.14941,23.17682,1.07715,11.58862,2.13086,23.1792c1.07666,11.58813,2.34717,11.47021,3.42383,23.05847,1.07617,11.58679-1.64453,11.83972-.56787,23.42651,1.07666,11.58655,1.83057,11.51648,2.90723,23.10315,1.07617,11.58545.44531,11.64404,1.52197,23.22949,1.07617,11.58728,1.73242,11.52637,2.80908,23.11377.95752,10.30725,8.16992,17.67847,16.02734,17.67847,11.86182,0,11.86182-.84314,23.72412-.84314,11.8623-.00012,11.8623.4679,23.72461.4679,11.86035,0,11.86035-.67896,23.72119-.67896,11.85986,0,11.85986,1.26465,23.72021,1.26465s11.85986-.25903,23.72021-.25903,11.85986.81067,23.72021.81067c11.8584,0,11.8584-.7417,23.7168-.7417s11.8584.12927,23.7168.12927q11.85693,0,23.71387-.02271c11.85889,0,11.85889.78967,23.71826.78967s11.85889.06042,23.71729.06042,11.85889-2.04382,23.71729-2.04382,11.8584,1.68726,23.7168,1.68726,11.85889-.1499,23.71777-.1499c11.85791,0,11.85791.83044,23.71631.83044,11.85938,0,11.85938-2.2937,23.71875-2.2937,7.85889,0,15.23438-6.36755,16.18994-16.67798,1.07959-11.65137.71143-11.68542,1.79102-23.33667,1.07959-11.65137-.19385-11.76941.88574-23.42065,1.0791-11.6499,2.5332-11.51514,3.6123-23.16479,1.0791-11.64917,1.13965-11.64368,2.21924-23.29285,1.0791-11.64929,1.70996-11.59094,2.78906-23.24023,1.0791-11.64905-.00293-11.74939,1.07617-23.39856,1.0791-11.64771.29736-11.72021,1.37646-23.36792,1.0791-11.64746.30615-11.71906,1.38525-23.36652.23633-2.55011.44141-4.53979.62842-6.21472,1.3291.04614,2.84082.07367,4.62402.07367,11.91553,0,15.55518,7.59985,24.20361-.59686,8.19629-7.76862-.54102-11.68634-.54102-22.97955Zm-201.29834,27.95453c-12.17139,0-12.17139-.37842-24.34229-.37842-12.17188,0-12.17188-.40314-24.34375-.40308-12.17334,0-12.17334-.19598-24.34668-.19598s-12.17383,1.39117-24.34717,1.39117c-7.45605,0-14.82959-7.79498-14.82959-15.25098,2.76465-9.59503,7.37354-13.13824,14.82959-13.13824,12.17139,0,12.17139.44379,24.34229.44379,12.17188,0,12.17188.21716,24.34375.21716,12.17334,0,12.17334-.55927,24.34668-.55927s12.17383-.81726,24.34717-.81726c7.45605,0,13.99268,6.92285,13.99268,14.37885-2.76514,9.58673-6.53662,14.31226-13.99268,14.31226Z" fill="#d5e989"/>
</svg>