<svg width="80" height="80" viewBox="0 0 80 80" fill="none" xmlns="http://www.w3.org/2000/svg">
<circle cx="40" cy="40" r="40" fill="#99BB44"/>
<path fill-rule="evenodd" clip-rule="evenodd" d="M37.5 57C37.5 58.1046 38.3954 59 39.5 59C40.6046 59 41.5 58.1046 41.5 57V42.5H56C57.1046 42.5 58 41.6046 58 40.5C58 39.3954 57.1046 38.5 56 38.5H41.5V24C41.5 22.8954 40.6046 22 39.5 22C38.3954 22 37.5 22.8954 37.5 24V38.5H23C21.8954 38.5 21 39.3954 21 40.5C21 41.6046 21.8954 42.5 23 42.5H37.5V57Z" fill="#FFFDFD"/>
</svg>
