<svg width="24" height="24" viewBox="0 0 24 24" fill="none" xmlns="http://www.w3.org/2000/svg">
<path d="M5.79289 23.7071C6.18342 24.0976 6.81658 24.0976 7.20711 23.7071C7.59763 23.3166 7.59763 22.6834 7.20711 22.2929L5.79289 23.7071ZM1 17.5L0.292893 16.7929C-0.0976311 17.1834 -0.0976311 17.8166 0.292893 18.2071L1 17.5ZM7.20711 12.7071C7.59763 12.3166 7.59763 11.6834 7.20711 11.2929C6.81658 10.9024 6.18342 10.9024 5.79289 11.2929L7.20711 12.7071ZM18.2071 0.292893C17.8166 -0.0976311 17.1834 -0.0976311 16.7929 0.292893C16.4024 0.683417 16.4024 1.31658 16.7929 1.70711L18.2071 0.292893ZM23 6.5L23.7071 7.20711C23.8946 7.01957 24 6.76522 24 6.5C24 6.23478 23.8946 5.98043 23.7071 5.79289L23 6.5ZM16.7929 11.2929C16.4024 11.6834 16.4024 12.3166 16.7929 12.7071C17.1834 13.0976 17.8166 13.0976 18.2071 12.7071L16.7929 11.2929ZM17.5 18.5C18.0523 18.5 18.5 18.0523 18.5 17.5C18.5 16.9477 18.0523 16.5 17.5 16.5V18.5ZM6.5 5.5C5.94772 5.5 5.5 5.94771 5.5 6.5C5.5 7.05228 5.94772 7.5 6.5 7.5L6.5 5.5ZM7.20711 22.2929L1.70711 16.7929L0.292893 18.2071L5.79289 23.7071L7.20711 22.2929ZM1.70711 18.2071L7.20711 12.7071L5.79289 11.2929L0.292893 16.7929L1.70711 18.2071ZM16.7929 1.70711L22.2929 7.20711L23.7071 5.79289L18.2071 0.292893L16.7929 1.70711ZM22.2929 5.79289L16.7929 11.2929L18.2071 12.7071L23.7071 7.20711L22.2929 5.79289ZM1 18.5H17.5V16.5H1V18.5ZM23 5.5L6.5 5.5L6.5 7.5L23 7.5L23 5.5Z" fill="#99BB44"/>
</svg>
