<svg width="20" height="24" viewBox="0 0 20 24" fill="none" xmlns="http://www.w3.org/2000/svg">
<path d="M12.9895 8.61538L12.6119 18.7692M7.38811 18.7692L7.01049 8.61538M17.8847 4.99449C18.2578 5.05276 18.6296 5.11509 19 5.18146M17.8847 4.99449L16.7198 20.6562C16.6214 21.9788 15.5551 23 14.2725 23H5.72753C4.44494 23 3.37859 21.9788 3.28022 20.6562L2.11529 4.99449M17.8847 4.99449C16.6341 4.79916 15.3689 4.64958 14.0909 4.54744M1 5.18146C1.37044 5.11509 1.74222 5.05276 2.11529 4.99449M2.11529 4.99449C3.36594 4.79916 4.63108 4.64958 5.90909 4.54744M14.0909 4.54744V3.51385C14.0909 2.18329 13.0975 1.07247 11.8115 1.02992C11.2101 1.01003 10.6062 1 10 1C9.39384 1 8.78994 1.01003 8.18845 1.02992C6.90253 1.07247 5.90909 2.18329 5.90909 3.51385V4.54744M14.0909 4.54744C12.741 4.43956 11.3767 4.38462 10 4.38462C8.62331 4.38462 7.25903 4.43956 5.90909 4.54744" stroke="#FFFDFD" stroke-width="2" stroke-linecap="round" stroke-linejoin="round"/>
</svg>
