<svg width="915" height="629" viewBox="0 0 915 629" fill="none" xmlns="http://www.w3.org/2000/svg">
<g opacity="0.7">
<path d="M563.336 497.919C562.694 498.15 562.352 499.112 561.719 499.367C556.052 501.649 556.578 501.191 559.696 505.625C562.029 508.942 563.557 512.389 564.208 516.69C564.707 519.988 565.777 523.117 565.703 526.321C565.628 529.607 564.428 532.679 563.762 535.865C563.1 539.031 563.579 542.571 562.346 545.639C561.156 548.601 557.604 550.394 555.892 553.266C554.269 555.988 553.354 559.133 551.271 561.774C549.094 564.535 547.315 567.591 544.878 570.1C542.439 572.61 538.941 573.913 536.275 576.197C533.624 578.468 532.259 582.354 529.417 584.429C526.601 586.484 523.452 588.159 520.48 590.049C517.538 591.919 514.879 594.383 511.815 596.117C508.572 597.951 504.405 597.958 501.028 599.411C497.615 600.879 494.063 601.263 490.449 602.084C486.899 602.891 483.575 604.764 479.77 604.699C478.996 604.686 478.241 606.339 477.952 607.232C476.099 612.95 477.968 615.508 483.978 617.537C487.22 618.631 489.956 621.261 493.21 621.935C496.539 622.624 499.932 623.353 503.27 623.594C506.633 623.838 510.063 623.058 513.431 622.84C516.767 622.624 519.884 621.059 523.22 620.384C526.471 619.726 529.91 619.839 533.158 618.74C536.281 617.684 539.587 616.836 542.706 615.366C545.822 613.897 547.998 610.784 550.922 609.133C553.918 607.441 557.646 607.089 560.43 605.203C563.272 603.277 566.488 601.807 569.098 599.673C571.748 597.506 573.095 593.908 575.493 591.522C577.909 589.118 581.468 587.745 583.617 585.113C585.763 582.486 586.627 578.878 588.493 576.018C590.338 573.193 592.852 570.725 594.412 567.668C596.201 564.164 596.456 560.273 597.409 556.797C598.43 553.068 598.338 549.534 598.398 545.85C598.459 542.101 600.516 538.113 599.582 534.425C598.687 530.894 596.729 527.408 594.923 523.947C593.466 521.156 590.148 520.235 587.732 518.438C585.347 516.664 583.512 514.011 580.93 512.412C576.704 509.793 574.324 506.943 573.425 501.844C572.275 495.323 570.313 495.016 563.336 497.919L563.336 497.919Z" fill="#E6E5E3"/>
<path d="M889.112 124.139C888.454 126.807 889.053 129.747 888.394 132.415C888.214 132.812 888.385 133.37 888.245 133.781C887.403 136.243 884.276 139.381 882.661 143.483C881.341 146.833 879.986 150.395 878.443 153.615C876.519 157.627 875.273 161.517 873.462 163.402C871.435 165.513 869.87 168.226 867.645 170.172C865.427 172.112 861.925 172.459 859.539 174.169C857.129 175.895 855.646 179.08 853.094 180.502C850.496 181.95 847.15 181.845 844.435 182.907C841.667 183.99 838.82 184.296 835.962 184.902C833.074 185.515 830.373 186.761 827.425 186.809C824.218 186.861 821.078 186.696 817.967 186.153C814.85 185.608 811.529 185.757 808.456 184.941C804.82 183.976 801.19 182.815 797.634 181.612C795.041 180.734 792.327 179.943 789.927 178.705C787.519 177.463 786.1 174.569 783.86 173.019C781.644 171.486 779.547 169.912 777.472 168.131C775.301 166.268 772.532 164.927 770.767 162.521C769.077 160.215 768.044 157.403 766.707 154.748C765.409 152.17 764.068 149.57 763.086 146.799C762.109 144.042 760.819 141.337 760.138 138.522C759.438 135.628 759.398 132.623 758.994 129.811C758.622 127.232 759.318 124.156 759.489 120.737C759.632 117.86 758.046 114.578 758.508 111.444C758.949 108.451 760.442 105.535 761.122 102.583C761.831 99.5003 761.786 96.2094 762.697 93.4701C763.773 90.2335 766.859 88.1655 768.126 85.8741C769.747 82.9442 770.685 79.7236 772.807 77.3495C775.019 74.8738 777.935 73.3366 780.585 71.5206C783.296 69.6625 785.94 67.921 788.992 66.8133C792.044 65.7056 795.213 65.6521 798.489 65.3552C801.678 65.066 804.988 63.4058 808.279 63.9421C811.17 64.413 813.45 66.7662 816.022 67.8461C818.653 68.9509 820.834 70.3566 823.086 72.1447C825.246 73.8601 826.924 75.8081 828.693 78.1942C829.989 79.9405 831.778 81.4094 832.972 83.3292C833.587 82.901 834.005 81.6948 834.656 81.2837C837.191 79.6831 840.017 78.7696 842.587 77.8913C845.356 76.9446 848.228 76.7382 851.02 76.5926C853.841 76.4453 856.671 76.5735 859.495 77.2038C862.18 77.803 864.696 79.1104 867.367 80.3764C870.286 81.7601 872.809 83.359 875.144 85.1617C877.649 87.0948 880.689 88.4569 882.542 90.8479C884.42 93.2713 885.824 96.1962 887.054 99.0643C888.232 101.81 888.649 104.954 889.252 108.085C889.811 110.986 890.432 114.038 890.513 117.251C890.571 119.57 889.271 121.809 889.112 124.139L889.112 124.139ZM850.982 147.098C851.242 146.984 854.741 145.043 858.78 142.26C860.831 140.847 862.64 138.811 864.762 136.393C866.496 134.416 869.694 133.14 871.106 130.362C872.306 128.001 873.275 125.094 874.02 122.077C874.541 119.148 873.796 116.209 873.461 113.552C873.103 110.711 871.5 108.51 870.153 106.041C868.859 103.669 868.594 100.326 866.377 98.354C863.478 95.7757 859.527 95.6868 856.169 94.9882C852.838 94.2951 849.295 93.1347 845.602 94.6413C842.353 95.9669 839.002 98.2078 837.12 101.072C835.248 103.922 834.869 107.893 834.657 111.335C834.448 114.732 835.285 118.21 836.988 121.285C838.31 123.671 840.473 125.574 841.831 127.937C843.189 130.302 844.168 132.881 845.539 135.238C846.909 137.596 848.58 139.784 849.936 142.149C851.116 144.207 849.813 144.981 850.982 147.098L850.982 147.098ZM787.794 131.19C790.735 129.293 793.029 126.398 795.578 124.759C798.339 122.984 800.746 120.939 803.487 119.165C806.04 117.514 809.715 117.381 812.635 115.468C815.926 113.311 818.261 109.659 819.636 105.868C820.81 102.634 820.198 99.0396 819.597 95.8742C818.972 92.5757 816.853 90.1522 814.683 87.7049C812.512 85.2552 810.634 81.8832 807.307 81.0805C803.961 80.2734 800.572 82.0941 797.355 82.7784C794.1 83.471 790.475 83.4766 787.773 85.5239C785.19 87.4816 782.334 89.9259 780.638 92.9672C779.093 95.7394 778.862 98.6827 778.28 101.034C777.601 103.776 777.669 106.427 778.021 109.244C778.325 111.682 779.864 114.019 780.73 117.001C781.33 119.069 782.153 121.549 783.666 123.951C785.13 126.273 786.404 129.442 787.794 131.19ZM797.965 140.087C802.064 143.646 804.298 145.66 807.47 146.682C809.901 147.465 812.429 147.733 814.91 148.36C817.388 148.986 819.442 151.396 821.934 151.951C824.804 152.59 827.885 152.765 830.823 153.024C832.545 153.176 834.975 149.224 836.598 149.176C835.031 146.43 832.729 144.205 831.178 141.487C829.612 138.744 829.717 135.065 828.165 132.346C826.6 129.604 824.027 128.279 822.475 125.559C819.812 127.251 817.076 127.523 814.38 129.237C811.729 130.922 808.764 132.163 806.054 133.885C803.414 135.563 800.685 138.358 797.965 140.087Z" fill="#E6E5E3"/>
<path fill-rule="evenodd" clip-rule="evenodd" d="M163.809 71.9085C161.741 70.3973 161.831 69.6561 162.039 67.9341C162.133 67.1546 162.251 66.1742 162.205 64.8303C162.131 62.7054 162.31 60.2913 163.35 57.6159C164.138 55.5865 165.507 53.6393 167.319 51.459C168.727 49.7647 170.431 48.104 172.635 46.3954C173.049 46.0749 173.465 45.7396 173.891 45.3967C175.293 44.2682 176.797 43.0579 178.622 42.0263C180.284 41.0873 181.961 40.3582 183.905 39.5133C184.287 39.3475 184.679 39.1772 185.083 39C186.864 40.0555 186.637 40.7248 186.18 42.0745C185.925 42.8264 185.599 43.7894 185.508 45.148C185.421 46.4555 185.125 47.8886 184.812 49.402C184.67 50.0931 184.523 50.8009 184.392 51.5212C184.265 52.2169 184.177 52.941 184.088 53.6753C183.915 55.0968 183.737 56.5566 183.265 57.9234C182.777 59.334 181.89 60.5908 181.013 61.8331C180.627 62.3809 180.242 62.9258 179.894 63.4799C178.748 65.3078 177.484 67.0108 175.793 68.3575C174.178 69.6433 172.218 70.2831 170.015 70.9021L169.737 70.9804C167.937 71.4881 166.073 72.0136 163.809 71.9085ZM161.028 79.0321C160.094 80.2453 159.708 80.3883 158.342 79.6958C156.771 78.8991 156.784 78.35 156.806 77.3946C156.825 76.6325 156.849 75.6119 156.08 74.0009C155.319 72.4065 154.235 70.6388 152.791 68.6483C152.651 68.456 152.511 68.2606 152.368 68.0626C151.374 66.6817 150.29 65.1758 148.864 63.7139C147.505 62.3219 145.894 60.9827 144.114 59.5493C143.662 59.1854 143.227 58.8164 142.789 58.4454C141.736 57.5544 140.67 56.6517 139.336 55.78C141.057 51.0653 141.133 50.9774 144.824 47.5755C146.405 48.6891 147.46 49.9018 148.565 51.1723L148.565 51.1724C148.941 51.6044 149.323 52.0432 149.733 52.4869C150.36 53.1654 151.036 53.7916 151.702 54.4091C152.898 55.5177 154.063 56.5979 154.862 57.901C155.753 59.3537 156.246 60.9541 156.721 62.4921L156.721 62.4922C156.974 63.3145 157.223 64.1189 157.523 64.8735C157.942 65.9271 158.449 66.9164 158.934 67.8635L158.934 67.8635C159.625 69.2138 160.273 70.4781 160.561 71.7202C160.891 73.145 161.299 74.1048 161.618 74.8554C162.272 76.3927 162.553 77.0528 161.028 79.0321ZM180.721 74.574C181.291 74.6015 181.87 74.6293 182.454 74.6293C184.915 74.6293 187.187 74.7967 189.351 75.4938C191.619 76.2244 193.667 77.279 195.548 78.6885L195.63 78.7495C197.454 80.1161 199.346 81.5335 200.741 83.4611C201.653 84.7223 202.151 86.2476 202.662 87.8144C202.897 88.5348 203.135 89.2639 203.417 89.9802C203.667 90.613 203.952 91.2419 204.241 91.8779C204.913 93.3559 205.601 94.8718 205.892 96.561C206.144 98.0255 206.058 99.55 205.969 101.118C205.922 101.937 205.875 102.767 205.875 103.607C205.875 104.507 206.032 105.446 206.193 106.414C206.401 107.658 206.616 108.95 206.518 110.269C206.431 111.453 206.158 112.651 205.879 113.873C205.659 114.841 205.435 115.825 205.297 116.826C205.261 117.089 205.225 117.353 205.189 117.617C204.931 119.516 204.668 121.451 204.279 123.383C203.999 124.772 203.581 126.134 203.162 127.497C202.93 128.253 202.698 129.009 202.489 129.77C202.323 130.376 202.166 130.982 202.01 131.587C201.611 133.132 201.214 134.666 200.674 136.142C200.356 137.011 200.117 137.912 199.88 138.807C199.539 140.095 199.202 141.37 198.637 142.513C197.862 144.079 196.835 145.494 195.846 146.856C195.542 147.275 195.241 147.689 194.953 148.101C193.632 149.986 192.11 151.644 190.527 153.071C188.86 154.575 186.859 155.435 184.879 156.285L184.802 156.318C182.054 157.5 179.657 157.892 177.358 157.884C174.505 157.874 172.146 157.219 170.009 156.097C168.678 155.398 167.177 155.26 165.692 155.123C165.063 155.066 164.438 155.008 163.829 154.909C161.751 154.568 159.806 154.559 157.728 154.899C157.16 154.992 156.579 155.054 155.997 155.116C154.481 155.277 152.95 155.44 151.581 156.159C149.444 157.281 147.053 157.727 144.199 157.737C143.903 157.738 143.601 157.743 143.295 157.747C141.228 157.779 138.949 157.814 136.556 156.785C134.481 155.893 132.407 154.867 130.67 153.467C129.419 152.46 128.448 151.115 127.469 149.758C127.111 149.262 126.751 148.764 126.377 148.28C125.36 146.968 124.611 145.469 123.837 143.918C123.602 143.447 123.364 142.972 123.116 142.496C122.863 142.009 122.599 141.524 122.333 141.037C121.553 139.604 120.758 138.145 120.174 136.527C119.438 134.487 118.803 132.361 118.246 130.134C118.024 129.245 117.709 128.363 117.392 127.472C116.954 126.243 116.51 124.996 116.292 123.69C116.016 122.039 115.854 120.331 115.691 118.608C115.64 118.076 115.59 117.544 115.536 117.011C115.397 115.648 115.374 114.259 115.35 112.859C115.336 112.011 115.322 111.158 115.282 110.304C115.252 109.667 115.216 109.027 115.179 108.385C115.09 106.804 115 105.209 115 103.606C115 101.899 115.32 100.31 115.623 98.8031C115.78 98.0214 115.933 97.262 116.035 96.5199C116.172 95.5163 116.212 94.5244 116.252 93.5667C116.314 92.0451 116.373 90.6098 116.809 89.3511C117.671 86.8671 118.928 84.7133 120.191 82.9374C121.682 80.8416 123.497 79.1161 125.347 77.849C126.821 76.8403 128.551 76.4864 130.228 76.1432C130.89 76.0078 131.543 75.8741 132.17 75.7026C132.971 75.4833 133.757 75.2044 134.532 74.9296C136.093 74.3758 137.608 73.8385 139.104 73.8385C141.315 73.8385 143.169 74.2115 144.702 74.5199C144.78 74.5355 144.856 74.5509 144.932 74.566C147.282 75.037 149.02 75.8195 150.381 76.7248C151.389 77.3952 152.217 78.1746 153.049 78.9578C153.615 79.4895 154.182 80.023 154.808 80.5253C156.58 81.9465 158.645 83.2812 160.779 83.2812C162.914 83.2812 165.144 82.1526 166.916 80.7315C167.979 79.8787 169.265 79.16 170.639 78.3929C171.009 78.186 171.386 77.9755 171.766 77.7579C172.32 77.4412 172.856 77.0532 173.402 76.6585C174.416 75.9245 175.461 75.1676 176.711 74.8036C177.956 74.441 179.312 74.5063 180.721 74.574Z" fill="#E6E5E3"/>
<path fill-rule="evenodd" clip-rule="evenodd" d="M209.646 452.786C210.599 451.213 211.521 449.691 212.662 449.599C216.252 449.307 219.68 451.248 221.15 452.758C222.44 454.083 222.688 456.322 218.852 460.411C218.351 460.945 217.855 461.51 217.35 462.085C216.035 463.582 214.668 465.139 213.046 466.342C211.68 467.357 210.097 468.149 208.518 468.939C207.601 469.397 206.685 469.856 205.813 470.356C204.38 471.18 202.825 471.776 201.29 472.364C200.263 472.758 199.246 473.148 198.28 473.6C197.107 474.149 196.208 474.687 195.355 475.198C194.323 475.816 193.358 476.393 192.058 476.901C192.036 476.356 192.023 475.881 192.011 475.461C191.926 472.413 191.921 472.235 189.089 469.16C188.777 468.821 188.49 468.425 188.189 468.008C187.103 466.51 185.826 464.745 182.494 464.424C182.719 463.762 182.924 463.136 183.124 462.53C183.828 460.393 184.454 458.49 185.549 456.008C186.136 454.677 186.48 453.19 186.826 451.699C187.271 449.776 187.718 447.847 188.688 446.239C189.735 444.504 191.5 443.31 193.226 442.142C194.438 441.321 195.631 440.514 196.544 439.541C199.953 435.906 201.674 436.479 202.598 439.867C202.968 441.225 202.762 442.965 202.543 444.81C202.392 446.088 202.235 447.417 202.259 448.704C202.293 450.502 202.56 452.279 202.797 453.855C203.004 455.235 203.188 456.462 203.173 457.415C203.131 460.098 205.299 458.045 207.836 455.383C208.487 454.7 209.072 453.734 209.646 452.786ZM183.247 470.331C185.644 472.574 186.742 474.651 187.128 477.601C187.483 480.309 187.531 483.049 186.445 486.229C186.145 487.11 185.919 488.071 185.684 489.067C185.232 490.988 184.75 493.04 183.64 494.899C183.398 495.304 183.153 495.719 182.904 496.141C181.675 498.226 180.346 500.479 178.734 502.595C177.808 503.81 176.559 504.829 175.279 505.872C174.157 506.787 173.013 507.72 172.043 508.821C170.911 510.106 169.64 511.309 168.344 512.535C167.442 513.389 166.527 514.255 165.639 515.167C165.295 515.521 164.986 515.914 164.695 516.33C163.988 515.832 163.3 515.248 162.397 514.021C161.233 512.439 160.919 511.534 160.555 510.486L160.554 510.484C160.143 509.302 159.677 507.963 158.157 505.898C157.506 505.011 156.256 504.82 155.369 505.472C154.482 506.123 154.291 507.37 154.944 508.256C156.108 509.837 156.422 510.742 156.787 511.791C157.197 512.973 157.663 514.313 159.184 516.379C160.568 518.26 161.69 519.111 162.682 519.783C162.057 520.885 161.38 521.949 160.486 522.803C159.375 523.863 158.065 524.741 156.745 525.627C155.523 526.446 154.291 527.272 153.201 528.254C152.052 529.288 150.743 530.156 149.428 531.028C148.21 531.835 146.988 532.645 145.882 533.594C144.77 534.549 143.858 535.749 142.945 536.951C142.508 537.526 142.071 538.101 141.612 538.65C140.97 538.179 140.327 537.596 139.506 536.479C138.342 534.899 138.028 533.994 137.664 532.946L137.663 532.944C137.252 531.762 136.786 530.422 135.266 528.356C134.613 527.469 133.365 527.279 132.478 527.93C131.59 528.581 131.4 529.827 132.052 530.714C133.214 532.294 133.529 533.199 133.894 534.245L133.895 534.25C134.305 535.431 134.772 536.772 136.292 538.838C137.144 539.995 137.896 540.761 138.579 541.337C137.708 541.875 136.768 542.33 135.83 542.785C134.461 543.448 133.094 544.11 131.941 545.029C130.676 546.037 129.351 546.957 128.032 547.874C126.881 548.674 125.734 549.471 124.634 550.321C123.539 551.167 122.473 552.037 121.415 552.902C120.142 553.942 118.879 554.974 117.586 555.946C116.358 556.869 115.403 558.138 114.459 559.393C113.516 560.647 112.583 561.886 111.399 562.755C110.12 563.692 108.481 564.097 106.869 564.495C105.329 564.875 103.813 565.249 102.658 566.076C101.362 567.004 100.331 568.247 99.324 569.461C98.3447 570.642 97.3883 571.795 96.2327 572.604C94.7925 573.612 93.3481 574.51 91.9606 575.374C90.8039 576.093 89.6868 576.788 88.6444 577.501C87.1286 578.539 85.4727 579.175 83.9316 579.768C82.6196 580.272 81.3906 580.745 80.402 581.405C78.341 582.782 76.311 581.394 77.5523 579.25C78.1405 578.234 78.6519 577.064 79.1976 575.816C79.8533 574.316 80.5586 572.703 81.506 571.108C82.2116 569.92 83.056 568.743 83.9327 567.52C84.8176 566.286 85.7354 565.006 86.5763 563.624C87.2733 562.478 87.9131 561.254 88.5677 560.002C89.3083 558.586 90.0678 557.134 90.9501 555.717C91.7115 554.495 92.9662 553.552 94.2411 552.594C95.5384 551.619 96.8566 550.629 97.6976 549.312C98.447 548.139 99.1243 546.902 99.8086 545.652C100.568 544.266 101.336 542.863 102.221 541.514C103.2 540.021 104.221 538.539 105.251 537.044C105.93 536.059 106.612 535.069 107.289 534.066C107.426 533.864 107.552 533.654 107.675 533.441C108.308 534.178 108.826 534.695 109.332 535.196L109.333 535.197C110.113 535.972 110.851 536.703 112.102 538.403C112.428 538.846 112.903 539.115 113.408 539.192C113.912 539.269 114.447 539.154 114.89 538.829C115.777 538.178 115.968 536.931 115.315 536.045C113.881 534.095 112.997 533.218 112.142 532.37C111.381 531.616 110.658 530.895 109.465 529.288C109.939 528.065 110.451 526.862 111.185 525.808C112.014 524.619 112.699 523.319 113.386 522.019C114.118 520.629 114.852 519.238 115.763 517.978C116.485 516.978 117.191 515.962 117.898 514.946C118.918 513.479 119.937 512.013 121.001 510.6C121.952 509.337 123.114 508.237 124.27 507.142C125.333 506.136 126.39 505.134 127.274 504.016C128.077 503.001 128.796 501.922 129.504 500.842C129.717 501.088 129.939 501.359 130.178 501.684C131.613 503.634 132.496 504.511 133.351 505.358L133.352 505.359C134.133 506.133 134.871 506.865 136.121 508.565C136.447 509.008 136.923 509.277 137.427 509.354C137.932 509.431 138.466 509.316 138.909 508.991C139.797 508.34 139.987 507.093 139.335 506.206C137.9 504.257 137.016 503.38 136.161 502.532L136.16 502.531C135.38 501.757 134.642 501.026 133.391 499.326C132.823 498.554 132.299 497.957 131.811 497.473C132.034 497.178 132.263 496.889 132.499 496.608C133.548 495.357 134.836 494.328 136.107 493.311C137.229 492.414 138.339 491.526 139.262 490.505C140.439 489.204 141.76 488.084 143.058 486.985C144.054 486.142 145.037 485.31 145.928 484.416C148.115 482.227 150.255 480.231 152.388 478.375C152.603 478.622 152.827 478.897 153.069 479.226C154.504 481.176 155.388 482.052 156.243 482.9L156.244 482.901C157.024 483.675 157.762 484.407 159.013 486.106C159.339 486.55 159.814 486.819 160.319 486.896C160.823 486.973 161.358 486.858 161.801 486.532C162.688 485.881 162.879 484.634 162.226 483.748C160.791 481.799 159.908 480.922 159.053 480.074L159.052 480.073C158.271 479.299 157.533 478.567 156.283 476.868C155.931 476.389 155.596 475.981 155.276 475.621C156.543 474.352 157.766 473.134 159.128 472.198C161.838 470.335 164.514 468.942 167.036 467.895C169.578 466.839 171.935 467.059 174.203 467.271C174.706 467.318 175.206 467.364 175.702 467.396C178.674 467.589 180.85 468.089 183.247 470.331Z" fill="#E6E5E3"/>
<path d="M809.578 464.977C808.868 461.959 807.013 459.356 805.235 457.1C803.462 454.851 800.416 454.125 797.756 452.578C796.823 452.036 797.566 450.15 797.248 449.132C796.391 446.385 793.381 444.968 791.752 442.803C790.129 440.645 789.921 436.773 787.398 435.306C782.635 432.537 777.058 434.344 771.701 435.261C771.228 435.342 771.367 433.722 770.929 433.146C768.649 430.147 765.094 428.66 762.069 427.054C759.04 425.445 755.782 424.079 751.988 424.003C748.161 423.926 744.965 425.446 741.865 426.961C738.769 428.474 735.613 430.076 733.218 433.019C732.769 433.57 732.848 432.561 732.159 432.4C729.317 431.739 726.005 432.432 723.177 433.009C718.922 433.878 714.588 435.055 711.775 437.573C708.968 440.088 709.008 444.801 707.677 448.936C707.345 449.965 706.165 451.178 705.233 451.71C701.329 453.938 696.391 454.948 694.473 458.309C692.552 461.675 692.992 466.441 693.181 470.952C693.348 474.922 695.852 478.135 698.225 481.452C700.503 484.636 702.466 488.531 706.368 490.063C709.815 491.416 714.025 491.266 718.445 490.573C720.508 490.249 721.902 487.788 723.89 487.042C725.241 486.535 724.916 488.693 725.724 489.857C728.137 493.334 729.545 496.938 730.97 500.922C732.138 504.185 734.766 506.921 735.53 510.26C736.298 513.615 737.441 516.954 737.895 520.368C738.347 523.77 736.338 527.407 736.572 530.849C736.759 533.599 737.304 536.352 737.559 539.094C737.791 541.599 740.299 542.228 742.811 542.29C748.063 542.42 753.304 544.015 758.557 544C760.924 543.993 764.251 541.536 764.455 539.19C764.709 536.276 764.917 533.352 765.161 530.436C765.503 526.342 763.472 521.983 764.176 517.953C764.88 513.924 765.941 509.865 767.121 505.922C767.968 503.092 770.136 500.741 771.34 498.073C772.543 495.407 772.43 491.862 774.162 489.444C775.524 487.542 776.551 487.698 778.768 488.76C781.739 490.181 784.525 492.62 787.883 492.464C789.281 492.365 790.904 492.893 792.272 492.636C797.21 491.709 801.048 487.96 804.293 484.143C806.651 481.369 808.41 478.449 809.147 475.274C809.887 472.085 810.404 468.489 809.578 464.977L809.578 464.977ZM743.966 509.56C743.182 506.446 743.363 503.384 742.375 500.352C741.383 497.309 738.875 494.141 737.517 491.233C739.638 490.838 742.133 490.866 744.262 490.469C745.302 495.192 746.386 495.192 746.278 500.026C746.171 504.829 744.604 504.767 743.966 509.56V509.56ZM757.925 509.661C757.351 504.863 757.442 504.925 757.486 500.092C757.531 495.26 755.075 494.861 756.19 490.158C758.292 490.59 760.799 491.425 762.97 491.871C761.548 494.74 762.386 498.032 761.335 501.059C760.289 504.072 758.8 506.577 757.925 509.661Z" fill="#E6E5E3"/>
<path fill-rule="evenodd" clip-rule="evenodd" d="M328.428 517.527C326.41 517.521 324.323 517.516 322.286 517.726C321.566 517.8 320.871 517.937 320.199 518.07L320.198 518.07L320.195 518.07L320.184 518.072C319.141 518.279 318.155 518.474 317.249 518.393C315.565 518.243 313.825 517.918 312.143 517.603L312.143 517.603L312.136 517.602L312.127 517.6L312.127 517.6C311.147 517.417 310.134 517.227 309.134 517.072C307.797 516.865 306.495 516.184 305.117 515.463L305.117 515.463L305.114 515.462C304.007 514.882 302.863 514.283 301.623 513.894C300.457 513.528 299.246 513.273 298.076 513.026L298.075 513.026L298.074 513.025C295.629 512.51 293.319 512.023 291.562 510.617C287.654 507.492 285.646 502.694 286.051 497.453C286.32 493.99 287.308 490.406 288.765 487.62C289.827 485.588 291.572 483.831 293.26 482.131L293.265 482.127L293.269 482.122C294.022 481.365 294.8 480.582 295.511 479.78C296.947 478.164 298.772 476.947 300.705 475.657L300.705 475.657L300.72 475.647C301.677 475.008 302.667 474.348 303.618 473.628C304.743 472.775 305.655 471.694 306.535 470.648C307.573 469.415 308.553 468.251 309.755 467.603C311.327 466.755 313.091 466.201 314.959 465.615L314.959 465.615L314.962 465.614L314.976 465.61L314.976 465.61L314.976 465.61C315.898 465.32 316.851 465.021 317.777 464.683C319.034 464.225 320.468 464.221 321.986 464.217C323.233 464.214 324.521 464.211 325.794 463.95L326.565 463.792C328.956 463.3 331.214 462.835 333.609 462.601C334.188 462.545 334.724 462.397 335.198 462.267L335.204 462.266L335.205 462.265C335.658 462.141 336.086 462.023 336.466 462.008C337.994 461.946 339.49 462.262 341.074 462.597L341.088 462.6C341.987 462.79 342.918 462.987 343.877 463.117C345.18 463.295 346.494 463.418 347.764 463.537L347.768 463.537C351.03 463.843 354.111 464.132 357.031 465.262C359.65 466.276 362.09 467.791 364.45 469.257L364.663 469.39L364.664 469.39L364.664 469.39C365.061 469.637 365.458 469.884 365.856 470.127C367.039 470.85 368.326 471.437 369.571 472.004L369.575 472.006C371.54 472.901 373.396 473.747 374.832 475.069C377.948 477.937 380.584 481.888 382.893 487.149C383.723 489.043 383.319 492.028 382.927 494.914L382.927 494.916L382.806 495.814C382.412 498.808 381.946 501.9 381 504.11C380.358 504.057 379.706 503.807 378.98 503.525C378.64 503.392 378.302 503.262 377.962 503.148C374.643 502.044 370.686 500.888 366.497 500.693C364.133 500.583 361.882 500.97 359.703 501.345C359.168 501.437 358.632 501.529 358.097 501.613C357.198 501.755 356.258 501.806 355.263 501.86L355.263 501.86C353.383 501.963 351.44 502.069 349.583 502.81C346.272 504.132 343.435 506.213 340.692 508.226L340.687 508.229L340.264 508.539C337.407 510.633 334.432 512.935 332.206 516.034C332.07 516.224 331.997 516.412 331.954 516.564C331.829 516.709 331.719 516.858 331.614 517.008C330.877 516.873 330.134 517.115 329.511 517.324L329.505 517.326C329.266 517.405 328.911 517.524 328.788 517.528L328.428 517.527ZM343.845 539.302C341.065 538.913 338.44 538.546 336.093 537.249C332.17 535.082 330.797 532.044 331.501 527.094C331.623 526.238 331.864 525.403 332.119 524.518L332.119 524.518L332.12 524.514C332.343 523.745 332.572 522.949 332.72 522.128C332.76 521.906 332.797 521.691 332.833 521.481L332.834 521.477V521.477C333.095 519.96 333.268 518.957 334.03 518.146C334.276 517.885 334.377 517.601 334.429 517.402C336.422 514.687 339.163 512.572 341.803 510.639L342.228 510.327C344.841 508.409 347.543 506.426 350.548 505.227C352.009 504.644 353.659 504.554 355.405 504.459C356.421 504.403 357.472 504.346 358.502 504.184C359.044 504.098 359.585 504.005 360.127 503.912L360.144 503.909L360.181 503.903C362.303 503.538 364.31 503.193 366.376 503.293C370.237 503.472 373.831 504.516 377.139 505.617C377.425 505.712 377.708 505.822 377.992 505.932L378.035 505.949L378.039 505.951C378.589 506.165 379.175 506.393 379.808 506.546C379.862 506.816 380.002 507.072 380.225 507.268C380.572 507.572 381.059 507.742 382.87 508.345L382.871 508.345L382.871 508.345C384.796 508.986 388.377 510.177 389.436 511.119C390.486 512.052 391.093 513.503 391.736 515.039L391.739 515.047C392.194 516.132 392.663 517.253 393.322 518.238C394.745 520.369 395.974 522.209 396.213 524.861C396.279 525.588 396.452 526.326 396.619 527.041C396.914 528.302 397.219 529.605 396.781 530.375C394.931 533.623 391.138 535.761 389.042 536.746C386.525 537.928 383.572 538.474 380.716 539.002L380.716 539.002L380.713 539.003L380.701 539.005C379.975 539.139 379.253 539.273 378.541 539.416C377.852 539.554 377.111 539.4 376.254 539.222L376.251 539.221C375.612 539.088 374.889 538.938 374.096 538.895C372.645 538.817 371.189 539.064 369.783 539.304C368.89 539.457 368.046 539.601 367.228 539.66C365.816 539.763 364.469 540.202 363.166 540.627C361.675 541.114 360.262 541.572 358.931 541.48C356.415 541.303 348.948 540.096 346.467 539.695L346.467 539.695L346.45 539.693L345.862 539.598C345.203 539.492 344.543 539.399 343.886 539.307L343.886 539.307L343.845 539.302ZM378.871 558.536C378.837 558.195 378.636 557.726 378.44 557.273L378.44 557.272C378.224 556.77 378.001 556.252 377.883 555.684C377.62 554.419 377.187 553.186 376.73 551.882L376.73 551.882L376.728 551.877L376.727 551.874C376.23 550.455 375.716 548.989 375.425 547.451C375.056 545.491 374.625 543.944 373.985 542.279C373.93 542.135 373.905 541.988 373.902 541.843L369.809 541.939C369.023 542.071 368.219 542.197 367.417 542.255C366.322 542.335 365.181 542.707 363.973 543.101C362.473 543.59 360.927 544.094 359.288 544.095C359.11 544.095 358.93 544.088 358.749 544.076C357.673 544 355.774 543.752 353.734 543.456C353.762 544.588 353.819 546.002 353.878 547.481L353.88 547.54C354.005 550.665 354.135 553.896 354.072 555.784C354.022 557.311 353.676 560.36 353.37 563.055L353.37 563.056L353.368 563.071C353.178 564.741 352.982 566.468 352.973 566.899C352.912 569.613 354.638 575.916 355.492 576.723C356.156 577.206 356.802 577.87 357.486 578.572L357.486 578.572C358.741 579.862 360.038 581.195 361.584 581.53C363.184 581.875 364.968 581.179 366.695 580.506C367.527 580.181 368.313 579.875 369.078 579.685L369.475 579.587C372.366 578.873 375.096 578.2 376.62 576.213C378.527 573.726 378.792 570.399 378.679 568.045C378.605 566.52 378.707 564.998 378.805 563.527L378.805 563.525L378.805 563.525C378.921 561.789 379.03 560.149 378.871 558.536ZM350.782 562.778C350.527 565.023 350.382 566.318 350.371 566.842C350.34 568.224 350.798 571.143 351.532 573.779C350.825 573.906 350.34 574.016 350.211 574.097C347.586 575.747 344.584 576.585 341.465 576.88C336.684 577.332 332.287 576.166 328.272 573.549C324.294 570.956 321.991 567.229 320.51 562.749C319.623 560.066 318.971 557.431 319.024 554.62C319.053 553.023 319.418 551.43 319.783 549.836C320.152 548.219 320.522 546.602 320.543 544.981C320.558 543.751 320.229 542.513 319.9 541.276C319.548 539.951 319.195 538.626 319.267 537.311C319.297 536.773 319.092 536.216 318.888 535.662C318.676 535.085 318.464 534.51 318.519 533.963C318.622 532.936 318.788 531.924 318.953 530.915C319.185 529.496 319.417 528.081 319.472 526.637C319.497 525.99 319.552 523.775 319.493 520.845C319.9 520.778 320.303 520.702 320.7 520.623L320.711 520.621C321.35 520.495 321.954 520.376 322.552 520.314C324.431 520.121 326.423 520.125 328.352 520.13L328.421 520.13L328.782 520.131H328.788C329.324 520.131 329.84 519.958 330.338 519.791C330.39 519.774 330.451 519.754 330.514 519.733C330.421 520.161 330.344 520.597 330.268 521.04C330.233 521.243 330.197 521.452 330.159 521.666C330.034 522.356 329.833 523.054 329.62 523.793L329.618 523.798C329.35 524.729 329.072 525.692 328.925 526.728C328.066 532.758 329.944 536.825 334.834 539.527C337.602 541.056 340.591 541.474 343.483 541.879L343.484 541.879C344.139 541.971 344.795 542.062 345.451 542.167L346.035 542.262L346.082 542.269C347.138 542.44 349.055 542.75 351.122 543.066C351.146 544.303 351.211 545.931 351.279 547.644C351.397 550.579 351.53 553.906 351.471 555.698C351.423 557.124 351.068 560.257 350.782 562.775L350.782 562.778Z" fill="#E6E5E3"/>
<path fill-rule="evenodd" clip-rule="evenodd" d="M478.45 54.0793C476.54 55.9003 475.263 57.1167 474.292 54.6816C473.155 51.8298 473.4 51.0708 474.281 48.3474C474.368 48.0805 474.46 47.7947 474.558 47.4862C474.953 46.2414 475.463 45.4889 475.901 44.8424C476.594 43.8191 477.108 43.0611 476.701 41.0364C476.255 38.8209 475.547 38.4538 474.384 37.8507C473.549 37.4177 472.479 36.863 471.104 35.4154C470.459 34.7368 469.532 34.1927 468.546 33.6141C467.183 32.8141 465.708 31.9484 464.713 30.5709C463.87 29.4046 463.245 27.971 462.596 26.4813C462.164 25.4908 461.722 24.4756 461.197 23.4975C460.236 21.705 459.389 19.3935 458.585 17.1982C458.42 16.747 458.256 16.3008 458.094 15.8649C461.326 14.2784 462.571 14.4678 464.746 14.7986C465.724 14.9474 466.89 15.1248 468.509 15.182C468.395 16.1042 468.181 16.8843 467.981 17.613C467.669 18.749 467.392 19.7604 467.581 20.9911C467.939 23.323 468.772 25.6755 469.629 27.5346C470.271 28.9264 471.456 29.9464 472.549 30.8879C473.189 31.4392 473.798 31.9636 474.249 32.5199C475.184 33.6743 475.591 34.7874 475.923 35.6971C476.457 37.157 476.799 38.0929 478.824 37.8344C480.854 37.5753 481.584 36.7922 482.405 35.911C483.076 35.1907 483.808 34.4048 485.362 33.786C486.569 33.3053 487.36 32.8409 488.037 32.4434C489.298 31.7034 490.163 31.1953 492.582 31.2454C492.232 34.1329 491.58 37.1659 490.866 39.3663C490.572 40.2724 490.335 41.1776 490.107 42.0509C489.621 43.9059 489.172 45.6171 488.297 46.8885C487.08 48.6555 485.238 49.5497 483.611 50.34C482.92 50.6753 482.268 50.9919 481.719 51.3486C480.455 52.169 479.378 53.1954 478.45 54.0793ZM478.837 65.2848C477.442 63.1247 475.766 60.1366 474.782 58.0515C475.557 57.967 476.377 57.9146 477.201 57.862C479.284 57.729 481.393 57.5943 482.873 56.9333C485.31 55.8448 487.46 54.4524 489.106 52.7916C490.389 51.4981 491.065 49.8369 491.721 48.226C491.996 47.5499 492.268 46.8827 492.579 46.2553C493.578 44.2429 494.011 42.248 494.418 40.3742C494.495 40.0242 494.57 39.6784 494.647 39.3374C495.044 37.5959 494.904 36.4645 494.789 35.5352C494.629 34.2436 494.518 33.3427 495.964 31.7373C496.312 31.8843 496.686 32.0376 497.077 32.1982C499.066 33.0132 501.51 34.0153 503.281 35.3219C505.133 36.6891 507.122 38.2888 509.015 40.0751C509.88 40.8914 510.434 42.0594 511.002 43.2563C511.548 44.4076 512.107 45.5856 512.968 46.5034C513.738 47.3237 514.714 47.9836 515.708 48.6552C516.8 49.3932 517.912 50.1453 518.794 51.1397C519.556 51.9993 520.403 52.8088 521.261 53.6295C522.183 54.5101 523.117 55.4035 523.974 56.3852C524.748 57.2709 525.339 58.3334 525.936 59.4073C526.556 60.5228 527.184 61.6506 528.03 62.6052C528.85 63.5315 529.809 64.3505 530.775 65.1766C531.691 65.9589 532.614 66.7477 533.434 67.64C534.212 68.4858 534.87 69.4555 535.532 70.4314C536.264 71.5097 537 72.5954 537.909 73.53C538.781 74.4259 539.899 75.0843 541.023 75.7463C542.08 76.3687 543.142 76.9944 544.01 77.8239C544.726 78.5079 545.414 79.2214 546.104 79.937C547.107 80.9776 548.113 82.0225 549.218 82.987C550.071 83.7318 550.8 84.6315 551.532 85.5346C552.373 86.5723 553.217 87.6143 554.257 88.431C555.026 89.035 555.774 89.6846 556.524 90.337C557.642 91.3089 558.768 92.2871 559.984 93.1306C561.051 93.8707 562.317 94.3259 563.589 94.783C564.701 95.1829 565.818 95.5842 566.808 96.179C568.054 96.9268 569.386 97.51 570.728 98.0976C571.634 98.494 572.544 98.8923 573.435 99.3446C574.448 99.8588 575.331 100.667 576.219 101.479C577.23 102.404 578.247 103.334 579.469 103.843C580.668 104.342 582.013 104.49 583.369 104.638C584.545 104.767 585.728 104.897 586.828 105.258C587.88 105.604 588.875 106.183 589.879 106.766C591.069 107.459 592.27 108.157 593.587 108.478C594.897 108.797 596.21 108.857 597.544 108.917C598.601 108.965 599.671 109.014 600.764 109.192C599.494 109.799 598.182 110.028 596.865 110.258C595.864 110.432 594.861 110.607 593.87 110.949C592.783 111.324 591.807 112.075 590.834 112.824C589.721 113.681 588.612 114.535 587.342 114.82C586.044 115.112 584.658 114.913 583.274 114.714C582.104 114.546 580.935 114.378 579.82 114.508C577.616 114.764 575.453 114.799 573.242 114.835C573.012 114.839 572.781 114.842 572.55 114.846C571.427 114.866 570.296 115.154 569.165 115.442C567.832 115.781 566.498 116.121 565.173 116.024C563.866 115.928 562.606 115.417 561.345 114.905C560.254 114.463 559.162 114.019 558.036 113.843C556.895 113.664 555.676 113.853 554.454 114.042C553.094 114.253 551.731 114.465 550.471 114.168C549.044 113.833 547.643 113.315 546.245 112.797C545.311 112.452 544.379 112.107 543.441 111.817C542.132 111.412 540.89 110.791 539.648 110.169C538.674 109.681 537.7 109.194 536.693 108.811C535.626 108.405 534.468 108.198 533.309 107.992C531.982 107.755 530.655 107.519 529.464 106.983C528.227 106.426 527.078 105.663 525.932 104.901C525.005 104.287 524.081 103.673 523.114 103.17C522.54 102.871 521.963 102.577 521.386 102.283C519.769 101.458 518.151 100.632 516.606 99.7194C515.439 99.0291 514.392 98.1508 513.349 97.2763C512.499 96.5628 511.651 95.8519 510.743 95.2476C509.995 94.7494 509.236 94.2713 508.48 93.795C507.158 92.9627 505.845 92.1357 504.613 91.2158C504.085 90.8223 503.556 90.4338 503.028 90.0465C501.568 88.9749 500.12 87.9121 498.764 86.7769C497.718 85.9022 496.868 84.833 496.027 83.7745C495.332 82.9004 494.643 82.0336 493.855 81.2898C492.783 80.2785 491.877 79.1571 490.983 78.0493C490.359 77.2767 489.741 76.5107 489.075 75.7936C488.382 75.0469 487.659 74.3549 486.946 73.6729C485.898 72.6693 484.872 71.6875 483.998 70.5853C483.278 69.6773 482.405 68.9034 481.548 68.1437C480.526 67.2381 479.527 66.3528 478.837 65.2848Z" fill="#E6E5E3"/>
<path d="M859.562 388.187C858.903 388.187 858.622 387.605 857.963 387.605C855.426 386.623 853.563 385.622 853.639 382.968C853.697 380.951 855.208 378.949 855.201 376.93C855.194 374.912 854.347 372.896 854.347 370.878C854.347 370.442 854.547 369.682 854.547 369.073C853.989 369.36 853.105 369.26 852.759 369.455C851.146 370.365 849.511 371.238 847.9 372.15C846.289 373.063 845.458 375.367 843.839 376.266C841.701 377.454 838.707 376.671 837.347 375.043C835.503 372.834 836.277 369.272 838.932 367.75C840.515 366.843 842.415 366.492 844.002 365.593C845.589 364.694 846.873 363.256 848.463 362.363C850.054 361.47 852.151 361.485 853.745 360.598C854.443 360.209 854.155 359.176 854.139 358.352C854.085 355.552 853.564 352.734 853.604 349.933C853.615 349.217 854.33 348.501 853.716 348.151C851.624 346.961 849.651 345.568 847.566 344.365C845.481 343.162 843.113 342.449 841.036 341.233C840.459 340.896 839.572 340.195 839.01 340.528C836.603 341.956 834.293 343.501 831.84 344.845C831.079 345.262 831.077 346.371 831.091 347.208C831.133 349.823 831.361 352.436 831.386 355.052C831.411 357.667 831.975 360.281 831.988 362.896C831.992 363.71 832.274 364.856 832.04 365.626C831.461 367.529 828.634 367.523 826.662 367.289C824.613 367.047 822.016 366.387 821.944 364.285C821.877 362.33 822.933 360.341 822.907 358.385C822.882 356.429 822.046 354.484 822.015 352.528C822.008 352.099 822.399 351.992 822.369 351.44C821.84 351.729 821.291 351.061 820.908 351.282C819.143 352.299 817.673 353.828 815.908 354.845C814.144 355.863 812.107 356.407 810.342 357.423C806.928 359.388 805.606 358.916 803.942 355.361C803.942 354.702 804.026 354.52 804.026 353.86C804.68 352.258 805.351 351.386 806.834 350.561C808.596 349.58 810.32 348.52 812.067 347.511C813.813 346.502 815.702 345.74 817.448 344.731C817.777 344.541 816.944 343.942 817.353 343.668C816.826 343.347 817.273 342.952 816.888 342.724C815.311 341.791 813.522 341.218 811.944 340.287C810.367 339.357 809.392 337.413 807.821 336.472C805.918 335.331 804.659 334.205 805.084 332.356C805.788 329.299 809.07 327.839 811.937 329.506C813.515 330.424 815.128 331.283 816.701 332.208C818.274 333.134 819.926 333.929 821.494 334.861C823.063 335.794 824.838 336.385 826.404 337.323C827.044 337.706 827.579 339.348 828.241 338.951C830.676 337.49 832.782 335.498 835.263 334.116C835.891 333.766 834.998 333.092 834.993 332.389C834.978 329.999 835.771 327.603 835.771 325.213C835.771 322.823 835.18 320.427 835.2 318.037C835.206 317.257 835.63 316.927 834.987 316.567C832.581 315.221 830.578 313.202 828.222 311.77C827.478 311.317 826.665 312.149 825.96 312.571C824.429 313.486 822.54 313.8 821.007 314.712C819.474 315.624 817.888 316.438 816.348 317.336C814.806 318.234 813.887 320.219 812.331 321.092C811.324 321.658 809.644 321.988 808.494 321.911C806.723 321.792 805.203 319.732 804.853 317.968C804.511 316.251 805.856 314.97 807.549 313.949C809.17 312.972 810.732 311.906 812.365 310.946C813.997 309.987 815.424 308.677 817.055 307.715C817.429 307.495 818.055 306.877 818.57 306.559C816.598 305.422 814.576 304.25 812.673 303.15C810.723 302.022 808.308 301.773 806.367 300.687C804.886 299.858 803.731 298.428 803.077 296.826C803.077 296.167 803 295.338 803 294.678C804.679 291.092 807.021 290.783 810.454 292.762C812.237 293.789 814.38 294.193 816.162 295.222C817.943 296.251 819.918 296.946 821.7 297.974C822.074 298.189 821.516 298.426 822.051 298.716C822.051 297.962 823.348 298.078 823.356 297.547C823.384 295.652 823.59 293.759 823.616 291.864C823.642 289.97 822.151 288.044 822.21 286.15C822.269 284.302 824.138 283.1 825.883 282.572C827.552 282.066 830.066 281.954 830.952 283.436C831.568 284.468 830.483 286.186 830.496 287.391C830.515 289.162 830.891 290.922 830.882 292.694C830.873 294.465 831.478 296.241 831.453 298.012C831.429 299.784 831.313 301.554 831.285 303.325C831.273 304.078 831.733 303.913 832.4 304.285C834.881 305.665 837.009 307.682 839.452 309.128C840.012 309.458 840.42 309.465 841 309.126C843.077 307.91 845.476 307.25 847.562 306.047C849.647 304.844 851.784 303.739 853.876 302.548C854.488 302.199 853.62 301.2 853.609 300.482C853.568 297.681 854.396 294.869 854.45 292.068C854.467 291.241 854.136 290.744 853.441 290.356C851.859 289.475 849.844 289.366 848.266 288.479C846.688 287.591 845.054 286.796 843.479 285.903C841.904 285.01 840.801 283.284 839.229 282.386C836.79 280.994 836.436 278.832 837.658 276.619C838.867 274.43 840.537 274.353 842.977 275.696C845.104 276.866 847.533 277.482 849.648 278.675C851.106 279.497 852.759 279.646 854.441 280.592C854.441 279.936 855.17 279.972 855.17 279.537C855.17 277.519 854.063 275.499 854.07 273.48C854.077 271.461 853.951 269.455 853.895 267.438C853.821 264.787 855.187 263.031 857.731 262.052C858.39 262.052 859.277 261 859.937 261C862.481 261.979 863.79 264.795 863.716 267.446C863.66 269.464 863.837 271.46 863.844 273.48C863.851 275.498 863.801 277.52 863.801 279.538C863.801 279.974 863.366 279.655 863.366 280.279C863.966 279.957 863.622 279.878 864.005 279.662C865.636 278.743 867.455 278.159 869.084 277.235C870.713 276.311 872.961 276.514 874.606 275.619C877.316 274.145 880.149 274.577 880.844 277.457C881.309 279.388 879.739 280.516 877.707 281.673C876.133 282.568 875.43 284.997 873.854 285.89C872.279 286.782 870.038 286.497 868.46 287.385C866.882 288.272 865.153 288.886 863.571 289.766C862.87 290.156 862.256 291.259 862.271 292.082C862.324 294.882 863.003 297.671 862.961 300.472C862.951 301.192 863.269 301.483 863.88 301.831C865.973 303.022 868.083 304.183 870.168 305.387C872.254 306.59 874.102 308.2 876.179 309.417C876.761 309.757 877.455 309.652 878.012 309.322C880.42 307.896 882.687 306.224 885.142 304.882C885.909 304.462 885.652 304.034 885.639 303.204C885.597 300.588 885.393 297.971 885.368 295.355C885.343 292.739 885.138 290.12 885.126 287.504C885.122 286.69 886.955 286.118 887.191 285.348C887.774 283.449 888.877 281.54 890.859 281.769C892.888 282.003 894.089 284.079 894.16 286.18C894.225 288.136 895.356 290.07 895.381 292.027C895.407 293.984 894.752 295.949 894.783 297.906C894.79 298.332 894.77 298.682 894.802 299.261C896.819 298.099 898.562 296.59 900.519 295.461C902.517 294.309 904.752 293.617 906.729 292.479C910.161 290.502 912.306 291.246 913.97 294.827C913.97 295.486 914.296 296.174 914.296 296.834C913.644 298.438 912.142 299.295 910.662 300.121C908.9 301.103 906.805 301.51 905.058 302.519C903.312 303.528 901.465 304.363 899.719 305.372C899.389 305.563 899.072 306.729 898.66 307.005C899.182 307.324 899.859 307.809 900.245 308.036C901.84 308.978 904.123 308.75 905.72 309.689C907.317 310.627 908.244 312.695 909.828 313.656C912.456 315.25 912.643 317.667 910.614 319.742C909.127 321.262 907.744 321.547 905.61 320.298C904.046 319.383 902.379 318.648 900.818 317.73C899.257 316.811 897.336 316.501 895.778 315.577C894.22 314.654 892.719 313.631 891.165 312.701C890.525 312.318 890.308 311.995 889.647 312.392C887.212 313.853 884.636 315.072 882.154 316.451C881.518 316.804 880.598 317.353 880.602 318.047C880.615 320.436 880.438 322.822 880.438 325.211C880.438 327.601 881.329 329.99 881.315 332.38C881.31 333.081 881.332 333.98 881.962 334.33C884.372 335.669 887.054 336.524 889.411 337.954C890.172 338.416 890.776 338.585 891.562 338.111C893.09 337.191 894.588 336.221 896.12 335.308C897.652 334.395 898.755 332.747 900.296 331.849C901.838 330.951 903.431 330.121 904.986 329.247C905.993 328.681 907.646 329.324 908.778 329.44C910.667 329.632 910.963 330.803 911.367 332.676C911.735 334.385 912.215 336.638 910.525 337.659C908.905 338.638 906.693 338.631 905.062 339.592C903.43 340.552 902.441 342.602 900.81 343.565C900.436 343.786 899.397 343.441 898.882 343.76C900.852 344.895 903.137 345.537 905.04 346.637C906.988 347.763 908.365 349.845 910.305 350.93C911.786 351.758 913.552 352.002 914.206 353.604C914.206 354.264 913.363 354.688 913.363 355.347C911.715 358.891 910.01 360.086 906.603 358.124C904.821 357.097 902.823 356.44 901.042 355.411C899.26 354.382 897.647 353.062 895.864 352.035C895.492 351.82 895.049 351.079 894.522 350.795C894.522 351.512 894.198 352.264 894.191 352.756C894.162 354.671 895.027 356.599 895.001 358.514C894.975 360.43 894.925 362.351 894.862 364.265C894.794 366.344 892.764 367.341 890.718 367.586C888.744 367.823 887.329 367.102 886.741 365.188C886.504 364.42 885.476 363.712 885.48 362.898C885.493 360.261 886.375 357.631 886.4 354.995C886.426 352.359 885.251 349.706 885.293 347.07C885.305 346.318 885.619 346.488 884.95 346.117C882.468 344.739 880.072 343.176 877.628 341.732C877.067 341.401 877.133 341.305 876.554 341.644C874.477 342.86 872.623 344.468 870.538 345.671C868.452 346.874 866.068 347.561 863.976 348.752C863.364 349.101 862.966 349.222 862.977 349.941C863.018 352.742 862.527 355.534 862.474 358.334C862.458 359.157 863.615 358.919 864.315 359.309C865.897 360.189 867.254 361.476 868.832 362.363C870.41 363.251 871.455 365.081 873.03 365.973C874.605 366.866 876.679 366.881 878.251 367.778C880.686 369.166 880.646 371.46 879.413 373.623C878.164 375.813 876.187 377.168 873.756 375.821C872.136 374.924 870.313 374.378 868.702 373.465C867.091 372.552 866.278 370.228 864.665 369.318C864.318 369.123 863.051 368.826 862.492 368.539C862.492 369.147 863.088 370.442 863.088 370.877C863.088 372.896 862.478 374.913 862.471 376.931C862.464 378.95 862.001 380.998 862.059 383.015C862.135 385.67 862.099 387.205 859.562 388.187L859.562 388.187ZM873.117 325.268C873.117 322.88 873.697 320.51 873.742 318.123C873.756 317.38 872.261 317.525 871.588 317.143C869.513 315.966 868.191 313.476 866.126 312.282C864.061 311.089 861.587 310.602 859.533 309.391C858.863 308.997 858.204 308.718 857.568 309.092C855.528 310.288 853.333 311.21 851.285 312.394C849.238 313.577 847.167 314.709 845.112 315.879C844.471 316.245 845.41 317.259 845.416 318.035C845.436 320.423 845.045 322.818 845.045 325.205C845.045 327.593 844.908 329.984 844.889 332.371C844.883 333.147 844.685 333.788 845.327 334.154C847.381 335.324 849.742 335.961 851.789 337.145C853.836 338.328 855.358 340.412 857.397 341.609C858.033 341.982 858.746 341.219 859.416 340.825C861.471 339.614 863.267 337.951 865.332 336.758C867.397 335.564 870.043 335.382 872.117 334.205C872.79 333.823 873.42 333.039 873.405 332.296C873.36 329.95 873.117 327.615 873.117 325.268V325.268Z" fill="#E6E5E3"/>
<path fill-rule="evenodd" clip-rule="evenodd" d="M108.456 278.891C108.443 279.409 108.43 279.925 108.433 280.439C108.437 281.331 108.579 282.232 108.72 283.125C108.961 284.652 109.198 286.156 108.736 287.553C108.063 289.59 106.745 291.468 105.441 293.327C105.343 293.467 105.245 293.606 105.147 293.746C104.267 295.004 103.049 296.022 101.786 297.077C101.199 297.568 100.603 298.066 100.026 298.6C98.6284 299.895 98.1999 302.399 97.8434 304.481C97.8021 304.723 97.7616 304.959 97.7208 305.187C97.5066 306.382 97.5006 307.614 97.4945 308.845C97.4886 310.067 97.4826 311.288 97.2734 312.474C97.0639 313.662 96.4559 314.78 95.8479 315.899C95.2369 317.023 94.626 318.147 94.4193 319.341C94.228 320.447 94.0238 321.552 93.8196 322.656C93.5839 323.931 93.3481 325.206 93.1322 326.484C92.9299 327.681 93.0683 328.934 93.2067 330.188C93.344 331.431 93.4813 332.675 93.2859 333.863C93.0973 335.01 92.8748 336.151 92.6522 337.291C92.4118 338.524 92.1713 339.757 91.9737 340.997C91.7846 342.184 91.3244 343.329 90.8641 344.473C90.3984 345.632 89.9326 346.79 89.7478 347.993C89.6615 348.554 89.6118 349.109 89.5636 349.646C89.4421 351 89.3302 352.248 88.6672 353.236C87.7188 354.649 86.342 356.218 84.485 357.023C83.9454 357.023 83.3293 357.103 82.7133 357.184C82.0972 357.264 81.4811 357.344 80.9413 357.344C80.7191 357.232 80.5636 356.702 80.4079 356.172C80.2391 355.596 80.0702 355.02 79.8159 354.978C78.6629 354.786 77.5185 354.543 76.374 354.3C75.2313 354.057 74.0885 353.814 72.9372 353.622C71.7851 353.431 70.6256 353.283 69.4661 353.135C68.3066 352.987 67.1471 352.839 65.9949 352.647C64.8426 352.455 63.6382 352.575 62.4337 352.695C61.2295 352.815 60.0253 352.936 58.8733 352.744C57.7199 352.552 56.5527 352.444 55.3854 352.335C54.2205 352.227 53.0556 352.119 51.9045 351.928C50.7529 351.737 49.6427 351.297 48.5325 350.858C47.421 350.418 46.3096 349.978 45.1566 349.787C44.0057 349.597 42.8785 349.263 41.7513 348.93C40.6211 348.596 39.4909 348.261 38.337 348.071C37.184 347.881 35.9608 348.115 34.7376 348.349C33.5158 348.583 32.2939 348.817 31.1419 348.628C29.9906 348.439 28.8759 348.029 27.7612 347.619C26.6437 347.208 25.5262 346.797 24.372 346.608C23.2293 346.422 22.0926 346.199 20.9559 345.975C19.7991 345.748 18.6424 345.521 17.4793 345.333C16.2622 345.135 15.0437 344.946 13.8253 344.756C12.7354 344.586 11.6455 344.416 10.5564 344.241C8.64519 343.934 6.87769 343.513 5.25601 342.778C3.62659 342.039 2.62205 340.914 1.4286 339.29C1.4286 338.347 1.07146 337.423 0.714312 336.499C0.357159 335.575 0 334.652 0 333.709C0.201539 332.624 0.805422 331.593 1.40931 330.562C2.01263 329.533 2.61595 328.503 2.81806 327.419C3.01993 326.336 3.28693 325.265 3.55393 324.195C3.82178 323.12 4.08963 322.046 4.29173 320.96C4.49402 319.873 4.52035 318.753 4.54668 317.633C4.5729 316.519 4.59911 315.404 4.79886 314.322C4.99954 313.234 4.89638 312.092 4.79322 310.949C4.69054 309.812 4.58785 308.675 4.78487 307.592C4.96879 306.581 5.55194 305.638 6.13514 304.696C6.73387 303.728 7.33265 302.76 7.49954 301.719C7.74595 300.18 8.06103 298.673 8.37784 297.158C8.48462 296.647 8.5916 296.135 8.69621 295.621C9.25976 292.852 9.35163 290.023 9.17877 287.389C9.01339 284.871 8.56305 281.983 7.16933 279.311C6.11253 277.284 5.63063 275.468 5.27339 273.432C5.17505 272.871 5.05447 272.325 4.9356 271.787C4.59501 270.245 4.26858 268.767 4.52044 267.191C4.85519 265.097 5.40712 263.066 6.36884 261.065C6.96027 259.835 7.89601 258.831 8.86371 257.794C9.37603 257.245 9.89732 256.686 10.3812 256.078C10.6582 255.731 10.9247 255.387 11.1864 255.049C12.2832 253.633 13.2963 252.325 14.6514 251.307C16.4473 249.957 18.2085 248.865 20.2473 248.123C20.8517 247.903 21.4528 247.64 22.0582 247.376C23.4907 246.75 24.9465 246.115 26.5234 246.009C27.7274 245.928 28.9144 246.418 30.1328 246.922C31.0467 247.299 31.9784 247.684 32.9483 247.841C34.0963 248.026 35.268 248.064 36.4397 248.101C37.6248 248.139 38.81 248.177 39.9707 248.368C41.1217 248.558 42.3192 248.469 43.5166 248.381C44.7202 248.292 45.9238 248.203 47.0804 248.396C48.2355 248.589 49.3223 249.187 50.409 249.785C51.4928 250.382 52.5765 250.978 53.7281 251.173C54.8801 251.368 56.0975 251.178 57.315 250.989C58.5351 250.799 59.7552 250.609 60.9094 250.806C62.0637 251.003 63.1808 251.417 64.2979 251.83C65.4123 252.243 66.5266 252.656 67.678 252.854C68.8295 253.051 70.0022 253.126 71.1749 253.201C72.35 253.276 73.5252 253.351 74.6791 253.549C75.828 253.746 76.9751 253.954 78.1222 254.162C79.2769 254.371 80.4315 254.58 81.588 254.779C82.7461 254.978 83.9115 255.134 85.077 255.29C86.2315 255.444 87.3861 255.599 88.5335 255.795C90.9534 256.209 93.1871 257.078 95.2244 257.955C97.4301 258.905 99.2903 260.33 101.02 261.82C101.472 262.21 101.954 262.588 102.44 262.97C103.829 264.06 105.261 265.184 106.172 266.699C106.903 267.914 107.175 269.413 107.454 270.955C107.61 271.818 107.769 272.694 108.012 273.543C108.544 275.399 108.5 277.16 108.456 278.891ZM102.135 282.394C102.164 281.964 102.214 281.498 102.267 281.004L102.267 281.003C102.46 279.212 102.7 276.982 102.059 274.639C101.417 272.29 99.6551 270.87 98.1007 269.617L98.1003 269.617C97.4955 269.13 96.9243 268.669 96.4892 268.206L96.1281 267.821L96.1267 267.819C94.4763 266.054 92.7693 264.228 90.1843 263.186C89.8085 263.035 89.4282 262.877 89.0434 262.717L89.0382 262.715C87.1194 261.92 84.9449 261.019 82.5865 260.596C81.4352 260.389 80.2789 260.305 79.161 260.224L79.1562 260.223L79.1533 260.223C78.0528 260.143 77.013 260.067 75.9985 259.884C74.8803 259.683 73.75 259.538 72.6571 259.399L72.656 259.399C71.597 259.263 70.5027 259.123 69.4529 258.934C68.4562 258.754 67.4704 258.448 66.4266 258.124L66.4153 258.12C65.3323 257.783 64.2118 257.435 63.0433 257.225C61.7885 257 60.5473 257.094 59.3461 257.184L59.3419 257.185C58.2653 257.267 57.248 257.344 56.3339 257.181C55.1942 256.978 54.0525 256.789 52.9113 256.6L52.8964 256.598L52.8942 256.597C51.8671 256.427 50.8399 256.257 49.8147 256.077C48.9789 255.931 48.1014 255.405 47.173 254.849L47.1717 254.848C46.0683 254.187 44.9273 253.504 43.5911 253.273C42.4407 253.074 41.2821 252.966 40.1616 252.861C39.0679 252.759 38.0351 252.662 37.011 252.488L36.9173 252.473C34.2835 252.026 31.5605 251.567 29.0693 251.986C26.8553 252.36 25.007 253.631 23.2193 254.86L23.2181 254.861L23.1694 254.894C22.7656 255.172 22.3651 255.447 21.9652 255.706C20.1023 256.912 18.3599 258.624 16.4822 261.096C15.3326 262.608 14.8642 264.13 14.4881 265.352L14.4857 265.36C14.3301 265.866 14.1833 266.343 14.0095 266.75L13.8621 267.095C13.0822 268.914 12.4089 270.485 12.9295 272.871C13.0251 273.31 13.0172 273.929 13.0085 274.583L13.0084 274.584C12.9911 275.936 12.9694 277.619 13.7952 279.281C14.1324 279.959 14.6228 280.591 15.0972 281.203L15.0986 281.205L15.099 281.205C15.8803 282.213 16.618 283.164 16.6622 284.189C16.6935 284.906 16.2294 285.807 15.7381 286.76L15.7367 286.763C15.2128 287.779 14.6714 288.83 14.5406 289.99C14.4042 291.203 14.4582 292.38 14.5058 293.418L14.5059 293.42L14.506 293.423C14.5502 294.393 14.5919 295.309 14.4605 295.986C14.2496 297.074 14.3191 298.135 14.3864 299.16C14.4412 299.991 14.4926 300.775 14.3849 301.48C14.2625 302.281 14.1662 303.091 14.0731 303.875L14.0711 303.892L14.0679 303.919C13.954 304.877 13.8363 305.867 13.6723 306.809C13.4961 307.826 12.8985 308.864 12.2652 309.962L12.2644 309.964C11.5456 311.212 10.8025 312.502 10.541 313.98C10.3123 315.277 10.1872 316.586 10.0662 317.852C9.94411 319.131 9.82843 320.339 9.61522 321.538C9.36437 322.95 9.46086 324.347 9.55417 325.699L9.55436 325.702C9.64055 326.945 9.72182 328.119 9.52979 329.203L9.50899 329.32V329.438C9.50899 330.069 9.31128 330.786 9.10185 331.544L9.10117 331.547C8.85338 332.445 8.59718 333.373 8.59718 334.368V334.794L8.84138 335.143C11.13 338.41 14.7172 339.257 17.9002 339.793C19.0219 339.982 20.1257 340.289 21.2942 340.613L21.2966 340.614C22.47 340.939 23.6839 341.276 24.9328 341.489C26.0907 341.686 27.2747 341.954 28.4198 342.214L28.4225 342.215C29.5868 342.478 30.7906 342.751 32.0036 342.96C33.3423 343.19 34.6761 343.102 35.9652 343.017L35.9748 343.016L35.9889 343.015C37.1726 342.937 38.2906 342.863 39.3151 343.04C40.5163 343.248 41.7152 343.469 42.9141 343.69L42.9159 343.69C44.0829 343.906 45.2503 344.121 46.4192 344.324C47.5518 344.52 48.6628 344.808 49.8389 345.113L49.845 345.114C51.0169 345.418 52.2287 345.731 53.4642 345.946C54.6649 346.156 55.8821 346.337 57.059 346.512L57.0809 346.515C58.2385 346.687 59.4343 346.865 60.5974 347.068C61.7358 347.266 62.8504 347.542 64.0306 347.834L64.0326 347.834C65.2064 348.124 66.4202 348.424 67.6519 348.639C68.7766 348.836 69.8795 349.123 71.0469 349.427L71.0621 349.431L71.0788 349.435C72.25 349.74 73.4609 350.055 74.6966 350.27C74.8024 350.289 74.9052 350.297 75.0039 350.297C75.4541 350.297 75.8265 350.13 76.0703 350.018H76.2231C77.0355 350.018 77.6169 349.678 78.0414 349.43L78.0474 349.426C78.2198 349.326 78.4131 349.213 78.4883 349.213H78.7824L79.0496 349.091C82.6996 347.433 83.5966 345.401 84.1323 341.743C84.3237 340.439 84.5756 339.082 84.8423 337.645L84.8449 337.631C85.0203 336.686 85.1991 335.722 85.3662 334.744C85.5201 333.843 86.0497 332.885 86.6107 331.871C87.2689 330.681 87.9493 329.452 88.2094 328.031C88.4612 326.654 88.2302 325.28 88.0064 323.952L88.0064 323.952C87.8087 322.778 87.622 321.669 87.8008 320.723C88.0068 319.633 88.3622 318.56 88.7387 317.424L88.7427 317.412C89.1229 316.264 89.516 315.077 89.7488 313.848C89.9915 312.568 90.1397 311.296 90.2826 310.066L90.2836 310.058C90.4167 308.915 90.5424 307.835 90.7362 306.787C90.946 305.65 91.3399 304.519 91.721 303.426C92.1194 302.282 92.5315 301.099 92.7368 299.899C92.8188 299.418 92.8778 298.904 92.9398 298.359L92.9402 298.355C93.0928 297.022 93.3017 295.197 93.9378 294.58C94.7056 293.833 95.7701 293.313 96.7998 292.81L96.8014 292.809C98.1419 292.155 99.5278 291.478 100.335 290.248C101.788 288.035 101.952 285.367 102.097 283.013V283.013L102.135 282.394ZM96.3892 271.713L96.3976 271.72L96.399 271.721C97.7537 272.813 99.0334 273.845 99.4449 275.351C99.9511 277.202 99.7504 279.068 99.5731 280.715L99.5721 280.724C99.5162 281.244 99.4633 281.734 99.4317 282.217L99.392 282.848L99.3919 282.849C99.2615 284.966 99.1267 287.154 98.0681 288.767C97.6685 289.376 96.6687 289.865 95.6102 290.381C94.4454 290.95 93.1257 291.594 92.0472 292.642C90.718 293.933 90.4681 296.122 90.2477 298.053L90.2435 298.089C90.1869 298.582 90.1334 299.048 90.0655 299.444C89.8981 300.423 89.5404 301.451 89.1613 302.538C88.7469 303.728 88.3186 304.958 88.071 306.297C87.8614 307.431 87.7248 308.604 87.5927 309.739L87.5909 309.754L87.5903 309.76C87.4529 310.941 87.3108 312.163 87.0862 313.345C86.8859 314.403 86.5362 315.458 86.1657 316.576L86.165 316.578C85.7778 317.747 85.3774 318.956 85.1378 320.223C84.8698 321.641 85.1057 323.044 85.334 324.4C85.5276 325.549 85.7102 326.635 85.5435 327.546C85.3633 328.53 84.8176 329.517 84.2399 330.562L84.2381 330.565C83.5928 331.731 82.926 332.937 82.695 334.29C82.5373 335.214 82.3684 336.124 82.2028 337.018L82.1805 337.138L82.1803 337.139C81.9078 338.607 81.6504 339.993 81.4512 341.352C80.9912 344.493 80.389 345.47 78.1446 346.53C77.5098 346.607 77.0345 346.885 76.6727 347.096L76.6702 347.098C76.5462 347.17 76.4102 347.25 76.3145 347.29C75.7316 347.199 75.228 347.429 74.9525 347.556L74.9309 347.566C73.8792 347.37 72.8411 347.1 71.7467 346.815C70.5725 346.509 69.3583 346.193 68.1191 345.976C66.9805 345.778 65.8657 345.502 64.6852 345.21L64.6839 345.21C63.5101 344.92 62.2962 344.62 61.0642 344.405C59.8602 344.195 58.6391 344.013 57.4581 343.838C56.2976 343.665 55.0977 343.487 53.9303 343.283C52.8007 343.087 51.6927 342.8 50.5201 342.496L50.5137 342.494C49.3384 342.19 48.1233 341.875 46.8837 341.66C45.7579 341.464 44.6338 341.258 43.5098 341.051L43.4081 341.032C42.1984 340.809 40.989 340.586 39.7771 340.377C39.1355 340.266 38.4955 340.228 37.8608 340.228C37.1641 340.228 36.4734 340.273 35.7956 340.319L35.7864 340.319C34.6028 340.397 33.4858 340.471 32.4628 340.295C31.32 340.099 30.1508 339.834 29.0205 339.578C27.8398 339.31 26.6192 339.033 25.3887 338.824C24.2754 338.634 23.1798 338.33 22.0204 338.008C20.8364 337.68 19.6123 337.34 18.3516 337.127C15.6233 336.667 13.0337 336.072 11.3322 333.954C11.3917 333.432 11.5486 332.863 11.7125 332.268L11.714 332.262C11.9522 331.4 12.1979 330.51 12.2176 329.56C12.4429 328.188 12.3487 326.83 12.2576 325.515L12.2571 325.507C12.1715 324.266 12.0906 323.093 12.2833 322.01C12.5154 320.704 12.6417 319.384 12.7634 318.109C12.8848 316.839 12.9997 315.64 13.2099 314.449C13.3887 313.438 13.984 312.404 14.6145 311.31L14.6147 311.31L14.6153 311.308C15.3375 310.055 16.0846 308.758 16.3423 307.271C16.52 306.248 16.6432 305.212 16.7619 304.21L16.7627 304.203C16.8536 303.438 16.9475 302.647 17.0636 301.888C17.2156 300.891 17.152 299.922 17.0904 298.983L17.0902 298.981C17.0317 298.088 16.9764 297.245 17.121 296.5C17.3138 295.506 17.2647 294.433 17.2125 293.296C17.1675 292.311 17.121 291.293 17.2337 290.292C17.3084 289.626 17.7143 288.838 18.1441 288.004L18.1463 287.999C18.7489 286.831 19.4316 285.506 19.3696 284.072C19.2879 282.189 18.1535 280.726 17.2416 279.55L17.2412 279.55C16.8293 279.019 16.4405 278.517 16.2228 278.079C15.6872 277.001 15.7027 275.79 15.7182 274.618C15.7288 273.805 15.7386 273.037 15.5772 272.297C15.2407 270.754 15.6358 269.832 16.3533 268.159L16.5037 267.807C16.732 267.271 16.8989 266.729 17.0755 266.156L17.0783 266.146C17.4242 265.022 17.7822 263.86 18.6415 262.729C20.3238 260.515 21.8484 259.004 23.4403 257.974C23.8769 257.691 24.3147 257.391 24.7558 257.087L24.7562 257.087C26.3012 256.024 27.8986 254.926 29.5214 254.652C31.5552 254.308 34.0419 254.729 36.4477 255.135L36.4636 255.138L36.5581 255.154C37.6816 255.344 38.8138 255.45 39.9086 255.553C41.0265 255.657 42.0827 255.756 43.1283 255.937C43.9666 256.082 44.8461 256.609 45.7773 257.166L45.778 257.167C46.8773 257.825 48.0141 258.506 49.3444 258.74C50.3798 258.922 51.4164 259.094 52.453 259.265L52.4531 259.265C53.5887 259.453 54.7242 259.641 55.8579 259.842C57.1066 260.065 58.3421 259.972 59.5382 259.881L59.5468 259.881L59.5606 259.88C60.6356 259.799 61.6522 259.723 62.5631 259.886C63.5664 260.066 64.5588 260.375 65.609 260.701L65.618 260.704C66.6956 261.039 67.8093 261.385 68.9712 261.595C70.0894 261.796 71.2197 261.941 72.3126 262.08L72.3137 262.08C73.3726 262.216 74.467 262.355 75.5169 262.545C76.6723 262.753 77.8326 262.838 78.9549 262.919L78.9589 262.92C80.0571 262.999 81.094 263.075 82.1068 263.256C84.1784 263.628 86.123 264.434 88.0037 265.214C88.3965 265.377 88.7848 265.538 89.1688 265.693C91.1981 266.511 92.6305 268.043 94.1468 269.665L94.512 270.055C95.0732 270.653 95.742 271.192 96.3892 271.713Z" fill="#E6E5E3"/>
</g>
</svg>
