<svg width="48" height="48" viewBox="0 0 48 48" fill="none" xmlns="http://www.w3.org/2000/svg">
<rect x="1" y="1" width="46" height="46" rx="7" fill="#FFFDFD" stroke="#E6E5E3" stroke-width="2"/>
<path d="M18.4615 20.4167H29.5385M18.4615 24.0833H24M12 25.9281C12 27.885 13.3827 29.5883 15.3323 29.873C16.7212 30.0758 18.1258 30.2306 19.5444 30.3356C19.9754 30.3675 20.3694 30.592 20.6092 30.9491L24 36L27.3908 30.9492C27.6305 30.592 28.0245 30.3676 28.4555 30.3357C29.8741 30.2307 31.2788 30.0759 32.6677 29.8731C34.6173 29.5885 36 27.8851 36 25.9282V18.5718C36 16.6149 34.6173 14.9116 32.6677 14.6269C29.8388 14.2139 26.9447 14 24.0004 14C21.0557 14 18.1614 14.2139 15.3323 14.627C13.3827 14.9117 12 16.615 12 18.5719V25.9281Z" stroke="#99BB44" stroke-width="2" stroke-linecap="round" stroke-linejoin="round"/>
</svg>
