<svg width="24" height="19" viewBox="0 0 24 19" fill="none" xmlns="http://www.w3.org/2000/svg">
<path d="M1.05695 9.86539C0.981086 9.63048 0.981014 9.37617 1.05675 9.14122C2.58147 4.41102 6.90522 1 12.001 1C17.0943 1 21.4164 4.40785 22.943 9.13462C23.0189 9.36952 23.019 9.62384 22.9433 9.85879C21.4185 14.589 17.0948 18 11.999 18C6.90566 18 2.58357 14.5922 1.05695 9.86539Z" stroke="#99BB44" stroke-width="2" stroke-linecap="round" stroke-linejoin="round"/>
<path d="M15.2947 9.5C15.2947 11.3778 13.8197 12.9 12.0001 12.9C10.1805 12.9 8.70542 11.3778 8.70542 9.5C8.70542 7.62223 10.1805 6.1 12.0001 6.1C13.8197 6.1 15.2947 7.62223 15.2947 9.5Z" stroke="#99BB44" stroke-width="2" stroke-linecap="round" stroke-linejoin="round"/>
</svg>
