<svg width="900" height="608" viewBox="0 0 900 608" fill="none" xmlns="http://www.w3.org/2000/svg">
<g opacity="0.7">
<path d="M672.336 476.919C671.694 477.15 671.352 478.112 670.719 478.367C665.052 480.649 665.578 480.191 668.696 484.625C671.029 487.942 672.557 491.389 673.208 495.69C673.707 498.988 674.777 502.117 674.703 505.321C674.628 508.607 673.428 511.679 672.762 514.865C672.1 518.031 672.579 521.571 671.346 524.639C670.156 527.601 666.604 529.394 664.892 532.266C663.269 534.988 662.354 538.133 660.271 540.774C658.094 543.535 656.315 546.591 653.878 549.1C651.439 551.61 647.941 552.913 645.275 555.198C642.624 557.468 641.259 561.354 638.417 563.429C635.601 565.484 632.452 567.159 629.48 569.049C626.538 570.919 623.879 573.383 620.815 575.117C617.572 576.951 613.405 576.958 610.028 578.411C606.615 579.879 603.063 580.263 599.449 581.084C595.899 581.891 592.575 583.764 588.77 583.699C587.996 583.686 587.241 585.339 586.952 586.232C585.099 591.95 586.968 594.508 592.978 596.537C596.22 597.631 598.956 600.261 602.21 600.935C605.539 601.624 608.932 602.353 612.27 602.595C615.633 602.838 619.063 602.058 622.431 601.84C625.767 601.624 628.884 600.059 632.22 599.384C635.471 598.726 638.91 598.839 642.158 597.74C645.281 596.684 648.587 595.836 651.706 594.366C654.822 592.897 656.998 589.784 659.922 588.133C662.918 586.441 666.646 586.089 669.43 584.203C672.272 582.277 675.488 580.807 678.098 578.673C680.748 576.506 682.095 572.908 684.493 570.522C686.909 568.118 690.468 566.745 692.617 564.113C694.763 561.486 695.627 557.878 697.493 555.018C699.338 552.193 701.852 549.725 703.412 546.668C705.201 543.164 705.456 539.273 706.409 535.797C707.43 532.068 707.338 528.534 707.398 524.85C707.459 521.101 709.516 517.113 708.582 513.425C707.687 509.894 705.729 506.408 703.923 502.947C702.466 500.156 699.148 499.235 696.732 497.438C694.347 495.664 692.512 493.011 689.93 491.412C685.704 488.793 683.324 485.943 682.425 480.844C681.275 474.323 679.313 474.017 672.336 476.919L672.336 476.919Z" fill="#E6E5E3"/>
<path d="M889.112 69.1393C888.453 71.8072 889.052 74.747 888.394 77.4149C888.214 77.8123 888.385 78.3703 888.244 78.7813C887.403 81.2425 884.276 84.3808 882.66 88.4826C881.341 91.8334 879.986 95.395 878.442 98.6147C876.519 102.627 875.272 106.517 873.462 108.402C871.434 110.513 869.87 113.226 867.645 115.172C865.427 117.112 861.925 117.459 859.538 119.169C857.129 120.895 855.645 124.08 853.093 125.502C850.496 126.95 847.15 126.845 844.435 127.907C841.667 128.99 838.82 129.296 835.962 129.902C833.074 130.515 830.373 131.761 827.425 131.809C824.217 131.861 821.077 131.696 817.967 131.153C814.85 130.608 811.528 130.757 808.456 129.941C804.82 128.976 801.19 127.815 797.634 126.612C795.041 125.734 792.327 124.943 789.927 123.705C787.518 122.463 786.099 119.569 783.86 118.019C781.644 116.486 779.547 114.912 777.471 113.131C775.301 111.268 772.531 109.927 770.767 107.521C769.077 105.215 768.044 102.403 766.707 99.7478C765.409 97.1698 764.068 94.5697 763.086 91.7993C762.108 89.0415 760.819 86.3371 760.138 83.5219C759.438 80.628 759.398 77.623 758.993 74.8107C758.622 72.2316 759.318 69.1555 759.489 65.7367C759.632 62.8597 758.045 59.5782 758.508 56.444C758.949 53.4512 760.442 50.5354 761.121 47.583C761.83 44.5003 761.786 41.2094 762.697 38.4701C763.773 35.2335 766.858 33.1655 768.126 30.8741C769.747 27.9442 770.685 24.7236 772.807 22.3495C775.019 19.8738 777.935 18.3366 780.584 16.5206C783.295 14.6625 785.94 12.921 788.992 11.8133C792.044 10.7056 795.213 10.6521 798.488 10.3552C801.678 10.066 804.988 8.40576 808.279 8.94205C811.17 9.41304 813.45 11.7662 816.022 12.8461C818.653 13.9509 820.833 15.3566 823.085 17.1447C825.246 18.8601 826.923 20.8081 828.693 23.1942C829.988 24.9405 831.778 26.4094 832.971 28.3292C833.587 27.901 834.005 26.6948 834.656 26.2837C837.191 24.6831 840.017 23.7696 842.587 22.8913C845.356 21.9446 848.228 21.7382 851.019 21.5926C853.84 21.4453 856.67 21.5735 859.494 22.2038C862.179 22.803 864.696 24.1104 867.367 25.3764C870.286 26.7601 872.809 28.359 875.144 30.1617C877.648 32.0948 880.688 33.4569 882.542 35.8479C884.42 38.2713 885.824 41.1962 887.054 44.0643C888.232 46.8103 888.649 49.9541 889.252 53.0847C889.811 55.9858 890.432 59.0384 890.513 62.2509C890.571 64.5699 889.271 66.8094 889.112 69.1393L889.112 69.1393ZM850.981 92.0983C851.241 91.9835 854.741 90.043 858.78 87.2599C860.831 85.8468 862.64 83.8113 864.762 81.3931C866.496 79.4163 869.694 78.1404 871.106 75.362C872.306 73.0012 873.274 70.0943 874.019 67.0767C874.541 64.1479 873.796 61.2092 873.461 58.5517C873.103 55.7114 871.5 53.5097 870.152 51.0407C868.858 48.6691 868.594 45.3256 866.377 43.354C863.477 40.7757 859.527 40.6868 856.169 39.9882C852.837 39.2951 849.295 38.1347 845.602 39.6413C842.353 40.9669 839.002 43.2078 837.12 46.0722C835.248 48.9224 834.869 52.8928 834.657 56.3353C834.448 59.7318 835.285 63.2099 836.988 66.285C838.309 68.6713 840.472 70.5736 841.83 72.9374C843.189 75.302 844.168 77.881 845.538 80.2385C846.908 82.5959 848.579 84.7837 849.936 87.1493C851.116 89.207 849.813 89.9806 850.981 92.0983L850.981 92.0983ZM787.793 76.1896C790.735 74.2926 793.029 71.3975 795.577 69.7591C798.338 67.9841 800.746 65.9386 803.487 64.1652C806.04 62.5137 809.715 62.3809 812.635 60.4679C815.925 58.3114 818.261 54.6595 819.636 50.8684C820.809 47.634 820.198 44.0396 819.597 40.8742C818.971 37.5757 816.853 35.1522 814.683 32.7049C812.511 30.2552 810.634 26.8832 807.306 26.0805C803.961 25.2734 800.572 27.0941 797.355 27.7784C794.099 28.471 790.474 28.4766 787.773 30.5239C785.19 32.4816 782.334 34.9259 780.638 37.9672C779.092 40.7394 778.862 43.6827 778.28 46.0335C777.6 48.7762 777.669 51.4267 778.02 54.2443C778.325 56.6822 779.864 59.0189 780.729 62.0006C781.33 64.0689 782.153 66.5493 783.666 68.9509C785.129 71.2727 786.404 74.4425 787.793 76.1896ZM797.965 85.087C802.064 88.646 804.298 90.6602 807.47 91.682C809.901 92.4649 812.429 92.7326 814.91 93.3597C817.388 93.9862 819.442 96.3962 821.934 96.9511C824.803 97.5899 827.885 97.7648 830.823 98.0237C832.545 98.1756 834.975 94.2235 836.598 94.1764C835.031 91.4304 832.729 89.2052 831.178 86.4875C829.612 83.7438 829.716 80.0649 828.165 77.3461C826.6 74.6042 824.027 73.2792 822.474 70.5587C819.812 72.2511 817.076 72.5229 814.38 74.237C811.729 75.922 808.763 77.1626 806.054 78.8852C803.414 80.5634 800.685 83.3576 797.965 85.087Z" fill="#E6E5E3"/>
<path fill-rule="evenodd" clip-rule="evenodd" d="M161.97 51.9085C159.901 50.3973 159.991 49.6561 160.199 47.9341C160.293 47.1546 160.411 46.1742 160.365 44.8303C160.291 42.7054 160.47 40.2913 161.51 37.6159C162.298 35.5865 163.667 33.6393 165.479 31.459C166.888 29.7647 168.591 28.104 170.795 26.3954C171.209 26.0749 171.625 25.7396 172.051 25.3967C173.453 24.2682 174.957 23.0579 176.782 22.0263C178.444 21.0873 180.121 20.3582 182.066 19.5133C182.447 19.3475 182.839 19.1772 183.243 19C185.024 20.0555 184.797 20.7248 184.34 22.0745C184.085 22.8264 183.759 23.7894 183.668 25.148C183.581 26.4555 183.285 27.8886 182.972 29.402C182.83 30.0931 182.684 30.8009 182.552 31.5212C182.425 32.2169 182.337 32.941 182.248 33.6753C182.075 35.0968 181.898 36.5566 181.425 37.9234C180.937 39.334 180.05 40.5908 179.173 41.8331C178.787 42.3809 178.402 42.9258 178.055 43.4799C176.908 45.3078 175.644 47.0108 173.953 48.3575C172.338 49.6433 170.378 50.2831 168.175 50.9021L167.897 50.9804C166.097 51.4881 164.234 52.0136 161.97 51.9085ZM159.188 59.0321C158.254 60.2453 157.868 60.3883 156.502 59.6958C154.931 58.8991 154.944 58.35 154.967 57.3946C154.985 56.6325 155.009 55.6119 154.24 54.0009C153.479 52.4065 152.395 50.6388 150.951 48.6483C150.812 48.456 150.671 48.2606 150.528 48.0626C149.534 46.6817 148.45 45.1758 147.024 43.7139C145.666 42.3219 144.054 40.9827 142.274 39.5493C141.823 39.1854 141.387 38.8164 140.949 38.4454C139.896 37.5544 138.831 36.6517 137.496 35.78C139.217 31.0653 139.294 30.9774 142.984 27.5755C144.566 28.6891 145.62 29.9018 146.726 31.1723L146.726 31.1724C147.101 31.6044 147.483 32.0432 147.893 32.4869C148.52 33.1654 149.196 33.7916 149.862 34.4091C151.058 35.5177 152.223 36.5979 153.022 37.901C153.913 39.3537 154.406 40.9541 154.881 42.4921L154.881 42.4922C155.135 43.3145 155.383 44.1189 155.683 44.8735C156.103 45.9271 156.609 46.9164 157.094 47.8635L157.094 47.8635C157.786 49.2138 158.433 50.4781 158.721 51.7202C159.051 53.145 159.459 54.1048 159.779 54.8554C160.432 56.3927 160.713 57.0528 159.188 59.0321ZM178.881 54.574C179.452 54.6015 180.031 54.6293 180.614 54.6293C183.075 54.6293 185.347 54.7967 187.511 55.4938C189.779 56.2244 191.827 57.279 193.709 58.6885L193.79 58.7495C195.614 60.1161 197.506 61.5335 198.901 63.4611C199.813 64.7223 200.311 66.2476 200.822 67.8144C201.057 68.5348 201.295 69.2639 201.577 69.9802C201.827 70.613 202.113 71.2419 202.401 71.8779C203.073 73.3559 203.761 74.8718 204.052 76.561C204.304 78.0255 204.218 79.55 204.129 81.1182C204.083 81.9365 204.035 82.7667 204.035 83.6065C204.035 84.5066 204.192 85.4459 204.354 86.4145C204.561 87.6583 204.776 88.9502 204.679 90.269C204.591 91.4526 204.318 92.6511 204.04 93.8729C203.819 94.8414 203.595 95.8245 203.458 96.8263C203.421 97.0891 203.386 97.3528 203.35 97.6171C203.091 99.5156 202.828 101.451 202.439 103.383C202.159 104.772 201.741 106.134 201.322 107.497C201.09 108.253 200.858 109.009 200.649 109.77C200.483 110.376 200.327 110.982 200.17 111.587C199.771 113.132 199.374 114.666 198.834 116.142C198.516 117.011 198.278 117.912 198.041 118.807C197.699 120.095 197.362 121.37 196.797 122.513C196.023 124.079 194.995 125.494 194.006 126.856C193.702 127.275 193.401 127.689 193.113 128.101C191.792 129.986 190.27 131.644 188.687 133.071C187.02 134.575 185.019 135.435 183.04 136.285L182.962 136.318C180.214 137.5 177.817 137.892 175.518 137.884C172.665 137.874 170.306 137.219 168.169 136.097C166.838 135.398 165.337 135.26 163.852 135.123C163.223 135.066 162.598 135.008 161.989 134.909C159.911 134.568 157.966 134.559 155.888 134.899C155.32 134.992 154.739 135.054 154.157 135.116C152.641 135.277 151.11 135.44 149.742 136.159C147.605 137.281 145.213 137.727 142.359 137.737C142.063 137.738 141.761 137.743 141.455 137.747C139.388 137.779 137.109 137.814 134.716 136.785C132.641 135.893 130.567 134.867 128.83 133.467C127.579 132.46 126.609 131.115 125.629 129.758C125.271 129.262 124.911 128.764 124.537 128.28C123.52 126.968 122.771 125.469 121.997 123.918C121.762 123.447 121.524 122.972 121.276 122.496C121.023 122.009 120.759 121.524 120.493 121.037C119.713 119.604 118.918 118.145 118.334 116.527C117.598 114.487 116.963 112.361 116.406 110.134C116.184 109.245 115.87 108.363 115.552 107.472C115.114 106.243 114.671 104.996 114.452 103.69C114.176 102.039 114.014 100.331 113.851 98.6077C113.8 98.0765 113.75 97.5438 113.696 97.0109C113.558 95.6485 113.534 94.2593 113.511 92.8594C113.496 92.0106 113.482 91.1577 113.442 90.3045C113.412 89.6673 113.376 89.0275 113.34 88.3854C113.25 86.804 113.16 85.2091 113.16 83.6065C113.16 81.8992 113.48 80.3098 113.783 78.8031C113.941 78.0214 114.093 77.262 114.195 76.5199C114.332 75.5163 114.373 74.5244 114.412 73.5667C114.474 72.0451 114.533 70.6098 114.97 69.3511C115.831 66.8671 117.088 64.7133 118.351 62.9374C119.842 60.8416 121.657 59.1161 123.508 57.849C124.981 56.8403 126.711 56.4864 128.389 56.1432C129.05 56.0078 129.704 55.8741 130.33 55.7026C131.131 55.4833 131.917 55.2044 132.692 54.9296C134.253 54.3758 135.768 53.8385 137.264 53.8385C139.475 53.8385 141.329 54.2115 142.862 54.5199C142.94 54.5355 143.016 54.5509 143.092 54.566C145.442 55.037 147.18 55.8195 148.541 56.7248C149.549 57.3952 150.377 58.1746 151.21 58.9578C151.775 59.4895 152.342 60.023 152.968 60.5253C154.74 61.9465 156.805 63.2812 158.939 63.2812C161.074 63.2812 163.304 62.1526 165.076 60.7315C166.139 59.8787 167.426 59.16 168.799 58.3929C169.169 58.186 169.546 57.9755 169.926 57.7579C170.48 57.4412 171.016 57.0532 171.562 56.6585C172.576 55.9245 173.622 55.1676 174.871 54.8036C176.116 54.441 177.472 54.5063 178.881 54.574Z" fill="#E6E5E3"/>
<path fill-rule="evenodd" clip-rule="evenodd" d="M151.646 371.786C152.599 370.213 153.52 368.691 154.661 368.599C158.252 368.307 161.679 370.248 163.149 371.758C164.44 373.083 164.687 375.322 160.852 379.411C160.351 379.945 159.855 380.51 159.35 381.085C158.035 382.582 156.668 384.139 155.046 385.342C153.68 386.357 152.097 387.149 150.518 387.939C149.6 388.397 148.684 388.856 147.813 389.356C146.38 390.18 144.825 390.776 143.29 391.364C142.263 391.758 141.246 392.148 140.279 392.6C139.107 393.149 138.208 393.687 137.354 394.198C136.323 394.816 135.358 395.393 134.058 395.901C134.036 395.356 134.022 394.881 134.011 394.461C133.926 391.413 133.921 391.235 131.089 388.16C130.777 387.821 130.49 387.425 130.188 387.008C129.103 385.51 127.825 383.745 124.494 383.424C124.718 382.762 124.924 382.136 125.124 381.53C125.827 379.393 126.454 377.49 127.548 375.008C128.136 373.677 128.48 372.19 128.825 370.699C129.271 368.776 129.718 366.847 130.688 365.239C131.735 363.504 133.5 362.31 135.226 361.142C136.438 360.321 137.631 359.514 138.544 358.541C141.953 354.906 143.674 355.479 144.597 358.867C144.968 360.225 144.762 361.965 144.543 363.81C144.392 365.088 144.234 366.417 144.259 367.704C144.292 369.502 144.559 371.279 144.796 372.855C145.004 374.235 145.188 375.462 145.173 376.415C145.13 379.098 147.299 377.045 149.835 374.383C150.487 373.7 151.072 372.734 151.646 371.786ZM125.247 389.331C127.644 391.574 128.742 393.651 129.128 396.601C129.482 399.309 129.531 402.049 128.445 405.229C128.144 406.11 127.918 407.071 127.684 408.067C127.232 409.988 126.75 412.04 125.64 413.899C125.397 414.304 125.153 414.719 124.904 415.141C123.674 417.226 122.346 419.479 120.734 421.595C119.808 422.81 118.559 423.829 117.279 424.872C116.157 425.787 115.012 426.72 114.043 427.821C112.91 429.106 111.639 430.309 110.344 431.535C109.441 432.389 108.527 433.255 107.639 434.167C107.295 434.521 106.985 434.914 106.695 435.33C105.988 434.832 105.3 434.248 104.397 433.021C103.233 431.439 102.918 430.534 102.554 429.486L102.554 429.484C102.143 428.302 101.677 426.963 100.157 424.898C99.5054 424.011 98.2559 423.82 97.3692 424.472C96.4816 425.123 96.2911 426.37 96.9437 427.256C98.1074 428.837 98.4221 429.742 98.7865 430.791C99.1969 431.973 99.663 433.313 101.184 435.379C102.568 437.26 103.69 438.111 104.681 438.783C104.057 439.885 103.38 440.949 102.485 441.803C101.374 442.863 100.065 443.741 98.745 444.627C97.5224 445.446 96.291 446.272 95.2008 447.254C94.0518 448.288 92.7427 449.156 91.4274 450.028C90.21 450.835 88.9874 451.645 87.8814 452.594C86.7697 453.549 85.8578 454.749 84.9444 455.951C84.5077 456.526 84.0707 457.101 83.6113 457.65C82.9697 457.179 82.3267 456.596 81.5056 455.479C80.3423 453.899 80.0277 452.994 79.6636 451.946L79.6629 451.944C79.2519 450.762 78.7859 449.422 77.2659 447.356C76.6133 446.469 75.3652 446.279 74.4777 446.93C73.59 447.581 73.3996 448.827 74.0517 449.714C75.2142 451.294 75.5292 452.199 75.8934 453.245L75.8948 453.25C76.3053 454.431 76.7713 455.772 78.2918 457.838C79.1436 458.995 79.8954 459.761 80.5791 460.337C79.7076 460.875 78.7682 461.33 77.8294 461.785C76.461 462.448 75.0939 463.11 73.9408 464.029C72.6758 465.037 71.351 465.957 70.0315 466.874C68.8804 467.674 67.7334 468.471 66.6337 469.321C65.5386 470.167 64.4731 471.037 63.4144 471.902C62.1417 472.942 60.8787 473.974 59.5855 474.946C58.3575 475.869 57.4031 477.138 56.4589 478.393C55.516 479.647 54.5833 480.886 53.3986 481.755C52.1195 482.692 50.4808 483.097 48.8685 483.495C47.3287 483.875 45.8129 484.249 44.6578 485.076C43.3616 486.004 42.3306 487.247 41.3238 488.461C40.3445 489.642 39.3881 490.795 38.2326 491.604C36.7923 492.612 35.3479 493.51 33.9604 494.374C32.8038 495.093 31.6866 495.788 30.6442 496.501C29.1284 497.539 27.4726 498.175 25.9314 498.768C24.6194 499.272 23.3905 499.745 22.4018 500.405C20.3408 501.782 18.3109 500.394 19.5522 498.25C20.1403 497.234 20.6517 496.064 21.1974 494.816C21.8532 493.316 22.5584 491.703 23.5058 490.108C24.2114 488.92 25.0558 487.743 25.9325 486.52C26.8175 485.286 27.7352 484.006 28.5761 482.624C29.2731 481.478 29.913 480.254 30.5675 479.002C31.3081 477.586 32.0676 476.134 32.9499 474.717C33.7113 473.495 34.966 472.552 36.2409 471.594C37.5382 470.619 38.8564 469.629 39.6974 468.312C40.4468 467.139 41.1241 465.902 41.8084 464.652C42.5679 463.266 43.336 461.863 44.221 460.514C45.2 459.021 46.2212 457.539 47.2512 456.044C47.9297 455.059 48.6121 454.069 49.2888 453.066C49.4256 452.864 49.552 452.654 49.6744 452.441C50.3078 453.178 50.8262 453.695 51.3317 454.196L51.3326 454.197C52.1133 454.972 52.8511 455.703 54.1019 457.403C54.4277 457.846 54.9032 458.115 55.4076 458.192C55.9121 458.269 56.4464 458.154 56.8897 457.829C57.7773 457.178 57.9678 455.931 57.3152 455.045C55.8803 453.095 54.9967 452.218 54.1416 451.37C53.381 450.616 52.6575 449.895 51.4645 448.288C51.9387 447.065 52.4508 445.862 53.1853 444.808C54.014 443.619 54.6993 442.319 55.3853 441.019C56.1183 439.629 56.852 438.238 57.7624 436.978C58.4845 435.978 59.1911 434.962 59.8973 433.946C60.9176 432.479 61.937 431.013 63.0011 429.6C63.9514 428.337 65.1136 427.237 66.2699 426.142C67.3325 425.136 68.3901 424.134 69.2741 423.016C70.0768 422.001 70.7959 420.922 71.5038 419.842C71.7171 420.088 71.9385 420.359 72.1775 420.684C73.6124 422.634 74.496 423.511 75.3511 424.358L75.352 424.359C76.1327 425.133 76.8705 425.865 78.1213 427.565C78.4471 428.008 78.9226 428.277 79.427 428.354C79.9315 428.431 80.4658 428.316 80.9091 427.991C81.7967 427.34 81.9872 426.093 81.3346 425.206C79.8997 423.257 79.0161 422.38 78.161 421.532L78.1601 421.531C77.3794 420.757 76.6417 420.026 75.3908 418.326C74.8227 417.554 74.2992 416.957 73.8104 416.473C74.0339 416.178 74.2627 415.889 74.4989 415.608C75.5481 414.357 76.8356 413.328 78.1072 412.311C79.2293 411.414 80.339 410.526 81.2619 409.505C82.4387 408.204 83.7603 407.084 85.0581 405.985C86.0543 405.142 87.0364 404.31 87.9283 403.416C90.1144 401.227 92.2548 399.231 94.3876 397.375C94.6032 397.622 94.8272 397.897 95.0691 398.226C96.504 400.176 97.3876 401.052 98.2427 401.9L98.2436 401.901C99.0243 402.675 99.7621 403.407 101.013 405.106C101.339 405.55 101.814 405.819 102.319 405.896C102.823 405.973 103.357 405.858 103.801 405.532C104.688 404.881 104.879 403.634 104.226 402.748C102.791 400.799 101.908 399.922 101.053 399.074L101.052 399.073C100.271 398.299 99.5332 397.567 98.2824 395.868C97.9304 395.389 97.5962 394.981 97.2759 394.621C98.543 393.352 99.7662 392.134 101.128 391.198C103.837 389.335 106.513 387.942 109.035 386.895C111.578 385.839 113.935 386.059 116.202 386.271C116.706 386.318 117.205 386.364 117.701 386.396C120.674 386.589 122.849 387.089 125.247 389.331Z" fill="#E6E5E3"/>
<path d="M899.578 425.977C898.868 422.959 897.013 420.356 895.235 418.1C893.462 415.851 890.416 415.125 887.756 413.578C886.823 413.036 887.566 411.15 887.248 410.132C886.391 407.385 883.381 405.968 881.752 403.803C880.129 401.645 879.921 397.773 877.398 396.306C872.635 393.537 867.058 395.344 861.701 396.261C861.228 396.342 861.367 394.722 860.929 394.146C858.649 391.147 855.094 389.66 852.069 388.054C849.04 386.445 845.782 385.079 841.988 385.003C838.161 384.926 834.965 386.446 831.865 387.961C828.769 389.474 825.613 391.076 823.218 394.019C822.769 394.57 822.848 393.561 822.159 393.4C819.317 392.739 816.005 393.432 813.177 394.009C808.922 394.878 804.588 396.055 801.775 398.573C798.968 401.088 799.008 405.801 797.677 409.936C797.345 410.965 796.165 412.178 795.233 412.71C791.329 414.938 786.391 415.948 784.473 419.309C782.552 422.675 782.992 427.441 783.181 431.952C783.348 435.922 785.852 439.135 788.225 442.452C790.503 445.636 792.466 449.531 796.368 451.063C799.815 452.416 804.025 452.266 808.445 451.573C810.508 451.249 811.902 448.788 813.89 448.042C815.241 447.535 814.916 449.693 815.724 450.857C818.137 454.334 819.545 457.938 820.97 461.922C822.138 465.185 824.766 467.921 825.53 471.26C826.298 474.615 827.441 477.954 827.895 481.368C828.347 484.77 826.338 488.407 826.572 491.849C826.759 494.599 827.304 497.352 827.559 500.094C827.791 502.599 830.299 503.228 832.811 503.29C838.063 503.42 843.304 505.015 848.557 505C850.924 504.993 854.251 502.536 854.455 500.19C854.709 497.276 854.917 494.352 855.161 491.436C855.503 487.342 853.472 482.983 854.176 478.953C854.88 474.924 855.941 470.865 857.121 466.922C857.968 464.092 860.136 461.741 861.34 459.073C862.543 456.407 862.43 452.862 864.162 450.444C865.524 448.542 866.551 448.698 868.768 449.76C871.739 451.181 874.525 453.62 877.883 453.464C879.281 453.365 880.904 453.893 882.272 453.636C887.21 452.709 891.048 448.96 894.293 445.143C896.651 442.369 898.41 439.449 899.147 436.274C899.887 433.085 900.404 429.489 899.578 425.977L899.578 425.977ZM833.966 470.56C833.182 467.446 833.363 464.384 832.375 461.352C831.383 458.309 828.875 455.141 827.517 452.233C829.638 451.838 832.133 451.866 834.262 451.469C835.302 456.192 836.386 456.192 836.278 461.026C836.171 465.829 834.604 465.767 833.966 470.56V470.56ZM847.925 470.661C847.351 465.863 847.442 465.925 847.486 461.092C847.531 456.26 845.075 455.861 846.19 451.158C848.292 451.59 850.799 452.425 852.97 452.871C851.548 455.74 852.386 459.032 851.335 462.059C850.289 465.072 848.8 467.577 847.925 470.661Z" fill="#E6E5E3"/>
<path fill-rule="evenodd" clip-rule="evenodd" d="M211.428 519.527C209.41 519.521 207.323 519.516 205.286 519.726C204.566 519.8 203.871 519.937 203.199 520.07L203.198 520.07L203.195 520.07L203.184 520.072C202.141 520.279 201.155 520.474 200.249 520.393C198.565 520.243 196.825 519.918 195.143 519.603L195.143 519.603L195.136 519.602L195.127 519.6L195.127 519.6C194.147 519.417 193.134 519.227 192.134 519.072C190.797 518.865 189.495 518.184 188.117 517.463L188.117 517.463L188.114 517.462C187.007 516.882 185.863 516.283 184.623 515.894C183.457 515.528 182.246 515.273 181.076 515.026L181.075 515.026L181.074 515.025C178.629 514.51 176.319 514.023 174.562 512.617C170.654 509.492 168.646 504.694 169.051 499.453C169.32 495.99 170.308 492.406 171.765 489.62C172.827 487.588 174.572 485.831 176.26 484.131L176.265 484.127L176.269 484.122C177.022 483.365 177.8 482.582 178.511 481.78C179.947 480.164 181.772 478.947 183.705 477.657L183.705 477.657L183.72 477.647C184.677 477.008 185.667 476.348 186.618 475.628C187.743 474.775 188.655 473.694 189.535 472.648C190.573 471.415 191.553 470.251 192.755 469.603C194.327 468.755 196.091 468.201 197.959 467.615L197.959 467.615L197.962 467.614L197.976 467.61L197.976 467.61L197.976 467.61C198.898 467.32 199.851 467.021 200.777 466.683C202.034 466.225 203.468 466.221 204.986 466.217C206.233 466.214 207.521 466.211 208.794 465.95L209.565 465.792C211.956 465.3 214.214 464.835 216.609 464.601C217.188 464.545 217.724 464.397 218.198 464.267L218.204 464.266L218.205 464.265C218.658 464.141 219.086 464.023 219.466 464.008C220.994 463.946 222.49 464.262 224.074 464.597L224.088 464.6C224.987 464.79 225.918 464.987 226.877 465.117C228.18 465.295 229.494 465.418 230.764 465.537L230.768 465.537C234.03 465.843 237.111 466.132 240.031 467.262C242.65 468.276 245.09 469.791 247.45 471.257L247.663 471.39L247.664 471.39L247.664 471.39C248.061 471.637 248.458 471.884 248.856 472.127C250.039 472.85 251.326 473.437 252.571 474.004L252.575 474.006C254.54 474.901 256.396 475.747 257.832 477.069C260.948 479.937 263.584 483.888 265.893 489.149C266.723 491.043 266.319 494.028 265.927 496.914L265.927 496.916L265.806 497.814C265.412 500.808 264.946 503.9 264 506.11C263.358 506.057 262.706 505.807 261.98 505.525C261.64 505.392 261.302 505.262 260.962 505.148C257.643 504.044 253.686 502.888 249.497 502.693C247.133 502.583 244.882 502.97 242.703 503.345C242.168 503.437 241.632 503.529 241.097 503.613C240.198 503.755 239.258 503.806 238.263 503.86L238.263 503.86C236.383 503.963 234.44 504.069 232.583 504.81C229.272 506.132 226.435 508.213 223.692 510.226L223.687 510.229L223.264 510.539C220.407 512.633 217.432 514.935 215.206 518.034C215.07 518.224 214.997 518.412 214.954 518.564C214.829 518.709 214.719 518.858 214.614 519.008C213.877 518.873 213.134 519.115 212.511 519.324L212.505 519.326C212.266 519.405 211.911 519.524 211.788 519.528L211.428 519.527ZM226.845 541.302C224.065 540.913 221.44 540.546 219.093 539.249C215.17 537.082 213.797 534.044 214.501 529.094C214.623 528.238 214.864 527.403 215.119 526.518L215.119 526.518L215.12 526.514C215.343 525.745 215.572 524.949 215.72 524.128C215.76 523.906 215.797 523.691 215.833 523.481L215.834 523.477V523.477C216.095 521.96 216.268 520.957 217.03 520.146C217.276 519.885 217.377 519.601 217.429 519.402C219.422 516.687 222.163 514.572 224.803 512.639L225.228 512.327C227.841 510.409 230.543 508.426 233.548 507.227C235.009 506.644 236.659 506.554 238.405 506.459C239.421 506.403 240.472 506.346 241.502 506.184C242.044 506.098 242.585 506.005 243.127 505.912L243.144 505.909L243.181 505.903C245.303 505.538 247.31 505.193 249.376 505.293C253.237 505.472 256.831 506.516 260.139 507.617C260.425 507.712 260.708 507.822 260.992 507.932L261.035 507.949L261.039 507.951C261.589 508.165 262.175 508.393 262.808 508.546C262.862 508.816 263.002 509.072 263.225 509.268C263.572 509.572 264.059 509.742 265.87 510.345L265.871 510.345L265.871 510.345C267.796 510.986 271.377 512.177 272.436 513.119C273.486 514.052 274.093 515.503 274.736 517.039L274.739 517.047C275.194 518.132 275.663 519.253 276.322 520.238C277.745 522.369 278.974 524.209 279.213 526.861C279.279 527.588 279.452 528.326 279.619 529.041C279.914 530.302 280.219 531.605 279.781 532.375C277.931 535.623 274.138 537.761 272.042 538.746C269.525 539.928 266.572 540.474 263.716 541.002L263.716 541.002L263.713 541.003L263.701 541.005C262.975 541.139 262.253 541.273 261.541 541.416C260.852 541.554 260.111 541.4 259.254 541.222L259.251 541.221C258.612 541.088 257.889 540.938 257.096 540.895C255.645 540.817 254.189 541.064 252.783 541.304C251.89 541.457 251.046 541.601 250.228 541.66C248.816 541.763 247.469 542.202 246.166 542.627C244.675 543.114 243.262 543.572 241.931 543.48C239.415 543.303 231.948 542.096 229.467 541.695L229.467 541.695L229.45 541.693L228.862 541.598C228.203 541.492 227.543 541.399 226.886 541.307L226.886 541.307L226.845 541.302ZM261.871 560.536C261.837 560.195 261.636 559.726 261.44 559.273L261.44 559.272C261.224 558.77 261.001 558.252 260.883 557.684C260.62 556.419 260.187 555.186 259.73 553.882L259.73 553.882L259.728 553.877L259.727 553.874C259.23 552.455 258.716 550.989 258.425 549.451C258.056 547.491 257.625 545.944 256.985 544.279C256.93 544.135 256.905 543.988 256.902 543.843L252.809 543.939C252.023 544.071 251.219 544.197 250.417 544.255C249.322 544.335 248.181 544.707 246.973 545.101C245.473 545.59 243.927 546.094 242.288 546.095C242.11 546.095 241.93 546.088 241.749 546.076C240.673 546 238.774 545.752 236.734 545.456C236.762 546.588 236.819 548.002 236.878 549.481L236.88 549.54C237.005 552.665 237.135 555.896 237.072 557.784C237.022 559.311 236.676 562.36 236.37 565.055L236.37 565.056L236.368 565.071C236.178 566.741 235.982 568.468 235.973 568.899C235.912 571.613 237.638 577.916 238.492 578.723C239.156 579.206 239.802 579.87 240.486 580.572L240.486 580.572C241.741 581.862 243.038 583.195 244.584 583.53C246.184 583.875 247.968 583.179 249.695 582.506C250.527 582.181 251.313 581.875 252.078 581.685L252.475 581.587C255.366 580.873 258.096 580.2 259.62 578.213C261.527 575.726 261.792 572.399 261.679 570.045C261.605 568.52 261.707 566.998 261.805 565.527L261.805 565.525L261.805 565.525C261.921 563.789 262.03 562.149 261.871 560.536ZM233.782 564.778C233.527 567.023 233.382 568.318 233.371 568.842C233.34 570.224 233.798 573.143 234.532 575.779C233.825 575.906 233.34 576.016 233.211 576.097C230.586 577.747 227.584 578.585 224.465 578.88C219.684 579.332 215.287 578.166 211.272 575.549C207.294 572.956 204.991 569.229 203.51 564.749C202.623 562.066 201.971 559.431 202.024 556.62C202.053 555.023 202.418 553.43 202.783 551.836C203.152 550.219 203.522 548.602 203.543 546.981C203.558 545.751 203.229 544.513 202.9 543.276C202.548 541.951 202.195 540.626 202.267 539.311C202.297 538.773 202.092 538.216 201.888 537.662C201.676 537.085 201.464 536.51 201.519 535.963C201.622 534.936 201.788 533.924 201.953 532.915C202.185 531.496 202.417 530.081 202.472 528.637C202.497 527.99 202.552 525.775 202.493 522.845C202.9 522.778 203.303 522.702 203.7 522.623L203.711 522.621C204.35 522.495 204.954 522.376 205.552 522.314C207.431 522.121 209.423 522.125 211.352 522.13L211.421 522.13L211.782 522.131H211.788C212.324 522.131 212.84 521.958 213.338 521.791C213.39 521.774 213.451 521.754 213.514 521.733C213.421 522.161 213.344 522.597 213.268 523.04C213.233 523.243 213.197 523.452 213.159 523.666C213.034 524.356 212.833 525.054 212.62 525.793L212.618 525.798C212.35 526.729 212.072 527.692 211.925 528.728C211.066 534.758 212.944 538.825 217.834 541.527C220.602 543.056 223.591 543.474 226.483 543.879L226.484 543.879C227.139 543.971 227.795 544.062 228.451 544.167L229.035 544.262L229.082 544.269C230.138 544.44 232.055 544.75 234.122 545.066C234.146 546.303 234.211 547.931 234.279 549.644C234.397 552.579 234.53 555.906 234.471 557.698C234.423 559.124 234.068 562.257 233.782 564.775L233.782 564.778Z" fill="#E6E5E3"/>
<path fill-rule="evenodd" clip-rule="evenodd" d="M605.83 60.1166C603.723 61.706 602.315 62.7677 601.63 60.2371C600.828 57.2735 601.159 56.5478 602.347 53.9436C602.464 53.6884 602.589 53.4151 602.721 53.1199C603.256 51.9287 603.849 51.2399 604.359 50.6479C605.165 49.7111 605.763 49.0171 605.591 46.9591C605.403 44.7071 604.742 44.2611 603.656 43.5283C602.876 43.0021 601.877 42.3282 600.677 40.7321C600.114 39.9839 599.256 39.3368 598.343 38.6488C597.081 37.6975 595.716 36.668 594.885 35.1853C594.182 33.9299 593.726 32.434 593.252 30.8796C592.937 29.846 592.614 28.7866 592.206 27.7548C591.457 25.8636 590.881 23.4701 590.335 21.197C590.222 20.7298 590.111 20.2677 590 19.8161C593.393 18.6115 594.609 18.9428 596.731 19.5213C597.685 19.7815 598.823 20.0917 600.425 20.3346C600.206 21.2376 599.903 21.9879 599.621 22.6889C599.181 23.7815 598.789 24.7542 598.835 25.9986C598.923 28.3561 599.48 30.7888 600.118 32.7341C600.596 34.1904 601.655 35.3398 602.633 36.4008C603.206 37.0219 603.75 37.6128 604.134 38.2173C604.93 39.4714 605.206 40.6239 605.432 41.5658C605.794 43.0774 606.027 44.0464 608.068 44.0223C610.115 43.9982 610.929 43.3041 611.846 42.5232C612.596 41.8847 613.414 41.1882 615.028 40.7521C616.282 40.4132 617.121 40.0428 617.84 39.7258C619.177 39.1355 620.095 38.7302 622.492 39.058C621.813 41.8862 620.817 44.8241 619.855 46.9279C619.459 47.7943 619.119 48.6662 618.791 49.5074C618.096 51.2943 617.454 52.9426 616.438 54.105C615.026 55.7205 613.094 56.3971 611.386 56.9951C610.662 57.2489 609.978 57.4885 609.391 57.7796C608.041 58.4493 606.853 59.3451 605.83 60.1166ZM604.927 71.2923C603.789 68.9863 602.468 65.8253 601.73 63.641C602.51 63.6461 603.33 63.6883 604.155 63.7307C606.239 63.838 608.35 63.9465 609.896 63.46C612.442 62.6588 614.737 61.5225 616.564 60.062C617.986 58.9244 618.849 57.352 619.686 55.8272C620.037 55.1872 620.383 54.5556 620.765 53.9681C621.988 52.0838 622.648 50.1519 623.267 48.3374C623.383 47.9984 623.498 47.6635 623.614 47.3338C624.209 45.6494 624.199 44.5093 624.192 43.573C624.182 42.2717 624.174 41.3639 625.795 39.9353C626.124 40.1212 626.478 40.3165 626.848 40.521C628.73 41.5592 631.043 42.8355 632.652 44.337C634.335 45.908 636.126 47.7256 637.802 49.7176C638.567 50.628 638.984 51.8519 639.41 53.1061C639.821 54.3125 640.24 55.547 640.99 56.5576C641.66 57.4609 642.554 58.2287 643.464 59.01C644.464 59.8686 645.483 60.7435 646.244 61.8326C646.902 62.7742 647.651 63.6757 648.409 64.5895C649.223 65.5702 650.049 66.565 650.788 67.6387C651.454 68.6075 651.919 69.7308 652.389 70.8662C652.877 72.0457 653.371 73.2381 654.101 74.2836C654.81 75.298 655.668 76.2217 656.533 77.1534C657.353 78.0358 658.179 78.9254 658.892 79.9061C659.567 80.8357 660.109 81.8746 660.655 82.9201C661.257 84.0753 661.864 85.2385 662.66 86.2714C663.423 87.2615 664.458 88.0439 665.498 88.8307C666.477 89.5705 667.46 90.3142 668.227 91.2379C668.86 91.9996 669.461 92.7875 670.064 93.5776C670.94 94.7265 671.821 95.8802 672.807 96.9652C673.569 97.8031 674.189 98.7807 674.813 99.7619C675.529 100.889 676.248 102.021 677.187 102.952C677.882 103.641 678.549 104.372 679.22 105.106C680.219 106.2 681.225 107.301 682.336 108.279C683.311 109.137 684.516 109.734 685.727 110.335C686.786 110.86 687.849 111.387 688.765 112.091C689.916 112.977 691.173 113.71 692.438 114.448C693.292 114.945 694.15 115.446 694.983 115.997C695.931 116.625 696.715 117.529 697.504 118.438C698.402 119.472 699.306 120.513 700.461 121.159C701.594 121.793 702.914 122.094 704.243 122.398C705.397 122.661 706.557 122.926 707.608 123.411C708.613 123.875 709.536 124.565 710.466 125.26C711.569 126.084 712.681 126.916 713.953 127.386C715.218 127.854 716.515 128.064 717.833 128.277C718.878 128.446 719.935 128.618 721 128.921C719.668 129.377 718.339 129.454 717.004 129.531C715.99 129.589 714.973 129.648 713.95 129.873C712.827 130.121 711.771 130.755 710.719 131.387C709.515 132.11 708.314 132.831 707.02 132.969C705.697 133.109 704.343 132.752 702.992 132.396C701.848 132.094 700.706 131.793 699.584 131.794C697.366 131.795 695.213 131.581 693.012 131.363C692.783 131.34 692.553 131.317 692.323 131.295C691.206 131.185 690.049 131.341 688.892 131.497C687.529 131.681 686.165 131.865 684.859 131.616C683.572 131.371 682.38 130.719 681.185 130.065C680.153 129.501 679.119 128.935 678.021 128.63C676.908 128.321 675.675 128.369 674.44 128.417C673.064 128.47 671.686 128.523 670.468 128.084C669.089 127.587 667.758 126.911 666.428 126.236C665.54 125.786 664.654 125.336 663.755 124.94C662.501 124.388 661.339 123.628 660.177 122.867C659.265 122.271 658.353 121.675 657.397 121.178C656.384 120.653 655.257 120.315 654.13 119.976C652.839 119.589 651.548 119.201 650.426 118.532C649.262 117.837 648.208 116.946 647.156 116.059C646.307 115.341 645.46 114.625 644.556 114.014C644.021 113.652 643.482 113.294 642.942 112.935C641.431 111.93 639.918 110.924 638.489 109.839C637.408 109.019 636.469 108.026 635.534 107.038C634.771 106.231 634.01 105.428 633.178 104.723C632.492 104.142 631.793 103.58 631.097 103.02C629.879 102.041 628.67 101.069 627.551 100.014C627.073 99.5621 626.592 99.1154 626.112 98.67C624.785 97.4377 623.468 96.2155 622.251 94.932C621.314 93.943 620.592 92.7832 619.878 91.635C619.288 90.6868 618.703 89.7466 618.006 88.9171C617.057 87.7894 616.287 86.5713 615.525 85.3681C614.994 84.5289 614.468 83.6969 613.889 82.908C613.286 82.0866 612.648 81.3161 612.018 80.5568C611.092 79.4393 610.186 78.3462 609.444 77.1508C608.833 76.1661 608.055 75.2969 607.291 74.4438C606.38 73.4268 605.489 72.4326 604.927 71.2923Z" fill="#E6E5E3"/>
<path d="M799.562 316.187C798.903 316.187 798.622 315.605 797.963 315.605C795.426 314.623 793.563 313.622 793.639 310.968C793.697 308.951 795.208 306.949 795.201 304.93C795.194 302.912 794.347 300.896 794.347 298.878C794.347 298.442 794.547 297.682 794.547 297.073C793.989 297.36 793.105 297.26 792.759 297.455C791.146 298.365 789.511 299.238 787.9 300.15C786.289 301.063 785.458 303.367 783.839 304.266C781.701 305.454 778.707 304.671 777.347 303.043C775.503 300.834 776.277 297.272 778.932 295.75C780.515 294.843 782.415 294.492 784.002 293.593C785.589 292.694 786.873 291.256 788.463 290.363C790.054 289.47 792.151 289.485 793.745 288.598C794.443 288.209 794.155 287.176 794.139 286.352C794.085 283.552 793.564 280.734 793.604 277.933C793.615 277.217 794.33 276.501 793.716 276.151C791.624 274.961 789.651 273.568 787.566 272.365C785.481 271.162 783.113 270.449 781.036 269.233C780.459 268.896 779.572 268.195 779.01 268.528C776.603 269.956 774.293 271.501 771.84 272.845C771.079 273.262 771.077 274.371 771.091 275.208C771.133 277.823 771.361 280.436 771.386 283.052C771.411 285.667 771.975 288.281 771.988 290.896C771.992 291.71 772.274 292.856 772.04 293.626C771.461 295.529 768.634 295.523 766.662 295.289C764.613 295.047 762.016 294.387 761.944 292.285C761.877 290.33 762.933 288.341 762.907 286.385C762.882 284.429 762.046 282.484 762.015 280.528C762.008 280.099 762.399 279.992 762.369 279.44C761.84 279.729 761.291 279.061 760.908 279.282C759.143 280.299 757.673 281.828 755.908 282.845C754.144 283.863 752.107 284.407 750.342 285.423C746.928 287.388 745.606 286.916 743.942 283.361C743.942 282.702 744.026 282.52 744.026 281.86C744.68 280.258 745.351 279.386 746.834 278.561C748.596 277.58 750.32 276.52 752.067 275.511C753.813 274.502 755.702 273.74 757.448 272.731C757.777 272.541 756.944 271.942 757.353 271.668C756.826 271.347 757.273 270.952 756.888 270.724C755.311 269.791 753.522 269.218 751.944 268.287C750.367 267.357 749.392 265.413 747.821 264.472C745.918 263.331 744.659 262.205 745.084 260.356C745.788 257.299 749.07 255.839 751.937 257.506C753.515 258.424 755.128 259.283 756.701 260.208C758.274 261.134 759.926 261.929 761.494 262.861C763.063 263.794 764.838 264.385 766.404 265.323C767.044 265.706 767.579 267.348 768.241 266.951C770.676 265.49 772.782 263.498 775.263 262.116C775.891 261.766 774.998 261.092 774.993 260.389C774.978 257.999 775.771 255.603 775.771 253.213C775.771 250.823 775.18 248.427 775.2 246.037C775.206 245.257 775.63 244.927 774.987 244.567C772.581 243.221 770.578 241.202 768.222 239.77C767.478 239.317 766.665 240.149 765.96 240.571C764.429 241.486 762.54 241.8 761.007 242.712C759.474 243.624 757.888 244.438 756.348 245.336C754.806 246.234 753.887 248.219 752.331 249.092C751.324 249.658 749.644 249.988 748.494 249.911C746.723 249.792 745.203 247.732 744.853 245.968C744.511 244.251 745.856 242.97 747.549 241.949C749.17 240.972 750.732 239.906 752.365 238.946C753.997 237.987 755.424 236.677 757.055 235.715C757.429 235.495 758.055 234.877 758.57 234.559C756.598 233.422 754.576 232.25 752.673 231.15C750.723 230.022 748.308 229.773 746.367 228.687C744.886 227.858 743.731 226.428 743.077 224.826C743.077 224.167 743 223.338 743 222.678C744.679 219.092 747.021 218.783 750.454 220.762C752.237 221.789 754.38 222.193 756.162 223.222C757.943 224.251 759.918 224.946 761.7 225.974C762.074 226.189 761.516 226.426 762.051 226.716C762.051 225.962 763.348 226.078 763.356 225.547C763.384 223.652 763.59 221.759 763.616 219.864C763.642 217.97 762.151 216.044 762.21 214.15C762.269 212.302 764.138 211.1 765.883 210.572C767.552 210.066 770.066 209.954 770.952 211.436C771.568 212.468 770.483 214.186 770.496 215.391C770.515 217.162 770.891 218.922 770.882 220.694C770.873 222.465 771.478 224.241 771.453 226.012C771.429 227.784 771.313 229.554 771.285 231.325C771.273 232.078 771.733 231.913 772.4 232.285C774.881 233.665 777.009 235.682 779.452 237.128C780.012 237.458 780.42 237.465 781 237.126C783.077 235.91 785.476 235.25 787.562 234.047C789.647 232.844 791.784 231.739 793.876 230.548C794.488 230.199 793.62 229.2 793.609 228.482C793.568 225.681 794.396 222.869 794.45 220.068C794.467 219.241 794.136 218.744 793.441 218.356C791.859 217.475 789.844 217.366 788.266 216.479C786.688 215.591 785.054 214.796 783.479 213.903C781.904 213.01 780.801 211.284 779.229 210.386C776.79 208.994 776.436 206.832 777.658 204.619C778.867 202.43 780.537 202.353 782.977 203.696C785.104 204.866 787.533 205.482 789.648 206.675C791.106 207.497 792.759 207.646 794.441 208.592C794.441 207.936 795.17 207.972 795.17 207.537C795.17 205.519 794.063 203.499 794.07 201.48C794.077 199.461 793.951 197.455 793.895 195.438C793.821 192.787 795.187 191.031 797.731 190.052C798.39 190.052 799.277 189 799.937 189C802.481 189.979 803.79 192.795 803.716 195.446C803.66 197.464 803.837 199.46 803.844 201.48C803.851 203.498 803.801 205.52 803.801 207.538C803.801 207.974 803.366 207.655 803.366 208.279C803.966 207.957 803.622 207.878 804.005 207.662C805.636 206.743 807.455 206.159 809.084 205.235C810.713 204.311 812.961 204.514 814.606 203.619C817.316 202.145 820.149 202.577 820.844 205.457C821.309 207.388 819.739 208.516 817.707 209.673C816.133 210.568 815.43 212.997 813.854 213.89C812.279 214.782 810.038 214.497 808.46 215.385C806.882 216.272 805.153 216.886 803.571 217.766C802.87 218.156 802.256 219.259 802.271 220.082C802.324 222.882 803.003 225.671 802.961 228.472C802.951 229.192 803.269 229.483 803.88 229.831C805.973 231.022 808.083 232.183 810.168 233.387C812.254 234.59 814.102 236.2 816.179 237.417C816.761 237.757 817.455 237.652 818.012 237.322C820.42 235.896 822.687 234.224 825.142 232.882C825.909 232.462 825.652 232.034 825.639 231.204C825.597 228.588 825.393 225.971 825.368 223.355C825.343 220.739 825.138 218.12 825.126 215.504C825.122 214.69 826.955 214.118 827.191 213.348C827.774 211.449 828.877 209.54 830.859 209.769C832.888 210.003 834.089 212.079 834.16 214.18C834.225 216.136 835.356 218.07 835.381 220.027C835.407 221.984 834.752 223.949 834.783 225.906C834.79 226.332 834.77 226.682 834.802 227.261C836.819 226.099 838.562 224.59 840.519 223.461C842.517 222.309 844.752 221.617 846.729 220.479C850.161 218.502 852.306 219.246 853.97 222.827C853.97 223.486 854.296 224.174 854.296 224.834C853.644 226.438 852.142 227.295 850.662 228.121C848.9 229.103 846.805 229.51 845.058 230.519C843.312 231.528 841.465 232.363 839.719 233.372C839.389 233.563 839.072 234.729 838.66 235.005C839.182 235.324 839.859 235.809 840.245 236.036C841.84 236.978 844.123 236.75 845.72 237.689C847.317 238.627 848.244 240.695 849.828 241.656C852.456 243.25 852.643 245.667 850.614 247.742C849.127 249.262 847.744 249.547 845.61 248.298C844.046 247.383 842.379 246.648 840.818 245.73C839.257 244.811 837.336 244.501 835.778 243.577C834.22 242.654 832.719 241.631 831.165 240.701C830.525 240.318 830.308 239.995 829.647 240.392C827.212 241.853 824.636 243.072 822.154 244.451C821.518 244.804 820.598 245.353 820.602 246.047C820.615 248.436 820.438 250.822 820.438 253.211C820.438 255.601 821.329 257.99 821.315 260.38C821.31 261.081 821.332 261.98 821.962 262.33C824.372 263.669 827.054 264.524 829.411 265.954C830.172 266.416 830.776 266.585 831.562 266.111C833.09 265.191 834.588 264.221 836.12 263.308C837.652 262.395 838.755 260.747 840.296 259.849C841.838 258.951 843.431 258.121 844.986 257.247C845.993 256.681 847.646 257.324 848.778 257.44C850.667 257.632 850.963 258.803 851.367 260.676C851.735 262.385 852.215 264.638 850.525 265.659C848.905 266.638 846.693 266.631 845.062 267.592C843.43 268.552 842.441 270.602 840.81 271.565C840.436 271.786 839.397 271.441 838.882 271.76C840.852 272.895 843.137 273.537 845.04 274.637C846.988 275.763 848.365 277.845 850.305 278.93C851.786 279.758 853.552 280.002 854.206 281.604C854.206 282.264 853.363 282.688 853.363 283.347C851.715 286.891 850.01 288.086 846.603 286.124C844.821 285.097 842.823 284.44 841.042 283.411C839.26 282.382 837.647 281.062 835.864 280.035C835.492 279.82 835.049 279.079 834.522 278.795C834.522 279.512 834.198 280.264 834.191 280.756C834.162 282.671 835.027 284.599 835.001 286.514C834.975 288.43 834.925 290.351 834.862 292.265C834.794 294.344 832.764 295.341 830.718 295.586C828.744 295.823 827.329 295.102 826.741 293.188C826.504 292.42 825.476 291.712 825.48 290.898C825.493 288.261 826.375 285.631 826.4 282.995C826.426 280.359 825.251 277.706 825.293 275.07C825.305 274.318 825.619 274.488 824.95 274.117C822.468 272.739 820.072 271.176 817.628 269.732C817.067 269.401 817.133 269.305 816.554 269.644C814.477 270.86 812.623 272.468 810.538 273.671C808.452 274.874 806.068 275.561 803.976 276.752C803.364 277.101 802.966 277.222 802.977 277.941C803.018 280.742 802.527 283.534 802.474 286.334C802.458 287.157 803.615 286.919 804.315 287.309C805.897 288.189 807.254 289.476 808.832 290.363C810.41 291.251 811.455 293.081 813.03 293.973C814.605 294.866 816.679 294.881 818.251 295.778C820.686 297.166 820.646 299.46 819.413 301.623C818.164 303.813 816.187 305.168 813.756 303.821C812.136 302.924 810.313 302.378 808.702 301.465C807.091 300.552 806.278 298.228 804.665 297.318C804.318 297.123 803.051 296.826 802.492 296.539C802.492 297.147 803.088 298.442 803.088 298.877C803.088 300.896 802.478 302.913 802.471 304.931C802.464 306.95 802.001 308.998 802.059 311.015C802.135 313.67 802.099 315.205 799.562 316.187L799.562 316.187ZM813.117 253.268C813.117 250.88 813.697 248.51 813.742 246.123C813.756 245.38 812.261 245.525 811.588 245.143C809.513 243.966 808.191 241.476 806.126 240.282C804.061 239.089 801.587 238.602 799.533 237.391C798.863 236.997 798.204 236.718 797.568 237.092C795.528 238.288 793.333 239.21 791.285 240.394C789.238 241.577 787.167 242.709 785.112 243.879C784.471 244.245 785.41 245.259 785.416 246.035C785.436 248.423 785.045 250.818 785.045 253.205C785.045 255.593 784.908 257.984 784.889 260.371C784.883 261.147 784.685 261.788 785.327 262.154C787.381 263.324 789.742 263.961 791.789 265.145C793.836 266.328 795.358 268.412 797.397 269.609C798.033 269.982 798.746 269.219 799.416 268.825C801.471 267.614 803.267 265.951 805.332 264.758C807.397 263.564 810.043 263.382 812.117 262.205C812.79 261.823 813.42 261.039 813.405 260.296C813.36 257.95 813.117 255.615 813.117 253.268V253.268Z" fill="#E6E5E3"/>
<path fill-rule="evenodd" clip-rule="evenodd" d="M108.456 223.891C108.443 224.409 108.43 224.925 108.433 225.439C108.437 226.331 108.579 227.232 108.72 228.125C108.961 229.652 109.198 231.156 108.736 232.553C108.063 234.59 106.745 236.468 105.441 238.327C105.343 238.467 105.245 238.606 105.147 238.746C104.267 240.004 103.049 241.022 101.786 242.077C101.199 242.568 100.603 243.066 100.026 243.6C98.6284 244.895 98.1999 247.399 97.8434 249.481C97.8021 249.723 97.7616 249.959 97.7208 250.187C97.5066 251.382 97.5006 252.614 97.4945 253.845C97.4886 255.067 97.4826 256.288 97.2734 257.474C97.0639 258.662 96.4559 259.78 95.8479 260.899C95.2369 262.023 94.626 263.147 94.4193 264.341C94.228 265.447 94.0238 266.552 93.8196 267.656C93.5839 268.931 93.3481 270.206 93.1322 271.484C92.9299 272.681 93.0683 273.934 93.2067 275.188C93.344 276.431 93.4813 277.675 93.2859 278.863C93.0973 280.01 92.8748 281.151 92.6522 282.291C92.4118 283.524 92.1713 284.757 91.9737 285.997C91.7846 287.184 91.3244 288.329 90.8641 289.473C90.3984 290.632 89.9326 291.79 89.7478 292.993C89.6615 293.554 89.6118 294.109 89.5636 294.646C89.4421 296 89.3302 297.248 88.6672 298.236C87.7188 299.649 86.342 301.218 84.485 302.023C83.9454 302.023 83.3293 302.103 82.7133 302.184C82.0972 302.264 81.4811 302.344 80.9413 302.344C80.7191 302.232 80.5636 301.702 80.4079 301.172C80.2391 300.596 80.0702 300.02 79.8159 299.978C78.6629 299.786 77.5185 299.543 76.374 299.3C75.2313 299.057 74.0885 298.814 72.9372 298.622C71.7851 298.431 70.6256 298.283 69.4661 298.135C68.3066 297.987 67.1471 297.839 65.9949 297.647C64.8426 297.455 63.6382 297.575 62.4337 297.695C61.2295 297.815 60.0253 297.936 58.8733 297.744C57.7199 297.552 56.5527 297.444 55.3854 297.335C54.2205 297.227 53.0556 297.119 51.9045 296.928C50.7529 296.737 49.6427 296.297 48.5325 295.858C47.421 295.418 46.3096 294.978 45.1566 294.787C44.0057 294.597 42.8785 294.263 41.7513 293.93C40.6211 293.596 39.4909 293.261 38.337 293.071C37.184 292.881 35.9608 293.115 34.7376 293.349C33.5158 293.583 32.2939 293.817 31.1419 293.628C29.9906 293.439 28.8759 293.029 27.7612 292.619C26.6437 292.208 25.5262 291.797 24.372 291.608C23.2293 291.422 22.0926 291.199 20.9559 290.975C19.7991 290.748 18.6424 290.521 17.4793 290.333C16.2622 290.135 15.0437 289.946 13.8253 289.756C12.7354 289.586 11.6455 289.416 10.5564 289.241C8.64519 288.934 6.87769 288.513 5.25601 287.778C3.62659 287.039 2.62205 285.914 1.4286 284.29C1.4286 283.347 1.07146 282.423 0.714312 281.499C0.357159 280.575 0 279.652 0 278.709C0.201539 277.624 0.805422 276.593 1.40931 275.562C2.01263 274.533 2.61595 273.503 2.81806 272.419C3.01993 271.336 3.28693 270.265 3.55393 269.195C3.82178 268.12 4.08963 267.046 4.29173 265.96C4.49402 264.873 4.52035 263.753 4.54668 262.633C4.5729 261.519 4.59911 260.404 4.79886 259.322C4.99954 258.234 4.89638 257.092 4.79322 255.949C4.69054 254.812 4.58785 253.675 4.78487 252.592C4.96879 251.581 5.55194 250.638 6.13514 249.696C6.73387 248.728 7.33265 247.76 7.49954 246.719C7.74595 245.18 8.06103 243.673 8.37784 242.158C8.48462 241.647 8.5916 241.135 8.69621 240.621C9.25976 237.852 9.35163 235.023 9.17877 232.389C9.01339 229.871 8.56305 226.983 7.16933 224.311C6.11253 222.284 5.63063 220.468 5.27339 218.432C5.17505 217.871 5.05447 217.325 4.9356 216.787C4.59501 215.245 4.26858 213.767 4.52044 212.191C4.85519 210.097 5.40712 208.066 6.36884 206.065C6.96027 204.835 7.89601 203.831 8.86371 202.794C9.37603 202.245 9.89732 201.686 10.3812 201.078C10.6582 200.731 10.9247 200.387 11.1864 200.049C12.2832 198.633 13.2963 197.325 14.6514 196.307C16.4473 194.957 18.2085 193.865 20.2473 193.123C20.8517 192.903 21.4528 192.64 22.0582 192.376C23.4907 191.75 24.9465 191.115 26.5234 191.009C27.7274 190.928 28.9144 191.418 30.1328 191.922C31.0467 192.299 31.9784 192.684 32.9483 192.841C34.0963 193.026 35.268 193.064 36.4397 193.101C37.6248 193.139 38.81 193.177 39.9707 193.368C41.1217 193.558 42.3192 193.469 43.5166 193.381C44.7202 193.292 45.9238 193.203 47.0804 193.396C48.2355 193.589 49.3223 194.187 50.409 194.785C51.4928 195.382 52.5765 195.978 53.7281 196.173C54.8801 196.368 56.0975 196.178 57.315 195.989C58.5351 195.799 59.7552 195.609 60.9094 195.806C62.0637 196.003 63.1808 196.417 64.2979 196.83C65.4123 197.243 66.5266 197.656 67.678 197.854C68.8295 198.051 70.0022 198.126 71.1749 198.201C72.35 198.276 73.5252 198.351 74.6791 198.549C75.828 198.746 76.9751 198.954 78.1222 199.162C79.2769 199.371 80.4315 199.58 81.588 199.779C82.7461 199.978 83.9115 200.134 85.077 200.29C86.2315 200.444 87.3861 200.599 88.5335 200.795C90.9534 201.209 93.1871 202.078 95.2244 202.955C97.4301 203.905 99.2903 205.33 101.02 206.82C101.472 207.21 101.954 207.588 102.44 207.97C103.829 209.06 105.261 210.184 106.172 211.699C106.903 212.914 107.175 214.413 107.454 215.955C107.61 216.818 107.769 217.694 108.012 218.543C108.544 220.399 108.5 222.16 108.456 223.891ZM102.135 227.394C102.164 226.964 102.214 226.498 102.267 226.004L102.267 226.003C102.46 224.212 102.7 221.982 102.059 219.639C101.417 217.29 99.6551 215.87 98.1007 214.617L98.1003 214.617C97.4955 214.13 96.9243 213.669 96.4892 213.206L96.1281 212.821L96.1267 212.819C94.4763 211.054 92.7693 209.228 90.1843 208.186C89.8085 208.035 89.4282 207.877 89.0434 207.717L89.0382 207.715C87.1194 206.92 84.9449 206.019 82.5865 205.596C81.4352 205.389 80.2789 205.305 79.161 205.224L79.1562 205.223L79.1533 205.223C78.0528 205.143 77.013 205.067 75.9985 204.884C74.8803 204.683 73.75 204.538 72.6571 204.399L72.656 204.399C71.597 204.263 70.5027 204.123 69.4529 203.934C68.4562 203.754 67.4704 203.448 66.4266 203.124L66.4153 203.12C65.3323 202.783 64.2118 202.435 63.0433 202.225C61.7885 202 60.5473 202.094 59.3461 202.184L59.3419 202.185C58.2653 202.267 57.248 202.344 56.3339 202.181C55.1942 201.978 54.0525 201.789 52.9113 201.6L52.8964 201.598L52.8942 201.597C51.8671 201.427 50.8399 201.257 49.8147 201.077C48.9789 200.931 48.1014 200.405 47.173 199.849L47.1717 199.848C46.0683 199.187 44.9273 198.504 43.5911 198.273C42.4407 198.074 41.2821 197.966 40.1616 197.861C39.0679 197.759 38.0351 197.662 37.011 197.488L36.9173 197.473C34.2835 197.026 31.5605 196.567 29.0693 196.986C26.8553 197.36 25.007 198.631 23.2193 199.86L23.2181 199.861L23.1694 199.894C22.7656 200.172 22.3651 200.447 21.9652 200.706C20.1023 201.912 18.3599 203.624 16.4822 206.096C15.3326 207.608 14.8642 209.13 14.4881 210.352L14.4857 210.36C14.3301 210.866 14.1833 211.343 14.0095 211.75L13.8621 212.095C13.0822 213.914 12.4089 215.485 12.9295 217.871C13.0251 218.31 13.0172 218.929 13.0085 219.583L13.0084 219.584C12.9911 220.936 12.9694 222.619 13.7952 224.281C14.1324 224.959 14.6228 225.591 15.0972 226.203L15.0986 226.205L15.099 226.205C15.8803 227.213 16.618 228.164 16.6622 229.189C16.6935 229.906 16.2294 230.807 15.7381 231.76L15.7367 231.763C15.2128 232.779 14.6714 233.83 14.5406 234.99C14.4042 236.203 14.4582 237.38 14.5058 238.418L14.5059 238.42L14.506 238.423C14.5502 239.393 14.5919 240.309 14.4605 240.986C14.2496 242.074 14.3191 243.135 14.3864 244.16C14.4412 244.991 14.4926 245.775 14.3849 246.48C14.2625 247.281 14.1662 248.091 14.0731 248.875L14.0711 248.892L14.0679 248.919C13.954 249.877 13.8363 250.867 13.6723 251.809C13.4961 252.826 12.8985 253.864 12.2652 254.962L12.2644 254.964C11.5456 256.212 10.8025 257.502 10.541 258.98C10.3123 260.277 10.1872 261.586 10.0662 262.852C9.94411 264.131 9.82843 265.339 9.61522 266.538C9.36437 267.95 9.46086 269.347 9.55417 270.699L9.55436 270.702C9.64055 271.945 9.72182 273.119 9.52979 274.203L9.50899 274.32V274.438C9.50899 275.069 9.31128 275.786 9.10185 276.544L9.10117 276.547C8.85338 277.445 8.59718 278.373 8.59718 279.368V279.794L8.84138 280.143C11.13 283.41 14.7172 284.257 17.9002 284.793C19.0219 284.982 20.1257 285.289 21.2942 285.613L21.2966 285.614C22.47 285.939 23.6839 286.276 24.9328 286.489C26.0907 286.686 27.2747 286.954 28.4198 287.214L28.4225 287.215C29.5868 287.478 30.7906 287.751 32.0036 287.96C33.3423 288.19 34.6761 288.102 35.9652 288.017L35.9748 288.016L35.9889 288.015C37.1726 287.937 38.2906 287.863 39.3151 288.04C40.5163 288.248 41.7152 288.469 42.9141 288.69L42.9159 288.69C44.0829 288.906 45.2503 289.121 46.4192 289.324C47.5518 289.52 48.6628 289.808 49.8389 290.113L49.845 290.114C51.0169 290.418 52.2287 290.731 53.4642 290.946C54.6649 291.156 55.8821 291.337 57.059 291.512L57.0809 291.515C58.2385 291.687 59.4343 291.865 60.5974 292.068C61.7358 292.266 62.8504 292.542 64.0306 292.834L64.0326 292.834C65.2064 293.124 66.4202 293.424 67.6519 293.639C68.7766 293.836 69.8795 294.123 71.0469 294.427L71.0621 294.431L71.0788 294.435C72.25 294.74 73.4609 295.055 74.6966 295.27C74.8024 295.289 74.9052 295.297 75.0039 295.297C75.4541 295.297 75.8265 295.13 76.0703 295.018H76.2231C77.0355 295.018 77.6169 294.678 78.0414 294.43L78.0474 294.426C78.2198 294.326 78.4131 294.213 78.4883 294.213H78.7824L79.0496 294.091C82.6996 292.433 83.5966 290.401 84.1323 286.743C84.3237 285.439 84.5756 284.082 84.8423 282.645L84.8449 282.631C85.0203 281.686 85.1991 280.722 85.3662 279.744C85.5201 278.843 86.0497 277.885 86.6107 276.871C87.2689 275.681 87.9493 274.452 88.2094 273.031C88.4612 271.654 88.2302 270.28 88.0064 268.952L88.0064 268.952C87.8087 267.778 87.622 266.669 87.8008 265.723C88.0068 264.633 88.3622 263.56 88.7387 262.424L88.7427 262.412C89.1229 261.264 89.516 260.077 89.7488 258.848C89.9915 257.568 90.1397 256.296 90.2826 255.066L90.2836 255.058C90.4167 253.915 90.5424 252.835 90.7362 251.787C90.946 250.65 91.3399 249.519 91.721 248.426C92.1194 247.282 92.5315 246.099 92.7368 244.899C92.8188 244.418 92.8778 243.904 92.9398 243.359L92.9402 243.355C93.0928 242.022 93.3017 240.197 93.9378 239.58C94.7056 238.833 95.7701 238.313 96.7998 237.81L96.8014 237.809C98.1419 237.155 99.5278 236.478 100.335 235.248C101.788 233.035 101.952 230.367 102.097 228.013V228.013L102.135 227.394ZM96.3892 216.713L96.3976 216.72L96.399 216.721C97.7537 217.813 99.0334 218.845 99.4449 220.351C99.9511 222.202 99.7504 224.068 99.5731 225.715L99.5721 225.724C99.5162 226.244 99.4633 226.734 99.4317 227.217L99.392 227.848L99.3919 227.849C99.2615 229.966 99.1267 232.154 98.0681 233.767C97.6685 234.376 96.6687 234.865 95.6102 235.381C94.4454 235.95 93.1257 236.594 92.0472 237.642C90.718 238.933 90.4681 241.122 90.2477 243.053L90.2435 243.089C90.1869 243.582 90.1334 244.048 90.0655 244.444C89.8981 245.423 89.5404 246.451 89.1613 247.538C88.7469 248.728 88.3186 249.958 88.071 251.297C87.8614 252.431 87.7248 253.604 87.5927 254.739L87.5909 254.754L87.5903 254.76C87.4529 255.941 87.3108 257.163 87.0862 258.345C86.8859 259.403 86.5362 260.458 86.1657 261.576L86.165 261.578C85.7778 262.747 85.3774 263.956 85.1378 265.223C84.8698 266.641 85.1057 268.044 85.334 269.4C85.5276 270.549 85.7102 271.635 85.5435 272.546C85.3633 273.53 84.8176 274.517 84.2399 275.562L84.2381 275.565C83.5928 276.731 82.926 277.937 82.695 279.29C82.5373 280.214 82.3684 281.124 82.2028 282.018L82.1805 282.138L82.1803 282.139C81.9078 283.607 81.6504 284.993 81.4512 286.352C80.9912 289.493 80.389 290.47 78.1446 291.53C77.5098 291.607 77.0345 291.885 76.6727 292.096L76.6702 292.098C76.5462 292.17 76.4102 292.25 76.3145 292.29C75.7316 292.199 75.228 292.429 74.9525 292.556L74.9309 292.566C73.8792 292.37 72.8411 292.1 71.7467 291.815C70.5725 291.509 69.3583 291.193 68.1191 290.976C66.9805 290.778 65.8657 290.502 64.6852 290.21L64.6839 290.21C63.5101 289.92 62.2962 289.62 61.0642 289.405C59.8602 289.195 58.6391 289.013 57.4581 288.838C56.2976 288.665 55.0977 288.487 53.9303 288.283C52.8007 288.087 51.6927 287.8 50.5201 287.496L50.5137 287.494C49.3384 287.19 48.1233 286.875 46.8837 286.66C45.7579 286.464 44.6338 286.258 43.5098 286.051L43.4081 286.032C42.1984 285.809 40.989 285.586 39.7771 285.377C39.1355 285.266 38.4955 285.228 37.8608 285.228C37.1641 285.228 36.4734 285.273 35.7956 285.319L35.7864 285.319C34.6028 285.397 33.4858 285.471 32.4628 285.295C31.32 285.099 30.1508 284.834 29.0205 284.578C27.8398 284.31 26.6192 284.033 25.3887 283.824C24.2754 283.634 23.1798 283.33 22.0204 283.008C20.8364 282.68 19.6123 282.34 18.3516 282.127C15.6233 281.667 13.0337 281.072 11.3322 278.954C11.3917 278.432 11.5486 277.863 11.7125 277.268L11.714 277.262C11.9522 276.4 12.1979 275.51 12.2176 274.56C12.4429 273.188 12.3487 271.83 12.2576 270.515L12.2571 270.507C12.1715 269.266 12.0906 268.093 12.2833 267.01C12.5154 265.704 12.6417 264.384 12.7634 263.109C12.8848 261.839 12.9997 260.64 13.2099 259.449C13.3887 258.438 13.984 257.404 14.6145 256.31L14.6147 256.31L14.6153 256.308C15.3375 255.055 16.0846 253.758 16.3423 252.271C16.52 251.248 16.6432 250.212 16.7619 249.21L16.7627 249.203C16.8536 248.438 16.9475 247.647 17.0636 246.888C17.2156 245.891 17.152 244.922 17.0904 243.983L17.0902 243.981C17.0317 243.088 16.9764 242.245 17.121 241.5C17.3138 240.506 17.2647 239.433 17.2125 238.296C17.1675 237.311 17.121 236.293 17.2337 235.292C17.3084 234.626 17.7143 233.838 18.1441 233.004L18.1463 232.999C18.7489 231.831 19.4316 230.506 19.3696 229.072C19.2879 227.189 18.1535 225.726 17.2416 224.55L17.2412 224.55C16.8293 224.019 16.4405 223.517 16.2228 223.079C15.6872 222.001 15.7027 220.79 15.7182 219.618C15.7288 218.805 15.7386 218.037 15.5772 217.297C15.2407 215.754 15.6358 214.832 16.3533 213.159L16.5037 212.807C16.732 212.271 16.8989 211.729 17.0755 211.156L17.0783 211.146C17.4242 210.022 17.7822 208.86 18.6415 207.729C20.3238 205.515 21.8484 204.004 23.4403 202.974C23.8769 202.691 24.3147 202.391 24.7558 202.087L24.7562 202.087C26.3012 201.024 27.8986 199.926 29.5214 199.652C31.5552 199.308 34.0419 199.729 36.4477 200.135L36.4636 200.138L36.5581 200.154C37.6816 200.344 38.8138 200.45 39.9086 200.553C41.0265 200.657 42.0827 200.756 43.1283 200.937C43.9666 201.082 44.8461 201.609 45.7773 202.166L45.778 202.167C46.8773 202.825 48.0141 203.506 49.3444 203.74C50.3798 203.922 51.4164 204.094 52.453 204.265L52.4531 204.265C53.5887 204.453 54.7242 204.641 55.8579 204.842C57.1066 205.065 58.3421 204.972 59.5382 204.881L59.5468 204.881L59.5606 204.88C60.6356 204.799 61.6522 204.723 62.5631 204.886C63.5664 205.066 64.5588 205.375 65.609 205.701L65.618 205.704C66.6956 206.039 67.8093 206.385 68.9712 206.595C70.0894 206.796 71.2197 206.941 72.3126 207.08L72.3137 207.08C73.3726 207.216 74.467 207.355 75.5169 207.545C76.6723 207.753 77.8326 207.838 78.9549 207.919L78.9589 207.92C80.0571 207.999 81.094 208.075 82.1068 208.256C84.1784 208.628 86.123 209.434 88.0037 210.214C88.3965 210.377 88.7848 210.538 89.1688 210.693C91.1981 211.511 92.6305 213.043 94.1468 214.665L94.512 215.055C95.0732 215.653 95.742 216.192 96.3892 216.713Z" fill="#E6E5E3"/>
</g>
</svg>
