<svg width="27" height="32" viewBox="0 0 27 32" fill="none" xmlns="http://www.w3.org/2000/svg">
<g clip-path="url(#clip0_674_3644)">
<path d="M13.7218 31.9183C13.5618 31.9183 13.4937 31.7723 13.3337 31.7723C12.7184 31.5259 12.2664 31.2747 12.2848 30.6085C12.2988 30.1023 12.6655 29.5999 12.6638 29.0932C12.6621 28.5868 12.4567 28.0809 12.4567 27.5744C12.4567 27.4651 12.5051 27.2743 12.5051 27.1215C12.3696 27.1935 12.1553 27.1683 12.0713 27.2174C11.68 27.4457 11.2834 27.6648 10.8925 27.8938C10.5017 28.1228 10.3001 28.7011 9.90745 28.9268C9.38868 29.2248 8.66248 29.0284 8.33248 28.6196C7.88509 28.0654 8.07297 27.1714 8.71707 26.7894C9.10099 26.5618 9.56195 26.4739 9.94696 26.2482C10.332 26.0225 10.6433 25.6616 11.0292 25.4376C11.4152 25.2136 11.9239 25.2172 12.3106 24.9946C12.4799 24.8971 12.4101 24.6377 12.4062 24.4309C12.3931 23.7282 12.2666 23.0211 12.2764 22.3183C12.2789 22.1385 12.4524 21.9588 12.3035 21.8711C11.796 21.5723 11.3174 21.2227 10.8116 20.9208C10.3058 20.6189 9.73136 20.4401 9.22735 20.135C9.08752 20.0503 8.87211 19.8745 8.73583 19.9581C8.15204 20.3163 7.59163 20.704 6.99646 21.0414C6.8118 21.146 6.81136 21.4242 6.81469 21.6343C6.82508 22.2907 6.88029 22.9464 6.88637 23.6028C6.89245 24.2592 7.02926 24.915 7.03229 25.5714C7.03323 25.7757 7.10173 26.0632 7.04495 26.2564C6.90464 26.7341 6.21876 26.7325 5.7402 26.6739C5.24332 26.6131 4.61315 26.4476 4.59575 25.9199C4.57957 25.4293 4.83567 24.9302 4.82948 24.4392C4.82328 23.9483 4.62046 23.4604 4.61287 22.9696C4.6112 22.8619 4.70606 22.835 4.69879 22.6965C4.57054 22.7688 4.43744 22.6014 4.34436 22.6569C3.91616 22.912 3.55953 23.2956 3.13149 23.551C2.70345 23.8064 2.20927 23.9429 1.78104 24.1979C0.952936 24.6911 0.632091 24.5725 0.228418 23.6805C0.228418 23.515 0.248899 23.4693 0.248899 23.3038C0.407533 22.9018 0.570397 22.6829 0.930033 22.4759C1.35757 22.2297 1.77578 21.9636 2.1995 21.7104C2.62317 21.4572 3.08143 21.2659 3.50511 21.0128C3.58474 20.9652 3.38267 20.8148 3.48188 20.7461C3.35425 20.6654 3.46263 20.5662 3.36907 20.509C2.98657 20.275 2.5526 20.1312 2.16985 19.8976C1.7871 19.664 1.55072 19.1763 1.16952 18.94C0.707864 18.6539 0.402447 18.3711 0.505687 17.9071C0.67632 17.1401 1.47259 16.7735 2.16813 17.192C2.55083 17.4223 2.94227 17.6378 3.32381 17.8701C3.70534 18.1025 4.10613 18.3019 4.48669 18.536C4.86726 18.77 5.29791 18.9183 5.67771 19.1536C5.8331 19.2499 5.96289 19.6618 6.1234 19.5622C6.71413 19.1955 7.22499 18.6957 7.82686 18.3489C7.97931 18.261 7.76249 18.0919 7.76144 17.9155C7.75785 17.3157 7.95009 16.7145 7.95005 16.1147C7.95001 15.5149 7.80663 14.9136 7.8115 14.3138C7.81308 14.1181 7.91592 14.0351 7.75999 13.9449C7.17617 13.607 6.69026 13.1005 6.11875 12.7409C5.93835 12.6275 5.74108 12.8361 5.56992 12.9419C5.19848 13.1716 4.74022 13.2505 4.36833 13.4794C3.99643 13.7083 3.61189 13.9124 3.23806 14.1378C2.86417 14.3632 2.64107 14.8613 2.26377 15.0804C2.01931 15.2224 1.61181 15.3053 1.33293 15.2859C0.903143 15.2561 0.534537 14.739 0.449489 14.2965C0.366659 13.8655 0.692774 13.5442 1.10347 13.288C1.49685 13.0425 1.87573 12.775 2.27179 12.5342C2.66784 12.2935 3.01405 11.9649 3.40972 11.7235C3.50033 11.6682 3.65231 11.5132 3.77721 11.4334C3.29879 11.1479 2.80831 10.8539 2.34652 10.5777C1.87363 10.2948 1.28768 10.2321 0.816801 9.9596C0.457637 9.75175 0.177318 9.39274 0.0186562 8.99073C0.0186562 8.82524 0 8.6173 0 8.4518C0.407266 7.55164 0.975504 7.47424 1.80841 7.97082C2.24089 8.22867 2.76069 8.32997 3.19293 8.58825C3.62518 8.84652 4.10418 9.02079 4.53659 9.27875C4.6273 9.33287 4.49196 9.39218 4.6218 9.46513C4.6218 9.27571 4.93634 9.30496 4.93823 9.17162C4.94498 8.69617 4.99508 8.22106 5.00132 7.74558C5.00756 7.27006 4.64586 6.78677 4.66039 6.31153C4.67456 5.84781 5.12803 5.54613 5.55126 5.41353C5.9562 5.28666 6.56613 5.25857 6.78102 5.63057C6.9305 5.88932 6.66716 6.32064 6.67031 6.62301C6.67493 7.06749 6.76621 7.50921 6.76402 7.95378C6.76183 8.39827 6.9087 8.84397 6.90268 9.28848C6.89667 9.73298 6.86862 10.1772 6.86176 10.6217C6.85885 10.8106 6.97045 10.7694 7.13237 10.8625C7.73429 11.2089 8.25038 11.7152 8.84324 12.0779C8.9789 12.1609 9.07798 12.1626 9.21857 12.0775C9.72258 11.7722 10.3046 11.6068 10.8105 11.3048C11.3164 11.0029 11.8348 10.7256 12.3424 10.4267C12.4909 10.3392 12.2802 10.0885 12.2777 9.90814C12.2677 9.20528 12.4684 8.49953 12.4817 7.79678C12.4856 7.58917 12.4055 7.46441 12.2368 7.36718C11.8531 7.14601 11.3641 7.11868 10.9813 6.89593C10.5985 6.67319 10.2021 6.47361 9.82004 6.2495C9.43794 6.02538 9.17046 5.59222 8.78901 5.36695C8.19729 5.0175 8.11153 4.47504 8.40794 3.9198C8.70127 3.3703 9.10641 3.3509 9.69829 3.68795C10.2142 3.98177 10.8037 4.13625 11.3167 4.4356C11.6703 4.64193 12.0713 4.67925 12.4794 4.91674C12.4794 4.75221 12.6563 4.76123 12.6563 4.65197C12.6563 4.14544 12.3878 3.63849 12.3894 3.13192C12.391 2.62523 12.3605 2.12195 12.3468 1.6157C12.3289 0.950383 12.6603 0.509593 13.2774 0.264052C13.4374 0.264052 13.6527 0 13.8127 0C14.4298 0.245564 14.7474 0.952324 14.7295 1.61768C14.7158 2.12401 14.7589 2.62505 14.7606 3.13182C14.7622 3.63839 14.7501 4.14579 14.7501 4.65231C14.7501 4.76153 14.6447 4.68157 14.6447 4.83817C14.7902 4.75746 14.7066 4.73756 14.7995 4.68338C15.1952 4.45263 15.6366 4.30615 16.0317 4.07433C16.4269 3.84248 16.9724 3.89343 17.3713 3.66883C18.0287 3.29877 18.7161 3.4073 18.8845 4.12991C18.9975 4.61448 18.6166 4.89764 18.1236 5.18792C17.7418 5.41271 17.5712 6.02221 17.189 6.24619C16.8068 6.47017 16.2632 6.39872 15.8803 6.62142C15.4974 6.84412 15.0781 6.99806 14.6943 7.219C14.5243 7.31683 14.3752 7.59376 14.379 7.80008C14.3919 8.5029 14.5565 9.20286 14.5464 9.90577C14.5438 10.0865 14.6211 10.1594 14.7694 10.2468C15.2769 10.5457 15.7889 10.8371 16.2948 11.1391C16.8007 11.441 17.2491 11.8452 17.7531 12.1505C17.8942 12.236 18.0625 12.2095 18.1977 12.1267C18.7819 11.7689 19.3317 11.3493 19.9272 11.0124C20.1135 10.9071 20.051 10.7997 20.0478 10.5914C20.0377 9.93491 19.9883 9.27803 19.9822 8.62153C19.9762 7.96503 19.9263 7.3079 19.9234 6.65138C19.9224 6.44713 20.3671 6.30344 20.4244 6.11037C20.5659 5.63376 20.8335 5.15451 21.3142 5.21199C21.8064 5.27086 22.098 5.79175 22.115 6.31917C22.1308 6.80993 22.4052 7.29537 22.4114 7.78646C22.4176 8.27746 22.2587 8.7707 22.2663 9.26167C22.2679 9.36878 22.2631 9.45649 22.2709 9.60188C22.7602 9.31007 23.1829 8.9315 23.6578 8.64825C24.1424 8.35919 24.6846 8.18552 25.1643 7.89972C25.997 7.40368 26.5173 7.59029 26.921 8.48902C26.921 8.65451 27 8.82712 27 8.99261C26.8418 9.39523 26.4775 9.61037 26.1183 9.81752C25.691 10.0639 25.1826 10.1661 24.7589 10.4194C24.3353 10.6726 23.8873 10.8823 23.4637 11.1355C23.3836 11.1834 23.3067 11.4761 23.2067 11.5453C23.3333 11.6254 23.4976 11.7469 23.5912 11.804C23.9781 12.0403 24.532 11.9832 24.9194 12.2187C25.3069 12.4542 25.5319 12.9732 25.916 13.2143C26.5536 13.6144 26.5989 14.221 26.1067 14.7415C25.746 15.123 25.4105 15.1946 24.8927 14.8811C24.5135 14.6516 24.1089 14.4672 23.7302 14.2366C23.3516 14.0061 22.8856 13.9283 22.5076 13.6965C22.1297 13.4647 21.7656 13.208 21.3886 12.9746C21.2332 12.8784 21.1807 12.7974 21.0202 12.897C20.4296 13.2638 19.8047 13.5696 19.2025 13.9156C19.0481 14.0044 18.825 14.1421 18.8259 14.3162C18.8292 14.9159 18.7861 15.5145 18.7861 16.1142C18.7861 16.7139 19.0023 17.3135 18.9988 17.9132C18.9978 18.0892 19.0029 18.3146 19.1559 18.4025C19.7406 18.7385 20.3912 18.9532 20.9631 19.3121C21.1476 19.4279 21.2942 19.4703 21.4848 19.3514C21.8554 19.1204 22.2188 18.8772 22.5905 18.648C22.9622 18.4188 23.2299 18.0053 23.6037 17.78C23.9777 17.5547 24.3641 17.3462 24.7413 17.127C24.9856 16.985 25.3867 17.1463 25.6614 17.1753C26.1195 17.2236 26.1915 17.5175 26.2893 17.9875C26.3786 18.4163 26.495 18.9818 26.0852 19.2379C25.6921 19.4836 25.1556 19.482 24.7598 19.7231C24.3639 19.9641 24.1239 20.4784 23.7284 20.7201C23.6375 20.7757 23.3855 20.6891 23.2607 20.769C23.7386 21.054 24.2929 21.2151 24.7546 21.4912C25.2271 21.7737 25.5612 22.2962 26.0319 22.5685C26.391 22.7763 26.8195 22.8375 26.9782 23.2395C26.9782 23.405 26.7736 23.5114 26.7736 23.6769C26.374 24.5664 25.9601 24.8662 25.1338 24.3737C24.7013 24.1159 24.2168 23.9512 23.7846 23.693C23.3523 23.4348 22.9609 23.1036 22.5285 22.8457C22.4382 22.7918 22.3307 22.6058 22.203 22.5346C22.203 22.7146 22.1244 22.9031 22.1226 23.0267C22.1156 23.5073 22.3254 23.9912 22.3191 24.4718C22.3127 24.9524 22.3006 25.4345 22.2854 25.9148C22.2689 26.4368 21.7765 26.6869 21.2801 26.7484C20.8011 26.8078 20.458 26.6269 20.3152 26.1466C20.2579 25.9537 20.0084 25.7761 20.0093 25.5718C20.0124 24.9102 20.2265 24.2501 20.2326 23.5885C20.2388 22.927 19.9537 22.2612 19.9639 21.5997C19.9668 21.411 20.043 21.4537 19.8808 21.3605C19.2787 21.0147 18.6973 20.6225 18.1044 20.2601C17.9685 20.177 17.9844 20.153 17.844 20.238C17.3401 20.5431 16.8902 20.9467 16.3844 21.2487C15.8785 21.5506 15.3 21.723 14.7925 22.0219C14.644 22.1094 14.5475 22.1399 14.5501 22.3202C14.5601 23.023 14.4411 23.7239 14.4282 24.4266C14.4244 24.633 14.7051 24.5733 14.8748 24.6711C15.2586 24.8922 15.5879 25.2149 15.9707 25.4377C16.3535 25.6604 16.607 26.1196 16.9891 26.3437C17.3712 26.5677 17.8742 26.5715 18.2557 26.7965C18.8464 27.1449 18.8366 27.7206 18.5374 28.2634C18.2346 28.8129 17.755 29.1529 17.165 28.8149C16.7721 28.5898 16.3299 28.4527 15.9391 28.2236C15.5483 27.9945 15.3509 27.4114 14.9597 27.1831C14.8756 27.1341 14.568 27.0595 14.4326 26.9874C14.4326 27.1402 14.5771 27.465 14.5771 27.5743C14.5771 28.0808 14.4291 28.587 14.4274 29.0936C14.4258 29.6002 14.3134 30.1141 14.3274 30.6203C14.3458 31.2865 14.3371 31.6718 13.7218 31.9183L13.7218 31.9183ZM17.0101 16.1285C17.0101 15.5292 17.1509 14.9344 17.1618 14.3354C17.1651 14.1489 16.8024 14.1852 16.6391 14.0894C16.1358 13.794 15.8151 13.1691 15.3141 12.8696C14.8131 12.5701 14.2131 12.4478 13.7146 12.144C13.5523 12.045 13.3923 11.9752 13.2379 12.0689C12.7432 12.3692 12.2105 12.6005 11.7139 12.8975C11.2173 13.1946 10.7148 13.4786 10.2163 13.7723C10.0607 13.8639 10.2885 14.1184 10.29 14.3133C10.2948 14.9125 10.1999 15.5135 10.1999 16.1127C10.1999 16.7119 10.1668 17.3118 10.1621 17.911C10.1606 18.1058 10.1126 18.2667 10.2683 18.3584C10.7668 18.652 11.3395 18.8119 11.8361 19.1089C12.3327 19.4059 12.7018 19.9289 13.1965 20.2292C13.3507 20.3229 13.5238 20.1314 13.6862 20.0324C14.1847 19.7286 14.6205 19.3113 15.1215 19.0118C15.6225 18.7123 16.2643 18.6665 16.7676 18.3711C16.9307 18.2753 17.0835 18.0787 17.08 17.892C17.069 17.3034 17.0101 16.7173 17.0101 16.1285Z" fill="#99BB44"/>
</g>
<defs>
<clipPath id="clip0_674_3644">
<rect width="27" height="32" fill="white"/>
</clipPath>
</defs>
</svg>
