<?xml version="1.0" encoding="UTF-8"?>
<svg id="a" data-name="Ebene 1" xmlns="http://www.w3.org/2000/svg" width="210mm" height="209.99999mm" viewBox="0 0 595.27559 595.27557">
  <g>
    <g id="b" data-name="nhkjlO">
      <path d="m456.4832,456.62489c4.63021-5.06495,9.85913-9.58126,14.48978-14.64582,4.63064-5.06456,9.66665-9.75741,14.29369-14.82526,8.27324-9.06136,9.31662-9.61674-.81055-16.15469-7.5202-4.85495-14.24849-10.84461-21.68307-15.75329-7.44838-4.9178-17.02315-6.87298-23.97465-12.51676-6.83866-5.55216-13.63391-11.73071-19.59684-18.63119-5.76966-6.67682-11.57166-12.12962-17.93594-16.88808-6.92851-5.18031-13.32038-10.24421-20.88976-13.25709-7.77316-3.09399-15.48047-7.60163-23.85833-8.52818-8.0787-.89346-16.58898,1.95236-25.16412,2.96486-7.96849.94088-15.65716,3.92054-24.00049,6.41775-1.05034.31434-2.39647-.41205-3.44079-.08015-6.47514,2.05802-13.14742,3.45464-19.68563,4.31063-6.62261.86704-13.34843-1.55466-20.04149-1.71779-6.60659-.16102-13.33829,1.38055-20.01912.41365-11.36524-1.64484-22.89382-3.02995-34.3353-2.75971-7.99276.18878-16.69239,1.40902-23.9299,4.73666-10.42012,4.7909-11.87348,19.06751-2.38708,25.53153,6.14654,4.18824,14.66666,4.71064,21.98876,5.96583,7.55846,1.29569,14.69274,5.94609,22.33925,6.72665,7.63084.77895,15.25477,1.35589,22.86813,2.26144,5.14296.61172,10.5384-.53255,15.53735.80588,1.40603.37645-.51155,2.37529.62951,3.74149-1.37065,1.09241-.57367.52103-2.13517,1.0487-1.74358.58915-2.98645,2.28537-4.90206,2.2361-8.43477-.21701-16.86151-.77584-25.29656-.98604s-16.87867-.04739-25.31322-.27165-16.92618,1.45664-25.35962,1.19747-16.8031-2.50425-25.23472-2.81918c-4.31599-.16123-10.06569-.29029-13.82225-2.72487-6.36711-4.12646-10.81413-11.34659-17.29607-15.25931-6.52222-3.93704-13.86639-6.52951-20.79549-9.57246-6.89142-3.0264-14.51885-3.41952-22.10032-4.89095-8.74912-1.69808-17.91527-1.509-26.54774.76609-9.45145,2.49092-11.13622,9.10911-3.27597,15.08556,5.82363,4.42794,12.50466,7.73298,18.39291,12.07817,5.88746,4.3446,10.5505,10.31856,16.39973,14.71015,5.85196,4.39364,14.22908,5.52592,19.93982,10.09646,6.76201,5.41191,11.79281,13.01444,19.21553,16.89538,7.40968,3.87413,16.36062,4.01345,24.76467,6.26295,7.38051,1.97553,13.88426,7.09972,21.14979,9.60097,7.2879,2.50895,14.63901,4.55916,21.50456,7.89947,8.20303,3.99104,17.00188,4.50495,25.44183,5.93497,8.52822,1.44498,16.94523,2.94598,25.89897,2.32258,6.93504-.48284,14.07488,1.90436,21.01036,1.41149s13.82603-1.31688,20.76442-1.74509c6.94005-.42831,13.84144-.69488,20.78706-.98379,8.19039-.34069,16.35415-5.36351,24.16025-4.66463,8.11846.72685,16.42115,2.32104,24.06694,4.30545,7.7865,2.02093,13.4764,9.72188,20.71183,13.18918,7.1155,3.40983,16.56324,3.20114,23.0869,8.14731,6.17146,4.67914,11.33,11.3346,16.92094,17.50742,3.58564,3.95879,5.25699,3.41904,8.41692-.08454,5.05568-5.60543,10.69523-10.68143,15.79214-16.24967s8.16226-12.99508,13.26024-18.56207Z" fill="#d5e989"/>
      <path d="m459.21992,459.12899c-5.0932,5.57141-10.31066,11.02925-15.40628,16.59849-5.09569,5.56931-12.65963,8.90197-17.71529,14.50737-3.15994,3.50358-5.45929,7.02081-9.04494,3.06202-5.59105-6.17293-9.58158-13.55911-15.75316-18.23831-6.52387-4.9463-14.73196-6.71655-21.84771-10.12642-7.23542-3.46721-14.4313-6.15604-22.21778-8.1769-7.64546-1.98426-15.03149-6.06876-23.14957-6.79557-7.80613-.69889-15.99706-1.33445-24.18747-.99376-6.9459.28892-13.90848.89543-20.8488,1.32377-6.93841.42822-13.88193.99912-20.81733,1.49198s-13.5806,5.1204-20.51535,5.60322c-8.95374.6234-18.08684-.92781-26.61506-2.37278-8.43996-1.43002-16.17829-6.06642-24.38132-10.05746-6.86555-3.34031-14.73258-4.3637-22.02048-6.87266-7.26553-2.50125-14.75808-3.96417-22.13859-5.9397-8.40405-2.2495-15.40317-7.85274-22.81285-11.72687-7.42272-3.88095-15.35343-7.19529-22.11544-12.6072-5.71179-4.57138-10.80271-9.92643-16.65576-14.32086-5.84927-4.39159-12.66324-7.48311-18.55072-11.82773-5.88713-4.34437-10.19592-10.79748-16.01845-15.22459-7.86025-5.97645-7.96745-11.16673,1.484-13.65765,8.63247-2.27509,17.87842-1.24886,26.62755.44922,7.58214,1.47157,14.37399,3.47569,21.26596,6.50246,6.92915,3.0431,15.76554,2.58171,22.28782,6.51885,6.48126,3.91238,11.30981,10.60533,17.67627,14.73138,3.75656,2.43458,8.5517,4.50022,12.86769,4.66146,8.43169.31493,16.9166-1.09109,25.35038-.83191s16.7433,4.91608,25.17805,5.14034c8.43452.22426,16.91216-1.09175,25.34718-.88154s16.87891.03668,25.31363.25368c1.91562.04927,3.10922-3.18441,4.85281-3.77356,1.5615-.52767,5.09073.68421,6.46135-.40821-1.14104-1.36619-4.21461-.96954-5.62063-1.34599-4.99895-1.33844-9.43759-4.74575-14.58056-5.35747-7.6179-.90609-15.41192-.15275-23.04727-.93228-7.64195-.7802-14.66332-5.8885-22.2173-7.18342-7.32211-1.25519-14.24544-3.45679-20.39198-7.64503-9.48639-6.46403-9.75657-18.11882.66355-22.90972,7.2375-3.32764,15.95498-2.77338,23.94774-2.96216,11.44148-.27024,23.35487-3.67237,34.72012-2.02753,5.7309.82941,12.70883,1.69033,20.46661,1.28874,7.07433-.3662,14.16341-2.03859,20.66235-2.81508,11.40882-1.36312,20.30964-1.11154,20.78831-1.25479,8.34322-2.49718,17.04884-1.17976,25.01723-2.12064,8.57543-1.01256,16.50738-1.69667,24.58633-.80314,8.37794.9266,16.34399,2.15116,24.11721,5.24525,7.56906,3.01282,15.68241,5.60384,22.61064,10.78392,6.36436,4.75849,13.34377,9.9405,19.11349,16.6174,5.96342,6.90105,11.74,13.32295,18.57928,18.87549,6.95166,5.64378,13.57529,11.5781,21.02381,16.49594,7.43389,4.90818,16.06637,7.98853,23.58584,12.843,10.12717,6.53795,10.76317,10.32269,2.48993,19.38405-4.62703,5.06785-10.25616,9.22172-14.888,14.28519s-8.892,10.46715-13.52701,15.52771Z" fill="#d5e989"/>
    </g>
    <g id="c" data-name="nhkjlO">
      <path d="m465.47685,505.45552c4.93222-5.39532,8.20924-12.30509,13.14193-17.7s10.66022-10.06395,15.58907-15.46236c8.81288-9.65241,9.22842-12.99559-1.55931-19.96-6.0045-3.87643-12.90465-6.33747-18.88856-10.19594-6.00099-3.86948-11.29111-8.64926-17.08659-12.80289-5.78089-4.14317-10.98681-8.7102-16.37931-13.43685-5.29601-4.64208-11.91285-7.8743-16.65867-13.3663-5.07747-5.8758-10.10959-11.36247-15.62263-15.83814-5.95717-4.83623-11.5246-10.3007-17.95271-13.5647-6.69593-3.39999-15.09736-1.87451-22.26098-3.64051-7.12078-1.75544-13.88525-4.90168-21.4246-5.11498-7.21209-.20405-14.49719.78662-22.05345,1.92914-7.08595,1.07141-13.65976,4.57109-21.016,6.77285-1.11885.33484-2.90166-1.56997-4.0141-1.21642-6.8975,2.19225-14.05963,2.46454-21.02431,3.37637-7.05459.9236-14.09049,4.37321-21.22013,4.19944-7.03752-.17152-14.11486-2.71345-21.23145-3.74341-6.04531-.87491-12.19223-.79534-18.30378-1.30357-6.12767-.50957-12.13346-.77166-18.23538-.62753-8.51411.2011-18.3822-.83017-26.09178,2.71452-11.09979,5.1034-11.51383,20.74315-1.40867,27.6288,6.54747,4.46143,14.87365,6.95227,22.67336,8.28934,8.05148,1.3802,16.04162,3.26551,24.18689,4.09697,8.12858.82976,16.58135-1.06621,24.69132-.1016,5.47843.65162,10.13456,5.98949,15.45958,7.41522,1.49774.401,1.94097.61767,3.15645,2.07299-1.46005,1.16366-2.24192,1.24775-3.90527,1.80984-1.85731.62758-3.41938-.64235-5.45995-.69484-8.98494-.23116-18.05653,2.92203-27.04178,2.69811s-18.02037,1.38545-27.00508,1.14657-17.854-4.58453-26.83754-4.8606-17.98946.31033-26.97105-.02514c-4.59751-.17175-8.3281-3.83558-12.32969-6.42895-6.78242-4.39562-13.67236-8.79302-20.5771-12.96096-6.94765-4.19384-15.36342-5.75991-22.7445-9.00135-7.34093-3.22381-14.62545-6.98185-22.70144-8.54927-9.3198-1.80884-20.31033-1.82542-29.50588.59807-10.06794,2.65339-9.1422,9.85894-.76925,16.22522,6.20349,4.71677,11.75787,10.27525,18.0302,14.90386,6.27148,4.62799,11.52067,10.62594,17.75143,15.30398,6.23366,4.68023,14.66594,6.55866,20.74918,11.42732,7.20308,5.76491,12.22902,14.35567,20.13591,18.48976,7.89299,4.12683,16.66494,7.33488,25.61716,9.7311,7.86192,2.10439,15.2471,5.50506,22.98654,8.16946,7.76327,2.6726,17.50154.5783,24.81492,4.13649,8.73809,4.25136,16.08122,11.05763,25.0717,12.58093,9.08449,1.53923,18.50188-1.37479,28.03965-2.03885,7.38739-.51434,15.0357,2.6568,22.42356,2.13178s14.70484-1.87916,22.0958-2.3353c7.39273-.45625,14.82331.59938,22.22198.29163,8.72463-.36291,17.00725-1.35835,25.32253-.61388,8.64801.77426,17.7451-1.473,25.8896.64085,8.29439,2.15275,16.86514,4.84815,24.57252,8.54161,7.57963,3.63225,13.52434,10.65233,20.47352,15.92113,6.574,4.98434,14.27354,9.34882,20.22917,15.92427,3.81952,4.21702,5.79391,4.61548,9.15996.88336,5.38545-5.97105,11.03221-11.69973,16.46158-17.63116,5.42925-5.9313,11.90497-10.90539,17.33548-16.83551Z" fill="#9b4"/>
      <path d="m463.57194,503.71254c-5.42541,5.93482-11.13749,11.60754-16.56548,17.54004-5.42806,5.93258-8.93523,13.60591-14.32066,19.57694-3.36605,3.73211-7.79513,3.73845-11.61465-.47856-5.95574-6.57558-11.20749-13.57019-17.78163-18.5546-6.94941-5.26893-13.92657-10.90239-21.50646-14.53467-7.70737-3.69337-16.25974-6.40122-24.55412-8.5539-8.14415-2.11369-17.00784-2.3621-25.65544-3.13633-8.3153-.74447-16.8812,1.13153-25.60585,1.49444-7.39896.30777-14.99622-2.93559-22.38924-2.47932-7.39098.45615-14.43389,6.16136-21.82167,6.68637s-14.96241-1.58305-22.34949-1.06874c-9.53777.66406-18.84341.56585-27.9279-.97338-8.99047-1.5233-17.05528-5.96982-25.79338-10.22118-7.31337-3.55819-15.59654-5.27114-23.35982-7.94374-7.73944-2.6644-16.32452-2.38133-24.18643-4.48572-8.95222-2.39623-16.36034-8.64785-24.25333-12.77468-7.90689-4.13409-14.10442-10.51481-21.3075-16.27973-6.08436-4.86956-15.40914-5.5578-21.64397-10.23886-6.23081-4.67805-11.34403-10.83856-17.61554-15.46657-6.27113-4.62774-11.30763-10.89691-17.50995-15.61278-8.37295-6.36628-8.85636-13.34995,1.21158-16.00334,9.19555-2.42349,19.45095-.02641,28.77075,1.78243,8.0767,1.56755,16.74345.51847,24.08497,3.74267,7.38112,3.24159,13.61444,8.92204,20.56214,13.11599,6.90402,4.16758,15.38168,5.95697,22.16342,10.35214,4.00159,2.59338,7.5728,5.23486,12.17031,5.40661,8.98166.33547,17.94217.92975,26.92606,1.20583,8.98354.27607,17.95338.80729,26.9383,1.04618s17.99974-.83222,26.98496-.6083,17.90616,3.03138,26.89105,3.26254c2.04057.05248,3.44319-1.86062,5.3005-2.4882,1.66335-.56209,1.79367-.06428,3.2537-1.22796-1.21547-1.4553-.7964-1.53971-2.29413-1.94071-5.32502-1.42574-10.12416-5.49821-15.60258-6.14983-8.11479-.96519-16.59165,1.33586-24.72504.50548-8.14041-.83109-16.19024-3.03558-24.23695-4.41496-7.79971-1.33706-16.99265-3.60499-23.54012-8.06642-10.10517-6.88566-8.39817-23.74578,2.70162-28.84917,7.70958-3.54469,17.32448-5.7669,25.83859-5.968,6.10192-.14413,12.13823,3.40939,18.2659,3.91896,6.11155.50823,12.74368-3.11209,18.78899-2.23718,6.10494.88355,13.66819,3.84263,21.93231,3.41481,7.53565-.39011,15.60288.91959,22.52557.09246,12.15277-1.45201,21.39643-5.13537,21.90631-5.28797,7.35548-2.20154,14.48905-4.21099,21.57429-5.28241,7.55712-1.14278,14.99393-2.56125,22.2068-2.35717,7.53958.21333,15.33239.25219,22.45337,2.00775,7.16336,1.76601,12.88155,7.74088,19.57724,11.14076,6.42779,3.26385,12.4034,7.02939,18.3603,11.86532,5.5133,4.4758,9.6581,10.28387,14.73579,16.15992,4.74619,5.49243,12.83238,7.63025,18.12884,12.27264,5.39279,4.72683,10.68649,9.33251,16.46769,13.47583,5.79592,4.15386,10.36446,10.13821,16.36589,14.00793,5.98278,3.85769,12.48803,6.9255,18.49137,10.80118,10.78774,6.96441,9.43106,5.3631.61818,15.01551-4.92884,5.39841-8.81436,11.74789-13.74833,17.14162s-9.34979,11.26137-14.28714,16.65201Z" fill="#9b4"/>
    </g>
  </g>
  <g>
    <path d="m303.85133,229.57947c0,4.52323,1.03476,9.05356.32591,13.03756-.78844,4.4313-.98531,9.32427-2.56025,13.08471-1.71323,4.09065-7.73973,5.70101-10.26595,8.99294-2.63862,3.4384-5.87336,5.46216-9.26216,8.02352-3.38348,2.55734-6.53978,4.43578-10.53188,6.11306-3.85967,1.62164-6.70288,6.85933-11.0036,7.65304-4.09781.75626-8.69963.1055-13.08642.1055-4.3993,0-8.57003-1.75468-12.67854-2.48706-4.32233-.7705-9.43336.78617-13.30929-.80705-4.01898-1.65201-5.37176-7.89405-8.77097-10.44422-3.40148-2.55187-7.73801-3.71136-10.37629-7.17646-2.50898-3.29529-5.67138-6.49954-7.36428-10.63299-1.54101-3.7626-3.72726-7.88913-4.49495-12.35567-.68461-3.98318,2.54518-8.5571,2.54518-13.10688,0-3.47452-3.54417-7.95103-2.69483-12.45707.69005-3.66099,3.79795-7.21438,4.94673-11.3945,1.01963-3.71017,2.32476-7.55896,3.63785-11.57026,1.21953-3.72551,4.97008-6.67658,6.38959-10.57748,1.35751-3.7305,1.04975-8.13721,2.54437-11.95544,1.46267-3.73661,2.26746-7.77664,3.81903-11.52995,1.54767-3.74386,4.97753-6.6812,6.57196-10.3755,1.62183-3.75778.20275-8.80945,1.82952-12.44698,1.68966-3.77816,3.15175-7.58967,4.79854-11.1616,1.76075-3.81909,5.777-6.42905,7.43068-9.92021,1.84906-3.90364,3.03565-7.84184,4.67138-11.20933,2.00028-4.11802,5.55251-6.91313,7.09432-10.00801,3.37975-6.7842-2.65655-9.33647,3.40536-9.32529s2.83295,1.15083,6.19402,7.94345c1.53364,3.09944,4.83591,6.05537,6.82664,10.17803,1.62669,3.36876-.9982,9.12798.84143,13.03129,1.64633,3.49318,8.02776,5.00518,9.78165,8.82502,1.64043,3.57272-1.43505,9.41892.24913,13.19628,1.62152,3.63682,2.95231,7.44615,4.5701,11.20133,1.59193,3.69514,5.20995,6.54414,6.75656,10.28667,1.55154,3.75445,4.06716,7.11494,5.53137,10.84988,1.49773,3.82043,4.69946,6.98386,6.06161,10.71263,1.42529,3.90163.22316,8.65245,1.44992,12.37302,1.32369,4.01454.08223,8.56384,1.11278,12.2677,1.16468,4.18596,5.04415,7.347,5.74687,10.99508.87237,4.52877,1.26691,8.62987,1.26691,12.07123Z" fill="#9b4"/>
    <path d="m244.55803,269.19894c-5.51327.57702-4.52338-4.50622-10.3119-6.99881-3.11456-1.34116-7.79806-.87672-11.01701-3.01217-3.11364-2.06558-4.69247-6.16409-6.89192-9.01963-2.26819-2.94479-5.25873-5.8985-5.47996-9.73309-.43068-7.46521,1.79285-4.35359,6.72766.61882,2.38621,2.40439,7.52708,2.69261,11.44773,5.37083,3.15693,2.15651,4.70553,8.51178,8.9641,9.8409,3.6473,1.13834,8.47404,1.34315,12.99428,1.26418,3.75989-.06569,7.80883-2.4766,12.2106-3.7414,6.5367-1.87825,10.1-5.52824,11.97315-5.71869,3.99255-.40594-.2963,6.00022-7.36658,9.36941-3.59288,1.71211-7.07952,5.11095-10.84536,6.76599-6.31148,2.77383-6.12914,4.33684-12.40481,4.99366Z" fill="#fff"/>
  </g>
  <g>
    <path d="m143.51203,258.93807h2.04222c0,2.71236-.45669,5.87419-1.16261,8.85523-.6489,2.74027-3.55287,4.87584-4.71757,7.59589-1.14069,2.66399-1.81005,5.50286-3.37209,7.92261-1.61138,2.49616-2.79165,5.34121-4.77292,7.33695-2.13408,2.14968-5.01142,3.21638-7.47858,4.49116-2.64098,1.36459-5.25963,1.97052-8.1641,1.97052-.00002,0-.00003,1.54769,0,1.54769,2.90479,0,5.81516-.45088,8.4564.914,2.4665,1.27458,5.6586,2.30232,7.79219,4.45135,1.98137,1.99571,3.73304,4.68268,5.34451,7.17887,1.56214,2.41978,1.17718,5.96628,2.31795,8.63034,1.16498,2.72061,1.82823,5.41105,2.47721,8.15189.70577,2.98071,2.53868,5.64087,2.53868,8.35295h.06428c0-2.71237-1.35641-5.94863-.6505-8.92967.6489-2.74027,2.20679-5.51238,3.37149-8.23243,1.14069-2.66399,2.96053-5.12107,4.52258-7.54083,1.61138-2.49617,3.47938-4.83553,5.46064-6.83128,2.13408-2.14968,4.88759-3.28845,7.35476-4.56323,2.64098-1.3646,5.20564-3.86666,8.11011-3.86666.00002,0,.00002,2.38043,0,2.38043-2.90479,0-5.22313-2.83113-7.86437-4.19601-2.4665-1.27458-5.59536-1.80724-7.72895-3.95627-1.98137-1.99571-3.0373-4.9043-4.64877-7.40049-1.56214-2.41978-4.04589-4.44423-5.18665-7.10828-1.16498-2.72061-.67829-5.97387-1.32726-8.7147-.70577-2.98071-2.77862-5.72795-2.77862-8.44003Z" fill="#d5e989"/>
    <path d="m376.53633,184.36957h-.3822c0,2.71236-1.87157,5.33733-2.57748,8.31836-.6489,2.74027.81138,6.31065-.35331,9.0307-1.14069,2.66399-3.25889,5.02338-4.82094,7.44313-1.61138,2.49616-4.65426,3.71719-6.63552,5.71294-2.13408,2.14968-3.012,5.9413-5.47916,7.21608-2.64098,1.36459-6.04468.94875-8.94915.94875-.00002,0-.00002.24469,0,.24469,2.90479,0,5.92269.1464,8.56393,1.51127,2.4665,1.27458,5.11057,2.94775,7.24416,5.09679,1.98137,1.99571,2.42921,5.37144,4.04067,7.86763,1.56214,2.41978,2.70646,4.93228,3.84723,7.59634,1.16498,2.72061,4.0079,4.85379,4.65687,7.59462.70577,2.98071.52569,6.10606.52569,8.81814h-.87651c0-2.71237-.13568-5.89379.57023-8.87483.6489-2.74027,3.87913-4.75198,5.04382-7.47203,1.14069-2.66399.38853-6.36758,1.95058-8.78734,1.61138-2.49617,3.41055-5.13581,5.39182-7.13156,2.13408-2.14968,4.96977-3.82401,7.43694-5.0988,2.64098-1.3646,5.86038-1.191,8.76485-1.191.00002,0,.00002-.185,0-.185-2.90479,0-5.294-1.53714-7.93524-2.90201-2.4665-1.27458-6.13505-1.3382-8.26863-3.48723-1.98137-1.99571-3.40663-4.87788-5.0181-7.37406-1.56214-2.41978-1.70781-5.6584-2.84858-8.32245-1.16498-2.72061-1.4729-5.52572-2.12187-8.26655-.70577-2.98071-1.77008-5.5945-1.77008-8.30659Z" fill="#d5e989"/>
    <path d="m327.94818,344.53448h.06004c0,2.71236-.57187,5.38782-1.27779,8.36885-.6489,2.74027.58097,6.25281-.58372,8.97286-1.14069,2.66399-4.68654,4.09804-6.24859,6.51779-1.61138,2.49616-2.29185,5.56081-4.27311,7.55656-2.13408,2.14968-4.2489,4.41237-6.71607,5.68715-2.64098,1.36459-5.72536,1.25662-8.62983,1.25662-.00002,0-.00002.86089,0,.86089,2.90479,0,6.07532-.45502,8.71656.90985,2.4665,1.27458,4.31241,3.884,6.446,6.03303,1.98137,1.99571,3.48828,4.46358,5.09975,6.95976,1.56214,2.41978,2.80919,4.97819,3.94995,7.64224,1.16498,2.72061,2.80074,5.23845,3.44972,7.97928.70577,2.98071-.45185,5.94247-.45185,8.65455h1.87396c0-2.71237.4179-5.50647,1.12381-8.48751.6489-2.74027.52995-5.87302,1.69465-8.59307,1.14069-2.66399,2.25171-5.53726,3.81376-7.95702,1.61138-2.49617,3.65493-4.84125,5.63619-6.837,2.13408-2.14968,4.94185-3.50664,7.40902-4.78143,2.64098-1.3646,5.49428-2.00057,8.39875-2.00057.00002,0,.00003-.89602.00001-.89602-2.90479,0-5.58524-.1615-8.22648-1.52638-2.4665-1.27458-4.55478-3.18154-6.68837-5.33057-1.98137-1.99571-3.39063-4.4406-5.0021-6.93679-1.56214-2.41978-4.22799-4.29557-5.36876-6.95962-1.16498-2.72061-.65013-5.95315-1.2991-8.69398-.70577-2.98071-2.90641-5.68741-2.90641-8.39949Z" fill="#fff"/>
  </g>
</svg>