<svg width="48" height="48" viewBox="0 0 48 48" fill="none" xmlns="http://www.w3.org/2000/svg">
<rect x="1" y="1" width="46" height="46" rx="7" stroke="#E6E5E3" stroke-width="2"/>
<path d="M24.7343 14C25.8371 14 26.7836 14.2057 27.5739 14.6171C28.3826 15.0098 28.9891 15.5428 29.3935 16.216C29.7978 16.8892 30 17.6092 30 18.3759C30 19.1052 29.8713 19.7316 29.614 20.2553C29.3751 20.7602 29.081 21.1716 28.7318 21.4895C28.3826 21.8074 27.914 22.1814 27.3258 22.6115C26.5539 23.1538 25.9749 23.6587 25.589 24.1262C25.203 24.575 25.01 25.1828 25.01 25.9495V27.2118H22.5013V25.8093C22.5013 25.0051 22.6299 24.3226 22.8872 23.7616C23.1629 23.2006 23.4845 22.7518 23.8521 22.4151C24.2197 22.0785 24.7068 21.6952 25.3133 21.2651C26.0117 20.7976 26.5263 20.3768 26.8571 20.0028C27.188 19.6288 27.3534 19.1426 27.3534 18.5442C27.3534 17.7775 27.1053 17.1884 26.609 16.777C26.1128 16.3469 25.4327 16.1318 24.5689 16.1318C23.0986 16.1318 21.8212 16.805 20.7368 18.1515L19 16.777C20.5439 14.9257 22.4553 14 24.7343 14ZM23.8246 30.101C24.3759 30.101 24.8354 30.288 25.203 30.662C25.5706 31.036 25.7544 31.4942 25.7544 32.0365C25.7544 32.5788 25.5706 33.0463 25.203 33.439C24.8354 33.813 24.3759 34 23.8246 34C23.2916 34 22.8413 33.813 22.4737 33.439C22.1061 33.0463 21.9223 32.5788 21.9223 32.0365C21.9223 31.4942 22.1061 31.036 22.4737 30.662C22.8413 30.288 23.2916 30.101 23.8246 30.101Z" fill="#FFFDFD"/>
</svg>
