<svg width="32" height="32" viewBox="0 0 32 32" fill="none" xmlns="http://www.w3.org/2000/svg">
<circle cx="16" cy="16" r="16" fill="#99BB44"/>
<path d="M16.1704 9C16.9724 9 17.6608 9.15428 18.2356 9.46283C18.8237 9.75736 19.2648 10.1571 19.5589 10.662C19.853 11.1669 20 11.7069 20 12.2819C20 12.8289 19.9064 13.2987 19.7193 13.6914C19.5455 14.0701 19.3317 14.3787 19.0777 14.6171C18.8237 14.8555 18.4829 15.136 18.0551 15.4586C17.4937 15.8654 17.0727 16.244 16.792 16.5947C16.5113 16.9313 16.3709 17.3871 16.3709 17.9621V18.9088H14.5464V17.8569C14.5464 17.2539 14.6399 16.7419 14.8271 16.3212C15.0276 15.9004 15.2615 15.5638 15.5288 15.3114C15.7962 15.0589 16.1504 14.7714 16.5915 14.4488C17.0994 14.0982 17.4737 13.7826 17.7143 13.5021C17.9549 13.2216 18.0752 12.8569 18.0752 12.4081C18.0752 11.8331 17.8947 11.3913 17.5338 11.0827C17.1729 10.7602 16.6784 10.5989 16.0501 10.5989C14.9808 10.5989 14.0518 11.1038 13.2632 12.1136L12 11.0827C13.1228 9.69425 14.5129 9 16.1704 9ZM15.5088 21.0757C15.9098 21.0757 16.2439 21.216 16.5113 21.4965C16.7786 21.777 16.9123 22.1206 16.9123 22.5273C16.9123 22.9341 16.7786 23.2847 16.5113 23.5792C16.2439 23.8597 15.9098 24 15.5088 24C15.1211 24 14.7937 23.8597 14.5263 23.5792C14.259 23.2847 14.1253 22.9341 14.1253 22.5273C14.1253 22.1206 14.259 21.777 14.5263 21.4965C14.7937 21.216 15.1211 21.0757 15.5088 21.0757Z" fill="#FFFDFD"/>
</svg>
