<svg width="48" height="48" viewBox="0 0 48 48" fill="none" xmlns="http://www.w3.org/2000/svg">
<rect width="48" height="48" rx="8" fill="#FFFDFD"/>
<path d="M27.9888 20.6525C28.0093 20.1006 27.5786 19.6366 27.0267 19.6161C26.4748 19.5956 26.0107 20.0263 25.9902 20.5782L27.9888 20.6525ZM25.6126 30.7321C25.5921 31.284 26.0228 31.748 26.5747 31.7685C27.1266 31.7891 27.5907 31.3583 27.6112 30.8064L25.6126 30.7321ZM20.3888 30.8064C20.4093 31.3583 20.8734 31.7891 21.4253 31.7685C21.9772 31.748 22.4079 31.284 22.3874 30.7321L20.3888 30.8064ZM22.0098 20.5782C21.9893 20.0263 21.5252 19.5956 20.9733 19.6161C20.4214 19.6366 19.9907 20.1006 20.0112 20.6525L22.0098 20.5782ZM31.8847 16.9945L32.039 16.0065L31.8847 16.9945ZM32.8237 18.1658C33.3673 18.2632 33.8869 17.9014 33.9843 17.3578C34.0817 16.8142 33.72 16.2945 33.1763 16.1971L32.8237 18.1658ZM30.7198 32.6562L29.7225 32.5821L30.7198 32.6562ZM14.8237 16.1971C14.28 16.2945 13.9183 16.8142 14.0157 17.3578C14.1131 17.9014 14.6327 18.2632 15.1763 18.1658L14.8237 16.1971ZM17.2802 32.6562L16.283 32.7304L17.2802 32.6562ZM25.8115 13.0299L25.8446 12.0305L25.8115 13.0299ZM22.1885 13.0299L22.2215 14.0294L22.1885 13.0299ZM28.0909 16.5474L28.0112 17.5443L28.0909 16.5474ZM19.9091 16.5474L19.9888 17.5443L19.9091 16.5474ZM25.9902 20.5782L25.6126 30.7321L27.6112 30.8064L27.9888 20.6525L25.9902 20.5782ZM22.3874 30.7321L22.0098 20.5782L20.0112 20.6525L20.3888 30.8064L22.3874 30.7321ZM28.2725 34H19.7275V36H28.2725V34ZM31.7304 17.9825C32.0961 18.0396 32.4605 18.1007 32.8237 18.1658L33.1763 16.1971C32.7986 16.1295 32.4195 16.0659 32.039 16.0065L31.7304 17.9825ZM30.8875 16.9203L29.7225 32.5821L31.717 32.7304L32.882 17.0687L30.8875 16.9203ZM15.1763 18.1658C15.5395 18.1007 15.9039 18.0396 16.2696 17.9825L15.961 16.0065C15.5805 16.0659 15.2014 16.1295 14.8237 16.1971L15.1763 18.1658ZM18.2775 32.5821L17.1125 16.9203L15.118 17.0687L16.283 32.7304L18.2775 32.5821ZM19.7275 34C18.9964 34 18.3391 33.4109 18.2775 32.5821L16.283 32.7304C16.4181 34.5466 17.8934 36 19.7275 36V34ZM28.2725 36C30.1066 36 31.5819 34.5466 31.717 32.7304L29.7225 32.5821C29.6609 33.4109 29.0036 34 28.2725 34V36ZM24 14C24.5951 14 25.188 14.0098 25.7785 14.0294L25.8446 12.0305C25.2321 12.0102 24.6172 12 24 12V14ZM22.2215 14.0294C22.812 14.0098 23.4049 14 24 14V12C23.3828 12 22.7679 12.0102 22.1554 12.0305L22.2215 14.0294ZM22.1554 12.0305C20.275 12.0927 18.9091 13.701 18.9091 15.5139H20.9091C20.9091 14.6656 21.53 14.0523 22.2215 14.0294L22.1554 12.0305ZM25.7785 14.0294C26.47 14.0523 27.0909 14.6656 27.0909 15.5139H29.0909C29.0909 13.701 27.725 12.0927 25.8446 12.0305L25.7785 14.0294ZM27.0909 15.5139V16.5474H29.0909V15.5139H27.0909ZM24 17.3846C25.3501 17.3846 26.6878 17.4385 28.0112 17.5443L28.1706 15.5506C26.7942 15.4406 25.4033 15.3846 24 15.3846V17.3846ZM28.0112 17.5443C29.2642 17.6444 30.5044 17.791 31.7304 17.9825L32.039 16.0065C30.7637 15.8073 29.4736 15.6548 28.1706 15.5506L28.0112 17.5443ZM18.9091 15.5139V16.5474H20.9091V15.5139H18.9091ZM16.2696 17.9825C17.4956 17.791 18.7358 17.6444 19.9888 17.5443L19.8294 15.5506C18.5264 15.6548 17.2363 15.8073 15.961 16.0065L16.2696 17.9825ZM19.9888 17.5443C21.3122 17.4385 22.6499 17.3846 24 17.3846V15.3846C22.5967 15.3846 21.2058 15.4406 19.8294 15.5506L19.9888 17.5443Z" fill="#E97878"/>
</svg>
