<svg width="194" height="37" viewBox="0 0 194 37" fill="none" xmlns="http://www.w3.org/2000/svg">
<path d="M79.5866 13.7892H79.5486C78.6612 13.9413 77.7108 14.0363 76.6974 14.0743C75.6835 14.1124 74.7331 14.0048 73.8463 13.7512C73.9983 13.0669 73.8588 12.4967 73.4281 12.0405C72.9969 11.5843 72.4777 11.2933 71.8695 11.1662C71.2612 11.0396 70.672 11.1032 70.1018 11.3563C69.5316 11.6099 69.1954 12.0916 69.0944 12.8008C69.0433 12.9784 69.0243 13.1495 69.0374 13.314C69.0499 13.4791 69.0689 13.6502 69.0944 13.8272C69.2969 14.4355 69.6266 14.8412 70.0828 15.0437C70.539 15.2468 71.0332 15.3859 71.5654 15.4619C72.9084 15.614 74.1564 16.0452 75.3099 16.7544C76.4628 17.4642 77.4067 18.3641 78.142 19.4535C78.5982 20.0368 78.9403 20.664 79.1684 21.3353C79.3965 22.007 79.5296 22.6978 79.5676 23.4071C79.6056 24.1169 79.5546 24.8327 79.4155 25.5549C79.276 26.2772 79.0544 26.968 78.7503 27.6268C78.4461 28.4126 78.0405 29.0844 77.5338 29.6416C77.0265 30.1993 76.4503 30.6555 75.8041 31.0101C75.1578 31.3653 74.4605 31.6249 73.7132 31.7895C72.9654 31.954 72.1986 32.0235 71.4133 31.9985C70.2978 31.973 69.1894 31.777 68.087 31.4093C66.9845 31.0422 66.0021 30.529 65.1408 29.8697C64.2789 29.2109 63.5947 28.4061 63.088 27.4557C62.5807 26.5053 62.3657 25.4219 62.4417 24.2054V23.9773C63.3286 23.8508 64.3045 23.8193 65.3689 23.8823C66.4333 23.9458 67.3962 23.9648 68.258 23.9393C68.3086 24.7507 68.6317 25.3589 69.2274 25.764C69.8226 26.1697 70.4564 26.3663 71.1282 26.3533C71.7994 26.3408 72.3827 26.1192 72.8769 25.688C73.3711 25.2573 73.5422 24.5986 73.3901 23.7112C73.3141 23.103 73.086 22.6153 72.7058 22.2476C72.3257 21.8805 71.8755 21.5824 71.3563 21.3543C70.8366 21.1262 70.2729 20.9551 69.6646 20.8411C69.0564 20.727 68.4861 20.6195 67.9539 20.5179C67.4467 20.4169 66.978 20.2518 66.5474 20.0237C66.1162 19.7956 65.7235 19.5295 65.3689 19.2254C64.2029 18.1105 63.4491 16.8815 63.107 15.5379C62.7648 14.1949 62.7458 12.8899 63.05 11.6224C63.3541 10.3554 63.9303 9.20242 64.7796 8.16297C65.6285 7.12407 66.6614 6.35127 67.8779 5.84404C68.4861 5.59097 69.1574 5.4199 69.8927 5.33083C70.6275 5.24231 71.3688 5.21679 72.1166 5.2548C72.8639 5.29282 73.5992 5.40089 74.3215 5.57793C75.0438 5.75552 75.709 5.98361 76.3173 6.26221C77.5338 6.89598 78.4711 7.83387 79.1304 9.07534C79.7892 10.3174 79.9412 11.8885 79.5866 13.7892V13.7892Z" fill="#446622"/>
<path d="M97.2251 4.96969L98.2515 31.5804C97.8203 31.6564 97.3581 31.7074 96.8639 31.7324C96.3697 31.758 95.888 31.7704 95.4194 31.7704H94.0508C93.6071 31.7704 93.2335 31.7835 92.9294 31.8085H92.8913C92.7643 30.9721 92.6823 30.1043 92.6442 29.2044C92.6062 28.3051 92.5807 27.4117 92.5682 26.5243C92.5552 25.6375 92.5362 24.7507 92.5112 23.8633C92.4857 22.9764 92.4221 22.1276 92.3211 21.3162L92.2831 21.2782C91.5478 21.1517 90.813 21.0882 90.0782 21.0882C89.3434 21.0882 88.6081 21.1772 87.8733 21.3543C87.7973 22.2416 87.7653 23.116 87.7783 23.9773C87.7908 24.8392 87.8098 25.701 87.8353 26.5624C87.8603 27.4242 87.8668 28.2671 87.8543 29.0904C87.8413 29.9142 87.7718 30.7315 87.6452 31.5424C87.3411 31.7199 86.9354 31.8085 86.4288 31.8085C85.9221 31.8085 85.4148 31.7835 84.9081 31.7324C84.4009 31.6819 83.9257 31.6439 83.4826 31.6184C83.0389 31.5934 82.7033 31.6439 82.4752 31.7704C82.4241 31.0612 82.3671 30.0918 82.3041 28.8623C82.2406 27.6333 82.1835 26.2523 82.133 24.7186C82.082 23.1855 82.038 21.5574 82 19.8337C81.962 18.1105 81.9299 16.3808 81.9049 14.6446C81.8794 12.9089 81.8729 11.2362 81.8859 9.62656C81.8984 8.01743 81.9174 6.56633 81.943 5.27381V5.23579H82.057C82.4372 5.31183 82.8363 5.33735 83.2545 5.31183C83.6727 5.28684 84.0908 5.26132 84.509 5.23579C84.9272 5.21081 85.3388 5.19778 85.7445 5.19778C86.1502 5.19778 86.5298 5.24883 86.8849 5.34984C87.113 7.09854 87.2271 8.79674 87.2271 10.4439C87.2271 12.091 87.3791 13.7262 87.6833 15.3479H87.7213C88.3545 15.4999 89.0388 15.5444 89.7741 15.4809C90.5089 15.4179 91.1932 15.3609 91.8269 15.3098H91.8649C92.017 13.5611 92.099 11.9265 92.112 10.4059C92.1245 8.88526 92.093 7.21259 92.017 5.38786C92.3211 5.28684 92.6948 5.19778 93.1384 5.12175C93.5816 5.04572 94.0443 4.9887 94.526 4.95068C95.0072 4.91266 95.4824 4.90017 95.9516 4.91267C96.4203 4.9257 96.8449 4.94471 97.2251 4.96969V4.96969Z" fill="#446622"/>
<path d="M113.153 18.4651L116.005 31.7704V31.8084C115.244 31.9605 114.408 32.0175 113.496 31.9795C112.583 31.9415 111.721 31.8334 110.911 31.6564H110.873C110.72 31.2513 110.574 30.7695 110.435 30.2118C110.296 29.6546 110.156 29.0844 110.017 28.5011C109.878 27.9184 109.732 27.3607 109.58 26.8284C109.428 26.2962 109.263 25.8401 109.086 25.4599C108.756 25.4094 108.503 25.3839 108.326 25.3839H107.85C107.711 25.3839 107.559 25.3904 107.394 25.4029C107.229 25.4159 107.007 25.4219 106.729 25.4219C106.551 25.8276 106.406 26.3028 106.292 26.8475C106.178 27.3927 106.064 27.9629 105.95 28.5581C105.836 29.1539 105.715 29.7306 105.588 30.2878C105.461 30.8456 105.284 31.3398 105.056 31.7704C105.031 31.7704 105.012 31.7769 104.999 31.7894C104.986 31.8025 104.967 31.8084 104.942 31.8084C104.739 31.859 104.232 31.859 103.422 31.8084C102.61 31.7579 101.343 31.7454 99.62 31.7704C99.5945 31.7704 99.569 31.7579 99.544 31.7324C99.5945 31.5554 99.683 31.0612 99.8101 30.2498C99.9367 29.439 100.114 28.3871 100.342 27.0946C100.57 25.802 100.843 24.3135 101.16 22.6278C101.476 20.9426 101.85 19.1494 102.281 17.2486C102.712 15.3478 103.18 13.371 103.688 11.3182C104.194 9.2654 104.752 7.22561 105.36 5.19777C105.537 5.17279 105.727 5.15975 105.931 5.15975H106.729C107.058 5.15975 107.483 5.15378 108.002 5.14074C108.522 5.12825 109.2 5.08372 110.036 5.00769C110.112 5.33734 110.232 5.83805 110.397 6.50929C110.562 7.18108 110.739 7.94138 110.93 8.79021C111.12 9.63958 111.322 10.5454 111.538 11.5083C111.753 12.4717 111.962 13.3966 112.165 14.2834C112.368 15.1708 112.558 15.9816 112.735 16.7164C112.912 17.4517 113.052 18.0344 113.153 18.4651V18.4651ZM109.276 20.9361C109.022 18.7567 108.801 17.0585 108.611 15.842C108.421 14.6256 108.255 13.8022 108.116 13.371C107.977 12.9404 107.837 12.8454 107.698 13.0859C107.559 13.3271 107.432 13.8147 107.318 14.5495C107.204 15.2848 107.077 16.2097 106.938 17.3246C106.798 18.4401 106.64 19.6436 106.463 20.9361C106.893 20.9616 107.35 20.9681 107.831 20.9551C108.313 20.9426 108.794 20.9361 109.276 20.9361V20.9361Z" fill="#446622"/>
<path d="M135.507 31.6944H135.545C134.657 31.6944 133.669 31.7265 132.579 31.7895C131.489 31.8525 130.374 31.8465 129.234 31.7704H129.196C128.942 31.1877 128.626 30.491 128.246 29.6796C127.865 28.8688 127.447 28.02 126.991 27.1326C126.535 26.2457 126.041 25.3714 125.508 24.5095C124.976 23.6482 124.444 22.8879 123.912 22.2286L123.836 22.1146C123.76 22.6978 123.722 23.4136 123.722 24.2624C123.722 25.1113 123.741 25.9862 123.779 26.8855C123.817 27.7854 123.861 28.6407 123.912 29.4515C123.962 30.2629 124 30.9091 124.026 31.3903C123.595 31.5679 123.031 31.6819 122.334 31.7324C121.637 31.7835 120.947 31.8144 120.262 31.8275C119.578 31.84 118.963 31.8334 118.419 31.8085C117.873 31.7835 117.538 31.7835 117.411 31.8085C117.462 31.8085 117.5 31.4604 117.525 30.763C117.55 30.0663 117.563 29.1474 117.563 28.0069V24.0724C117.563 22.5898 117.557 21.0567 117.544 19.4725C117.531 17.8889 117.506 16.3172 117.468 14.7586C117.43 13.2 117.398 11.7684 117.373 10.4629C117.348 9.15789 117.316 8.04296 117.278 7.11756C117.24 6.1927 117.196 5.56545 117.145 5.2358C118.564 5.03323 120.123 4.84316 121.821 4.66557C123.519 4.48853 125.293 4.50102 127.143 4.70359C128.638 4.77962 129.981 5.21082 131.173 5.99611C132.364 6.78193 133.289 7.75784 133.948 8.92328C134.607 10.0893 134.955 11.3753 134.993 12.7818C135.031 14.1884 134.657 15.551 133.872 16.8685C133.39 17.7808 132.75 18.5411 131.952 19.1494C131.154 19.7576 130.146 20.0998 128.93 20.1758H128.74V20.2138C129.272 21.1517 129.855 22.0831 130.488 23.0079C131.122 23.9333 131.743 24.8647 132.351 25.8021C132.959 26.7399 133.542 27.6968 134.1 28.6722C134.657 29.6481 135.126 30.6555 135.507 31.6944V31.6944ZM122.695 10.5579C122.72 10.8876 122.739 11.2612 122.752 11.6794C122.765 12.0976 122.771 12.5222 122.771 12.9529C122.771 13.3836 122.777 13.8023 122.79 14.2074C122.803 14.6131 122.834 14.9552 122.885 15.2338H122.923C123.506 15.2849 124.14 15.3229 124.824 15.3479C125.508 15.3734 126.155 15.3354 126.763 15.2338C127.244 15.1328 127.618 14.8857 127.884 14.4925C128.151 14.0999 128.309 13.6692 128.36 13.2C128.41 12.7313 128.36 12.2626 128.208 11.7934C128.056 11.3248 127.802 10.9511 127.447 10.672C126.89 10.1653 126.18 9.93068 125.318 9.9687C124.457 10.0067 123.582 10.2033 122.695 10.5579V10.5579Z" fill="#446622"/>
<path d="M153.183 26.6384V26.7144C153.233 27.5258 153.246 28.3681 153.221 29.2424C153.195 30.1168 153.081 30.9341 152.878 31.6944C150.293 31.6694 147.664 31.7009 144.991 31.7894C142.317 31.878 139.751 31.8209 137.293 31.6184C137.293 29.4135 137.267 27.2276 137.217 25.0607C137.166 22.8939 137.127 20.7335 137.103 18.5791C137.077 16.4253 137.077 14.2709 137.103 12.1165C137.127 9.96271 137.204 7.79584 137.331 5.61594C138.319 5.56544 139.389 5.5209 140.543 5.48289C141.696 5.44487 142.855 5.41337 144.021 5.38785C145.187 5.36287 146.315 5.33734 147.404 5.31182C148.494 5.28684 149.457 5.2738 150.293 5.2738C151.13 5.2738 151.801 5.28684 152.308 5.31182C152.815 5.33734 153.068 5.36287 153.068 5.38785C153.194 6.27523 153.226 7.17457 153.163 8.08693C153.1 8.9993 153.068 9.89917 153.068 10.786V10.824C152.257 11.0016 151.44 11.1091 150.616 11.1472C149.792 11.1852 148.962 11.1982 148.126 11.1852C147.29 11.1727 146.453 11.1662 145.617 11.1662C144.782 11.1662 143.945 11.2042 143.108 11.2802H142.994L142.956 11.3182C142.981 12.0536 142.95 12.8073 142.861 13.5801C142.772 14.3535 142.817 15.0817 142.994 15.766L143.032 15.804C143.792 15.8551 144.565 15.8801 145.351 15.8801C146.138 15.8801 146.922 15.8931 147.708 15.9181V15.9561C147.834 16.8179 147.873 17.6798 147.822 18.5411C147.771 19.403 147.759 20.3029 147.784 21.2402C147.404 21.3418 146.973 21.3988 146.492 21.4113C146.01 21.4243 145.547 21.4303 145.104 21.4303C144.661 21.4303 144.261 21.4433 143.907 21.4683C143.552 21.4938 143.311 21.5574 143.184 21.6584C143.057 22.3937 143.013 23.217 143.051 24.1294C143.089 25.0417 143.133 25.802 143.184 26.4103L143.222 26.4483C144.895 26.4483 146.542 26.4928 148.164 26.5814C149.786 26.6704 151.459 26.6894 153.182 26.6384H153.183Z" fill="#446622"/>
<path d="M176.262 11.3769C176.749 10.9196 177.242 10.4385 177.726 9.94752C178.221 9.44463 178.706 8.88418 179.165 8.28245L179.55 7.77848L179.156 7.28156C178.854 6.90087 178.518 6.51311 178.158 6.12916C177.806 5.75498 177.439 5.37266 177.057 4.98273L175.923 3.82598C175.547 3.44257 175.186 3.07056 174.847 2.71648C174.617 2.47155 174.395 2.23857 174.179 2.01482C173.964 1.79271 173.75 1.57385 173.535 1.35879L173.099 0.922699L172.56 1.22411C172.357 1.33761 172.156 1.49456 171.963 1.68789C171.815 1.83615 171.666 1.98876 171.517 2.14516C171.383 2.28636 171.246 2.42376 171.104 2.55844C170.988 2.66814 170.881 2.75666 170.783 2.82129L170.048 3.3106L170.595 4.00411C170.835 4.30877 171.134 4.64874 171.485 5.01477L171.668 5.20593C170.118 5.17661 168.468 5.15325 168.203 5.15271C165.692 5.15108 163.634 5.83155 162.142 7.43417C160.649 9.03678 160.22 10.9728 160.22 13.4965C160.22 14.0798 160.226 14.6505 160.201 15.2072V16.1196C160.226 17.4126 160.207 18.7752 160.144 20.2062C160.081 21.6383 160.024 23.0259 159.974 24.3689C160.024 25.0282 160.144 27.2961 161.418 29.0448C163.108 31.3637 166.115 32.086 167.425 32.086H168.071C168.349 32.086 170.819 32.08 171.137 32.067C171.453 32.055 171.688 31.9469 171.84 31.7438C171.89 31.1106 171.909 30.3883 171.897 29.577C171.884 28.7662 171.903 28.0314 171.953 27.3721V27.1815H171.916C171.156 27.1565 168.801 27.0462 167.482 26.3641C166.528 25.871 165.91 25.3258 165.555 24.5144C165.251 23.45 165.39 22.189 165.428 21.023C165.466 19.8576 165.472 18.7296 165.447 17.6402C165.498 17.0575 165.554 16.4682 165.618 15.8719C165.681 15.2767 165.776 14.662 165.903 14.0282C165.928 13.8511 165.959 13.686 165.998 13.534C166.037 13.3819 166.082 13.2179 166.131 13.0398C166.38 12.1296 166.624 11.5952 167.128 11.0717C167.512 10.6736 168.2 10.3668 168.636 10.2717C169.088 10.1734 170.431 10.13 171.724 10.0996C171.327 10.4754 170.925 10.8365 170.516 11.1689L169.779 11.7668L170.482 12.4044L171.059 12.9589C171.077 12.9779 171.097 13.0012 171.116 13.023C171.17 13.0892 171.256 13.1783 171.378 13.2891C171.457 13.3618 171.563 13.4601 171.694 13.5834C171.837 13.7186 172.027 13.8892 172.266 14.0955L172.871 14.5772L173.407 14.0233C173.843 13.572 174.304 13.1337 174.776 12.7194C175.274 12.2822 175.768 11.8342 176.259 11.3742L176.262 11.3769Z" fill="#446622"/>
<path d="M11.8608 21.8865C11.0749 22.0136 10.2576 22.1086 9.40878 22.1716C8.55941 22.2351 7.75511 22.3302 6.99481 22.4567H6.95679C6.82971 24.0534 6.75368 25.644 6.7287 27.2276C6.70318 28.8118 6.67765 30.3259 6.65267 31.7704C6.14544 31.821 5.54371 31.859 4.84695 31.8845C4.14964 31.9095 3.45939 31.9225 2.77511 31.9225C2.09084 31.9225 1.48857 31.9095 0.969389 31.8845C0.449666 31.859 0.139027 31.821 0.0380153 31.7704L0 31.7324V27.4557C0 26.1252 0.00597383 24.8392 0.0190076 23.5972C0.0314984 22.3557 0.0380153 21.1072 0.0380153 19.8527C0.0380153 18.5982 0.0439891 17.2741 0.0570229 15.8801C0.0695136 14.4865 0.0760305 12.9849 0.0760305 11.3753V5.95809C0.506689 5.88206 1.12742 5.80603 1.93878 5.73C2.74959 5.65397 3.66847 5.57794 4.69488 5.50191C5.7213 5.42588 6.8107 5.36885 7.9642 5.33084C9.11714 5.29282 10.2511 5.28033 11.3666 5.29282C12.4815 5.30586 13.5334 5.36288 14.5218 5.46389C15.5102 5.56545 16.3591 5.70502 17.0689 5.88206C17.0689 6.21171 17.0748 6.62987 17.0879 7.13656C17.1003 7.64379 17.1069 8.16949 17.1069 8.7142V10.2728C17.1069 10.767 17.0938 11.1792 17.0689 11.5083C16.3846 11.5594 15.6178 11.6099 14.7689 11.6604C13.9196 11.7114 13.0452 11.7554 12.1459 11.7934C11.246 11.8314 10.3461 11.876 9.44679 11.9265C8.54692 11.9775 7.70406 12.0405 6.91878 12.1166C6.63964 12.7759 6.52559 13.4091 6.57664 14.0173C6.62715 14.6256 6.76672 15.1328 6.99481 15.5379C7.01979 15.5635 7.04531 15.5759 7.07084 15.5759C7.42547 15.627 7.82463 15.6585 8.26832 15.671C8.71147 15.684 9.14864 15.69 9.57984 15.69C10.011 15.69 10.4287 15.6775 10.8343 15.652C11.2395 15.627 11.5816 15.6015 11.8608 15.5759C11.9368 15.7535 11.9808 16.0957 11.9938 16.6024C12.0063 17.1096 11.9998 17.6733 11.9748 18.294C11.9493 18.9153 11.9303 19.5426 11.9178 20.1758C11.9047 20.8096 11.9238 21.3543 11.9748 21.8105C11.9748 21.8615 11.9368 21.8865 11.8608 21.8865V21.8865Z" fill="#FFFDFD"/>
<path d="M28.5874 18.4651L31.4386 31.7704V31.8084C30.6783 31.9605 29.8419 32.0175 28.9296 31.9795C28.0172 31.9415 27.1553 31.8334 26.3445 31.6564H26.3065C26.1545 31.2513 26.0084 30.7695 25.8693 30.2118C25.7298 29.6546 25.5902 29.0844 25.4512 28.5011C25.3116 27.9184 25.1661 27.3607 25.014 26.8284C24.8619 26.2962 24.6968 25.8401 24.5198 25.4599C24.1901 25.4094 23.9365 25.3839 23.7595 25.3839H23.2843C23.1447 25.3839 22.9927 25.3904 22.8281 25.4029C22.663 25.4159 22.4414 25.4219 22.1629 25.4219C21.9853 25.8276 21.8397 26.3028 21.7257 26.8475C21.6116 27.3927 21.4976 27.9629 21.3835 28.5581C21.2695 29.1539 21.1489 29.7306 21.0224 30.2878C20.8953 30.8456 20.7183 31.3398 20.4902 31.7704C20.4647 31.7704 20.4456 31.7769 20.4332 31.7894C20.4201 31.8025 20.4011 31.8084 20.3761 31.8084C20.1725 31.859 19.6663 31.859 18.8555 31.8084C18.0442 31.7579 16.7772 31.7454 15.054 31.7704C15.0285 31.7704 15.0029 31.7579 14.978 31.7324C15.0285 31.5554 15.117 31.0612 15.2441 30.2498C15.3706 29.439 15.5482 28.3871 15.7763 27.0946C16.0044 25.802 16.2765 24.3135 16.5936 22.6278C16.9102 20.9426 17.2839 19.1494 17.7151 17.2486C18.1457 15.3478 18.6144 13.371 19.1216 11.3182C19.6283 9.2654 20.1861 7.22561 20.7943 5.19777C20.9713 5.17279 21.1614 5.15975 21.3645 5.15975H22.1629C22.492 5.15975 22.9166 5.15378 23.4364 5.14074C23.9555 5.12825 24.6338 5.08372 25.4702 5.00769C25.5462 5.33734 25.6662 5.83805 25.8313 6.50929C25.9959 7.18108 26.1735 7.94138 26.3635 8.79021C26.5536 9.63958 26.7562 10.5454 26.9718 11.5083C27.1868 12.4717 27.3959 13.3966 27.599 14.2834C27.8016 15.1708 27.9917 15.9816 28.1693 16.7164C28.3463 17.4517 28.4859 18.0344 28.5874 18.4651V18.4651ZM24.7099 20.9361C24.4563 18.7567 24.2347 17.0585 24.0446 15.842C23.8545 14.6256 23.6894 13.8022 23.5504 13.371C23.4108 12.9404 23.2713 12.8454 23.1322 13.0859C22.9927 13.3271 22.8661 13.8147 22.7521 14.5495C22.638 15.2848 22.511 16.2097 22.3719 17.3246C22.2324 18.4401 22.0738 19.6436 21.8967 20.9361C22.3274 20.9616 22.7836 20.9681 23.2653 20.9551C23.7465 20.9426 24.2282 20.9361 24.7099 20.9361Z" fill="#FFFDFD"/>
<path d="M38.851 5.08373H39.7634V5.23579C39.7634 7.41569 39.7314 9.60754 39.6684 11.8124C39.6048 14.0173 39.5543 16.2287 39.5163 18.4461C39.4783 20.664 39.4718 22.8749 39.4973 25.0798C39.5223 27.2846 39.5983 29.4645 39.7254 31.6184C39.5217 31.8209 39.0981 31.9415 38.4519 31.9795C37.8056 32.0175 37.1083 32.0235 36.361 31.9985C35.6132 31.973 34.8975 31.9415 34.2132 31.9035C33.5289 31.8655 33.0597 31.8845 32.8066 31.9605C32.9837 29.6796 33.0597 27.3862 33.0347 25.0798C33.0092 22.7739 32.9647 20.4864 32.9017 18.218C32.8381 15.9501 32.8001 13.7072 32.7876 11.4893C32.7746 9.27192 32.8827 7.09854 33.1107 4.96968V4.89365C33.2373 4.86867 33.4844 4.87464 33.852 4.91266C34.2192 4.95067 34.4918 4.96968 34.6694 4.96968C35.1256 4.99521 35.6512 5.0267 36.247 5.06472C36.8422 5.10273 37.7106 5.10925 38.851 5.08373V5.08373Z" fill="#FFFDFD"/>
<path d="M60.8238 31.6944H60.8618C59.9745 31.6944 58.9861 31.7265 57.8967 31.7895C56.8067 31.8525 55.6918 31.8465 54.5513 31.7704H54.5133C54.2597 31.1877 53.9431 30.491 53.5629 29.6796C53.1828 28.8688 52.7646 28.02 52.3084 27.1326C51.8522 26.2457 51.358 25.3714 50.8258 24.5095C50.2936 23.6482 49.7614 22.8879 49.2292 22.2286L49.1531 22.1146C49.0771 22.6978 49.0391 23.4136 49.0391 24.2624C49.0391 25.1113 49.0581 25.9862 49.0961 26.8855C49.1341 27.7854 49.1781 28.6407 49.2292 29.4515C49.2797 30.2629 49.3177 30.9091 49.3432 31.3903C48.912 31.5679 48.3483 31.6819 47.6515 31.7324C46.9542 31.7835 46.264 31.8144 45.5797 31.8275C44.8954 31.84 44.2807 31.8334 43.736 31.8085C43.1907 31.7835 42.8551 31.7835 42.7286 31.8085C42.7791 31.8085 42.8171 31.4604 42.8426 30.763C42.8676 30.0663 42.8806 29.1474 42.8806 28.0069V24.0724C42.8806 22.5898 42.8741 21.0567 42.8616 19.4725C42.8486 17.8889 42.8236 16.3172 42.7856 14.7586C42.7476 13.2 42.7155 11.7684 42.6906 10.4629C42.665 9.15789 42.6335 8.04296 42.5955 7.11756C42.5575 6.1927 42.513 5.56545 42.4625 5.2358C43.8815 5.03323 45.4401 4.84316 47.1383 4.66557C48.836 4.48853 50.6102 4.50102 52.4605 4.70359C53.9556 4.77962 55.2986 5.21082 56.4901 5.99611C57.6811 6.78193 58.6059 7.75784 59.2652 8.92328C59.924 10.0893 60.2726 11.3753 60.3106 12.7818C60.3486 14.1884 59.9745 15.551 59.1892 16.8685C58.7075 17.7808 58.0677 18.5411 57.2694 19.1494C56.4711 19.7576 55.4637 20.0998 54.2472 20.1758H54.0571V20.2138C54.5893 21.1517 55.172 22.0831 55.8058 23.0079C56.439 23.9333 57.0603 24.8647 57.6686 25.8021C58.2768 26.7399 58.8595 27.6968 59.4173 28.6722C59.9745 29.6481 60.4437 30.6555 60.8238 31.6944V31.6944ZM48.0127 10.5579C48.0377 10.8876 48.0567 11.2612 48.0697 11.6794C48.0822 12.0976 48.0887 12.5222 48.0887 12.9529C48.0887 13.3836 48.0947 13.8023 48.1077 14.2074C48.1202 14.6131 48.1517 14.9552 48.2028 15.2338H48.2408C48.8235 15.2849 49.4573 15.3229 50.1415 15.3479C50.8258 15.3734 51.4721 15.3354 52.0803 15.2338C52.5615 15.1328 52.9357 14.8857 53.2018 14.4925C53.4679 14.0999 53.6259 13.6692 53.677 13.2C53.7275 12.7313 53.677 12.2626 53.5249 11.7934C53.3728 11.3248 53.1192 10.9511 52.7646 10.672C52.2069 10.1653 51.4971 9.93068 50.6357 9.9687C49.7739 10.0067 48.8995 10.2033 48.0127 10.5579V10.5579Z" fill="#FFFDFD"/>
<path d="M193.999 12.8714C193.948 12.2121 193.828 9.94425 192.554 8.19555C190.865 5.87662 187.857 5.15433 186.548 5.15433H185.902C185.623 5.15433 183.153 5.1603 182.836 5.17334C182.519 5.18528 182.285 5.29335 182.133 5.49646C182.082 6.12969 182.063 6.85198 182.076 7.66333C182.089 8.47415 182.07 9.20893 182.019 9.86822V10.0588H182.057C182.817 10.0838 185.172 10.1941 186.491 10.8762C187.444 11.3693 188.063 11.9145 188.418 12.7259C188.722 13.7903 188.582 15.0513 188.544 16.2173C188.506 17.3827 188.5 18.5107 188.525 19.6001C188.475 20.1828 188.418 20.7721 188.355 21.3684C188.292 21.9636 188.197 22.5783 188.07 23.2121C188.045 23.3892 188.013 23.5543 187.975 23.7063C187.936 23.8584 187.89 24.0224 187.841 24.2005C187.593 25.1107 187.348 25.6451 186.844 26.1686C186.461 26.5667 185.773 26.8735 185.337 26.9686C184.884 27.0669 183.542 27.1103 182.249 27.1407C182.646 26.7655 183.048 26.4043 183.457 26.0714L184.193 25.474L183.491 24.8365L182.906 24.2733C182.89 24.257 182.872 24.2358 182.856 24.2173C182.801 24.1506 182.714 24.0599 182.596 23.9529C182.516 23.879 182.408 23.7796 182.278 23.6574C182.136 23.5217 181.946 23.3511 181.707 23.1448L181.101 22.662L180.565 23.2165C180.129 23.6672 179.669 24.106 179.196 24.5204C178.698 24.957 178.204 25.4056 177.713 25.8656C177.216 26.331 176.724 26.8122 176.249 27.295C175.754 27.7978 175.269 28.3583 174.81 28.9595L174.424 29.4635L174.819 29.9604C175.12 30.3405 175.456 30.7283 175.816 31.1122C176.168 31.4864 176.535 31.8687 176.918 32.2597L178.051 33.4154C178.427 33.7988 178.788 34.1714 179.128 34.526C179.358 34.7698 179.58 35.0034 179.795 35.2271C180.01 35.4492 180.224 35.6681 180.439 35.8826L180.874 36.3181L181.411 36.0189C181.613 35.9065 181.815 35.7501 182.011 35.554C182.159 35.4058 182.309 35.2532 182.456 35.0968C182.59 34.9556 182.728 34.8182 182.87 34.6829C182.986 34.5722 183.094 34.4842 183.19 34.4206L183.927 33.9319L183.379 33.2373C183.14 32.9332 182.84 32.5932 182.488 32.2261C182.431 32.1658 182.364 32.0968 182.305 32.0349C183.856 32.0642 185.506 32.0876 185.77 32.0881C188.281 32.0898 190.34 31.4093 191.832 29.8067C193.324 28.2041 193.753 26.268 193.753 23.7443C193.753 23.1611 193.747 22.5903 193.772 22.0336V21.1213C193.747 19.8282 193.766 18.4656 193.829 17.0346C193.893 15.6025 193.95 14.215 194 12.872L193.999 12.8714Z" fill="#FFFDFD"/>
</svg>
