<svg width="20" height="24" viewBox="0 0 20 24" fill="none" xmlns="http://www.w3.org/2000/svg">
<path d="M13.9888 8.65255C14.0093 8.10065 13.5786 7.6366 13.0267 7.61608C12.4748 7.59555 12.0107 8.02632 11.9902 8.57822L13.9888 8.65255ZM11.6126 18.7321C11.5921 19.284 12.0228 19.748 12.5747 19.7685C13.1266 19.7891 13.5907 19.3583 13.6112 18.8064L11.6126 18.7321ZM6.3888 18.8064C6.40933 19.3583 6.87337 19.7891 7.42528 19.7685C7.97718 19.748 8.40795 19.284 8.38742 18.7321L6.3888 18.8064ZM8.0098 8.57822C7.98927 8.02632 7.52523 7.59555 6.97333 7.61608C6.42142 7.6366 5.99066 8.10065 6.01118 8.65255L8.0098 8.57822ZM17.8847 4.99449L18.039 4.00647L18.039 4.00647L17.8847 4.99449ZM18.8237 6.16579C19.3673 6.26317 19.8869 5.90142 19.9843 5.35779C20.0817 4.81416 19.72 4.29452 19.1763 4.19713L18.8237 6.16579ZM16.7198 20.6562L15.7225 20.5821L15.7225 20.5821L16.7198 20.6562ZM0.823662 4.19713C0.280032 4.29452 -0.0817185 4.81416 0.0156703 5.35779C0.113059 5.90142 0.632708 6.26318 1.17634 6.16579L0.823662 4.19713ZM3.28022 20.6562L2.28297 20.7304L2.28297 20.7304L3.28022 20.6562ZM11.8115 1.02992L11.8446 0.0304709L11.8115 1.02992ZM8.18845 1.02992L8.22152 2.02938L8.18845 1.02992ZM14.0909 4.54744L14.0112 5.54426L14.0909 4.54744ZM5.90909 4.54744L5.98875 5.54426L5.90909 4.54744ZM11.9902 8.57822L11.6126 18.7321L13.6112 18.8064L13.9888 8.65255L11.9902 8.57822ZM8.38742 18.7321L8.0098 8.57822L6.01118 8.65255L6.3888 18.8064L8.38742 18.7321ZM14.2725 22H5.72753V24H14.2725V22ZM17.7304 5.98251C18.0961 6.03963 18.4605 6.10073 18.8237 6.16579L19.1763 4.19713C18.7986 4.12945 18.4195 4.06588 18.039 4.00647L17.7304 5.98251ZM16.8875 4.92031L15.7225 20.5821L17.717 20.7304L18.882 5.06866L16.8875 4.92031ZM1.17634 6.16579C1.53946 6.10073 1.9039 6.03963 2.2696 5.98251L1.96098 4.00647C1.58055 4.06588 1.20143 4.12945 0.823662 4.19713L1.17634 6.16579ZM4.27746 20.5821L3.11254 4.92031L1.11805 5.06866L2.28297 20.7304L4.27746 20.5821ZM5.72753 22C4.99644 22 4.33911 21.4109 4.27746 20.5821L2.28297 20.7304C2.41806 22.5466 3.89345 24 5.72753 24V22ZM14.2725 24C16.1066 24 17.5819 22.5466 17.717 20.7304L15.7225 20.5821C15.6609 21.4109 15.0036 22 14.2725 22V24ZM10 2C10.5951 2 11.188 2.00984 11.7785 2.02938L11.8446 0.0304709C11.2321 0.0102076 10.6172 0 10 0V2ZM8.22152 2.02938C8.81199 2.00984 9.40486 2 10 2V0C9.38281 0 8.76789 0.0102076 8.15539 0.0304709L8.22152 2.02938ZM8.15539 0.0304709C6.27504 0.092678 4.90909 1.70098 4.90909 3.51385H6.90909C6.90909 2.6656 7.53003 2.05225 8.22152 2.02938L8.15539 0.0304709ZM11.7785 2.02938C12.47 2.05225 13.0909 2.6656 13.0909 3.51385H15.0909C15.0909 1.70098 13.725 0.0926781 11.8446 0.0304709L11.7785 2.02938ZM13.0909 3.51385V4.54744H15.0909V3.51385H13.0909ZM10 5.38462C11.3501 5.38462 12.6878 5.4385 14.0112 5.54426L14.1706 3.55062C12.7942 3.44062 11.4033 3.38462 10 3.38462V5.38462ZM14.0112 5.54426C15.2642 5.6444 16.5044 5.79104 17.7304 5.98251L18.039 4.00647C16.7637 3.80728 15.4736 3.65476 14.1706 3.55062L14.0112 5.54426ZM4.90909 3.51385V4.54744H6.90909V3.51385H4.90909ZM2.2696 5.98251C3.49556 5.79104 4.7358 5.6444 5.98875 5.54426L5.82943 3.55062C4.52637 3.65476 3.23632 3.80728 1.96098 4.00647L2.2696 5.98251ZM5.98875 5.54426C7.31222 5.4385 8.64993 5.38462 10 5.38462V3.38462C8.59669 3.38462 7.20583 3.44062 5.82943 3.55062L5.98875 5.54426Z" fill="#E97878"/>
</svg>
