<?xml version="1.0" encoding="UTF-8"?>
<svg id="a" data-name="Ebene 1" xmlns="http://www.w3.org/2000/svg" width="210mm" height="209.99999mm" viewBox="0 0 595.27559 595.27557">
  <path d="m552.16385,540.54678c-8.34049,8.83324-11.52088.71815-23.66954.71815-12.1484,0-12.1484-.79857-24.29681-.79857-12.14852,0-12.14852,1.2889-24.29703,1.2889-12.14878,0-12.14878-1.71254-24.29757-1.71254-12.1493,0-12.1493.31913-24.2986.31913-12.15053,0-12.15053.11523-24.30105.11523-12.14937,0-12.14937,1.99637-24.29873,1.99637-12.15005,0-12.15005-.23539-24.3001-.23539-12.1496,0-12.1496-.41585-24.2992-.41585s-12.14983-1.3088-24.29965-1.3088c-12.15007,0-12.15007-.75912-24.30014-.75912-12.1503,0-12.1503.38825-24.3006.38825-12.14824,0-12.14824.37571-24.29648.37571-12.14947,0-12.14947.34102-24.29895.34102s-12.1498,1.68303-24.2996,1.68304c-12.15125,0-12.15125-2.08098-24.30251-2.08098-12.15145,0-12.15145.45495-24.30289.45495-12.15127,0-12.15127.60513-24.30254.60513-12.15187,0-12.15187.13841-24.30374.13841-12.15354,0-12.15354.86085-24.30708.86085-12.15354,0-15.21162,6.74565-23.55723-2.08947-8.83512-9.35333-9.848-15.9195-1.01476-25.2746,8.34049-8.83324,12.41356,1.64228,24.56222,1.64228s12.1484-1.24253,24.29681-1.24253,12.14852.17734,24.29704.17734,12.14878-1.1741,24.29757-1.1741,12.1493.2187,24.2986.2187c12.15053,0,12.15053.18176,24.30105.18176,12.14937,0,12.14937-.76189,24.29873-.76189,12.15005,0,12.15005,1.60846,24.3001,1.60846s12.1496.91544,24.2992.91544,12.14983-1.12773,24.29965-1.12773,12.15007-.24612,24.30014-.24612,12.1503.65955,24.3006.65955c12.14824,0,12.14824-1.09382,24.29648-1.09382,12.14947,0,12.14947-.73853,24.29895-.73853s12.1498,2.17276,24.2996,2.17276c12.15125,0,12.15125-1.70847,24.30251-1.70847s12.15145,1.57118,24.30289,1.57118,12.15127-1.16805,24.30254-1.16805,12.15187.22934,24.30374.22934c12.15354,0,12.15354,1.15983,24.30708,1.15983s12.9626-5.48603,23.89572-.17797c12.01368,5.83267,8.61682,14.93763-.21642,24.29273Z" fill="#9b4"/>
  <path d="m547.34781,260.79142c0-11.29321,7.81006-13.93921-.38477-21.70947-8.64355-8.19507-11.07959-1.2771-22.99023-1.2771s-11.91016-.91528-23.8208-.91528-11.91064,1.12769-23.82129,1.12769-11.91064.24609-23.82178.24609-11.91113-.65942-23.82227-.65942c-11.9126,0-11.9126,1.09375-23.8252,1.09375-11.91162,0-11.91162.73853-23.82324.73853s-11.91211-2.17285-23.82373-2.17285-11.91162,1.7085-23.82373,1.7085-11.91162-1.57104-23.82324-1.57104-11.91211,1.16797-23.82422,1.16797-11.9126-.22925-23.82471-.22925c-11.91064,0-11.91064-1.15991-23.8208-1.15991-11.91162,0-11.91162.0835-23.82324.0835s-11.91162,2.27026-23.82324,2.27026c-11.91357,0-11.91357-1.8689-23.82666-1.8689s-11.91357,1.51685-23.82715,1.51685-11.91309-.58301-23.82666-.58301-11.91357-.24854-23.82764-.24854c-11.91553,0-11.91553-.4978-23.83105-.4978s-15.17627-7.83691-23.82422.35986c-8.19678,7.76855,1.27881,11.28906-1.23535,22.29907-2.75049,12.04419-7.42236,15.57739.77295,23.34766,8.64307,8.19507,12.36621-1.8147,24.27734-1.8147,1.08887,0,2.07666.00195,2.98486.00562-.15967,2.39893-.32275,5.2041.0918,9.66284,1.07666,11.58887,1.84912,11.51709,2.92578,23.10596,1.07666,11.58838-.00293,11.68872,1.07373,23.27686,1.07666,11.58862,3.52051,11.36157,4.59717,22.94995s1.0376,11.5918,2.11377,23.18018c1.07666,11.58691-.1875,11.70435.88916,23.29126,1.07617,11.58667,1.43701,11.55298,2.51367,23.13965,1.07666,11.58545.58057,11.63159,1.65674,23.21704,1.07666,11.58716.8291,11.61035,1.90576,23.19751.95752,10.30737,7.97266,18.99243,15.83008,18.99243,11.86182,0,11.86182-1.51709,23.72412-1.51709s11.8623,1.86914,23.72461,1.86914c11.86035,0,11.86035-2.27051,23.72119-2.27051,11.85986,0,11.85986-.0835,23.72021-.0835s11.85986,1.15991,23.72021,1.15991,11.85986.22925,23.71973.22925c11.85889,0,11.85889-1.16797,23.71729-1.16797s11.8584,1.57129,23.7168,1.57129c11.85693,0,11.85693-1.7085,23.71387-1.7085,11.85889,0,11.85889,2.17261,23.71826,2.17261s11.85889-.73853,23.71729-.73853,11.85889-1.09375,23.71729-1.09375,11.8584.65967,23.7168.65967,11.85889-.24609,23.71777-.24609c11.85791,0,11.85791-1.12793,23.71631-1.12793,11.85938,0,11.85938.91553,23.71875.91553,7.85889,0,15.68652-7.2373,16.6416-17.54785,1.07959-11.65137.32129-11.72168,1.40039-23.3728,1.07959-11.65137,1.26074-11.63452,2.33984-23.28589,1.07959-11.6499,1.29736-11.62964,2.37646-23.2793,1.0791-11.64941-.08984-11.75757.98926-23.40674,1.07959-11.64941,1.25586-11.63306,2.33545-23.28223,1.0791-11.64941-.1582-11.76392.9209-23.41309,1.0791-11.64771,2.82812-11.48584,3.90723-23.13354,1.0791-11.64722-.31055-11.77612.76855-23.42358.32666-3.5249.7749-5.95972,1.27051-7.96826,1.08057-.02686,2.27393-.04272,3.62744-.04272,11.91553,0,14.75,8.58765,23.39844.39111,8.19678-7.7688-.01416-10.83716-.01416-22.13037Zm-201.02002,26.13721c-12.17139,0-12.17139.98877-24.34229.98877-12.17188,0-12.17188-.79858-24.34375-.79858-12.17334,0-12.17334,1.28906-24.34668,1.28906s-12.17383-1.71265-24.34717-1.71265c-7.45605,0-12.75049-4.74023-12.75049-12.19604,2.75098-9.94482,5.29443-14.6001,12.75049-14.6001,12.17139,0,12.17139.95215,24.34229.95215,12.17188,0,12.17188,1.08228,24.34375,1.08228,12.17334,0,12.17334-.55078,24.34668-.55078s12.17334-1.07642,24.34717-1.07642c7.45557,0,14.37842,6.78271,14.37842,14.23877-2.76514,9.58667-6.92285,12.38354-14.37842,12.38354Z" fill="#d5e989"/>
  <g>
    <path d="m321.13323,341.8599c-1.06834,2.30213-2.81295,4.18308-4.37588,6.14186-1.5656,1.96213-2.86213,4.31524-5.01633,5.7052-2.02159,1.30439-4.66759,1.51299-7.28643,2.11899-2.26074.52314-4.69339,1.19855-7.45223,1.0705-3.12544-2.05838-1.9328-2.73818-2.53986-7.10399-.29739-2.13879-.52952-4.80946-.04337-7.59438.38722-2.21821,1.99519-4.33594,3.22774-6.81355,1.00773-2.02567,1.691-4.54867,3.45139-6.66665,1.45657-1.75244,3.52776-3.24701,5.60517-5.01702,1.75259-1.49326,3.46169-3.41063,5.71889-4.88928,1.94601-1.2748,4.30985-2.2224,6.67065-3.46917,2.07683-1.09681,4.21932-1.88641,6.64391-2.94996,3.01663,2.28274.05938,2.83554-.18298,7.34359-.11928,2.21868.2188,4.84683-.19291,7.58116" fill="#9b4"/>
    <path d="m293.25313,366.09012c-1.47705,1.42633-1.63414,1.94663-3.55111,1.21086-3.30301-1.26775-.33791-2.44947-2.12937-6.58068-.78676-1.81432-2.15941-3.73058-3.64323-6.03554-1.15004-1.78649-2.21944-3.90343-3.90259-5.88503-1.41215-1.66255-3.15753-3.24629-5.00959-4.98988-1.61012-1.51582-3.53078-2.85625-5.51506-4.39702-1.76294-1.36889-3.06659-2.97224-5.15376-4.33566.7245-3.28597,1.08748-3.14398,2.90564-5.97537,1.81816-2.83139,1.1266-3.64815,3.81405-5.67302,2.00553,1.4119,4.21739,2.9606,5.88003,4.55718,1.76339,1.69333,2.94031,3.83868,4.35514,5.66442,1.4993,1.93474,3.05708,3.74227,4.20921,5.73602,1.23493,2.13705,2.57159,4.16597,3.46183,6.26098.9864,2.32131,1.96287,4.56848,2.59863,6.69113.76423,2.55157.40855,5.12948.78744,7.14806.80344,4.28042,3.45601,4.12829.89273,6.60354Z" fill="#9b4"/>
    <path d="m354.11356,391.08161c-.40285-2.77207-1.49193-5.34691-2.29566-7.83289-.861-2.66247-1.49489-5.40591-2.77849-7.6875-1.36505-2.42525-3.65183-4.14675-5.44985-6.07782-1.8701-2.00907-3.95594-3.58641-6.2437-4.98775-2.28825-1.40159-4.58885-2.71061-7.24243-3.42967-2.52769-.685-5.17585-1.53809-7.98889-1.53809-2.7153,0-5.1171,1.22756-7.46262,1.91083-2.57657.75041-5.26372,1.02219-7.38709,2.23642-2.40082,1.3732-4.2719,3.3213-6.08226,4.77324-2.37613,1.90564-5.26916,2.62939-8.13157,2.62939-2.86192,0-6.08128-.31695-8.45741-2.22259-2.07695-1.66571-3.09593-4.32991-5.36493-5.83912-1.82517-1.21398-4.22994-2.30948-7.38067-2.94091-2.11447-.42383-4.74634.21945-7.86053.21945-2.27937,0-4.79225-.65908-7.24441-.17575-2.28628.45049-4.71079,1.16363-6.95758,2.18359-2.11447.95973-3.99692,2.61557-5.91885,4.20328-1.75803,1.45194-3.34031,3.24996-4.81545,5.32297-1.29989,1.82764-2.90981,3.71946-3.9046,6.09683-.86198,2.05968-.67339,4.62538-1.25002,7.14147-.50011,2.18334-.9543,4.47185-1.20312,7.02768-.2187,2.24481-.70055,4.59551-.70055,7.14691,0,2.46746-.21229,4.92579-.11997,7.35327.0938,2.47265.34953,4.91913.54405,7.33377.19945,2.47339.69265,4.88457,1.00318,7.27946.31991,2.4687.37224,4.94283.81656,7.30908.46061,2.45463,1.55364,4.71425,2.15446,7.03706.62847,2.42673,1.26187,4.76411,2.05079,7.02225.82841,2.37292.96121,4.9759,1.97674,7.13456,1.07131,2.27764,2.94239,4.06035,4.23142,6.06646,1.35715,2.11201,2.2927,4.49628,3.90361,6.26814,1.67213,1.83974,3.85769,3.11469,5.81666,4.54417,1.9713,1.43837,4.16823,2.41242,6.44364,3.39042,2.3475,1.00886,4.42593,1.99451,6.52955,2.31491,2.48919.37891,4.85495.57762,6.99608.21426,2.41711-.41026,4.50394-1.60252,6.46734-2.63359,2.54004-1.3337,5.36839-1.65312,8.11281-2.10238,2.78639-.45592,5.46318-.37372,8.24956.08245,2.74393.44901,5.74655.38014,8.28659,1.71385,1.96341,1.03107,3.99938,1.8817,6.41649,2.29196,2.14113.36336,4.45852,1.21744,6.9477.83829,2.10361-.3204,4.09713-1.76593,6.44414-2.77503,2.20877-.94937,4.17069-2.16977,6.09214-3.72983,1.83011-1.48576,3.52248-3.11987,5.10377-5.06427,1.48502-1.82641,3.28008-3.52569,4.55479-5.67744,1.20757-2.03697,1.917-4.40618,2.94387-6.66778.98639-2.17273,2.21519-4.29264,3.04261-6.61347.80768-2.26604.99627-4.74658,1.6588-7.09951.6576-2.33491,2.02413-4.49776,2.54497-6.86526.52578-2.3902,1.18091-4.76658,1.57388-7.13629.40483-2.43957-.21574-4.98849.05529-7.34833.28585-2.49165,1.02046-4.86482,1.1656-7.19948.15847-2.55633.19056-5.00083.19056-7.28168,0-2.79848.29918-5.57302-.07702-8.15996Z" fill="#9b4"/>
  </g>
</svg>