<?xml version="1.0" encoding="UTF-8"?>
<svg id="a" data-name="Ebene 1" xmlns="http://www.w3.org/2000/svg" width="210mm" height="209.99999mm" viewBox="0 0 595.27559 595.27557">
  <g>
    <path d="m229.04543,312.75766c-5.63526,0-10.44299,3.38599-15.31098,4.80392-5.34777,1.55768-11.03435,1.63151-15.44089,4.15194-4.98281,2.85004-9.09836,6.56956-12.85587,9.58315-4.93123,3.95494-10.77328,4.97555-16.71346,4.97555-5.94018,0-12.43681-.20445-17.36804-4.15939-4.31077-3.45732-5.71459-10.10256-10.42432-13.23484-3.78855-2.51963-9.84393-2.60528-16.38367-3.91585-4.38834-.87942-9.68174-3.22685-16.14513-3.22685-5.3771,0-11.36685,1.5415-17.16501,2.86966-5.37153,1.23043-11.82675,1.80334-16.99115,4.62003-4.78451,2.60949-9.66206,6.82259-13.81674,11.14847-3.68211,3.83382-5.93798,9.66973-8.80332,15.10455-2.44638,4.64016-6.41323,9.51256-8.05974,15.48033-1.39752,5.0653,1.81812,11.50611,1.12228,17.62633-.59863,5.26529-1.45543,10.71813-1.45543,16.82646,0,6.2706-2.61758,12.55561-2.32917,18.69676.29541,6.29044,2.86908,12.35629,3.48698,18.44708.63847,6.29362-1.76506,12.95183-.76042,18.96216,1.04804,6.27002,4.69756,11.97146,6.16878,17.85393,1.55041,6.1991,1.91839,12.68206,3.9675,18.35849,2.17868,6.03538,6.06354,11.24933,8.84039,16.58341,2.96456,5.69464,4.68557,12.21133,8.37368,16.97253,3.8966,5.03034,10.23814,7.76132,14.99193,11.59073,4.8349,3.89475,10.63083,5.56181,16.40551,8.04389,7.64689,3.28679,13.82232,9.1078,20.21837,9.08484,7.9406-.0285,13.7216-6.86074,19.66865-9.98349,5.27193-2.76825,12.47913.34055,18.17459-.59163,5.78331-.94656,11.22923-3.66653,17.01253-2.71994,5.69533.9322,10.22127,4.80158,15.49309,7.56978,5.94706,3.12275,13.96928,4.23063,21.90988,4.25914,6.39605.02296,13.57399-1.98729,21.22088-5.27408,5.57775-2.39743,10.25901-6.4844,14.95913-10.72259,4.40361-3.97082,8.18637-8.71046,11.86061-13.95567,3.41375-4.87335,5.22769-10.7519,8.04485-16.45031,2.66572-5.39207,4.33928-11.12567,6.49856-17.02565,2.0924-5.71723,6.94864-10.56264,8.5904-16.54929,1.63018-5.94442.40049-12.53433,1.61048-18.54372,1.23358-6.12658,5.81636-11.60354,6.6384-17.58779.86606-6.30467-.84471-12.73091-.40644-18.63614.48451-6.52819.40352-12.66114.40352-18.38241,0-5.80844-1.33951-11.08689-2.11978-16.45634-.83608-5.75345-.39617-11.3823-2.06502-16.54222-1.78722-5.52594-4.86818-10.0817-7.53298-14.81696-2.83283-5.03386-3.47235-11.55859-7.20346-15.56635-3.88215-4.17-9.32451-6.84565-14.07274-9.75389-4.74947-2.909-10.28434-4.10698-15.79177-5.59956-5.24657-1.42188-10.60726-3.91812-16.44548-3.91812Z" fill="#9b4"/>
    <path d="m177.80003,306.19925c-7.40473-4.89282-6.9633-5.17905-7.93562-15.50847-.47863-5.08469,3.67383-10.84218,5.40728-17.37183,1.35434-5.1016,3.19391-10.19922,6.77652-15.80338,2.85995-4.47373,7.05094-8.07386,11.77217-12.6771,3.84863-3.75245,8.0123-7.36138,13.33407-11.09776,4.46035-3.13158,9.3892-5.84084,15.0214-8.90191,4.8494-2.63562,9.01854-7.27519,14.82288-9.82128,0,0,.59839,7.09592-.10733,17.66618-.35389,5.30055-3.66858,10.95082-4.83444,17.34489-1.03644,5.6843.11872,12.09501-1.87579,17.86348-1.95569,5.65621-4.88303,10.94792-8.04338,15.98602-3.19091,5.08682-7.81713,8.56977-12.52367,12.31744-4.49348,3.57802-8.32612,9.07556-14.45852,10.79823-5.25168,1.47526-10.73075-.48705-17.35557-.79453Z" fill="#9b4"/>
    <path d="m170.89608,328.29555c-2.8651,3.15483-4.18725.59402-7.9882-1.33329-7.86053-3.98576.47965-5.23151-4.3418-15.33522-2.11747-4.43732-7.66161-8.24785-11.68109-13.7873-3.09743-4.26874-8.32201-7.29417-12.86081-11.94574-3.77987-3.87378-7.37135-8.30173-12.32341-12.29074-4.27672-3.44501-7.20928-7.97116-12.46925-11.4072,1.03992-6.90597,2.72932-6.12901,6.50291-12.00556,3.77359-5.87655,2.12901-7.45736,7.9331-11.34148,4.8809,3.43617,9.79217,6.16715,13.70242,10.11435,4.18582,4.22537,8.4548,8.46472,11.65563,13.01766,3.43487,4.88585,2.99147,11.82479,5.44913,16.76937,2.70891,5.45007,6.01197,10.13285,7.74137,15.23323,2.06115,6.07875,5.49593,11.22645,6.50478,16.12114,2.11056,10.23989,7.97216,11.80763,2.17521,18.19079Z" fill="#9b4"/>
  </g>
  <g>
    <path d="m207.42589,164.73218c0,5.88372-2.24401,10.21249-3.85807,14.81411-1.88235,5.36648-3.54988,9.35775-7.18612,12.96221-3.77241,3.73944-7.37217,6.77031-12.51127,8.59171-4.82653,1.71062-9.72372,3.18113-15.30196,3.18113-5.59898,0-11.84637,2.38658-16.68722.71372-5.17416-1.78804-7.917-8.15894-11.69976-11.90922-3.62236-3.59126-7.01484-7.2755-8.87415-12.71349-1.56958-4.59061-3.6123-9.70306-3.6123-15.64017,0-4.11728.67997-9.50476,2.24127-15.21769,1.23028-4.5017,1.27539-10.06941,3.16575-15.12216,1.71888-4.59441,8.1353-7.55045,10.18471-12.29454,2.01247-4.65859,1.58209-10.44821,3.71738-14.97269,2.24462-4.75613,7.64984-7.79987,9.81018-12.09511,2.51863-5.00759,2.68036-10.70397,4.75254-14.61336,4.30865-8.1287-.59292-12.83632,7.00026-12.82068,7.59226.01564,4.43824,3.77453,8.72365,11.91231,2.06086,3.91347,4.05818,8.729,6.56552,13.73743,2.15207,4.29877,4.08782,9.08885,6.3267,13.84438,2.13136,4.52715,5.66185,8.60953,7.67407,13.26475,2.05162,4.74637,1.02385,10.72745,2.74908,15.31425,1.90193,5.05657,1.757,10.34792,3.00099,14.83298,1.59451,5.74882,3.81875,10.16243,3.81875,14.23011Z" fill="#9b4"/>
    <path d="m165.56756,194.25455s-6.55191,1.11494-12.49525-1.72244c-3.56527-1.70208-4.9897-7.5626-7.85624-10.25413-3.16482-2.97162-7.70997-5.41682-7.29443-9.56417.76451-7.6303,3.86061-1.17661,10.14055,5.78294,3.06191,3.39326,7.47558,5.98026,13.13905,8.05566,4.28573,1.57052,8.81854,1.41281,15.01952.65055,15.72346-1.93282,13.14806,1.60699,6.4205,3.42431-6.6228,1.78902-8.54714,1.78231-17.0737,3.62729Z" fill="#fff"/>
  </g>
  <g>
    <path d="m103.01552,339.19162h.11272c0,2.87541-.97497,5.65924-1.72332,8.81947-.68791,2.90499-.46365,6.12401-1.69836,9.00757-1.20926,2.82413-1.35815,6.39207-3.0141,8.95728-1.70824,2.64622-5.28515,3.86198-7.38552,5.9777-2.26237,2.27891-4.62656,3.92588-7.24204,5.2773-2.79974,1.44663-5.40078,2.39393-8.47985,2.39393-.00002,0,0,.23007.00001.23007,3.07941,0,6.39948.51214,9.19949,1.95907,2.61477,1.3512,5.30136,3.35433,7.56321,5.63255,2.10048,2.11568,3.24905,5.26085,4.95739,7.90709,1.65605,2.56524,3.79435,4.98001,5.00369,7.80421,1.23501,2.88415,2.87846,5.77696,3.56645,8.68256.7482,3.15989,1.26732,6.52828,1.26732,9.40339h-2.45591c0-2.87542,1.3425-6.03434,2.09085-9.19458.68791-2.90499,2.90672-5.38109,4.14143-8.26464,1.20926-2.82413,1.79218-5.92518,3.44813-8.49039,1.70824-2.64622,2.83414-5.84625,4.93451-7.96198,2.26237-2.27891,5.29097-3.73151,7.90645-5.08293,2.79974-1.44663,5.89431-2.03698,8.97338-2.03698.00002,0,0,1.31533-.00002,1.31533-3.07941,0-6.16443-1.91415-8.96444-3.36107-2.61477-1.3512-4.20856-4.21779-6.47041-6.49601-2.10048-2.11568-4.07292-4.26789-5.78126-6.91413-1.65605-2.56524-3.14488-5.14857-4.35422-7.97277-1.23501-2.88415-3.24008-5.47054-3.92806-8.37613-.7482-3.15989-1.66751-6.34079-1.66751-9.2159Z" fill="#fff"/>
    <path d="m284.88593,125.42438h.73317c0,2.98136.61559,6.40944-.06108,9.6656-.62426,3.00398-3.57832,5.49922-4.71171,8.53249-1.09809,2.93879-2.04038,5.90303-3.55716,8.68788-1.52962,2.80843-2.52826,5.94318-4.42416,8.41268-1.98146,2.58095-4.81836,4.24332-7.13314,6.24951-2.48497,2.15369-4.49644,4.89192-7.28401,6.13341-2.93819,1.30857-6.23239,1.29179-9.41042,1.29179-.00003,0,0-.56373.00002-.56373,3.1782,0,6.43439,1.17715,9.37272,2.48585,2.78714,1.24137,4.59406,4.17326,7.0787,6.32657,2.31454,2.00589,5.27992,3.47551,7.26123,6.05608,1.89582,2.46921,4.36124,4.77936,5.89086,7.5875,1.51699,2.78495,1.66026,6.27941,2.75852,9.21836,1.13375,3.03393,2.41717,5.96895,3.04158,8.97359.67669,3.25622-.16362,6.45225-.16362,9.43366h2.16152c0-2.98136-1.43098-6.31986-.75431-9.57603.62426-3.00398,2.51017-5.82685,3.64356-8.86013,1.09809-2.93879,2.71912-5.6423,4.2359-8.42716,1.52962-2.80843,3.57904-5.12718,5.47494-7.59669,1.98146-2.58096,3.32537-5.54419,5.64015-7.55038,2.48497-2.15369,5.11829-3.9329,7.90586-5.17439,2.93819-1.30857,6.01109-3.2066,9.18913-3.2066.00003,0,.00004,1.318.00002,1.318-3.1782,0-6.20428-1.03011-9.14261-2.33881-2.78714-1.24136-5.53143-2.84052-8.01606-4.99382-2.31454-2.00589-5.1374-3.858-7.11871-6.43855-1.89582-2.46921-2.27219-6.04325-3.80181-8.85139-1.51699-2.78495-2.22245-5.80863-3.32072-8.74758-1.13375-3.03392-3.17722-5.6514-3.80162-8.65604-.67669-3.25622-1.68673-6.41025-1.68673-9.39165Z" fill="#d5e989"/>
    <path d="m48.50943,51.5917h-1.001c0,2.87541-.84004,5.87642-1.58839,9.03666-.68791,2.90499-.82874,6.14322-2.06344,9.02677-1.20926,2.82413-4.0676,4.763-5.72355,7.32822-1.70824,2.64622-1.71535,6.65683-3.81571,8.77255-2.26237,2.27891-5.91909,2.75574-8.53457,4.10715-2.79974,1.44663-5.52064,4.10585-8.59971,4.10585-.00002,0-.00006-.20888-.00004-.20888,3.07941,0,5.43391.8757,8.23392,2.32262,2.61477,1.3512,6.32521,1.42793,8.58706,3.70615,2.10048,2.11568,3.87078,4.87971,5.57912,7.52595,1.65605,2.56524,2.45907,5.69959,3.66841,8.52379,1.23501,2.88415,3.06831,5.60657,3.75629,8.51217.7482,3.15989,1.82308,6.41807,1.82308,9.29319h.04931c0-2.87542.13469-5.70573.88304-8.86596.68791-2.90499-.57276-6.60537.66194-9.48892,1.20926-2.82413,3.53558-5.25439,5.19153-7.81961,1.70824-2.64622,3.00489-5.7977,5.10525-7.91342,2.26237-2.27891,5.03212-4.39991,7.64759-5.75133,2.79974-1.44663,6.33079-.13987,9.40986-.13987.00002,0-.00001.30689-.00003.30689-3.07941,0-6.61936-1.07773-9.41937-2.52466-2.61477-1.3512-4.3366-4.51938-6.59845-6.79759-2.10048-2.11568-5.24218-3.71548-6.95053-6.36172-1.65605-2.56524-2.39514-5.85049-3.60448-8.67469-1.23501-2.88415-1.94051-5.97015-2.6285-8.87575-.7482-3.15989-.06865-6.27045-.06865-9.14556Z" fill="#d5e989"/>
  </g>
</svg>