<?xml version="1.0" encoding="UTF-8"?>
<svg id="a" data-name="Ebene 1" xmlns="http://www.w3.org/2000/svg" width="210mm" height="209.99999mm" viewBox="0 0 595.27559 595.27557">
  <g>
    <g>
      <path d="m490.62932,119.02938c-10.82527-5.53822-10.85633-4.40428-22.89616-6.1075-12.04016-1.70327-11.9346-2.44939-23.97476-4.15266-12.0416-1.70347-12.33258.35347-24.37418-1.35-12.04179-1.7035-11.77998-3.55414-23.82177-5.25763s-12.28416.01109-24.32577-1.69238c-12.04221-1.70356-11.9555-2.31643-23.99771-4.01999-12.04386-1.70379-12.30184.11984-24.34571-1.58395-12.04386-1.70379-11.58638-7.57962-22.76462-2.78331-10.57895,4.53916-5.30362,8.52367-11.65886,18.12205-6.35534,9.59854-6.45351,9.53354-12.80885,19.13208-6.35525,9.5984-10.4428,6.89197-16.79805,16.49037-6.35556,9.59887-3.23155,11.66733-9.58711,21.26621-6.35644,9.60019-7.0537,9.13852-13.41014,18.73872-6.35644,9.60019-9.26041,8.08845-12.59667,19.10832-3.30197,10.9066-.655,11.25309-.655,22.64857s.90447,11.39569.90447,22.79138c0,11.39449-1.91134,11.39449-1.91134,22.78899,0,11.39628,2.74086,11.39628,2.74086,22.79255,0,11.39435-.509,11.39435-.509,22.78869,0,11.3955-2.03851,11.3955-2.03851,22.79101,0,11.39581,3.72601,11.39581,3.72601,22.79162,0,11.39717-.81857,11.39717-.81857,22.79435,0,11.39735-4.2532,11.39735-4.2532,22.79471,0,11.39719,1.33919,11.39719,1.33919,22.79438,0,11.39775-1.40959,11.39775-1.40959,22.7955,0,11.39932,4.26313,11.39932,4.26313,22.79864,0,11.39932-9.27304,14.14587-2.0135,22.9347,7.65476,9.26731,12.25661.95949,23.95465,3.72251,11.69923,2.7633,11.39034,4.07105,23.08957,6.83436,11.69954,2.76338,11.76985,2.4657,23.46939,5.22908,11.70094,2.76371,11.56086,3.35677,23.26181,6.12048,11.70113,2.76375,11.61448,3.1306,23.31561,5.89436,11.70096,2.76371,11.21494,4.8214,22.9159,7.58511,11.70153,2.76385,12.03168,1.3661,23.73321,4.12995,11.70314,2.76423,11.93603,1.77825,23.63917,4.54248,11.70314,2.76423,11.61003,8.09671,23.52708,6.48779,11.95046-1.61343,9.60062-8.28623,20.18752-14.05983,10.58706-5.77369,11.69161-3.74832,22.27866-9.52201,10.5869-5.77361,9.51671-7.736,20.10361-13.50961,10.58743-5.7739,10.36752-6.17714,20.95494-11.95103,10.58888-5.77469,12.53348-2.20895,23.12236-7.98364,10.58888-5.77469,14.21597-2.77006,20.42142-13.1124,6.10881-10.18127-2.23441-11.95898-2.23442-23.8323,0-11.87356.68113-11.87356.68113-23.74711s.14266-11.87378.14266-23.74756c0-11.87177-1.36445-11.87177-1.36445-23.74354,0-11.87297.12127-11.87297.12127-23.74595,0-11.87329,3.98775-11.87329,3.98775-23.74659,0-11.87471-1.56994-11.87471-1.56994-23.74943,0-11.8749-2.56704-11.8749-2.56704-23.7498,0-11.87473,3.27967-11.87473,3.27967-23.74946,0-11.87532-1.80186-11.87532-1.80186-23.75063,0-11.87695,1.77626-11.87695,1.77626-23.7539,0-11.87695,5.04918-13.13891,1.16375-24.36234-3.44207-9.94275-9.62852-6.49783-16.49894-14.46674-6.8728-7.97168-5.80508-8.89222-12.67788-16.86389-6.87314-7.97207-8.40201-6.65395-15.27515-14.62602-6.87409-7.97317-4.14239-10.19327-10.57213-18.52891-6.25629-8.11079-7.19817-7.66408-16.5702-12.45882Z" fill="#ffcacc"/>
      <g>
        <path d="m561.30994,198.60303c-10.58689,4.42099-10.44793,4.75376-21.03482,9.17475-10.58706,4.42106-11.92478,1.21764-22.51183,5.63871-10.5869,4.421-10.94757,3.55732-21.53447,7.97832-10.58743,4.42122-10.71879,4.10664-21.30621,8.52786-10.58888,4.42183-10.60855,4.37473-21.19743,8.79656-10.58888,4.42183-15.68458.22069-22.01591,9.79102-6.39152,9.6613-.29902,12.7119-.29902,24.29603,0,11.58435,3.06206,11.58435,3.06206,23.16871,0,11.58458-3.15537,11.58458-3.15537,23.16917,0,11.5848-.41501,11.5848-.41501,23.1696,0,11.58284,3.63102,11.58284,3.63102,23.16568q0,11.58402-.02796,23.16803c0,11.58433,1.11433,11.58433,1.11433,23.16866,0,11.58571-4.45599,11.58571-4.45599,23.17143,0,11.5859,2.36543,11.5859,2.36543,23.17179,0,11.58573-1.9895,11.58573-1.9895,23.17146,0,11.5863,1.89484,11.5863,1.89484,23.1726,0,11.58789.59961,11.58789.59961,23.17579,0,11.58789,1.51722,11.58789,1.51722,23.17579" fill="#ffcacc" stroke="#fff" stroke-linecap="round" stroke-linejoin="round" stroke-width="6"/>
        <path d="m433.43065,249.55967c-11.69804-2.49054-11.93615-1.37214-23.63419-3.86268-11.69923-2.4908-12.01348-1.01474-23.71271-3.50554-11.69954-2.49086-11.73742-2.31294-23.43696-4.80381-11.70094-2.49116-11.43288-3.75025-23.13382-6.24141-11.70113-2.4912-11.53706-3.26184-23.23818-5.75304-11.70096-2.49116-11.05302-5.53453-22.75398-8.02569-11.70154-2.49129-11.70995-2.45175-23.41149-4.94304-11.70315-2.49163-12.26274.13677-23.96588-2.35487-11.70315-2.49163-11.72061-2.40959-23.42376-4.90122" fill="#e97878" stroke="#fff" stroke-linecap="round" stroke-linejoin="round" stroke-width="6"/>
        <path d="m498.00161,108.26854c-4.67147,10.06885-2.65773,11.00313-7.3292,21.07197-4.67203,10.07005-5.03764,9.90042-9.70967,19.97048-4.6721,10.07021-6.79492,9.08532-11.46702,19.15554-4.67203,10.07007-2.12293,11.25273-6.79496,21.32279-4.67226,10.07056-7.09745,8.94539-11.76971,19.01596-4.6729,10.07195-5.42676,9.7222-10.09966,19.79415-4.6729,10.07195-3.48178,10.62458-8.15468,20.69652" fill="#e97878" stroke="#fff" stroke-linecap="round" stroke-linejoin="round" stroke-width="6"/>
        <path d="m395.02905,154.88064c-.55547-6.22397-6.47938-9.81075-14.23754-12.74354-5.75043-2.17381-12.48491-6.82264-20.07449-6.14305-7.59445.67958-14.33197,4.89245-19.60736,8.05144-7.11739,4.26202-11.67538,10.42522-11.11991,16.65593.55556,6.22491,6.79202,9.74451,14.55431,12.67708,5.75145,2.17288,12.15162,3.28176,19.74461,2.6023,7.59102-.67972,15.45038.02753,20.72456-3.13248,7.11327-4.26189,10.5712-11.73791,10.01581-17.96769Z" fill="#ffcacc" stroke="#fff" stroke-miterlimit="10" stroke-width="6"/>
      </g>
    </g>
    <path d="m299.28983,45.84716c-8.62626,6.55996,2.68797,11.24928,2.68797,22.08651,0,10.83722-10.20015,14.16337-2.70559,21.99133,8.3862,8.75927,12.61872-.59736,24.62506,1.10586,12.00666,1.70327,11.82292,2.99849,23.82958,4.70176,12.0081,1.70347,12.22974.14109,24.23783,1.84456,12.00829,1.7035,11.72595,3.69378,23.73423,5.39728,12.00811,1.70347,12.20539.31286,24.2135,2.01633,12.00871,1.70356,11.51012,5.2182,23.51882,6.92175,12.01036,1.70379,12.44971-1.39329,24.46007.3105,12.01036,1.70379,13.57032,11.16925,23.22609,3.82639,8.62626-6.55996,1.00575-10.02243,1.00575-20.85965,0-10.83722,8.87051-15.53351,1.37595-23.36147-8.3862-8.75926-13.45563-2.22102-25.46197-3.92424-12.00666-1.70327-12.47045,1.56607-24.47711-.13719-12.0081-1.70347-11.64726-4.24707-23.65536-5.95054-12.00829-1.7035-12.57536,2.29392-24.58365.59042-12.00811-1.70347-11.86438-2.71671-23.87249-4.42018-12.00871-1.70356-12.08117-1.19277-24.08987-2.89632-12.01036-1.70379-13.16687.93517-24.51951-3.33907-12.31158-4.63528-13.89353-13.2469-23.5493-5.90403Z" fill="#ffcacc" stroke="#fff" stroke-miterlimit="10" stroke-width="6"/>
  </g>
  <path d="m216.3542,523.38526c-1.76828-.09408-3.56495.44086-5.33323.34678-3.34456-1.50363-5.92221-3.62623-7.21183-6.20195-1.27888-2.55429-.76359-5.81843-.47359-9.35731.22132-2.70082.34359-5.4172.50967-8.12255.16602-2.70437-.12112-5.4362.01363-8.14313.13471-2.70635-.1817-5.43407-.05433-8.14102s1.22087-5.36585,1.36481-8.07157c.06215-1.16824-.59984-1.94301-.51297-3.57581-1.53763.6899-2.38137.42753-3.33815.90207-2.96949,1.47272-6.05864,2.70712-9.02474,4.18675s-5.72504,3.37406-8.69429,4.8472-5.90563,3.01265-8.88464,4.46596c-2.82149,1.37645-5.71052,2.29283-8.25837,1.88748-2.78314-.44278-5.36062-2.22073-7.14358-4.60228-2.36323-3.15662-3.20742-7.01131-2.28951-10.27085.88046-3.12656,3.79899-5.41567,7.39086-7.22831,2.62377-1.32407,5.23691-2.66628,7.86476-3.98233s4.99434-3.15484,7.62585-4.46353,5.39061-2.36005,8.02543-3.66207,5.21932-2.70578,7.85707-4.00182,5.17092-2.80604,7.81124-4.09679c1.92719-.94212,2.92194-1.81463,2.9969-4.02676.08492-2.50545.5775-4.99146.69698-7.49593.11947-2.50419-.71069-5.05993-.5631-7.56276s.77463-4.97818.94389-7.47936c.1299-1.91964-.69195-2.55166-2.28769-3.5759-2.71986-1.74577-4.87236-4.3728-7.5872-6.12642s-5.73075-3.04137-8.44039-4.803-5.20273-3.85447-7.907-5.62429-5.49961-3.39965-8.19837-5.17785c-1.49742-.98669-2.95615-1.30667-4.51009-.4933-2.21868,1.1613-4.02429,3.1177-6.24996,4.26633s-4.83706,1.53896-7.07536,2.66204c-2.2387,1.12328-4.50364,2.17509-6.76065,3.25996-2.10058,1.00969-3.13704,2.70138-3.21971,4.94826-.1033,2.80757.23651,5.63111.12491,8.4384s.22357,5.63318.10456,8.44016-.44618,5.6054-.57171,8.41209-.42717,5.60541-.55832,8.41184-.20221,5.61571-.33809,8.4219c-.10572,2.18347-.54143,4.39686-1.27888,6.42872-.91404,2.51843-2.67522,4.38659-4.93925,5.63161-2.2499,1.23724-4.8881,2.30656-7.50802,1.85423-2.72886-.47112-5.2572-2.05355-6.9644-4.00907-1.70708-1.95537-2.524-4.66603-2.4702-7.49001.05003-2.62625-.03206-5.25706.0535-7.88263.08555-2.62515.34065-5.24493.44596-7.86972.1053-2.62454-.27362-5.26937-.16433-7.89384s1.05439-5.2158,1.15193-7.84058c.0428-1.15178-.11703-2.75121-.11875-4.23494-1.4587.69753-2.83009,1.51151-3.89045,2.04925-2.439,1.23692-4.59051,3.04017-7.02888,4.27833s-5.27859,1.68507-7.71679,2.92359-4.90439,2.4217-7.34285,3.6597-4.81283,2.60185-7.25199,3.83844c-2.88392,1.46207-5.33892,2.08692-7.62021,2.22193-2.89163.17113-4.948-.65682-7.01674-2.67048-1.63784-1.59424-3.26546-3.54744-4.47876-6.54416.09408-1.76827.13483-3.47667.2289-5.24494,1.98197-4.20264,5.54251-6.30667,9.63534-8.30739,2.43284-1.18924,4.76617-2.58761,7.18709-3.80127,2.4207-1.21355,4.80864-2.49509,7.22219-3.72326s4.63556-2.83129,7.0466-4.06422,5.17671-1.76995,7.59014-2.99793c.90722-.46161,1.73646-1.55246,2.87209-2.22874-1.36481-.93744-2.77346-1.29984-3.77508-1.96648-2.72982-1.81703-4.99382-4.33535-7.72661-6.14795s-5.91373-2.95063-8.64305-4.76837-5.20289-4.01832-7.92235-5.8508c-2.35285-1.58543-4.2215-3.35427-5.18358-5.47089-1.05794-2.32751-1.23383-4.96113-.49804-7.52608.7699-2.68384,2.20823-4.92928,4.08319-6.38796,2.0003-1.55618,4.59815-2.28747,7.22453-2.21439,2.3367.06502,4.76754.93927,7.11214,2.47525,2.45948,1.61125,5.14933,2.87317,7.6036,4.49243s4.61849,3.67733,7.06803,5.30372,4.72099,3.51886,7.16633,5.15154,5.29825,2.65608,7.73992,4.29422,4.76796,3.44862,7.20651,5.09138c1.66275,1.12015,2.98061,1.62118,4.81132.65107,2.24605-1.1902,4.32232-2.70473,6.58269-3.86831,2.26019-1.16349,4.33487-2.70088,6.60748-3.84005,2.27273-1.13923,4.92611-1.51303,7.20937-2.63023,1.735-.84897,2.52376-2.14593,2.61238-4.03146.15064-3.20523-.39946-6.44454-.23995-9.64941s.40392-6.40652.57417-9.61081.92263-6.37664,1.1055-9.5802-.01508-6.42953.18226-9.63223c.12885-2.09107-.64359-2.88483-2.31583-3.94084-3.13031-1.97677-6.34344-3.83649-9.44693-5.85609-3.10381-2.01981-5.6991-4.80391-8.7556-6.89277-1.92946-1.31862-3.84487-1.29417-5.79686-.2643-2.5417,1.34101-5.03975,2.76488-7.58205,4.10524s-4.78068,3.25832-7.32667,4.59137c-2.54612,1.33311-5.01583,2.81684-7.56891,4.13607-2.55331,1.31935-5.34978,2.16589-7.91323,3.46473-2.5637,1.29897-5.26541,2.31567-7.84244,3.58751-2.78278,1.37339-6.27673,2.83929-9.34824,2.4685-2.40449-.29027-4.39732-2.0088-5.91271-3.79624-1.46784-1.73136-2.3684-3.98396-2.70717-6.33499-.34626-2.40301.09517-4.76317,1.26695-6.86121,1.09744-1.96495,2.80273-3.63937,5.06858-4.84652,2.99174-1.59389,6.08775-2.9869,9.09382-4.55387,3.00592-1.56689,5.66092-3.81074,8.67201-5.36793s6.41171-2.36294,9.41879-3.92763c1.03296-.53748,2.08305-1.50763,3.50906-2.28724-2.54077-1.65112-4.97498-3.61301-7.46189-5.2375-2.53206-1.65398-5.30681-2.88775-7.80356-4.51429-2.52434-1.64452-5.27118-2.90994-7.78071-4.5266-2.52508-1.62667-5.00518-3.29997-7.53699-4.89862-3.85174-2.43209-7.31994-5.44631-8.84514-9.83511.09408-1.76828.4078-3.74782.50188-5.51609,1.53112-2.86438,3.57707-4.72672,5.35671-6.14687,2.26908-1.81072,4.66934-2.80468,7.53148-2.3144,2.24309.38424,4.58591,1.76892,7.30933,3.53769,2.31685,1.50472,4.74896,2.83204,7.06477,4.33835s4.41018,3.3529,6.72559,4.85984,4.95976,2.50839,7.27538,4.015,4.45262,3.28784,6.76907,4.79317c.97183.63154,2.07073,1.22585,3.46435,2.08172.10768-2.02392.01306-3.52879.10979-4.95244.22993-3.38421.57115-6.76115.79138-10.14621s.32468-6.77809.56397-10.16153c.23932-3.38381,1.04658-6.72067,1.33373-10.10041.21044-2.47686.53801-4.83292,2.06127-6.49985,1.51879-1.66204,3.77707-2.64824,6.15028-3.23137,2.23821-.54996,4.56113-.33476,6.66439.37819,2.17052.73575,4.10187,1.97867,5.20081,4.06151,1.50512,2.85268,2.43537,6.49704,2.29823,9.72971-.12095,2.85132-.81233,5.67408-.9628,8.52419-.15045,2.84984.57987,5.75001.40705,8.59889-.17281,2.84858-.54753,5.68653-.73556,8.53437s-.34007,5.69878-.53619,8.54597-1.12427,5.64396-1.32137,8.49096c-.13963,2.01702.55582,3.58302,2.29261,4.67375,2.15216,1.35159,4.60629,2.22618,6.74353,3.60173,2.13709,1.37545,4.23884,2.80789,6.36377,4.20224s4.32126,2.68305,6.43682,4.09126c1.45231.96671,2.39979,1.21647,4.00215.38939,2.8722-1.48253,5.84905-2.76147,8.72608-4.23472s5.62549-3.19853,8.50705-4.66285,6.04241-2.37608,8.92827-3.83187,5.61843-3.21488,8.50837-4.66251c1.69161-.84736,2.09876-1.9647,2.17303-3.89313.09649-2.50529.71555-4.98869.83414-7.49341s.25647-5.00555.4036-7.50851c.14714-2.50327.06855-5.01958.25065-7.52011.16138-2.21599-.56482-3.43105-2.37405-4.56918-2.46919-1.55329-4.85545-3.2374-7.32086-4.79674s-5.19585-2.70074-7.65773-4.26566-4.99278-3.02275-7.4514-4.59276-4.53868-3.73182-6.99433-5.30648-5.02051-2.9787-7.47345-4.55752c-3.0587-1.96872-5.55396-4.33133-6.39385-7.11864-.90149-2.99174-.01737-6.35783,1.84209-9.33894,1.84191-2.95297,4.6489-4.37203,7.76302-4.84499,2.89577-.4398,6.17807-.327,9.23798,1.57602,2.76797,1.72146,5.19188,3.98753,7.93808,5.744,2.74601,1.75635,5.91558,2.84884,8.66555,4.59887,1.96484,1.25039,3.75944,2.768,5.80707,4.0671,1.90313,1.20743,3.73809,2.16127,5.84606,3.49924.09353-1.75794.57765-2.51038.63976-3.6778.14399-2.70623.21683-5.41507.37701-8.12088.16016-2.70557.23531-5.41671.38829-8.12246.153-2.70618-.21436-5.43768-.09192-8.14464.12247-2.70769.8518-5.39331.92029-8.10237.08966-3.54638.21539-6.74598,1.75601-9.15432,1.55224-2.42651,4.15568-4.49148,7.6489-5.62609,1.76828.09408,3.56513.80207,5.33341.89615,3.35345,1.49899,5.71989,3.32145,7.00581,5.89921,1.2763,2.55848,1.96276,5.71624,1.67558,9.25231-.21939,2.70145-.63622,5.38307-.80177,8.08889-.16549,2.7049-.07872,5.42088-.21373,8.12826-.13498,2.70682-.75475,5.38995-.88256,8.09735s-.05365,5.4253-.19761,8.13151c-.06209,1.16706-.30952,2.42145-.39854,4.09472,1.65507-.77679,2.63952-1.65222,3.69729-2.1765,3.00323-1.48859,6.31145-2.36558,9.30892-3.8662s5.65215-3.69023,8.65675-5.17578c3.00492-1.48571,6.11138-2.77177,9.13641-4.21533,3.69109-1.76141,7.79353-1.94364,10.87454-.46786,3.15927,1.51326,4.95169,5.00822,5.68634,8.96733.5111,2.75444.47767,5.33843-.90931,7.61578-1.25362,2.05839-3.27551,3.8526-5.94085,5.18748-2.60847,1.30639-5.29123,2.46422-7.90113,3.76781s-5.34068,2.36387-7.95253,3.66353-5.27867,2.48669-7.89303,3.78128-4.97848,3.09492-7.59588,4.38331-5.31194,2.41953-7.93293,3.70059c-1.93417.94536-2.26021,2.13792-2.33556,4.34467-.08556,2.50586-1.11082,4.97383-1.23025,7.47873-.11941,2.50463.48277,5.0471.33509,7.55034s-.98904,4.96217-1.15939,7.46372c-.1314,1.92963,1.15377,2.61841,2.74291,3.6387,2.7201,1.74641,5.46523,3.45664,8.18054,5.21057s4.94093,4.26395,7.65104,6.02586,5.66849,3.14258,8.37304,4.91298,5.57017,3.29731,8.2688,5.0767c1.51092.99627,2.31557,1.09332,3.85674.28816,2.21997-1.15976,4.53736-2.13434,6.76346-3.28307s4.68505-1.83448,6.92376-2.95763c2.23914-1.12337,4.07941-3.05919,6.33765-4.14244,2.11851-1.01622,2.61555-1.91855,2.69837-4.14667.10438-2.80802.87599-5.59036.98807-8.39811s-.31407-5.63751-.19496-8.44497.84381-5.58834.96927-8.39551.24869-5.61369.37981-8.4206-.33363-5.64208-.19752-8.44874c.10585-2.18297.91362-4.32718,1.65712-6.35644.92205-2.51649,2.33703-4.78356,4.60823-6.02224,2.24992-1.22707,4.92524-1.06091,7.55282-.61457,2.71165.46062,5.07314,1.4498,6.77863,3.42749,1.69506,1.96561,2.84161,4.41036,2.78593,7.22448-.05198,2.62668.20434,5.26395.11797,7.88995-.08636,2.62561-.55146,5.23877-.65692,7.86401-.10544,2.625-.04212,5.25713-.15137,7.88207s.00709,5.2577-.09071,7.88295c-.04268,1.14545-.39645,2.64027-.39277,4.19835,2.7663-1.40458,5.34223-3.51702,8.06129-4.89796,2.76152-1.4025,5.55594-2.6885,8.28264-4.0732,2.75237-1.39773,5.49352-2.78238,8.22476-4.16873,2.74554-1.39361,5.71832-2.32148,8.45712-3.71048,2.89401-1.46772,5.34457-2.54273,7.61899-2.68502,2.8994-.18139,5.57688.53277,7.63887,2.56757,1.62209,1.6007,3.27239,4.02589,4.48127,7.03662-.09408,1.76828-1.03058,3.53401-1.12466,5.30229-1.97709,4.20897-4.91443,7.1577-9.0028,9.15988-2.43184,1.19092-5.03617,2.03004-7.4565,3.24447-2.42013,1.21433-4.61629,2.86926-7.02951,4.09769s-4.98947,2.13577-7.40026,3.36884-4.97504,2.16506-7.3881,3.39343c-.91308.46481-1.93806,1.28984-3.08284,1.97096,1.35375.92983,2.75703,1.37163,3.75859,2.03709,2.76182,1.83499,5.42949,3.81145,8.19727,5.63768s5.58628,3.57677,8.34651,5.41403c2.76042,1.83739,5.2217,4.11681,7.96108,5.98506,3.34313,2.28,5.86852,5.15536,6.25176,8.46247.39848,3.43852-1.53609,6.73695-4.46019,9.42459-2.20376,2.02554-4.49879,3.38884-7.23571,3.3806-2.48444-.00749-5.01452-1.06522-7.65294-2.80368-2.43659-1.60546-5.27014-2.60986-7.70451-4.21873s-4.30116-4.07505-6.73282-5.68799-4.86638-3.21962-7.29488-4.83731-5.32773-2.53026-7.75259-4.15338-4.39035-3.93058-6.81111-5.5598c-1.66229-1.11874-3.37162-1.36991-5.20219-.39941-2.24562,1.19055-4.30052,2.74034-6.56069,3.90389-2.25998,1.16346-4.48949,2.38737-6.76238,3.52552-2.27302,1.13822-4.75388,1.85162-7.03817,2.96622-1.75714.85738-1.61934,2.35851-1.70774,4.21892-.15232,3.20497-.38698,6.40722-.5482,9.61179s-.6767,6.39149-.84716,9.59557-.58914,6.39444-.76919,9.59798-.25789,6.41266-.44787,9.61562c-.11148,1.87947.51322,2.87286,2.15351,3.90169,3.13609,1.96705,6.09239,4.21829,9.19884,6.23301,3.10674,2.0149,6.5009,3.60306,9.55941,5.6885,1.97354,1.34565,3.05717,1.53253,5.23191.37499,2.53659-1.35017,5.45406-1.98303,7.99376-3.32788s4.73316-3.34561,7.27827-4.67997,5.39922-2.07457,7.95231-3.39341c2.55329-1.31895,4.88192-3.07443,7.44546-4.37268,2.5638-1.29838,5.02796-2.8009,7.6044-4.07346,2.78106-1.37361,6.58729-1.76022,9.60678-1.28915,2.55469.39858,4.35643,1.71646,5.81014,3.43395,1.41217,1.66842,2.63277,3.66805,3.03398,6.17096.38398,2.3955-.57978,4.60131-1.75822,6.70579-1.10112,1.9664-2.69211,3.43257-4.95037,4.63794-2.9903,1.59611-5.53718,4.03166-8.54193,5.60068-3.0046,1.56894-6.05613,3.05078-9.06595,4.60995s-6.37524,2.43401-9.381,4.00074c-1.03694.54047-1.49577,1.31208-2.92084,2.09271,2.53858,1.64915,4.89865,3.11489,7.38477,4.73832,2.53,1.65208,5.00292,3.34349,7.49868,4.96885,2.52255,1.64279,4.76412,3.68589,7.27252,5.30129,2.5235,1.62512,5.27636,2.87261,7.80678,4.46991,3.85162,2.43131,6.81086,5.51158,8.33566,9.90045-.09408,1.76827.322,3.68317.22792,5.45144-1.51417,2.85107-3.78397,4.5981-5.58788,6.00856-2.26822,1.77349-4.54589,2.17508-7.40261,1.70223-2.25738-.37365-5.04223-.60566-7.74828-2.36248-2.31692-1.50418-4.36211-3.42686-6.67785-4.93286s-4.65412-2.9772-6.96938-4.48394-4.37247-3.41014-6.68795-4.91654-4.88053-2.62922-7.19694-4.13418c-.96815-.629-2.285-1.60083-3.65595-2.43748-.10232,1.92322.43775,3.67636.34767,4.99528-.23367,3.4207-.34985,6.84841-.57271,10.27006s-.71947,6.8261-.96232,10.24601c-.24288,3.42034-.42459,6.84776-.71828,10.26373-.23989,2.79011-1.87179,5.03774-3.78612,6.80952-1.90534,1.76346-4.27096,3.30237-7.0254,3.48461-2.65997.17598-5.20561-.97265-7.31027-2.44284-2.11117-1.47475-3.86153-3.52134-4.515-6.13338-.52412-2.09495-.41583-4.40314-.28914-6.58543.16414-2.82689.35514-5.65214.52418-8.47876s-.15251-5.68344.02211-8.50972,1.29453-5.59304,1.47541-8.41892.10323-5.66772.29106-8.49314.13495-5.66687.3304-8.49177c.13936-2.01448-.54889-2.8988-2.28951-3.99013-2.15297-1.34991-3.86073-3.40075-5.99872-4.77479-2.13783-1.37394-4.36592-2.60324-6.49149-3.99625s-4.4153-2.5362-6.53138-3.94326c-1.45449-.96714-2.48119-.96271-4.08098-.13707-2.87203,1.48226-5.95355,2.55677-8.83035,4.02985s-5.5139,3.4159-8.39521,4.88012-6.12596,2.2099-9.01156,3.6656-5.31181,3.82519-8.2015,5.27273c-1.69114.84712-2.34611,1.43339-2.42036,3.36212-.09644,2.50509-.49042,4.9991-.60922,7.50359s.20403,5.03495.05709,7.53772c-.14695,2.50306-.34089,5.00903-.52177,7.50945-.15931,2.20237.30755,3.07192,2.1286,4.21682,2.46941,1.55254,4.78371,3.35195,7.24902,4.91105,2.46529,1.55909,5.01342,2.98801,7.47509,4.55286s4.55979,3.69968,7.01829,5.26948,5.06349,2.90952,7.51932,4.4835,4.79906,3.32256,7.25268,4.89992c3.03959,1.95405,5.18902,4.21717,6.04457,7.00498.92646,3.01884.24023,6.0238-1.63922,8.94772-1.88884,2.93853-4.24681,5.22083-7.33547,5.70388-2.89513.45278-6.16142-.46923-9.22334-2.38455-2.81017-1.75784-5.59943-3.54956-8.39591-5.32929s-5.45296-3.778-8.24479-5.56491-5.81957-3.2042-8.61605-4.98372c-.90127-.57351-1.78423-1.37984-3.24073-2.22969-.08684,1.63222-.48217,2.89312-.54432,4.06124-.14398,2.70599.54002,5.45922.37941,8.1648-.16059,2.70532-.25505,5.41322-.40827,8.11872-.15324,2.70595-.63166,5.39103-.75351,8.09775-.12189,2.7075-.33035,5.40908-.3968,8.11793-.08708,3.54984-.95168,6.50096-2.49434,8.90524-1.55561,2.42447-3.94566,3.9614-7.43109,5.10172Zm44.58775-167.37016c.17031-3.20113-.32715-6.43777-.16069-9.63918.16648-3.20173.13818-6.42381.36862-9.62094.14349-1.99055.41003-3.51861-1.34013-4.63849-2.69739-1.72597-5.42593-3.40068-8.11656-5.13732s-5.61239-3.11552-8.29596-4.86299-5.60651-3.1312-8.28282-4.88972-4.81749-4.32812-7.48633-6.0979c-1.73784-1.15241-3.04384-.25211-4.80335.65839-2.81958,1.45908-5.99803,2.22275-8.82234,3.67275s-5.77458,2.65062-8.60356,4.09144-5.44968,3.28996-8.28334,4.72152-5.63298,2.93115-8.47131,4.35339c-1.7717.88777-2.13382,1.90603-2.22764,3.98971-.14419,3.20249-.52139,6.39553-.67866,9.59749s-.14685,6.41376-.31716,9.61503-1.22263,6.35372-1.40598,9.55424-.34746,6.40044-.54382,9.60016c-.12766,2.08028,1.10856,3.05391,2.77725,4.12532,2.67144,1.71532,5.18663,3.67324,7.85244,5.39739s5.39225,3.35436,8.05239,5.0872,5.44979,3.26824,8.1043,5.00967,5.16201,3.70684,7.81092,5.45675c1.65153,1.091,3.13551,1.65932,4.98757.69682,2.84149-1.47673,5.24246-3.80623,8.09028-5.2709s5.91285-2.50749,8.7667-3.96034,5.50222-3.31406,8.36188-4.75537,6.19014-1.94422,9.05541-3.37427c1.85794-.92728,2.19714-2.52539,2.26465-4.52137.1065-3.14845.65302-6.27505.82441-9.4213.17136-3.14567.35547-6.29138.52283-9.43718Z" fill="#e97878"/>
</svg>