<?xml version="1.0" encoding="UTF-8"?>
<svg id="a" data-name="Ebene 1" xmlns="http://www.w3.org/2000/svg" width="210mm" height="209.99999mm" viewBox="0 0 595.27559 595.27557">
  <g>
    <path d="m451.91682,191.19425c-13.82608-35.03861-52.07702-57.13766-84.57821-52.07251l-5.4611,22.78773-.26726-.0625c14.20343-56.4469-39.46175-114.87888-104.32955-98.18958-20.66347,5.31325-36.23134,16.35546-46.82869,31.95658l-1.20926-.88919.69106-.9314c-31.85565-15.99155-63.13256-11.98165-90.85825,7.7185-32.31035,22.97325-43.54034,55.92684-37.02834,95.45887.97371,5.90438,2.99916,11.12129,5.5504,15.99449l-3.20791,1.73084-3.4927-6.47636c-34.6755,13.34857-56.25227,36.44059-57.8495,75.48112-2.09278,51.03158,45.30347,90.36123,95.44484,78.41779,8.56405-2.04948,17.21616-4.17952,24.48287-8.83964,45.57848,22.52204,99.87826,74.37022,119.41688,117.20747,11.80831,25.8557,10.34825,26.52066,38.28561,18.56881,5.26948-1.49986,11.08371-2.05979,15.69517-4.70285,8.69523-4.99753,20.67396-6.68844,18.85301-22.19206-5.97-50.5803,2.50789-99.9227,14.89277-148.78357l.12092-3.76281c26.57111,6.92069,58.43572-2.52322,74.99489-16.1207,30.08736-24.69654,42.36962-62.52338,26.68233-102.29905Zm-188.37964,203.87163l-1.09723,1.97001-51.42064-51.34835,32.70422-24.89288,19.81365,74.27122Zm29.61617-13.45326l-17.3931-75.24167,42.2298-.74626-24.8367,75.98793Z" fill="#ffcacc"/>
    <g>
      <path d="m350.43231,313.4568c-2.05866,8.11403-6.75009,15.62702-8.54385,23.77075-1.80108,8.17696-1.53807,16.81438-2.97504,25.0284-1.44212,8.24341-3.23623,16.47125-4.21353,24.75919-.97857,8.29869,1.77171,16.86778,1.35777,25.21837-.41262,8.32394-.59579,16.48934-.3495,24.87204.24383,8.29899-4.07983,17.00403-3.09488,25.36761,1.83386,15.50003-7.03919,17.77393-15.718,22.78055-4.61146,2.64311-11.47277.4441-16.74227,1.94396-13.98021,3.97921-19.44394,6.466-24.04761,4.05279-4.59606-2.40923-6.89928-8.26092-12.79856-21.17802-3.13241-6.86256-9.13678-12.83376-13.87374-20.00158-4.27849-6.47406-6.8494-14.71475-12.15948-21.19298-5.01636-6.11989-9.73685-13.03799-15.44536-18.95994-5.57848-5.78705-13.00221-9.97387-19.03211-15.38691-6.06949-5.44858-12.58082-10.38039-18.89711-15.26418-6.55899-5.07144-12.96773-10.15987-19.5607-14.41735-7.11501-4.5946-14.72501-7.70041-21.59318-11.09423" fill="none" stroke="#fff" stroke-linecap="round" stroke-linejoin="round" stroke-width="6"/>
      <path d="m367.49326,140.09729c8.59882-1.34009,17.94614-3.77252,26.79124-1.5718,8.42707,2.09671,16.98804,6.4621,24.64749,11.30518,7.41869,4.69085,14.39786,11.00671,20.20336,17.85261,5.68844,6.70787,11.93049,14.16269,15.23492,22.54552,2.91315,7.38641-.38316,16.08315.66673,23.26333,1.13201,7.74176,2.71601,14.76108,1.83878,22.09022-.9103,7.60545-3.97391,14.09597-6.86923,21.06028-2.88188,6.93201-4.31821,14.48158-8.98695,20.58025-4.50341,5.8827-10.98354,9.87765-16.98556,14.80432-6.00477,4.93077-12.63244,11.29643-21.68019,14.55258-7.99622,2.87771-17.19873,1.64677-26.12649,2.35978-8.8279.70503-17.66617,3.26595-26.08642,1.07285-7.69217-1.99625-15.14507-5.39863-21.44441-10.43856" fill="none" stroke="#fff" stroke-linecap="round" stroke-linejoin="round" stroke-width="6"/>
      <path d="m81.11792,208.77953c-8.33852,3.21308-14.71894,8.5777-21.44666,13.00137-7.3345,4.82264-14.69884,8.55689-19.88138,15.03252-5.19137,6.48666-9.1347,13.71782-11.91796,22.08749-2.49091,7.49051-4.84941,15.60322-5.22257,24.77236-.33658,8.22383,1.2635,16.09063,3.29991,23.54101,2.13014,7.7933,4.28443,15.73814,8.57381,22.31471,4.36093,6.68626,12.31534,10.00582,18.44218,15.03963,6.12061,5.0287,11.37846,11.04658,18.79277,14.02914,7.27344,2.92589,15.14439,2.94365,23.21638,3.52215,7.6893.55107,15.36842,1.35937,23.39059-.55155,8.55133-2.0459,18.81432-1.31343,26.09384-5.97721.86848-.55211-1.18982-5.33297-.3597-5.97118,2.95762-2.2694,9.23438-1.76959,11.51207-5.25916" fill="none" stroke="#fff" stroke-linecap="round" stroke-linejoin="round" stroke-width="6"/>
      <path d="m209.1857,95.27111c-7.58064-3.8081-14.63003-6.82248-22.10331-8.42178-8.07875-1.72887-15.97664-4.96467-23.83375-4.2546-7.9213.71587-14.69482,6.41582-22.28886,9.45982-7.1899,2.882-15.46735,4.06647-22.27455,8.90325-6.20101,4.40608-13.10756,8.02332-17.77913,13.14202-5.02814,5.5094-8.80276,12.34095-12.116,18.61744-3.37686,6.39701-2.47431,14.40978-4.13169,21.54003-1.59531,6.8632-3.6548,13.61282-3.71383,21.09702-.05489,6.9593-2.04284,14.48662-.81588,21.9351.97736,5.91717,7.06249,9.69801,9.61379,14.57121,4.52326,8.63621,8.44227,17.38375,13.3759,25.80613" fill="none" stroke="#fff" stroke-linecap="round" stroke-linejoin="round" stroke-width="6"/>
      <path d="m362.28294,168.43448c.81174-2.40705.4997-5.30284,1.04594-7.71748,1.87222-8.12024-.33003-16.4567-1.07236-24.40147-.76045-8.13866-2.85007-15.61305-5.99712-23.08145-3.14643-7.46693-6.45492-14.70266-11.62579-21.00786-5.11991-6.24306-10.89182-11.8917-17.6441-16.51614-6.62098-4.53452-14.60359-5.83132-22.46023-8.3551-7.54052-2.42224-14.7257-7.11759-23.10607-7.28146-7.78136-.15216-16.56651-1.22671-24.829.89892-10.00264,2.57216-19.37947,7.28761-27.00496,12.40713-8.13704,5.46295-15.85636,12.6972-21.33364,20.75279-3.5984,5.30039-4.67317,12.51819-7.13421,18.82239-2.30104,5.89436-1.40111,12.78551-2.71463,19.48814" fill="none" stroke="#fff" stroke-linecap="round" stroke-linejoin="round" stroke-width="6"/>
      <path d="m209.1683,189.89214c5.07192,7.523,8.35284,15.93599,14.38512,21.16863,6.62711,5.74863,15.34704,7.82596,23.06982,10.96246,7.70763,3.13035,15.33267,8.365,24.06558,9.05204,8.03864.63242,16.63554-2.33742,25.4892-3.64636" fill="none" stroke="#fff" stroke-linecap="round" stroke-linejoin="round" stroke-width="6"/>
      <path d="m261.76848,296.23554c-.32654.60576-2.08462.40821-2.39833,1.01032-4.45229,8.04368-6.39016,17.59493-12.32697,24.06772-5.93866,6.47481-12.98804,12.8889-21.04879,17.49128-2.3506,1.33433-6.66356-.96436-9.24288.19945-7.14487,3.24857-13.97216,7.46172-21.67584,8.45514-7.76398,1.0012-15.52991-1.16979-23.20333-2.26937-6.51221-.9184-12.94474-1.49172-18.952-3.80122-7.08689-2.73187-14.40474-5.28253-20.19174-9.76085-5.98476-4.63135-12.1066-9.92282-15.99897-16.22065-.59048-.95458,1.65861-4.91507.68152-5.62101-.59284-.42723-3.11734,1.76262-3.66254,1.30796" fill="none" stroke="#fff" stroke-linecap="round" stroke-linejoin="round" stroke-width="6"/>
      <path d="m361.21613,254.56474c-3.45673,8.97461-7.40993,16.382-12.6235,23.02194-5.7374,7.30709-10.00459,16.21162-17.83214,20.42195-6.94429,3.73903-15.98409,2.26017-24.54927,3.34125-7.53283.95077-15.44234,2.98568-24.20467,1.73108-7.2372-1.03082-14.08648-3.04147-20.14583-6.36178-9.51638-5.19147-16.50653-13.91769-23.10713-23.47334" fill="none" stroke="#fff" stroke-linecap="round" stroke-linejoin="round" stroke-width="6"/>
    </g>
  </g>
  <g>
    <path d="m241.33989,533.27522c-4.88473,3.67837-12.48527-1.46306-9.72371-6.91877,2.88133-5.69232,6.67514-12.18711,10.54745-19.63079,3.16269-6.07959,10.76272-10.49932,14.50585-17.51372,3.32216-6.22552,1.75761-15.5376,5.48309-22.34343,3.44359-6.29086,9.13317-11.66672,12.8797-18.33274,3.55247-6.32073,5.77537-13.63646,9.56515-20.19299,3.65815-6.3288,10.61199-10.87937,14.46003-17.3374,3.76626-6.32078,4.46823-14.59971,8.38731-20.96008,3.8823-6.30068,11.75469-10.13955,15.75884-16.39769,4.01056-6.26815,6.96255-13.1854,11.06728-19.32954,4.1569-6.22225,5.55246-14.30353,9.77693-20.31461,4.32943-6.16042,9.6223-11.57969,13.99166-17.42843,4.53931-6.07624,11.37609-10.1839,15.92394-15.82363,4.80475-5.95832,10.21141-11.00387,14.98525-16.35789,5.15808-5.78495,7.58143-13.7204,12.65297-18.65375,5.65823-5.50405,12.7979-8.67211,18.27942-12.91631,6.41515-4.96709,11.67212-10.61144,17.73707-13.53972,7.472-3.60764,15.00542-2.49467,21.74829-2.43555,7.3447.0644,13.60535.98057,19.81459,6.17843,6.21012,5.1986,12.97377,10.30779,14.32895,17.52786,1.2439,6.62719-4.35142,13.82923-6.58837,21.81913-1.81571,6.48532-4.2829,12.99351-8.04376,20.18219-3.21335,6.14213-6.83637,12.36877-11.25856,18.90643-3.96349,5.85953-8.89823,11.25361-13.68458,17.34809-4.42976,5.64044-8.34351,11.90361-13.36254,17.68077-4.75059,5.46816-7.66322,12.83136-12.8449,18.36792-4.98756,5.32915-10.45994,10.40938-15.76126,15.75408-5.1733,5.21562-8.58727,12.40764-13.98035,17.59393-5.32558,5.12139-13.7484,7.05582-19.21266,12.10638-5.45606,5.04297-9.48796,11.66143-15.00741,16.59196-5.57207,4.97754-10.18101,11.03692-15.74107,15.85707-5.68141,4.92535-11.89396,9.14907-17.48157,13.86471-5.78893,4.88554-11.84621,9.26514-17.44474,13.87548-5.90487,4.86261-14.29228,6.33201-19.88096,10.83017-6.04425,4.86484-11.62613,9.76092-17.17009,14.12662-6.24763,4.91982-11.61965,10.12236-17.04885,14.30603-6.64515,5.12068-12.56253,9.67241-17.6584,13.50978Z" fill="#fff"/>
    <path d="m548.57421,188.82187c-4.48093.61844-7.07198,10.20534-11.08674,14.92467-5.87886,6.91056-10.93592,12.26997-11.19889,5.65152-.20026-5.04001-2.82794-13.04596-3.44662-21.34688-.57728-7.74544,1.47987-16.24967-.37874-21.83192-2.73802-8.22357-7.05373-9.39855-14.94825.03204-5.12066,6.11702-14.43738,10.06962-18.41977,17.59389-3.84959,7.27336-3.49732,16.81668-6.38811,24.5142-3.02211,8.0472-4.27556,13.63539-6.36498,21.16736,10.53906.42492,13.14246,7.12483,16.88609,10.765,8.41369,8.18115,7.30051,7.62025,8.37101,18.67253,5.72051-2.6158,8.65178-5.64717,14.86289-8.99472,5.77947-3.11491,12.40048-5.31665,18.10111-9.03503,5.65134-3.68622,12.15755-6.64066,17.25635-10.89155,5.29511-4.41456,9.29844-10.42861,13.47771-15.42107,8.88182-10.61001,7.96594-16.09316,4.60642-19.1828-3.82589-3.51854-12.52956-7.83176-21.32948-6.61724Z" fill="#e97878"/>
    <path d="m489.55905,261.36967c-1.35515-7.22002-4.34281-12.18677-10.55305-17.38538-6.20911-5.19782-11.63307-6.1302-18.97774-6.19464-6.74306-.05907-13.79371-1.18409-21.26569,2.42355-6.06495,2.92829-12.4614,6.73144-18.87657,11.69851-3.22322,2.49564-6.06752,5.66562-9.01243,8.96953.83756.841,1.71649,1.80282,2.64871,2.93333,3.31382,4.01872,5.23069,5.7202,7.25975,7.52171,2.22132,1.97196,4.51696,4.01136,8.31684,8.61953,1.72832,2.09462,1.43032,5.19446-.66538,6.92146-1.04671.86421-2.34622,1.22171-3.59859,1.10132s-2.45997-.7189-3.32288-1.76669c-3.31382-4.01872-5.23069-5.7202-7.25975-7.52171-2.22132-1.97196-4.51696-4.01136-8.31684-8.61953-.64072-.77701-1.22995-1.42386-1.79447-2.00389-4.99593,4.87036-9.99131,10.08479-15.07252,15.7835-4.77385,5.354-10.7711,9.97033-15.57583,15.92861-4.54783,5.63978-11.2725,9.89884-15.81186,15.97512-.54276.72648-1.06634,1.47063-1.57597,2.2281,1.2696,1.1251,2.64032,2.52503,4.1448,4.34954,3.31382,4.01872,5.23069,5.7202,7.25975,7.52171,2.22132,1.97196,4.51696,4.01136,8.31684,8.61953,1.72832,2.09462,1.43032,5.19446-.66538,6.92146-1.04671.86421-2.34622,1.22171-3.59859,1.10132s-2.45997-.7189-3.32288-1.76669c-3.31382-4.01872-5.23069-5.7202-7.25975-7.52171-2.22132-1.97196-4.51696-4.01136-8.31684-8.61953-.63309-.76775-1.21548-1.40732-1.77408-1.98241-1.59465,2.75803-3.21688,5.51747-5.05354,8.13087-4.22442,6.01105-10.38265,10.87181-14.53955,17.094-4.10471,6.14429-7.8735,12.64183-11.88405,18.9099-4.00418,6.25828-6.31119,13.63188-10.1935,19.93263-1.6636,2.69976-2.75922,5.73423-3.75878,8.81547,3.15748,3.79776,5.03751,5.47459,7.01365,7.22911,2.22132,1.97196,4.51696,4.01136,8.31684,8.61953,1.72832,2.09462,1.43032,5.19446-.66538,6.92146-1.04671.86421-2.34622,1.22171-3.59859,1.10132-1.25236-.12039-2.45997-.7189-3.32288-1.76669-3.31382-4.01872-5.23069-5.7202-7.25975-7.52171-1.31311-1.16569-2.66039-2.36874-4.32083-4.09834-.27194.5416-.55447,1.07646-.86328,1.59462-3.84807,6.45811-7.79591,12.72784-11.45411,19.05661-3.78975,6.55643-6.5136,13.52619-10.06609,19.84689-3.74655,6.66612-12.28844,10.42885-15.732,16.71961-3.72553,6.80578-6.36017,13.86778-9.68234,20.09318-3.7431,7.01439-8.29223,13.06847-11.45498,19.14804-3.87226,7.44369-5.73465,14.92275-8.61593,20.61495-2.76161,5.45571,2.42625,8.59869,7.31099,4.92022,5.09584-3.83727,13.11045-5.63885,19.75558-10.75952,5.42923-4.18377,11.76126-8.19904,18.00892-13.11882,5.54395-4.36571,8.87766-12.11308,14.92194-16.97794,5.58863-4.498,15.15739-4.5291,21.06223-9.39168,5.59853-4.61042,8.50768-12.75107,14.2966-17.63656,5.58762-4.71564,10.89803-9.91381,16.57945-14.83917,5.56006-4.8202,11.69019-9.07423,17.2623-14.05186,4.57385-4.08585,10.74478-6.4598,15.83554-10.01685-1.76208-1.32464-3.71805-3.10947-5.97369-5.84484-4.02671-4.88324-5.35791-8.12282-6.53057-10.9793-1.04205-2.53398-1.94002-4.72244-5.0227-8.46085-1.72701-2.0957-1.42912-5.19434.66669-6.92254,2.09558-1.72581,5.19434-1.42912,6.92254.66669,4.02551,4.88313,5.35672,8.1227,6.53057,10.9793,1.04085,2.53386,1.93883,4.72233,5.02151,8.46073,2.17455,2.63802,3.83772,3.98873,5.48184,5.06082,3.26389-4.38107,5.96686-9.34824,9.81826-13.05202,5.39309-5.1863,12.11265-8.95779,17.28596-14.17336,5.30129-5.34483,12.19758-9.11199,17.18514-14.44114,2.08597-2.22875,3.60658-4.94422,4.99171-7.74809-2.53335-1.51984-5.41085-3.4611-9.07814-7.90848-4.02671-4.88324-5.35803-8.12162-6.53057-10.9793-1.04085-2.53386-1.94002-4.72244-5.02162-8.45954-1.72832-2.09462-1.43032-5.19446.66538-6.92146,2.09342-1.72843,5.19565-1.43021,6.92146.66538,4.02671,4.88324,5.35683,8.12151,6.53177,10.97942,1.03966,2.53375,1.93883,4.72233,5.02043,8.45942,2.39159,2.9004,4.16575,4.24685,5.97439,5.375.65801-1.0644,1.366-2.07635,2.16524-2.99617,5.0191-5.77711,10.46344-10.88575,14.89322-16.52625,4.78639-6.09444,11.65419-10.40984,15.61763-16.26937,4.42225-6.53762,7.80777-13.50671,11.02108-19.64888,3.76091-7.18869,3.90144-15.27152,5.71722-21.75684,2.2369-7.98985,1.74104-14.73606.49715-21.36324Z" fill="#e97878"/>
  </g>
</svg>