<?xml version="1.0" encoding="UTF-8"?>
<svg id="a" data-name="Ebene 1" xmlns="http://www.w3.org/2000/svg" width="210mm" height="209.99999mm" viewBox="0 0 595.27559 595.27557">
  <g id="b" data-name="njgkIW.tif">
    <path d="m54.33496,442.8914c-1.03838-.82132-3.67056.51681-4.70894-.30451-2.79811-4.92277,1.18971-8.66548,4.46586-12.77791,3.61619-4.53928,5.21775-10.68123,8.82358-15.22875,3.60581-4.5475,7.05038-9.22119,10.65009-13.77356,3.5997-4.55235,9.09862-7.6037,12.69646-12.15753s7.10498-9.17844,10.70522-13.73037c1.19693-1.51332,2.60373-3.78903,3.89748-5.4247-1.15037-1.18615-4.76181-.29137-5.4366-.98036-4.5384-4.63402-4.57833-12.81835-8.1391-17.97163-3.66802-5.30851-9.28213-9.18778-11.9033-14.91103-2.67399-5.83858-6.40859-11.47259-7.98304-17.59744-1.59185-6.19254-.66301-12.95892-1.12043-19.29317-.45859-6.35044.18413-12.63918.87634-18.97935.6879-6.30069-.70421-13.21172,1.13064-19.35173,1.80526-6.04098,5.20267-11.84487,8.12816-17.58622,2.84575-5.58486,6.37127-11.10155,10.28625-16.2695,4.73551-6.25108,11.01299-7.75461,16.95873-2.79535,3.55847,2.96804,6.65211,6.13337,10.27042,9.3687.23613-.80282.84276.44859.85869.14169.05141-.99167,1.48644-2.02103,1.49939-3.0143.07602-5.82748-4.92573-11.99343-4.00677-17.53314.94309-5.68521,3.19095-11.39676,5.03093-16.77535,1.83981-5.37811,8.14542-8.7907,10.89117-13.85867,2.67313-4.93395,2.0878-12.05137,5.62819-16.68802,4.38045-5.73683,10.94296-5.96621,16.46606-1.40996,3.70125,3.05331,7.58761,4.72426,11.62427,8.2985.07705-1.81599-.87471-.5459-.86596-1.67925.04471-5.78372-1.04433-11.67682-.16786-17.18302.8992-5.64904,5.73499-10.25612,7.52039-15.60966,1.78518-5.35287,2.17523-11.15111,4.85725-16.2051,2.61145-4.921,6.32916-9.16904,9.80105-13.80345,5.24945-7.00717,9.05877-8.72678,15.84227-2.95514,3.28801,2.79756,6.71492,4.05701,10.36054,7.31494.08628-1.93238-2.28764-.89369-2.26759-2.19105.08929-5.78006,4.49854-11.02191,5.40327-16.52584.92775-5.64392,1.85945-10.88982,3.66347-16.23719,1.80398-5.34723.82889-11.90074,3.52815-16.94516,2.62823-4.91167,5.95894-9.77288,9.45378-14.39159,4.88755-6.45928,10.34413-6.20569,16.58219-1.03426,5.24086,4.34474,7.86364,10.81376,12.0498,15.87052,4.26374,5.15046,12.22613,7.80278,15.41133,13.68396,3.12687,5.77348,4.44265,12.80695,6.54516,19.27698.32628,1.00406-.19096,3.38751.44718,4.77307.85789-1.25023,2.73627-2.45941,3.23836-3.29465,3.43161-5.70861,6.15094-11.53883,10.18827-16.3475,4.23565-5.04489,8.32411-10.11501,13.22828-14.16591,4.99421-4.12527,9.43981-9.5827,15.12929-12.67346,5.59054-3.03701,12.67792-3.50115,18.94167-5.53573,5.97053-1.93935,12.22133-3.76241,18.8052-4.78784,7.56787-1.17869,11.18323,2.31335,11.80182,9.92663.47849,5.88903.95509,11.64278.60059,17.26502-.3683,5.84114,1.2367,12.13043-.03876,17.68022-1.29349,5.62829-3.72999,11.32389-5.96496,16.64895-2.2031,5.24912-7.332,9.20867-10.45815,14.15968-3.00453,4.7584-4.56197,10.87998-8.42654,15.35989-2.9433,3.41193-8.26582,4.90781-11.32346,8.24132.47883.37873,1.41488,1.06248,1.55225,1.08051.98046.12865,1.90095.94026,2.88619,1.02549,6.77722.58629,13.21002,1.7527,19.54176,3.49391,6.44923,1.77352,11.81722,5.55532,17.7978,8.54508,5.87244,2.9357,13.62961,2.98328,19.04394,7.10906,5.95946,4.54117,5.32697,10.26753.6456,16.05744-3.55642,4.39857-6.7212,9.15818-10.82364,12.84141-4.15934,3.73431-9.09287,6.5871-13.80966,9.57267-4.663,2.95152-10.75475,2.87175-15.95882,5.07836-6.92171,2.93489-14.17692,6.15994-21.53294,8.72761,2.1538,1.33224,4.26182,5.28561,6.16575,6.57969,2.05125,1.39419,5.11378,1.3287,7.07327,2.85063,5.66585,4.40059,7.73331,10.25199,3.15438,15.92323-3.55279,4.40034-8.11615,8.15893-12.21298,11.84902-4.15347,3.74111-10.52948,4.51878-15.24348,7.50885-4.65943,2.95546-8.81644,6.63733-14.02481,8.8385-6.94081,2.93335-13.90773,5.63756-21.35698,8.23479,2.19072,1.32327,3.58556,2.91099,5.49005,4.19099,1.92032,1.29068,4.02299,2.27903,5.86126,3.68797,6.223,4.76961,7.96983,9.5941,2.95076,15.68054-3.68407,4.46755-7.41227,9.09994-11.57826,12.79962-4.2782,3.79933-9.91767,6.03059-14.69822,9.02946-4.78069,2.99896-8.90577,7.90472-14.1829,10.11265-5.14371,2.1521-10.9842,3.81141-16.59399,5.22084-1.3801.34676-2.04294-2.59035-3.70123-2.07373,4.19307,2.9171,6.53659,6.69326,10.22218,9.45428,6.21221,4.65381,6.94823,8.7694,1.95097,14.8378-4.01626,4.87713-9.5698,8.00399-14.26952,12.00794-4.78638,4.07777-9.08333,8.51359-14.4359,11.64495-5.40714,3.1633-10.88629,6.08225-16.7235,8.23759-5.85878,2.16331-11.69287,4.77374-17.83507,5.87888-6.12802,1.10258-12.50644-.73124-18.76731-.72454-6.2031.00664-12.33239.497-18.52024-.61367-6.07579-1.09056-12.29469-1.94126-18.21726-4.14855-7.81195-2.91143-14.8977-8.0493-22.85259-11.73486-1.10241,1.39376-4.45863,2.31105-5.68347,3.85953-3.5747,4.51928-3.14213,12.2101-6.71926,16.72748-3.57713,4.51737-9.51301,7.16711-13.08827,11.68595-3.57526,4.51885-6.53946,9.52038-10.10856,14.04407-3.56912,4.5237-8.55655,7.93237-12.11521,12.46429-3.24716,4.13524-5.32319,5.9717-10.7579,4.38258Zm278.43841-210.03223c-4.96228-3.25716-12.12561-4.48388-17.40788-6.55049-5.47811-2.14323-10.31916-6.61234-15.95222-7.57729-5.77164-.98868-11.85756,1.15428-17.58714,1.29202-5.85666.14079-11.45119,1.01884-17.04499,2.21837-5.75284,1.23363-12.0787.70917-17.31612,2.93438-5.4514,2.31613-10.75754,5.37581-15.38441,8.62249-4.87519,3.42093-9.6925,8.60699-13.3428,12.89392,4.8672,3.29398,12.12342,3.5745,17.4547,5.67074,5.42295,2.13228,9.69749,8.64555,15.38374,9.60504,5.72838.9666,12.00047-1.58762,17.77326-1.74293,5.81393-.15642,11.21361-2.4736,16.84495-3.69819,5.70164-1.23987,11.7162-1.05357,16.99502-3.31618,5.37879-2.30546,10.81926-4.70774,15.51056-7.99885,4.78754-3.35862,10.26569-8.04883,14.07334-12.35303Zm-79.68438-56.71172c3.239-5.02262,4.42005-12.18418,6.47693-17.42213,2.16533-5.51412,6.64546-10.33561,7.62662-15.92257,1.01891-5.80191-1.10512-11.89095-1.22131-17.58449-.12014-5.88713-.98697-11.47932-2.16348-17.04351-1.22406-5.78909-.6877-12.1096-2.8787-17.31661-2.31819-5.50927-5.36815-10.82633-8.56139-15.41081-3.46127-4.96929-8.64059-9.79556-12.86889-13.33448-3.41254,4.60652-3.80588,11.83778-5.94851,17.31004-2.08008,5.3125-8.56084,9.64872-9.47973,15.45689-.89602,5.66358,1.69903,11.92436,1.8741,17.76299.17332,5.78002,2.4753,11.20678,3.66656,16.87311,1.20013,5.70853.94957,11.738,3.15067,17.04201,2.25022,5.4224,4.59895,10.89987,7.86118,15.59281,3.34823,4.81666,8.08851,10.27944,12.46596,13.99674Zm127.31783-3.48334c-5.01296-3.23393-12.17969-4.42923-17.43342-6.47716-5.50845-2.14723-10.34514-6.6132-15.94712-7.57638-5.79464-.99631-11.87704,1.1483-17.58107,1.28544-5.87607.14128-11.46605,1.0259-17.03707,2.22389-5.7724,1.2413-12.09497.72366-17.30817,2.93732-5.48275,2.32812-10.789,5.38911-15.38564,8.60552-4.93134,3.45061-9.74891,8.65674-13.33319,12.90076,4.852,3.29214,12.10557,3.56385,17.44937,5.66059,5.41382,2.12421,9.69431,8.63468,15.39078,9.59043,5.7207.95982,11.99047-1.59789,17.77027-1.75701,5.80644-.15985,11.20469-2.47828,16.84171-3.70709,5.6929-1.241,11.70694-1.05626,16.99171-3.32557,5.36649-2.3044,10.80443-4.70783,15.50433-8.00789,4.77231-3.3509,10.24977-8.04309,14.07752-12.35284Zm-188.26501-50.97227c-3.3623,4.88844-4.72769,12.04553-6.84993,17.3391-2.18587,5.4523-6.67796,10.28963-7.65976,15.95311-.9998,5.76734,1.13527,11.87474,1.26574,17.6289.13303,5.86754,1.00131,11.48344,2.18415,17.09127,1.22007,5.7843.67548,12.1261,2.87559,17.36565,2.31279,5.50788,5.37408,10.8462,8.61233,15.44314,3.47288,4.93001,8.75224,9.71256,13.09712,13.21745,3.15729-4.91421,3.32416-12.17045,5.38415-17.50722,2.09094-5.41695,8.60914-9.6721,9.58995-15.3367.98747-5.70312-1.5232-11.96241-1.64012-17.72425-.11725-5.77809-2.39501-11.16214-3.60178-16.80494-1.20694-5.64359-.99647-11.62978-3.2721-16.94337-2.26536-5.2896-4.63724-10.70656-7.94075-15.47663-3.2573-4.70335-7.79813-10.23267-12.04461-14.2455Zm92.06733,28.52065c5.81509-1.22002,11.72718-5.44564,16.92884-7.72713,5.39421-2.36595,11.98371-2.63275,16.65647-5.93375,4.79073-3.38434,7.59201-9.20361,11.55744-13.34705,4.05883-4.24102,7.4106-8.81591,10.53295-13.61208,3.21777-4.94275,8.07741-9.03773,10.22222-14.30813,2.23904-5.50196,3.843-11.42414,4.82411-16.98705,1.03801-5.88554.80916-12.941.33485-18.54635-5.66338.8022-11.08178,5.62065-16.49369,8.00292-5.21406,2.29518-12.87817.81415-17.64409,4.30676-4.62623,3.39024-7.20707,9.66841-11.21542,13.94164-3.9637,4.22564-6.17956,9.70507-9.35167,14.55916-3.20228,4.90027-7.65697,8.99314-9.86171,14.29463-2.26608,5.44899-4.49112,10.99498-5.49802,16.61035-1.04196,5.81092-1.52555,13.04137-.9923,18.74608Zm-126.47368,146.35903c3.26198-4.98428,4.54058-12.14914,6.6158-17.39851,2.17038-5.49007,6.65801-10.30607,7.64671-15.90873,1.02067-5.78381-1.09562-11.87536-1.20538-17.58276-.11294-5.87278-.96854-11.46694-2.13772-17.04451-1.21095-5.77681-.66004-12.09647-2.84827-17.31927-2.30118-5.49239-5.34006-10.81275-8.5422-15.4185-3.4331-4.93793-8.58723-9.77077-12.83642-13.35507-3.29825,4.57032-3.69818,11.81674-5.87786,17.34492-2.07447,5.26136-8.60548,9.54372-9.58738,15.37294-.94541,5.61261,1.57644,11.88603,1.71434,17.75909.13427,5.7183,2.40874,11.12298,3.63463,16.84406,1.20037,5.60197.98253,11.60733,3.29005,16.98344,2.25272,5.24842,4.63102,10.6765,7.99532,15.4967,3.24379,4.64753,7.81034,10.16884,12.13836,14.22619Zm12.89535,10.48569c5.08878,3.21878,12.25065,4.3403,17.45037,6.37309,5.5598,2.17357,10.37898,6.64643,15.92204,7.61851,5.84169,1.02445,11.92442-1.11329,17.57828-1.24124,5.92314-.13404,11.50764-1.02704,17.02947-2.21595,5.82935-1.25512,12.14972-.75157,17.30306-2.93627,5.57741-2.36448,10.88835-5.4401,15.38737-8.58523,5.11642-3.57673,9.91581-8.84827,13.22592-12.99183-4.5451-3.43333-11.76203-3.7961-17.27508-5.92451-5.2939-2.04381-9.672-8.49345-15.50797-9.37426-5.65336-.85325-11.89648,1.78035-17.74135,1.98203-5.77561.19929-11.20047,2.51639-16.86013,3.71096-5.71675,1.20662-11.74935.95309-17.039,3.13971-5.44741,2.25183-10.92976,4.59866-15.59015,7.85145-4.8378,3.37661-10.26531,8.18106-13.88283,12.59354Zm-73.91985-64.56426c-3.36758,4.74779-4.66941,11.8685-6.79984,17.22949-2.13262,5.36651-6.60114,10.21219-7.55837,15.92991-.9536,5.69603,1.20164,11.77645,1.35079,17.56013.14961,5.8014,1.01643,11.39862,2.21147,17.02579,1.21374,5.71526.6624,12.03929,2.8878,17.30158,2.28943,5.41371,5.34265,10.7214,8.63059,15.36009,3.40041,4.79737,8.6231,9.56631,13.01182,13.20857,3.2299-5.00606,3.41632-12.25474,5.46066-17.47643,2.1525-5.49794,8.66253-9.72942,9.63059-15.29906,1.00542-5.7846-1.53244-12.04166-1.65817-17.71486-.13008-5.86945-2.43649-11.2551-3.6148-16.7959-1.22799-5.7744-1.02239-11.7683-3.20556-16.94957-2.31839-5.50218-4.70688-10.9444-7.88492-15.49743-3.46995-4.97124-8.24664-10.40255-12.46206-13.88231Zm26.26197,124.42101c4.95786,3.2718,12.11789,4.56334,17.37838,6.64084,5.47418,2.16189,10.29499,6.64281,15.91063,7.62164,5.7702,1.00577,11.85552-1.12296,17.57174-1.24595,5.85855-.12606,11.44911-.99142,17.03177-2.17345,5.76053-1.21969,12.07916-.67799,17.30594-2.87999,5.47021-2.30455,10.78174-5.34895,15.39412-8.56776,4.9063-3.42393,9.73293-8.56178,13.34233-12.82714-4.53004-3.3214-11.76819-3.74766-17.30929-5.93186-5.24618-2.06794-9.53828-8.58996-15.3803-9.55606-5.60275-.92654-11.86654,1.61633-17.74526,1.7755-5.70789.15454-11.1031,2.44671-16.82369,3.69051-5.59105,1.21563-11.59536,1.01144-16.96828,3.32872-5.23971,2.25983-10.66252,4.64154-15.48098,8.00587-4.6445,3.24286-10.16659,7.79893-14.22711,12.11914Zm92.67834-102.81828c-4.08244-3.22904-10.56689-5.67885-14.71993-8.96374-4.15301-3.28486-8.12681-9.24537-12.20929-12.47444-.55071,4.89309.26505,11.64915-.29521,16.62717-.56185,4.99213-1.29977,9.11651-1.84887,13.99523,4.69719-1.68947,9.30262-1.24822,13.95571-2.92182,4.77292-1.71671,10.54275-4.61694,15.11759-6.2624Zm47.63342-60.14401c-4.08781-3.23329-10.56457-5.68974-14.70856-8.96746-4.14925-3.28189-8.14577-9.22663-12.22824-12.4557-.56919,4.99128.27252,11.69909-.2845,16.58366-.57147,5.01124-1.30884,9.09823-1.86345,13.96165,4.67035-1.67007,9.27067-1.221,13.95746-2.89694,4.73749-1.69407,10.50852-4.57359,15.12729-6.22521Zm-95.32534,120.32237c-4.11706-3.25642-10.57114-5.68468-14.66714-8.92445-4.1508-3.28311-8.09715-9.21917-12.15868-12.43168-.55214,4.87689.26608,11.60203-.29606,16.56717-.55967,4.94334-1.28636,9.04461-1.841,13.94359,4.636-1.66743,9.21076-1.22762,13.89464-2.91227,4.69845-1.68989,10.44701-4.58024,15.06825-6.24236Z" fill="#ffcacc"/>
  </g>
  <g>
    <path d="m371.11318,122.10037c-3.61175-7.89892-13.54744-10.30688-19.36107-3.85402-.03556.03948,1.18927,1.20835,1.15384,1.24794-4.21745,4.71345-9.43107,8.41207-13.09869,13.29238-3.78874,5.04147-6.23616,10.85375-9.44148,16.07221-3.28748,5.35221-7.3324,10.18203-10.0098,15.71926-2.72074,5.62687-4.54131,11.59588-6.63588,17.4126-2.10586,5.84809-2.8258,12.01944-4.30261,18.05819-1.46848,6.00471-4.67938,11.67502-5.52974,17.867-.83687,6.09379-.50703,12.37925-.74891,18.65325-.23606,6.12309-1.33608,12.37486-1.00887,18.6685.31727,6.10237,2.51758,12.14631,3.36125,18.40801.97429,7.23109.98133,14.62912.67641,21.85735-.44526,10.55515-6.0064,13.67154-16.43899,11.52092-3.72913-.76873-7.23009-2.0054-10.8514-3.29589-5.47895-1.95245-11.41763-2.44808-16.92206-4.11703-5.56418-1.68707-10.82383-4.41575-16.41663-5.77454-5.64389-1.3712-11.23755-3.22029-16.91324-4.2175-5.70997-1.00323-11.71267-.10686-17.45753-.69109-5.75235-.585-11.51441-.19268-17.30447-.31686-5.76051-.12354-11.52723-1.22486-17.32775-.85203-5.7272.36812-11.60272.2463-17.37153,1.1372-5.64786.87222-11.2617,2.56085-16.9519,3.9708-6.38662,1.58251-12.35669,4.32167-18.43371,6.73269-6.02029,2.38851-12.56341,3.98121-18.21728,7.51073-7.24997,4.52592-6.74525,15.42511.14844,20.47714,4.42363,3.24184,7.77558,7.86267,12.17357,11.08572,5.9948,4.39327,6.92699,11.55818,1.69914,16.84098-2.25945,2.2832-4.56261,4.4823-6.80675,6.75002-6.0448,6.10834-2.98221,15.86022,4.92562,19.2244,5.36346,2.28174,5.22105,2.61648,10.5845,4.89822,6.26129,2.6637,8.50708,10.52457,5.78872,16.72586-1.84538,4.20979-2.2203,9.02406-4.08531,13.27866-3.36365,7.67336.72044,15.50641,9.0739,16.15007,3.43291.26452,6.72978,1.68962,10.11979,1.95083,7.23956.55783,11.96608,6.39498,10.59762,13.52588-1.28236,6.68222-.97915,6.74041-2.26151,13.42262-1.25891,6.56001,3.18936,13.33213,9.7994,14.58752,3.93874.74805,7.80224,1.6493,11.69995,2.38955,5.20997.98949,8.65498,4.80047,9.2858,10.06592.77093,6.43497.56367,6.45981,1.3346,12.89478.81253,6.78218,7.99688,11.7415,14.79507,10.69606,4.94155-.75992,9.91452-.72547,14.757-1.47015,5.91236-.90921,11.25411,1.63828,13.08013,7.33462,1.00035,3.12062,2.07195,6.16794,3.05539,9.23583,2.14939,6.70512,9.88834,10.79273,16.4337,8.19718,2.87313-1.13934,5.69026-2.30877,8.53725-3.43774,5.84585-2.31816,11.97097-.2462,14.81319,5.36357,1.67393,3.30389,2.97779,6.81602,4.70174,10.21863,3.94948,7.7952,15.24587,8.6613,20.8598,1.96449,5.04821-6.02196,10.892-11.15845,15.12628-17.38822,3.36301-4.94793,5.26173-10.7854,8.2439-15.8045,3.05658-5.14432,6.52574-9.99539,9.126-15.2234,2.66194-5.35203,4.83112-10.88715,6.95446-16.33645,2.16376-5.55303,4.75006-10.98362,6.29048-16.64781,1.55563-5.72014,1.27733-11.83022,2.131-17.67423.85029-5.82084,1.93164-11.61644,2.0196-17.57062.08613-5.82982-1.58134-11.56112-2.28843-17.52866-.68019-5.74057-1.71107-11.37177-3.18133-17.24867-1.39393-5.57178-2.14274-11.416-4.29496-17.11795-.66869-1.77155-1.04418-3.84353-1.21176-5.75241-.52817-6.01605,1.01629-10.71198,3.80511-13.23488,2.85559-2.5833,7.15785-1.74075,13.05216.08017,4.76583,1.47231,10.21521,1.14669,14.81995,3.14627,4.58756,1.99212,9.05135,4.32725,13.60636,6.36988,5.38459,2.41464,10.2824,5.86756,15.73356,7.8455,5.53659,2.00894,11.6162,2.05831,17.22938,3.56684,5.66867,1.52345,10.94664,4.59953,16.70158,5.56105,5.76117.96257,11.58995,2.28121,17.44581,2.62868,5.79505.34387,11.77233.33341,17.66813.02424,5.75933-.30201,11.51791-2.0376,17.38091-3.01029,6.0194-.99864,11.75287-3.02659,17.60339-4.52217,5.87418-1.50163,11.38558-3.85124,17.11074-5.89407,5.67063-2.02337,12.1537-2.12878,17.69891-4.72243,8.58754-4.01662,8.8234-16.35093.94549-21.62517-1.68285-1.12666-3.1768-2.52028-4.85359-3.64289-5.71688-3.82743-6.3476-11.27175-2.32967-16.85638,3.46933-4.82211,5.45837-10.59476,8.88118-15.35221,4.4551-6.19226,3.34802-15.30984-3.56624-18.53243-3.46896-1.61681-7.26678-2.42454-10.70411-4.02661-6.17518-2.87813-8.67725-10.04483-5.67794-16.16207,1.56749-3.19697,3.23397-6.29186,4.77589-9.43669,3.38937-6.9128-.38569-16.5886-7.83749-18.52391-4.64828-1.20721-9.88292.22166-14.41776-.95609-6.20892-1.61253-9.85444-9.15826-8.64514-15.45814.74939-3.90397,1.90027-7.66886,2.63661-11.50481,1.47462-7.68211-4.92475-15.88635-12.7418-15.59803-2.33454.08611-4.6508.16453-6.96044.24972-7.14284.26346-14.29184-4.63478-13.91681-11.77263.25174-4.79141,2.51876-9.39384,2.76576-14.0949.43436-8.26703-8.20373-15.34344-16.19479-13.18117-3.11005.84154-6.06903,2.09424-9.13053,2.92264-6.8004,1.84009-14.133-2.02446-15.50611-8.93431-.72853-3.66613-.1963-7.53906-.91987-11.18023-1.50685-7.58287-10.12951-11.12246-17.23708-8.08058-6.194,2.65089-6.79473,1.24723-12.98873,3.89812-6.06146,2.59416-13.09922.85774-15.84504-5.14739-2.76877-6.05532-6.06022-11.80353-8.86173-17.93044Z" fill="#e97878"/>
    <path d="m157.77319,314.85193c8.98823-1.63122,6.89453-.70919,18.17968-1.13232,5.22474-.1959,11.38971-1.2302,18.25332-.86567,5.63231.29913,11.81467.54043,18.24796,1.46956,5.7434.82949,11.37012,3.81024,17.54614,5.31363,5.71522,1.39122,11.48965,2.98375,17.41531,5.08564,5.57981,1.97922,12.12635,2.15001,17.76033,4.86991,5.3447,2.58024,9.79773,7.18699,15.07856,10.5278" fill="none" stroke="#fff" stroke-linecap="round" stroke-linejoin="round" stroke-width="6"/>
    <path d="m341.99388,302.22738c-2.75652-8.70923-3.30466-6.4329-5.15374-17.57356-.85608-5.15785.60532-11.52505.09757-18.37957-.41666-5.62484-2.38044-11.65417-2.27362-18.15333.09536-5.8022.13369-11.97846.84272-18.29515.65614-5.84541,1.99124-11.86761,3.32567-18.01177,1.25655-5.78556,3.47154-11.50404,5.45594-17.43714,1.88251-5.62847,2.66725-11.93856,5.3123-17.6" fill="none" stroke="#fff" stroke-linecap="round" stroke-linejoin="round" stroke-width="6"/>
  </g>
</svg>