<?xml version="1.0" encoding="UTF-8"?>
<svg id="a" data-name="Ebene 1" xmlns="http://www.w3.org/2000/svg" width="210mm" height="209.99999mm" viewBox="0 0 595.27559 595.27557">
  <g id="b" data-name="fVcfEK.tif">
    <path d="m468.94579,155.14743c-2.41003.04916-4.55684,4.57695-6.96067,4.71552-9.71403.55996-14.43577-.92401-16.79293.91378-2.86975,2.23744.46364,5.09997,3.44572,15.17988,2.04561,6.91451,4.41725,13.87113,6.10212,20.82551,1.66128,6.857-2.24885,14.06273-3.57732,21.57415-1.01564,5.74256.09746,11.78537-1.36368,17.29117-1.49086,5.61778-.64292,12.04863-2.59304,17.4217-1.97529,5.44243-8.16369,9.16824-10.60544,14.36146-2.45333,5.21785-3.92367,10.86412-6.84308,15.83229-2.9091,4.95061-6.82236,9.20351-10.18946,13.90809-3.32951,4.65205-4.92356,10.72851-8.69624,15.14181-3.7057,4.33493-8.37293,7.95669-12.50179,12.063-4.03353,4.0115-8.9702,7.13902-13.40344,10.93397-4.31471,3.69348-7.39425,9.123-12.08377,12.61285-4.55151,3.38715-10.52181,4.96187-15.42291,8.15857-5.19391,3.38768-11.19133,5.32497-16.53626,8.42037-5.35896,3.10352-9.72833,7.9201-15.22921,10.74602-5.50222,2.82662-12.15631,3.16204-17.79061,5.72719-5.62469,2.56078-9.40457,9.44732-15.151,11.76371-5.72817,2.30903-11.80356,3.98654-17.6429,6.06879-5.81443,2.07336-12.36617,2.09756-18.28115,3.96192-5.88615,1.85528-12.30917,1.8294-18.28536,3.49334-5.9447,1.65517-11.84817,3.29926-17.87258,4.78049-5.99267,1.47343-10.96483,7.48627-17.02714,8.80273-6.03147,1.30977-12.4261,1.18115-18.5174,2.35046-5.5167,1.059-11.64074-1.5523-17.16556-.70652-5.55634.85061-10.57407,5.78975-16.13249,6.35308-5.59085.56661-11.37765-.84181-16.96437-.63873-5.60711.20383-11.26422,1.10984-16.86086.87372-5.58843-.23578-10.94847-3.11507-16.52016-3.86314-5.51823-.74089-10.76738-2.26206-16.26303-3.57727-5.38352-1.28838-10.29841-3.55547-15.65446-5.46286-2.57756-.91791-7.90647,6.03574-9.88377,8.69976-4.09214,5.51333-7.9373,9.52396-8.81025,14.72239-1.00168,5.96505-1.45525,12.17279,1.7397,17.65744,2.62947,4.5139,6.7402,9.47296,12.18446,13.61807,4.77276,3.63384,10.67102,5.67383,15.57012,8.96501,4.97219,3.34028,11.11539,4.57693,16.21732,7.56116,5.16174,3.01922,8.78246,8.70116,14.07657,11.35273,5.33638,2.67274,10.41981,6.05215,15.89025,8.34806,5.49161,2.3048,11.12339,4.56622,16.74966,6.48794,5.62341,1.92074,11.73302,2.56181,17.49052,4.09654,5.7291,1.52716,12.2059-.40216,18.06733.7395,5.80748,1.13115,11.47683,2.25252,17.4138,3.00203,5.85872.73963,11.54216,2.57752,17.52656,2.94242,5.88387.35877,11.75911,3.32395,17.76409,3.31753,5.88698-.00629,11.80956-2.15865,17.81258-2.51868,5.86981-.35205,12.08773,1.81981,18.06815,1.12695,6.00455-.69566,11.28009-6.5,17.17875-7.39777,5.97433-.9093,11.88943-1.40319,17.75145-2.52298,5.93367-1.13348,12.84306,2.4536,18.65782,1.10117,5.8814-1.36793,11.22085-5.01339,16.97665-6.60871,5.81574-1.61193,11.9335-2.28853,17.61692-4.13611,5.7358-1.86462,11.33965-4.2346,16.93647-6.34283,5.63917-2.12418,10.57133-5.99594,16.06509-8.37112,5.52617-2.3892,10.9774-4.85416,16.35207-7.50108,5.39535-2.65711,11.04498-4.80574,16.28321-7.72637,5.24678-2.92539,9.17922-7.97843,14.2639-11.17203,5.08081-3.19116,10.60339-5.58535,15.51788-9.04812,4.89827-3.45134,11.49749-4.68823,16.22611-8.41318,4.70106-3.70323,6.97915-10.36427,11.50818-14.34166,4.49091-3.94392,8.21114-8.59629,12.52866-12.81341,4.30946-4.20925,10.21124-6.60696,13.98958-10.97829,3.93128-4.54828,9.21014-8.02922,12.56538-12.74953,3.47128-4.88357,3.70485-11.75759,6.55837-16.82148,2.92758-5.1953,5.82469-10.18541,8.10076-15.56637,2.30933-5.45959,7.45644-9.96768,9.09374-15.61405,1.64004-5.65583,3.4793-11.59367,4.4437-17.43251.95354-5.77305-.38658-12.0518-.09485-17.99948.28508-5.8122-2.40202-11.63804-2.75018-17.613-.33714-5.7858-1.4112-11.39474-2.34324-17.32949-.8549-5.44359-1.14959-10.41483-3.28393-15.19098-2.17247-4.86148-4.22515-9.65965-7.28074-14.06906-3.00825-4.3411-4.92051-9.65428-8.35543-13.78952-3.39342-4.08527-6.69305-8.28592-10.08969-12.39388-3.65414-4.41938-7.48443-8.3518-10.36025-12.95911-3.023-4.8431-6.14599-9.35253-7.53073-14.73002-1.33119-5.16953-4.43532-10.99956-3.52958-16.96645,1.96656-12.95539,5.02708-18.04953.50538-20.1945-3.54856-1.68334-10.29136-3.26297-21.99806-2.45396Z" fill="#ffcacc"/>
    <path d="m468.9237,154.78407c11.7067-.80902,18.45312,1.1729,22.00168,2.85624,4.5217,2.14497,3.98105,7.57988,2.01448,20.53527-.90579,5.96724-2.806,12.06247-1.47463,17.23227,1.38482,5.37732,6.01428,9.86406,9.03726,14.70704,2.87577,4.60714,4.43167,10.62183,8.08568,15.04106,3.3986,4.11033,9.98622,5.59632,13.38147,9.68399,3.43391,4.13421,7.26696,8.11672,10.27423,12.45678,3.05518,4.40921,4.71838,9.85767,6.89045,14.71896,2.13357,4.77514,4.1711,9.92004,5.0258,15.36233.93206,5.93483-.52466,12.01643-.18753,17.80231.34817,5.97524,2.78678,11.87081,2.50164,17.68328-.29178,5.94791-2.89205,11.63549-3.8457,17.40875-.96451,5.83903-1.2773,11.79189-2.91749,17.44789-1.63736,5.64624-4.08561,11.04284-6.39497,16.50231-2.27607,5.38076-4.9775,10.59295-7.90504,15.78806-2.85366,5.06401-3.98677,11.44514-7.45822,16.32881-3.35505,4.71993-10.69796,6.43057-14.62897,10.9785-3.7782,4.37113-6.75913,9.44459-11.0684,13.65366-4.3178,4.21739-7.86785,9.17325-12.35906,13.11741-4.52914,3.97747-8.01293,9.25467-12.71411,12.95797-4.72895,3.72517-11.96866,4.04093-16.86728,7.49246-4.91468,3.46285-9.32748,7.4989-14.40849,10.69011-5.08485,3.19363-9.44037,7.56566-14.68732,10.49107-5.23821,2.92054-10.26655,6.32153-15.66187,8.97856-5.37462,2.64683-11.76548,3.10284-17.29161,5.49195-5.49374,2.37511-10.06211,7.09061-15.70125,9.21473-5.59635,2.108-12.55636.30742-18.29167,2.17184-5.6833,1.84752-9.94777,8.49251-15.76339,10.10439-5.75567,1.59526-11.89174,2.16326-17.77301,3.53115-5.81455,1.35237-12.01672,1.19206-17.95017,2.3255-5.862,1.11979-11.43969,4.38298-17.41401,5.29227-5.89861.89777-11.95038,1.54994-17.95488,2.24559-5.98001.69281-12.05691.6637-17.92633,1.01575-6.00321.36007-12.04307-.89186-17.93024-.88555-6.00557.00643-12.00772.61743-17.89215.2586-5.98442-.36492-11.54489-4.26145-17.40362-5.00111-5.93711-.74955-11.91274-.31306-17.72035-1.44427-5.86178-1.14176-11.32298-3.45391-17.05241-4.98122-5.75757-1.53481-11.86012-1.6163-17.4836-3.53714-5.62615-1.92175-10.51157-5.57313-16.00307-7.87794-5.47031-2.29592-12.32106-1.58354-17.65731-4.25627-5.29368-2.6514-10.00556-6.55564-15.16689-9.57464-5.10184-2.9842-10.08996-6.24979-15.06207-9.59003-4.89892-3.29107-8.98207-7.7578-13.75467-11.39152-5.44406-4.14496-11.09674-7.0587-13.72622-11.57242-3.19529-5.485-2.73302-11.67134-1.73113-17.63679.87304-5.19823,4.29139-9.50486,8.38336-15.01797,1.97731-2.66402,7.56512-8.95668,10.14268-8.03878,5.35599,1.90738,10.57451,3.0865,15.95798,4.37487,5.49589,1.31528,10.52178,3.9398,16.04025,4.68071,5.57196.74808,11.04678,1.75595,16.63549,1.9917,5.59667.23609,11.2019,1.11043,16.80905.90657,5.58653-.20311,11.1734-.95477,16.76406-1.52139,5.55834-.56334,11.42503.67384,16.98129-.17677,5.52459-.84576,10.77105-3.67796,16.28753-4.73692,6.09132-1.16931,12.26468-1.92835,18.29617-3.23812,6.06246-1.3165,11.41394-5.55134,17.40676-7.02482,6.02441-1.48124,12.69653-.33638,18.64123-1.99156,5.97623-1.66396,11.13173-5.95671,17.01792-7.81201,5.91519-1.86444,12.24411-2.30853,18.05874-4.38199,5.83936-2.08228,11.64086-4.18648,17.36905-6.49555,5.7464-2.3164,10.92322-5.83453,16.54788-8.39532,5.63417-2.56512,12.15851-3.23823,17.66062-6.06481,5.50075-2.82588,9.2603-8.74178,14.61914-11.84524,5.34477-3.09531,10.49502-6.25416,15.68877-9.64174,4.90071-3.19645,12.24205-2.69232,16.79324-6.07919,4.68954-3.48982,6.32517-10.62838,10.63989-14.32184,4.43381-3.79539,9.60903-6.46969,13.64303-10.48169,4.12889-4.10638,6.79668-9.27487,10.5024-13.60986,3.77293-4.41362,7.35949-8.63615,10.68918-13.28856,3.36717-4.70479,10.55563-6.89431,13.46476-11.84517,2.91929-4.96813,3.54491-11.26848,5.99813-16.48628,2.44149-5.19285,2.07927-11.43981,4.05437-16.88183,1.95003-5.37294,7.7439-9.53313,9.23469-15.15077,1.46105-5.50557,1.41211-11.48698,2.42771-17.22929,1.32848-7.51143,1.44038-14.84476-.2209-21.70177-1.68487-6.95437-6.64198-13.07653-8.68759-19.99103-2.98208-10.0799-3.37264-15.29831-.5029-17.53575,2.35715-1.8378,7.90329-1.16912,17.61733-1.72908,2.40382-.13856,4.64512-3.00755,7.05515-3.05671Z" fill="#ffcacc"/>
  </g>
  <g>
    <path d="m346.48558,182.45626c-6.43817,0-12.13404,2.91071-17.69561,4.53067-6.10972,1.77962-12.48208,2.42377-17.51646,5.30331-5.69276,3.25611-10.12959,7.87558-14.42247,11.31854-5.63383,4.51843-12.49465,6.23479-19.28118,6.23479s-14.4209-.75185-20.05473-5.27029c-4.92497-3.94992-7.34038-10.2672-12.72116-13.84576-4.32834-2.87863-10.03029-5.47636-17.50181-6.97365-5.01359-1.00472-11.25371.52012-18.63799.52012-5.40529,0-11.36364-1.56297-17.17789-.4169-5.42192,1.06873-11.17044,2.75945-16.49828,5.17787-5.01443,2.27616-9.47774,6.20221-14.0357,9.96689-4.16818,3.44275-7.92048,7.70682-11.41727,12.62181-3.08338,4.33392-6.90027,8.81953-9.2592,14.4571-2.04354,4.88382-1.59728,10.96757-2.96427,16.93406-1.18617,5.17726-2.26284,10.60362-2.85288,16.66416-.51823,5.32294-1.66143,10.89668-1.66143,16.94682,0,5.85065-.50309,11.67981-.28465,17.43603.2225,5.86303.82965,11.66414,1.29099,17.39002.47254,5.865,1.64238,11.58197,2.37858,17.26112.75886,5.85395.88234,11.72054,1.93561,17.33119,1.09272,5.82079,3.68433,11.17875,5.10982,16.68665,1.4892,5.75404,2.99118,11.29649,4.86161,16.65109,1.96553,5.62686,2.28035,11.79899,4.68776,16.91769,2.54017,5.40096,6.97734,9.6282,10.03396,14.38478,3.21834,5.00824,5.43606,10.66149,9.25557,14.86347,3.96518,4.36225,9.14816,7.38512,13.79349,10.77493,4.67364,3.41046,9.88376,5.72031,15.27921,8.03938,5.5657,2.39225,10.49423,4.72904,15.48313,5.48885,5.9017.89884,11.51096,1.36962,16.58834.50825,5.73193-.97242,10.67947-3.79982,15.33564-6.24473,6.02307-3.16267,12.72987-3.91997,19.23681-4.98496,6.60731-1.08142,12.95463-.88633,19.56193.19514,6.5068,1.06501,13.6265.90142,19.64945,4.06403,4.65611,2.44488,9.48302,4.46223,15.21486,5.43466,5.07731.86139,10.57217,2.88681,16.47379,1.98804,4.98905-.75979,9.71517-4.188,15.28106-6.58033,5.23766-2.25126,9.88892-5.14488,14.44591-8.84444,4.33953-3.52303,8.35222-7.39772,12.10158-12.0086,3.52147-4.33062,7.77756-8.35979,10.80103-13.46184,2.86265-4.83068,4.5448-10.44813,6.98012-15.81129,2.3394-5.15192,5.25287-10.17817,7.21476-15.68149,1.91561-5.37351,2.36224-11.25561,3.93345-16.83491,1.55915-5.53646,4.79921-10.66484,6.03427-16.27871,1.24693-5.66784,2.80044-11.3027,3.73237-16.92166.95947-5.78502-.51163-11.82917.13053-17.42428.67809-5.90812,2.42032-11.5357,2.76389-17.07147.37623-6.06186.45235-11.85843.45235-17.26659,0-6.63602.70943-13.21487-.18201-19.34936-.9552-6.5732-3.53764-12.67833-5.44426-18.57344-2.04187-6.31327-3.54419-12.81829-6.58867-18.22823-3.23638-5.75094-8.65921-9.83317-12.9218-14.41188-4.43529-4.76421-9.38083-8.50448-14.80561-11.82713-5.4262-3.32352-10.88135-6.4273-17.17352-8.13256-5.99414-1.6245-12.27291-3.64695-18.94301-3.64695Z" fill="#e97878"/>
    <path d="m286.93907,176.21636c-7.41109-4.88086-4.58309-6.49281-6.02254-16.84507-.70518-5.07153-1.2556-11.40424-.10284-18.00789.91818-5.25985,4.73101-10.28143,7.65367-16.15637,2.38954-4.80329,4.00973-10.78587,8.18398-15.80805,3.45383-4.15542,8.36507-7.69935,13.29106-11.89642,4.15578-3.54083,8.20841-8.08733,13.5607-11.59353,4.61441-3.02283,10.21957-5.26978,15.81753-8.22615,4.92461-2.60076,10.00491-4.47307,15.75413-6.99498,7.15306,5.41286.14081,6.72368-.43388,17.41321-.28284,5.26096.51883,11.49287-.45743,17.97654-.85156,5.65548-2.48935,11.5602-4.12889,17.50392-1.57537,5.71108-3.37352,11.54425-5.89603,16.97992-2.53326,5.45885-6.67011,9.91897-10.37615,14.56367-3.71236,4.65264-6.78671,10.23236-11.89479,13.52824-4.79362,3.09298-11.06785,3.58763-17.27767,5.02459-5.3607,1.24047-11.12902,2.84201-17.67083,2.53838Z" fill="#e97878"/>
    <path d="m278.04887,198.01651c-3.50241,3.38214-3.87489,4.61587-8.42044,2.87122-7.83215-3.0061-.80126-5.80822-5.04919-15.6042-1.86559-4.30215-5.12043-8.84599-8.63887-14.31156-2.727-4.23615-5.26275-9.25586-9.25388-13.95467-3.34851-3.94225-7.48719-7.69766-11.87881-11.83206-3.81795-3.59432-8.37223-6.77279-13.07738-10.42627-4.1803-3.24594-7.27155-7.04781-12.22066-10.28078,1.71795-7.79173,2.57864-7.45504,6.8899-14.16887,4.31125-6.71383,2.67141-8.65053,9.04393-13.45194,4.75554,3.34791,10.00033,7.02022,13.94279,10.80605,4.18136,4.01524,6.97209,9.10233,10.32697,13.43155,3.55516,4.58767,7.249,8.87372,9.98093,13.60132,2.92829,5.06739,6.09778,9.8784,8.20874,14.84612,2.33897,5.50432,4.65437,10.83284,6.16191,15.86611,1.81215,6.05032.96876,12.16309,1.86719,16.94958,1.90514,10.1498,8.19493,9.78905,2.11686,15.6584Z" fill="#e97878"/>
    <path d="m394.76589,316.23921c9.08247-.14854,4.17008-6.64212,7.10703-16.99711,1.4595-5.14587,1.66387-11.48443,2.50748-18.06679.73362-5.72413,1.38961-11.81757,1.02796-18.102-.33868-5.88521-.42302-12.17979-2.21949-18.14085-1.68945-5.60595-5.55167-10.55582-8.94308-15.88402-3.53591-5.55522-7.15049-9.9254-11.05548-13.41471-4.89189-4.37116-9.67135-7.53262-14.60617-9.42061-6.12502-2.34334-12.00632-3.70552-17.16782-3.68056-10.06819.04867-17.72275-5.27008-18.02965,3.5167-.31698,9.07541,7.83443,2.18638,17.19946,7.80987,4.51565,2.71155,10.39126,5.30332,15.51029,9.71019,4.27596,3.68108,7.33339,9.30941,11.37464,14.33495,3.19616,3.97462,6.10415,8.56301,8.21569,13.91504,1.93656,4.90851,3.26216,10.25154,4.46497,15.64667,1.20055,5.38499,1.18611,10.93263,1.8257,16.16252.71753,5.8672,2.35693,11.28948,2.59527,16.10787.47762,9.65555-7.95977,16.63616.1932,16.50283Z" fill="#fff"/>
  </g>
</svg>