<?xml version="1.0" encoding="UTF-8"?>
<svg id="a" data-name="Ebene 1" xmlns="http://www.w3.org/2000/svg" width="210mm" height="209.99999mm" viewBox="0 0 595.27559 595.27557">
  <g id="b" data-name="njgkIW.tif">
    <path d="m59.90541,457.95129c-1.02211-.80844-3.84184.67163-4.86394-.13682-2.75425-4.84561.3277-9.52928,3.55251-13.57726,3.55951-4.46813,5.49119-10.22818,9.04051-14.70442,3.5493-4.47623,6.36015-9.53352,9.90344-14.01453s9.00983-7.44114,12.55128-11.9236c3.54146-4.48246,7.16832-8.89747,10.71213-13.37805,1.17817-1.4896-.18204-3.08226,1.09143-4.69229-1.13234-1.16756.92922-1.8643.265-2.54249-4.46727-4.56138-10.14151-8.20236-13.64646-13.27487-3.61053-5.2253-6.57463-11.10868-9.15472-16.74224-2.63207-5.74707-2.40777-12.5495-3.95754-18.57835-1.5669-6.09548-4.23308-12.01004-4.68333-18.24501-.4514-6.2509,2.83677-12.32252,3.51813-18.56332.67712-6.20193-2.47416-13.2124-.66807-19.25617,1.77696-5.94629,4.74859-11.86383,7.62822-17.51519,2.80114-5.49732,6.27561-11.03416,10.12923-16.1211,4.66129-6.1531,10.83433-6.76788,16.68688-1.88635,3.5027,2.92152,7.54335,4.63125,11.10495,7.81587.23243-.79023,1.05114,1.35461,1.06682,1.05252.0506-.97612-.3102-2.04246-.29745-3.02017.07483-5.73614.39072-11.0893,1.29527-16.54218.92831-5.5961,2.54353-10.67566,4.35467-15.96995,1.81098-5.29382,3.57531-10.33268,6.27802-15.32122,2.63123-4.85661,5.69277-9.26261,9.17766-13.82658,4.31179-5.64691,8.77463-9.05596,14.21116-4.57112,3.64323,3.00545,5.34089,8.68207,9.31429,12.20029.07585-1.78753,3.18298-3.53031,3.1916-4.64589.04401-5.69307-.87811-11.05261-.01538-16.47251.88511-5.5605-.46433-11.62637,1.29308-16.896,1.7572-5.26897,6.46661-9.31265,9.10659-14.28742,2.57052-4.84387,4.75315-9.88666,8.17062-14.44843,5.16717-6.89734,8.04071-6.8766,14.71788-1.19543,3.23648,2.75372,7.08089,4.68625,10.66936,7.89312.08492-1.90209-2.31569-3.03247-2.29596-4.30951.08789-5.68946,2.42249-11.30156,3.31305-16.71922.91321-5.55546,3.64165-10.59753,5.41739-15.86108,1.7757-5.26342,1.89733-11.33688,4.55428-16.30223,2.58703-4.83468,6.12031-9.41293,9.56037-13.95924,4.81094-6.35804,8.10815-4.23095,14.24843.85943,5.15872,4.27665,12.10377,6.36764,16.22433,11.34514,4.19691,5.06973,6.15718,11.60997,9.29245,17.39897,3.07786,5.68298,4.75398,11.77407,6.82353,18.14269.32116.98832,3.00642-.98162,3.63456.38223.84444-1.23063,2.48019,1.0119,2.97441.18975,3.37782-5.61914,6.679-10.81166,10.65304-15.54496,4.16926-4.96581,7.1454-10.95954,11.97271-14.94695,4.91593-4.06062,11.33217-5.88554,16.93248-8.92786,5.50292-2.98941,10.13961-8.53375,16.30518-10.53645,5.87695-1.90895,12.59647-2.17278,19.07715-3.18214,7.44926-1.16022,11.13871,2.68278,11.7476,10.17674.47099,5.79673-1.25562,11.33148-1.60457,16.86559-.36253,5.74959,3.23255,12.0484,1.97709,17.5112-1.27322,5.54007-7.8027,9.39092-10.00264,14.63251-2.16857,5.16685-4.20932,10.06479-7.28647,14.9382-2.95744,4.68382-3.69068,11.11332-7.49468,15.52301-2.89716,3.35845-5.93085,6.43642-8.94056,9.71767.47132.3728-.60749,1.58702-.47228,1.60477.96509.12664,2.1366-1.22853,3.10641-1.14463,6.671.5771,13.63522-.31024,19.86772,1.40368,6.34815,1.74572,11.5751,6.67091,17.46194,9.61381,5.7804,2.88969,10.80077,6.78726,16.13024,10.84838,5.86605,4.46999,8.86432,8.77851,4.25633,14.47766-3.50068,4.32962-10.38827,5.30565-14.42641,8.93115-4.09415,3.67578-7.86684,7.18986-12.5097,10.12863-4.58992,2.90526-7.5599,9.12732-12.68239,11.29934-6.81322,2.88889-15.3796,2.16327-22.62032,4.6907,2.12004,1.31136,4.86209,2.74364,6.73619,4.01743,2.0191,1.37234,3.30998,3.74648,5.23876,5.24455,5.57704,4.33162,6.28287,7.90818,1.77571,13.49053-3.49711,4.33137-6.8471,8.73577-10.87972,12.36803-4.08837,3.68247-8.12964,7.63678-12.76975,10.57999-4.5864,2.90914-9.37314,6.08741-14.49988,8.25408-6.83202,2.88737-13.59277,4.83608-20.92526,7.3926,2.15638,1.30253,3.12931.85864,5.00395,2.11857,1.89022,1.27045,3.81502,2.52756,5.62448,3.91442,6.12546,4.69485,8.56273,10.83358,3.62233,16.82462-3.62633,4.39753-11.47746,4.57822-15.57815,8.21992-4.21114,3.73978-6.2533,10.0839-10.95892,13.03577-4.70576,2.95196-10.14405,4.822-15.33847,6.99532-5.06309,2.11837-10.83587,2.13394-16.35773,3.52128-1.35847.34133-1.76603,1.90097-3.39833,2.40949,4.12735,2.87138,6.9747,6.30634,10.60253,9.02408,6.11484,4.58087,7.51045,8.76128,2.59152,14.73457-3.95331,4.80069-8.6902,8.9013-13.31627,12.84249-4.71136,4.01386-8.77423,9.31029-14.0429,12.39257-5.32239,3.11372-12.04704,3.75106-17.79276,5.87262-5.76695,2.1294-11.4742,5.00949-17.52013,6.0973-6.03197,1.0853-12.38392.57653-18.54667.58313-6.10587.00654-12.19046-.94992-18.28133-2.04319-5.98056-1.07346-12.88611.05006-18.71585-2.12263-7.68951-2.8658-14.60634-7.09402-22.43655-10.72181-1.08513,1.37192.34599,2.34037-.85965,3.86457-3.51867,4.44844-10.10014,6.4734-13.6212,10.91997-3.52106,4.44657-3.83917,11.42793-7.35839,15.87595-3.51923,4.44802-7.61667,8.43492-11.12983,12.88771s-10.45036,6.21078-13.95324,10.67167c-3.19627,4.07043-4.50355,6.43884-9.85307,4.87462Zm274.08342-206.72897c-4.8845-3.20611-12.04779-4.1608-17.24727-6.19502-5.39224-2.10964-10.28973-5.41452-15.8345-6.36434-5.68118-.97319-11.4195.6997-17.05928.83528-5.76486.13859-10.94828,1.70464-16.4544,2.88536-5.66268,1.21429-11.61776.53992-16.77309,2.73025-5.36596,2.27982-10.42723,4.94917-14.98158,8.14496-4.79878,3.36731-6.55434,6.75818-10.14744,10.97792,4.79092,3.24236,7.2424,6.47833,12.49012,8.54171,5.33795,2.09886,11.24559,1.56807,16.84271,2.51253,5.63859.95145,11.00106,1.63326,16.68336,1.48039,5.72281-.15397,11.65354,1.6149,17.19662.40951,5.61227-1.22043,10.58114-4.56692,15.77722-6.79407,5.29449-2.26933,12.01119-2.35451,16.62897-5.59404,4.7125-3.30598,9.1306-9.3337,12.87857-13.57044Zm-78.44719-55.80654c3.18823-4.9439,4.09784-12.10571,6.12248-17.26157,2.13139-5.42769,5.44797-10.31125,6.41376-15.81063,1.00294-5.71097-.65236-11.45003-.76673-17.05434-.11826-5.79486-1.67418-10.97728-2.83225-16.45426-1.20488-5.69836-.51993-11.6486-2.67659-16.77399-2.28185-5.42292-4.9422-10.49376-8.08538-15.00639-3.40702-4.8914-6.86525-6.64043-11.02728-10.12388-3.35905,4.53431-6.63072,6.9531-8.73976,12.33959-2.04747,5.22923-1.47567,11.14712-2.38016,16.86426-.88198,5.57482-1.53142,10.96894-1.35909,16.71606.1706,5.68943-1.61703,11.63272-.44445,17.21023,1.18132,5.61905,4.47274,10.63108,6.63934,15.85195,2.21495,5.33741,2.23893,12.07438,5.45003,16.69376,3.29575,4.74117,9.37726,9.15016,13.68609,12.8092Zm125.33403-3.4451c-4.93439-3.18325-12.1007-4.10683-17.27209-6.12266-5.42211-2.11357-10.31645-5.41562-15.83062-6.36372-5.70382-.9807-11.43784.69395-17.05247.82895-5.78397.13907-10.96198,1.71139-16.44568,2.89061-5.68193,1.22184-11.635.5545-16.76649,2.73347-5.39681,2.29163-10.45937,4.96316-14.98396,8.12916-4.85405,3.39653-6.61305,6.77792-10.14114,10.95543,4.77595,3.24054,7.23115,6.49671,12.4912,8.56058,5.32897,2.09092,11.23649,1.55599,16.84367,2.49676,5.63104.94477,10.99463,1.62389,16.68383,1.46727,5.71543-.15734,11.64699,1.60998,17.19565.40042,5.60367-1.22155,10.57009-4.56902,15.77202-6.80277,5.28238-2.26828,11.99776-2.35526,16.624-5.6036,4.69751-3.29838,9.11434-9.32771,12.88208-13.5699Zm-185.33-50.18536c-3.3096,4.81182-4.40214,11.97112-6.49112,17.18173-2.15161,5.36685-5.47874,10.26125-6.44515,15.83596-.98413,5.67694.68148,11.43497.8099,17.09894.13095,5.77557,1.6885,10.9842,2.85281,16.50413,1.20094,5.69364.50819,11.66512,2.67382,16.82255,2.27654,5.42155,4.94345,10.50635,8.13095,15.03124,3.41845,4.85274,6.80293,6.59348,11.07972,10.04343,3.1078-4.83719,6.33731-7.32079,8.36501-12.57391,2.05816-5.33204,1.52985-11.22549,2.49528-16.80131.972-5.61373,1.6931-10.95315,1.57801-16.62468-.11541-5.68752,1.69445-11.58455.50659-17.1389-1.18803-5.55514-4.5128-10.50547-6.75276-15.73578-2.22985-5.20669-2.27906-11.89146-5.53078-16.58677-3.20625-4.62963-9.09236-9.1067-13.27228-13.05664Zm90.61765,28.09959c5.72395-1.2009,11.44354-5.61846,16.56368-7.8642,5.30967-2.32886,11.11674-3.45941,15.71626-6.70866,4.71564-3.33129,7.60384-8.57318,11.50712-12.65168,3.99521-4.17455,6.57084-8.94793,9.64425-13.66892,3.16734-4.86528,7.86963-8.59231,9.98082-13.78011,2.20394-5.41572,3.90909-10.88587,4.87482-16.36159,1.02174-5.79329-.21854-9.49991-.68542-15.0174-5.57462.78963-9.5779.21316-14.90499,2.55809-5.13233,2.2592-8.90721,6.86966-13.59844,10.30754-4.55371,3.33711-8.82899,6.71676-12.77451,10.92301-3.90157,4.1594-9.37533,7.11261-12.49771,11.89063-3.15209,4.82346-4.38427,10.70463-6.55445,15.92302-2.23056,5.36358-6.98925,10.15519-7.98037,15.68255-1.02563,5.71984.18404,13.15242.70894,18.76772Zm-124.48135,144.06756c3.21085-4.90616,4.21739-12.07189,6.26008-17.23898,2.13636-5.40402,5.4603-10.28271,6.4335-15.79755,1.00467-5.69315-.64322-11.43465-.75126-17.05259-.11117-5.78073-1.6566-10.96684-2.80746-16.45699-1.19197-5.68627-.49305-11.63509-2.64698-16.77604-2.26511-5.40631-4.91428-10.47913-8.06623-15.01268-3.37929-4.86054-6.84575-6.61051-11.02834-10.13863-3.24656,4.49869-6.48881,6.92224-8.63433,12.36377-2.04196,5.17889-1.52928,11.09513-2.49579,16.83299-.93059,5.52464-1.64437,10.89448-1.50863,16.67549.13217,5.62867-1.68061,11.55149-.47393,17.1829,1.18156,5.51417,4.49854,10.48161,6.7699,15.77346,2.21741,5.16616,2.27681,11.86773,5.58838,16.61238,3.19294,4.57469,9.1009,9.03871,13.36108,13.03246Zm12.67742,10.30982c5.00902,3.16833,12.17071,4.0189,17.28893,6.01983,5.47266,2.1395,10.35399,5.44902,15.81017,6.40586,5.75012,1.00839,11.48129-.6603,17.04653-.78624,5.8303-.13194,11.00122-1.71239,16.4365-2.88267,5.73798-1.23545,11.69015-.58243,16.76272-2.73288,5.48999-2.32742,10.5568-5.01334,14.98531-8.10918,5.03623-3.52067,6.77367-6.98524,10.0319-11.06385-4.47386-3.37952-6.90274-6.71122-12.32937-8.80627-5.21093-2.01177-11.12614-1.39993-16.87064-2.26693-5.56475-.83988-10.9679-1.45662-16.72117-1.2581-5.68508.19617-11.6349-1.57594-17.20586-.4001-5.62715,1.18771-10.64133,4.47626-15.84807,6.6286-5.36203,2.21654-12.10528,2.24001-16.69263,5.44182-4.76197,3.32369-9.1335,9.46677-12.69433,13.81009Zm-72.74954-63.56916c-3.31479,4.67337-4.34376,11.79601-6.44079,17.07298-2.09919,5.2824-5.40211,10.17802-6.34433,15.80612-.93865,5.60675.74541,11.34316.89223,17.03618.14727,5.71047,1.70299,10.90131,2.87929,16.44028,1.19471,5.62568.49423,11.57821,2.68475,16.75802,2.25355,5.32886,4.91179,10.38397,8.1482,14.94996,3.34711,4.72218,6.71019,6.44687,11.03013,10.03204,3.17928-4.9276,6.39153-7.38657,8.40383-12.52642,2.11876-5.41177,1.58731-11.29616,2.54019-16.77851.98966-5.69394,1.68355-11.0256,1.55979-16.60989-.12804-5.77745,1.65422-11.67559.49437-17.12954-1.20874-5.6839-4.54113-10.64998-6.69008-15.75004-2.28205-5.41594-2.34905-12.12567-5.47728-16.60734-3.41557-4.89332-9.53095-9.26862-13.6803-12.69384Zm25.83847,122.4867c4.88015,3.22052,12.04105,4.23981,17.2191,6.28475,5.38838,2.12801,10.26906,5.44487,15.79668,6.40836,5.67976.99,11.41587-.66959,17.04249-.79066,5.76672-.12408,10.94811-1.67849,16.44327-2.84199,5.67024-1.20057,11.61845-.5102,16.76331-2.67769,5.38447-2.26843,10.4495-4.92287,14.98959-8.09123,4.8294-3.37026,6.57086-6.85668,10.12368-11.05518-4.45904-3.26934-6.8703-6.50299-12.32455-8.65295-5.16395-2.03553-11.07586-1.51163-16.82631-2.46259-5.51494-.91201-10.88401-1.60751-16.6706-1.45084-5.61843.15212-11.54492-1.64138-17.17584-.41708-5.50341,1.19658-10.46031,4.52462-15.74902,6.80558-5.15759,2.22441-11.85573,2.288-16.59867,5.5996-4.5717,3.19204-9.03626,9.08943-13.03313,13.34193Zm91.25424-101.20698c-4.01845-3.17843-10.5825-5.3802-14.67044-8.6136-4.08791-3.23337-7.37129-8.02745-11.38978-11.20591-.54208,4.81639.7026,10.28409.15111,15.18409-.55305,4.91389-1.17859,7.56655-1.71908,12.36881,4.62357-1.66299,7.61919-1.40767,12.19935-3.05504,4.69811-1.6898,10.9257-3.05867,15.42883-4.67834Zm46.88682-59.20122c-4.02374-3.18261-10.5802-5.39103-14.65923-8.61738-4.08422-3.23045-7.36778-8.01719-11.38626-11.19564-.56027,4.91305.68762,10.34276.13933,15.15077-.56251,4.93269-1.18162,7.55167-1.72754,12.33886,4.59715-1.64389,7.58475-1.3863,12.19807-3.03597,4.66324-1.66752,10.88925-3.0149,15.43563-4.64064Zm-93.83123,118.43639c-4.05253-3.20538-10.58668-5.38596-14.61848-8.57495-4.08574-3.23165-7.34028-8.00232-11.33815-11.16447-.54349,4.80045.70172,10.23896.14839,15.12627-.5509,4.86586-1.14682,7.50963-1.69277,12.33182,4.56334-1.64129,7.51028-1.40184,12.12074-3.06008,4.62481-1.6634,10.83145-3.02252,15.38026-4.65859Z" fill="#ffcacc"/>
  </g>
  <g>
    <path d="m282.07301,528.6833c7.12839-2.53547,13.46389-6.34567,19.66785-10.63381,5.7367-3.96177,10.45153-9.12291,16.27164-12.91629.33313-.23153.81821-.23323,1.22319-.33856l.20371-.30065c.12119.20667.31909.41377.61594.59053,2.64344,1.5693,4.20511,4.2259,6.10041,6.53631,8.34534,10.15036,19.32466,15.14976,32.24761,15.52965,10.89243.3176,21.49888-2.13792,32.03293-4.71983,8.69961-2.13168,17.13483-4.98987,25.23846-8.82681,5.52885-2.63004,10.82606-5.63152,16.08964-8.75904,5.40534-3.20718,10.43849-6.93523,15.2093-10.94304,7.97063-6.68608,15.13936-14.20417,21.88191-22.12121,10.77971-12.69551,15.15932-26.93048,10.56318-43.30766-.89485-3.19587-2.61959-6.16261-2.4482-9.64789.00802-.0992-.0333-.20248-.08635-.30972l.2562-.1172c.31455-.28885.58712-.68088.95062-.85127,6.30498-2.92837,13.22475-4.01754,19.64732-6.7277,6.86605-2.89162,13.37108-6.14755,19.309-10.66583,11.99381-9.12409,19.78769-20.82807,22.52799-35.7192,2.80264-15.1887-1.6041-28.46848-11.08797-40.2656-3.41836-4.25288-8.05466-7.5412-10.18185-12.82334-.06809-.17596-.19315-.37119-.3374-.54739l.33253-.15519c5.19708-4.51389,5.6987-11.12501,7.16007-17.1059,2.82895-11.45797,4.89073-23.09876,5.78519-34.90495.85412-11.34817,1.12439-22.70252-.6029-33.99303-1.72331-11.26365-4.73906-22.13575-10.74524-31.96685-4.28464-7.00585-9.35853-13.44996-16.26941-17.92778-8.14477-5.27743-16.88329-5.63168-25.83206-1.51959-13.01908,5.97343-22.06722,16.37389-30.77323,27.15771-5.9307,7.36301-11.02035,15.32902-15.8165,23.48356-1.50778,2.57469-2.77167,5.25728-3.68825,7.9683l-1.19818,2.48823c-2.14125.71618-4.32084.56553-6.51563.38438-7.58407-.6395-14.88361-.01014-22.1578,2.76885-7.87879,3.02096-14.19133,7.70571-18.974,14.46281-4.86708,6.85583-6.21471,14.83808-7.35693,23.00431-.5554,3.94186-.86541,5.91446-1.85413,6.72749-1.1264.91927-3.12463.34543-7.38213-.55847-3.86437-.82233-7.61932-2.27017-11.51151-2.82153-13.37126-1.88228-26.03245.73257-38.40313,5.9948-9.81572,4.18851-18.68998,9.66417-26.5518,16.78223-8.05365,7.30806-14.42445,15.78409-17.85624,26.3118-1.20702,3.68327-2.00634,7.5173-3.80059,11.01479-.37329.72766-.78806,1.23748-1.27025,1.53344-.63558.37137-1.41452.4139-2.46361.16112-4.07748-.98353-7.5769-3.26264-11.39602-4.82163-10.54295-4.29096-21.04617-4.5154-31.36859.30478-9.41177,4.38903-16.59306,11.3037-21.20374,20.71914-1.17108,2.40808-2.53624,4.67415-4.61724,6.41783l-.2916.37284c-3.51568-1.1376-7.30055-1.77996-11.1528-1.88435-10.56792-.2972-21.12544-.32327-31.62372,1.02167-12.87083,1.65183-25.58325,3.77761-36.67695,11.21776-4.4879,3.02009-8.03236,6.83091-10.11598,11.90034-3.85448,9.40334-1.64457,18.51168,1.6277,27.41845,3.69126,10.08076,9.86376,18.5152,17.34871,26.27158,9.50753,9.84221,20.60562,17.35453,32.3989,23.94182,10.84105,6.04892,22.30549,10.89369,34.03724,14.91101,6.08898,2.08417,12.18382,5.43215,19.09949,3.44945l.2823-.83498c-.11604.34321.08054.89386.31561,1.21559,3.26769,4.66077,3.57179,10.3209,5.31369,15.49829,4.89442,14.47699,13.81296,25.38205,28.32803,31.19458,13.82915,5.54219,27.64891,5.23092,41.54557.28079Z" fill="#e97878"/>
    <g id="c" data-name="LP34Cw">
      <g>
        <path d="m206.32146,481.42392c-6.91981,1.98954-13.73407.55661-19.82261-1.52585-5.86703-2.00672-11.73101-4.50304-17.42017-6.9736-5.68624-2.46929-11.30247-5.50731-16.72413-8.53411-5.90986-3.29936-9.47141-10.16115-14.91986-14.10293-5.42369-3.92387-10.30404-7.92937-15.04694-12.84287-7.4828-7.75196-13.18395-15.37852-16.88349-25.45728-3.27234-8.91497-8.29208-17.53967-4.43068-26.93951,2.08147-5.0669,6.01217-9.07915,10.49773-12.09234,5.5324-3.71641,11.57483-6.4437,17.73565-8.11122,6.18324-1.67359,12.98315-.4585,19.42563-1.28278,10.5091-1.3446,20.93314-4.07436,31.49473-3.77606,3.85862.10896,8.13843,1.56095,11.66062,2.7054.73958,2.72372.52187,6.08289.07216,8.74109-1.04171,6.15738-1.94988,12.40178-.91501,18.39861,1.47418,8.54257,3.11984,17.05742,4.60393,25.59828,1.48409,8.54086,1.77668,17.29186,3.27009,25.83109,1.49341,8.53923,7.37692,16.30898,8.87905,24.84669.83821,4.76425.98907,9.95661-.65923,14.7842-.11493.3366-1.34517,1.29795-1.11533,1.62482,3.27547,4.65829,2.49991,10.37165,4.24772,15.54443,2.45104,7.25405,7.99527,12.82719,12.66695,18.09774,4.64961,5.24564,9.52913,11.59053,16.77076,14.49051,6.91007,2.76718,14.6362,3.04478,21.55234,3.04229,6.92436-.00249,14.62414-.17859,21.57908-2.65368,7.12384-2.53519,12.07325-9.39588,18.28614-13.68375,5.73904-3.96084,12.095-6.64689,17.91558-10.43827.33904-.22084-.03648-1.12435.37617-1.23218" fill="none" stroke="#fff" stroke-linecap="round" stroke-linejoin="round" stroke-width="6"/>
        <path d="m517.08661,309.2424c5.20079-4.50832,7.46056-9.58831,8.93161-15.5704,2.81781-11.45872,5.83551-23.11553,6.72596-34.92239.85641-11.35556-2.97638-22.42506-4.70238-33.71664-1.72086-11.25833.03413-23.85525-5.97452-33.68347-4.28143-7.00289-11.28299-12.49764-18.19648-16.97346-8.15335-5.27845-16.25911-3.37384-25.21309.73885-6.48702,2.97958-11.51133,6.60035-16.47836,11.2787-4.99377,4.70352-11.73507,7.82236-16.09507,13.23109-5.93649,7.36443-8.9907,16.73431-13.78843,24.88133-1.95899,3.3265-7.18699,6.82966-8.10849,10.35849,2.58377,3.29989,9.42965,3.22471,12.80129,5.09674,3.19877,1.77595,5.81762,4.41813,8.43435,6.80626,6.42724,5.86566,12.69583,11.90562,19.10314,17.79312,6.40727,5.88746,13.98244,10.50347,20.39067,16.38986,6.40826,5.88642,9.9107,14.94994,16.34082,20.81238,4.41328,4.02364,9.49584,8.78105,15.85111,10.18913.342.07578,2.72503-1.65994,2.87428-1.29004,2.13371,5.2888,5.70558,8.75595,9.12443,13.01311,4.74496,5.90832,7.42931,12.73088,9.36464,19.43382,1.92957,6.68301.80986,13.42507-.58875,21.00749-1.37404,7.44931-1.29317,15.06821-5.08585,20.99935-3.78981,5.92664-9.5726,10.72134-15.56762,15.28195-5.93869,4.51776-12.58892,7.62659-19.44905,10.5131-6.42771,2.70458-12.48361,5.6434-18.78918,8.57487-.36828.17121-.24793.02022-.5613.30958" fill="none" stroke="#fff" stroke-linecap="round" stroke-linejoin="round" stroke-width="6"/>
        <path d="m370.48105,281.51079c1.7721,3.33423,2.97922,6.93252,5.83729,9.1961,4.32873,3.42827,9.96345,5.62005,13.30376,9.85489,5.11833,6.48899,7.16465,15.38256,12.16271,21.9649,3.78076,4.97914,9.69578,8.38636,13.43085,13.41097,4.80861,6.46882,6.84952,15.00427,11.68672,21.4524,3.94154,5.25433,9.17279,9.54158,13.08382,14.81938,3.73641,5.04213,8.53161,9.28257,12.32115,14.28542,3.85134,5.0844,6.60097,11.00576,10.58593,15.98293,4.17182,5.21052,6.62805,12.24912,12.72312,15.79993.42885.24985,1.95876.18692,1.93949.5731-.17434,3.48566-1.35194,7.0698-.4544,10.26699,2.29785,8.18502,6.98436,15.78239,5.12142,22.96971-1.86601,7.19913-7.85385,13.43599-13.25175,19.7859-6.74118,7.93002-12.72602,16.90015-20.68988,23.58212-4.77784,4.00878-11.00965,6.35367-16.41895,9.56496-5.25943,3.12232-11.49045,4.2135-17.01527,6.83936-8.0991,3.8494-15.49694,9.31785-24.19263,11.44738-10.53347,2.57959-21.32544,2.91815-32.21784,2.60012-6.4781-.18913-12.05046-1.25683-17.46579-3.83798-5.38242-2.56546-11.98731-4.2942-16.14858-9.35461-1.90022-2.31079-2.61469-5.23399-5.26135-6.80034-.79293-.46927-1.53417-1.97109-1.51772-2.5435.20545-7.13882-3.65571-12.64285-5.78361-19.07781-1.47853-4.47116-2.06978-9.23253-3.71066-13.64827-2.32874-6.26678-6.03434-12.01537-8.38833-18.27281-2.31791-6.16158-1.51303-13.48937-3.80343-19.66121-2.18357-5.88398-8.04613-10.40383-10.22654-16.28897-2.7598-7.44888-4.37925-15.31925-7.14606-22.76554-2.22155-5.97905-1.22281-13.13177-3.39297-19.12953-3.42141-9.45565-10.53711-17.71205-11.2596-27.96802-.15587-2.21269-2.81234-3.46964-3.47426-5.47327" fill="none" stroke="#fff" stroke-linecap="round" stroke-linejoin="round" stroke-width="6"/>
        <path d="m193.16749,364.54526c2.08644-1.7475,2.44001-5.58934,3.61753-7.99454,4.61085-9.4182,10.10164-19.07332,19.51376-23.46541,10.31982-4.81566,21.29873-.42761,31.84338,3.87414,3.81573,1.55666,8.56993-.22525,12.64922.75243,1.87022.44827,1.09805,1.75283,1.96345.06423,1.79412-3.50062,4.98026-6.33247,6.1832-10.01376,3.4396-10.52652,10.1637-17.68722,18.22067-24.99113,7.85732-7.12305,14.33182-16.3218,24.14561-20.50308,6.17641-2.63152,13.59562-.75468,19.97113-1.83086,6.39231-1.07902,12.31963-1.08059,19.01452-.13712,3.89123.54845,7.94089-.06247,11.80416.75927,8.00765,1.70324,7.38875,2.18159,8.57245-6.20807,1.15231-8.16721,1.58149-17.16484,6.4403-24.01798,4.78954-6.75553,12.65351-10.36141,20.52553-13.37581,7.2784-2.7871,14.57642-3.22493,22.15498-2.58993,2.19375.18388,3.9793-1.06251,6.11618-1.77638" fill="none" stroke="#fff" stroke-linecap="round" stroke-linejoin="round" stroke-width="6"/>
      </g>
      <g>
        <path d="m328.5739,436.07607c1.5925-1.88205,5.13059-.44599,6.54213.74838s5.22108,6.52717,3.62859,8.40922c-1.5925,1.88205-6.25373-2.4442-7.66527-3.63857-1.41154-1.19437-4.09794-3.63697-2.50545-5.51902Z" fill="#fff"/>
        <path d="m433.50844,441.98081c1.5925-1.88205,6.02784-3.74351,7.43938-2.54914,1.41154,1.19437-1.17878,4.61701-2.77127,6.49906-1.5925,1.88205-2.40311,2.47871-3.81464,1.28433s-2.44596-3.3522-.85346-5.23425Z" fill="#fff"/>
        <path d="m393.85775,375.19138c1.5925-1.88205,3.93698-5.57049,2.52544-6.76486-1.41154-1.19437-5.59022.94206-7.18272,2.82411s-2.59093,5.86406-1.1794,7.05843,4.24417-1.23563,5.83667-3.11768Z" fill="#fff"/>
        <path d="m251.62476,402.64315c1.43614-1.66258,5.52919-4.14915,7.41848-2.51718,1.8893,1.63197-.46526,5.62026-1.90139,7.28284-1.43614,1.66258-3.76839,3.1001-5.65769,1.46812-1.8893-1.63197-1.29554-4.5712.1406-6.23378Z" fill="#fff"/>
        <path d="m363.37075,486.67942c-1.5925,1.88205-1.46158,3.80482-.05005,4.99919s5.07027,2.47821,6.66277.59616-1.56078-3.76325-2.97232-4.95762c-1.41154-1.19437-2.04791-2.51978-3.6404-.63773Z" fill="#fff"/>
        <path d="m275.90741,487.30447c-1.43614,1.66258-1.68799.20201-3.57729-1.42997-1.8893-1.63197-4.43611-2.58889-2.99997-4.25147,1.43614-1.66258,5.56232-2.53407,7.45162-.90209s.56178,4.92095-.87436,6.58353Z" fill="#fff"/>
        <path d="m233.94681,446.41494c0,2.19697.10618,6.30711,1.99548,7.93908,1.8893,1.63197,1.98797,2.03039,3.4241.36781,1.43614-1.66258,4.55146-5.25594,2.66216-6.88791-1.8893-1.63197-8.08174-8.04914-8.08174-1.41898Z" fill="#fff"/>
        <path d="m407.56895,401.37498c1.43614-1.66258,7.06566-.81641,8.95496.81557s-.66241,3.44442-2.09854,5.107c-1.43614,1.66258-.19101,1.36272-2.0803-.26925-1.8893-1.63197-6.21224-3.99074-4.77611-5.65332Z" fill="#fff"/>
        <path d="m421.91106,480.63371c-1.43614,1.66258-6.61602.58384-8.50532-1.04813-1.8893-1.63197-.18919-3.55907,1.24694-5.22165,1.43614-1.66258,1.9456-2.29344,3.8349-.66147,1.8893,1.63197,4.85961,5.26867,3.42348,6.93125Z" fill="#fff"/>
        <path d="m375.99696,439.95461c-1.43614,1.66258-1.35864,7.04612.53066,8.67809,1.8893,1.63197,5.334-.70909,6.77014-2.37167,1.43614-1.66258,3.19484-6.45454,1.30555-8.08652-1.8893-1.63197-7.17021.11751-8.60635,1.78009Z" fill="#fff"/>
        <path d="m300.00428,365.79536c-1.32438,2.07946-2.66639,6.0508-4.22598,5.05751-1.5596-.99329.18679-4.70707,1.51117-6.78654s2.67318-3.22554,4.23278-2.23225c1.5596.99329-.19358,1.88182-1.51796,3.96128Z" fill="#fff"/>
        <path d="m221.67832,381.1054c-1.32438,2.07946-3.30428,6.54833-4.86388,5.55504s1.34027-4.87623,2.66465-6.9557c1.32438-2.07946,1.09364-2.38742,2.65324-1.39413,1.5596.99329.87037.71532-.45401,2.79479Z" fill="#fff"/>
        <path d="m446.7615,284.92194c.75268-2.06401,5.70807-1.53156,8.05353-.67624,2.34547.85532,2.76125,2.28157,2.00857,4.34558-.75268,2.06401-1.82959,2.45071-4.17505,1.59539-2.34547-.85532-6.63973-3.20071-5.88705-5.26472Z" fill="#fff"/>
        <path d="m505.29113,357.56556c-.75268,2.06401-4.54137.96438-6.88684.10906-2.34547-.85532-6.46824-2.64075-5.71556-4.70476s5.85068-2.95287,8.19614-2.09755c2.34547.85532,5.15893,4.62924,4.40625,6.69325Z" fill="#fff"/>
        <path d="m447.9178,335.82288c-.75268,2.06401,2.71831,5.03681,5.06377,5.89213,2.34547.85532,6.90623.81144,7.65891-1.25257.75268-2.06401-3.12046-3.90574-5.46593-4.76106s-6.50407-1.94252-7.25675.12149Z" fill="#fff"/>
        <path d="m424.71867,276.94729c-.50026,2.4141-10.5241,3.64753-12.33468,3.27233s-3.47653-2.24986-2.97627-4.66396c.50026-2.4141,2.47568-2.03282,4.28625-1.65762,1.81058.3752,11.52495.63515,11.02469,3.04925Z" fill="#fff"/>
        <path d="m356.70084,393.7916c-1.18019,1.85306-3.99253-.47549-6.09828-1.81661-2.10575-1.34112-3.66146-1.79453-2.48128-3.64759,1.18019-1.85306,4.56674-4.27431,6.67248-2.93319,2.10575,1.34112,3.08726,6.54433,1.90707,8.39739Z" fill="#fff"/>
        <path d="m373.56707,317.29237c1.32438-2.07946-5.67499-8.73602-7.23459-9.7293-1.5596-.99329-4.03876.81257-5.36314,2.89204s-1.03597,3.71338.52363,4.70667c1.5596.99329,10.74972,4.21006,12.0741,2.1306Z" fill="#fff"/>
        <path d="m316.67599,320.13255c1.18019-1.85306,2.03368-1.60695,4.13942-.26583,2.10575,1.34112,2.00815,1.57644.82797,3.42949-1.18019,1.85306-3.25221,5.02434-5.35795,3.68321s-.78962-4.99382.39056-6.84688Z" fill="#fff"/>
        <path d="m357.48681,351.42368c1.18019-1.85306-.47387-7.69281-2.57962-9.03393s-4.73773,1.76891-5.91792,3.62196c-1.18019,1.85306-2.0075,4.17461.09825,5.51573,2.10575,1.34112,7.2191,1.7493,8.39929-.10376Z" fill="#fff"/>
      </g>
    </g>
  </g>
</svg>