<?xml version="1.0" encoding="UTF-8"?>
<svg id="a" data-name="Ebene 1" xmlns="http://www.w3.org/2000/svg" width="210mm" height="209.99999mm" viewBox="0 0 595.27559 595.27557">
  <g>
    <path d="m384.70968,99.45365c0-7.48125-2.47546-13.40001-9.39187-19.94362-5.13258-4.85593-9.72682-12.8183-18.00226-16.90525-6.67742-3.29774-16.08199-1.88638-24.47193-4.55686-7.31018-2.32679-14.77798-5.33362-23.17654-7.1039-7.63743-1.60984-15.22374-5.72345-23.60555-6.81403-7.82752-1.01846-16.2404,1.30555-24.59207.78738-7.94145-.49271-15.99163-5.01344-24.3005-5.01341-8.30881,0-16.30084,5.45706-24.24223,5.9498-8.35249.51824-16.9361-3.60134-24.76433-2.58272-8.38184,1.09066-16.38253,3.56745-24.01996,5.17738-8.39858,1.77037-16.19221,4.59679-23.50237,6.92368-8.39019,2.67067-16.4933,4.84681-23.17078,8.14478-8.27633,4.08764-14.67857,9.70504-19.81101,14.56182-6.91389,6.54254-11.49324,13.89521-11.49324,21.37494,0,1.25983-1.80908,1.87449-1.80908,3.74898,0,12.3291,3.75415,9.31343,3.75416,24.6582,0,7.05156,1.01216,15.37681,1.01217,24.65723,0,7.6325.54934,15.91108.54934,24.65855,0,7.88146-.63999,16.14357-.63999,24.65673,0,8.03259-.77789,16.28869-.77788,24.65943,0,8.14523-1.7326,16.399-1.7326,24.66102,0,8.2458,1.12981,16.49981,1.12982,24.66232,0,8.35374,1.40491,16.61165,1.40492,24.66683,0,8.48736-4.38082,16.74965-4.38082,24.66185,0,8.69965,2.39631,16.97604,2.39631,24.663,0,9.14961-1.65301,17.46412-1.65301,24.66326,0,11.36455,1.2684,19.94963,1.2684,24.65274,0,7.8739,1.64246,17.40122,7.60656,24.91236,4.7165,5.93991,12.95029,10.36411,20.78107,15.64357,6.52325,4.39793,14.74243,7.08673,23.081,10.78279,7.36878,3.26621,14.26365,9.45956,22.8189,12.01486,7.83931,2.34146,17.14521.24073,25.80624,1.86238,8.12019,1.52039,16.21227,4.54156,24.91267,5.32915,8.28233.74974,16.78936,2.91291,25.47584,2.91291,7.6577-.00003,15.23397-1.16358,22.58303-1.65861,7.68045-.51734,14.84471-4.0051,22.09729-5.03204,7.67351-1.08654,15.77205,1.30427,22.85972-.31619,7.6252-1.74337,14.67851-4.97426,21.49364-7.29048,7.5011-2.54935,14.84232-4.89515,21.18796-8.07894,7.20245-3.61368,14.20055-7.2965,19.66354-11.64172,6.38778-5.08078,9.68586-12.50145,13.29981-18.44713,4.04863-6.66083,7.30734-13.44062,7.30732-20.9929,0-5.2621-1.92777-13.89424-1.92777-24.97128,0-7.33976,2.22156-15.75297,2.22156-24.97049,0-7.80173-1.57291-16.17967-1.57291-24.97061,0-8.02042-1.86998-16.38463-1.86998-24.96869,0-8.16117,3.93357-16.52106,3.93357-24.97316,0-8.27022-3.81644-16.62872-3.81644-24.97574,0-8.3717.23859-16.73184.23859-24.97976,0-8.47976,2.63697-16.8409,2.63697-24.97404,0-8.6239-1.53398-16.99145-1.53398-24.97223,0-8.86075,3.21105-17.24474,3.21105-24.97349,0-9.40056-2.0257-17.83174-2.0257-24.97238,0-15.34464-2.44665-24.72975-2.44665-24.96827Z" fill="#ffcacc"/>
    <path d="m389.7528,88.86975c0,6.67877-7.60448,11.58179-15.85718,17.31764-5.49292,3.81774-11.42504,9.2898-19.89716,12.48118-6.72363,2.53274-13.81736,7.05533-22.11183,9.09939-7.20699,1.77607-15.27265,2.76955-23.47482,4.11788-7.45571,1.22562-15.71377-.64113-23.85188.18795-7.60585.77486-15.38226,2.52173-23.47161,2.91552-7.69866.37477-15.60921.68487-23.64967.68487-8.03938,0-15.88292-1.66559-23.5806-2.04027-8.08916-.39373-15.74392-2.6252-23.34962-3.39997-8.14057-.82926-15.87284-1.47527-23.33062-2.70131-8.20173-1.34834-16.20951-1.12588-23.41612-2.90192-8.29517-2.04431-15.13947-6.146-21.86345-8.67907-8.47261-3.19181-15.21495-6.25486-20.70764-10.07313-8.25015-5.73512-14.26531-10.33109-14.26531-17.00877,0-6.67877,4.16148-13.94461,12.41418-19.68046,5.49292-3.81774,13.91437-4.67818,22.38649-7.86957,6.72363-2.53274,13.65269-6.53494,21.94716-8.579,7.20699-1.77607,15.38371-.71178,23.58588-2.06011,7.45571-1.22562,14.85026-4.87313,22.98837-5.70221,7.60585-.77486,15.49334-.99092,23.58269-1.38471,7.69866-.37477,15.56815,1.23542,23.60861,1.23542,8.03938,0,16.03903-4.30545,23.73671-3.93078,8.08916.39373,16.02261,1.5642,23.62831,2.33897,8.14057.82926,15.98434,2.4205,23.44212,3.64653,8.20173,1.34834,15.51488,5.05082,22.72149,6.82686,8.29517,2.04431,16.9523,1.12572,23.67629,3.65879,8.47261,3.19181,13.44745,10.82141,18.94014,14.63967,8.25015,5.73512,16.16909,10.18292,16.16909,16.8606Z" fill="none" stroke="#fff" stroke-miterlimit="10" stroke-width="6"/>
  </g>
  <g>
    <path d="m506.4896,496.34541c0-11.61206.4149-11.61206.4149-23.22411,0-11.61324-3.69463-11.61324-3.69463-23.22647,0-11.61355-1.24123-11.61355-1.24123-23.22709,0-11.61494,4.31352-11.61494,4.31352-23.22987,0-11.61512-.87859-11.61512-.87859-23.23024,0-11.61495-2.37675-11.61495-2.37675-23.2299,0-11.61553,4.31594-11.61553,4.31594-23.23105,0-11.61712-1.43588-11.61712-1.43588-23.23425s-1.88157-11.61712-1.88157-23.23425c0-7.56067-2.54204-15.87012-9.95518-22.45883-5.38109-4.78265-14.44904-6.08712-23.04466-10.10584-6.90488-3.22824-13.78372-8.26038-22.42445-10.87243-7.5218-2.2738-16.0808-2.13186-24.7043-3.86092-7.84051-1.57207-15.57986-5.7473-24.17413-6.8119-8.02629-.99424-16.39693-1.72135-24.95456-2.22708-8.13866-.48097-16.53023-1.72911-25.04202-1.72911s-16.90188,1.27439-25.04057,1.75537c-8.55861.50579-16.87486,1.66573-24.902,2.66014-8.59407,1.06465-17.05588,1.46038-24.8962,3.03247-8.62389,1.72921-16.92045,3.5748-24.4425,5.8488-8.64091,2.61225-16.73526,5.5162-23.64012,8.74467-8.59681,4.01957-14.33132,10.71671-19.71229,15.50044-7.40989,6.58747-9.53091,12.9653-9.53091,20.52422,0,11.61206-3.73944,11.61205-3.73944,23.22411,0,11.61324,2.74251,11.61324,2.74251,23.22647,0,11.61355-.66629,11.61355-.66629,23.22709,0,11.61494-1.98314,11.61494-1.98314,23.22987,0,11.61512,1.08275,11.61512,1.08275,23.23024,0,11.61495-1.39591,11.61495-1.39591,23.2299,0,11.61553,3.6083,11.61553,3.6083,23.23105,0,11.61712-4.17978,11.61712-4.17978,23.23425,0,11.61712-.78395,11.61712-.78395,23.23425" fill="#e97878"/>
    <path d="m502.9159,496.34541c0,7.56067-1.72804,15.53777-9.14118,22.12647-5.38109,4.78265-13.51451,7.78652-22.11013,11.80523-6.90488,3.22824-14.26119,7.42812-22.90192,10.04017-7.5218,2.2738-16.30593,1.28053-24.92943,3.00959-7.84051,1.57207-15.67815,4.75803-24.27242,5.82263-8.02629.99424-16.27092,2.42232-24.82855,2.92805-8.13866.48097-16.49448,2.9044-25.00628,2.9044s-16.79991-3.57028-24.9386-4.05125c-8.55861-.50579-17.1655,1.58274-25.19264.58833-8.59407-1.06465-16.08614-6.87872-23.92647-8.45081-8.62389-1.72921-16.6886-3.03006-24.21064-5.30406-8.64091-2.61225-17.43695-2.83127-24.34181-6.05974-8.59681-4.01957-16.59623-7.85348-21.9772-12.63722-7.40989-6.58747-8.12363-15.16288-8.12363-22.7218,0-7.56067,1.86198-14.84822,9.27512-21.43692,5.38109-4.78265,12.11501-10.15861,20.71063-14.17732,6.90488-3.22824,15.48204-4.30918,24.12278-6.92124,7.5218-2.2738,15.85804-2.78512,24.48154-4.51418,7.84051-1.57207,15.5956-5.46663,24.18987-6.53123,8.02629-.99424,16.51697.88979,25.0746.38406,8.13866-.48097,16.34465-4.94367,24.85645-4.94367s16.96792.23131,25.10661.71229c8.55861.50579,16.90371,2.01723,24.93085,3.01164,8.59407,1.06465,16.84302,2.81467,24.68335,4.38676,8.62389,1.72921,16.4708,4.86406,23.99285,7.13807,8.64091,2.61225,16.65433,5.02569,23.55919,8.25417,8.59681,4.01957,17.55155,6.43688,22.93252,11.22062,7.40989,6.58747,7.98454,15.85804,7.98454,23.41696Z" fill="#e97878"/>
    <g>
      <path d="m373.65032,342.71221c-3.4668,0-7.11816-.92676-10.98389-1.90723-4.1709-1.05859-8.48438-2.15332-12.94043-2.15332-4.30859,0-8.50732.81348-12.56738,1.59961-3.83496.74316-7.45703,1.44434-10.95557,1.44531-.46924,0-.93652-.0127-1.40381-.04102-4.51807-.2666-9.07764-1.39844-13.4873-2.49316-3.59814-.89258-7.31885-1.81641-11.02734-2.27637-3.30518-.40918-6.58789-.68848-9.7627-.95801-5.22803-.44434-10.1665-.86426-14.87793-1.80859-2.70459-.54297-5.40186-1.02441-8.00977-1.49121-5.79834-1.03613-11.27539-2.01562-16.29688-3.53418-1.96826-.59473-3.92725-1.16309-5.86084-1.72461-6.48584-1.88184-12.61133-3.65918-17.74121-6.05762-8.38135-3.91895-15.20752-9.5332-20.21826-13.9873-7.01318-6.23535-7.9126-13.98828-7.9126-20.0459,0-6.17871.88525-14.05664,7.79053-20.19434,3.0625-2.72266,7.59668-4.40625,12.84668-6.35547,3.00244-1.11523,6.10693-2.26855,9.24951-3.7373,2.70361-1.26367,5.28662-2.80469,8.02148-4.43555,4.3457-2.5918,8.83936-5.27148,13.91553-6.80566,3.64941-1.10352,7.85352-1.17871,12.30469-1.25684,4.07031-.07227,8.2793-.14746,12.52734-.99902,3.38281-.67871,6.77393-1.67773,10.05371-2.64355,4.50977-1.3291,9.17334-2.70215,13.95898-3.29492,5.1665-.64062,10.42725-.83789,15.99707-1.04688,2.83887-.10645,5.7749-.2168,8.72021-.39062,2.43066-.14355,5.00391-.21094,8.09766-.21094,2.68018,0,5.44873.05176,8.12598.10254,2.77246.05176,5.63916.10547,8.51221.10547,4.31348,0,8.51221-.82129,12.57275-1.61621,3.83252-.74902,7.45264-1.45703,10.94922-1.45703.46582,0,.93018.0127,1.39355.04004,2.92285.17285,5.86279.28516,8.70605.39355,5.66699.21582,11.01953.4209,16.20801,1.06348,4.61182.57129,9.17432,2.06348,13.58691,3.50684,3.44092,1.12598,6.99902,2.28906,10.54297,3,3.10938.62305,6.1958,1.12988,9.18066,1.61914,5.38965.88477,10.48096,1.71973,15.14746,3.13086,5.94629,1.79785,11.26367,4.49512,16.40576,7.10352,2.08984,1.06055,4.06396,2.06152,6.05859,2.99414,2.50391,1.1709,4.98242,2.21387,7.37939,3.22266,5.63916,2.37402,10.96582,4.61719,14.44141,7.70605,6.19727,5.50977,9.75146,12.96582,9.75146,20.45605,0,5.95703-3.66846,12.1123-11.21484,18.81934-4.62451,4.11133-10.93115,7.92871-20.44873,12.37793-2.80908,1.31348-5.48779,2.98047-8.32422,4.74512-4.27295,2.6582-8.69141,5.40723-13.64014,6.90332-5.27979,1.59668-11.07764,2.67285-17.21582,3.81152-2.36719.43945-4.76172.88379-7.16455,1.36621-4.25928.85449-8.79883,1.05469-13.60498,1.26758-3.64697.16113-7.41797.32812-11.21289.79785-3.8291.47461-7.64893,1.54883-11.34326,2.58691-4.31494,1.21289-8.77686,2.46777-13.16846,2.72656-.35254.02148-.70703.03125-1.06201.03125Z" fill="#fff"/>
      <path d="m373.25017,230.0418l-.00024,6h.00122c.41382,0,.82202.01172,1.21362.03491,2.95215.17456,5.90649.28735,8.76343.39648,5.60303.21387,10.89526.41602,15.9585,1.04321,4.32422.53589,8.5498,1.91797,13.02344,3.3811,3.5238,1.15259,7.16736,2.34424,10.8855,3.0896,3.16211.63403,6.27588,1.14526,9.28723,1.63916,5.28894.86792,10.28455,1.68774,14.76257,3.04175,5.69397,1.72119,10.89148,4.35791,15.91797,6.90796,2.11169,1.07129,4.1062,2.08325,6.14368,3.03589,2.55737,1.19556,5.0636,2.25073,7.4873,3.27075,5.40344,2.27466,10.5072,4.42285,13.61084,7.18213,5.55774,4.94092,8.74524,11.57959,8.74524,18.21338,0,5.05005-3.33899,10.47266-10.20752,16.57739-4.40015,3.91064-10.48413,7.58179-19.72717,11.90283-2.97107,1.38916-5.85242,3.18188-8.63879,4.91553-4.10693,2.55542-8.35376,5.19775-12.92273,6.57886-5.12329,1.54883-10.84351,2.6106-16.89978,3.73486-2.34644.43555-4.77271.88574-7.2019,1.3728-4.03418.80908-8.46289,1.00488-13.15186,1.21216-3.70361.16382-7.53345.33301-11.44507.81738-4.05371.5022-7.98438,1.60742-11.78564,2.67578-4.35327,1.22388-8.46533,2.37988-12.53418,2.62036-.28613.01685-.58447.02539-.88599.02539-3.09253,0-6.56714-.88159-10.24585-1.81494-4.34985-1.10376-8.84766-2.24512-13.67798-2.24512-4.59619,0-8.93774.84106-13.13647,1.65479-3.68945.7146-7.17407,1.38989-10.38477,1.38989-.41968,0-.83301-.01196-1.22803-.03516-4.24097-.25073-8.46655-1.29932-12.94019-2.40967-3.68481-.91455-7.49512-1.86011-11.3833-2.3418-3.36157-.41626-6.67334-.698-9.87622-.97021-5.14136-.43726-9.99731-.85034-14.54248-1.76147-2.73584-.54858-5.44824-1.03345-8.07104-1.5022-5.71021-1.02075-11.10376-1.98486-15.95801-3.45215-1.98804-.60107-3.9707-1.17651-5.88818-1.73291-6.37231-1.84912-12.39136-3.5957-17.31128-5.89624-8.0332-3.7561-14.63843-9.19409-19.49536-13.51196-4.84058-4.30322-6.90601-9.62793-6.90601-17.8042,0-8.35693,2.02856-13.72559,6.7832-17.95142,2.64185-2.3479,6.9314-3.94116,11.89819-5.78589,3.05908-1.13599,6.22241-2.31079,9.47607-3.83203,2.83984-1.32788,5.60889-2.97925,8.28687-4.57642,4.19019-2.49902,8.52319-5.08301,13.24683-6.51099,3.25098-.98267,7.25317-1.05371,11.49023-1.12891,4.20337-.07446,8.54956-.15137,13.06348-1.05664,3.51392-.70435,6.97046-1.72266,10.31323-2.70752,4.59619-1.354,8.93726-2.63281,13.479-3.19531,5.03857-.62427,10.23706-.81958,15.74048-1.02612,2.85498-.10718,5.80713-.21802,8.78467-.39404,2.37134-.14014,4.8894-.20532,7.92432-.20532,2.65112,0,5.28247.04932,8.06812.10156s5.66602.1062,8.56665.1062c4.604,0,8.94824-.84961,13.14941-1.67139,3.68579-.72095,7.16699-1.40186,10.37329-1.4021l.00146-6m-.00195,0c-7.65161.00049-15.55713,3.07349-23.52222,3.07349-5.64233,0-11.1748-.20776-16.63477-.20776-2.77661,0-5.53491.05371-8.27832.21582-8.55762.50586-16.88257.46069-24.90894,1.45508-8.59424,1.06445-16.39331,4.40259-24.23389,5.97461-8.62354,1.729-17.58838.05127-25.11035,2.32495-8.64062,2.61206-15.43408,8.16724-22.33887,11.39551-8.5957,4.0188-17.43774,5.78589-22.81885,10.5686-7.41309,6.58862-8.79736,14.87549-8.79736,22.43604,0,7.55908,1.50952,15.70093,8.91943,22.28833,5.38086,4.78369,12.34399,10.4436,20.94067,14.46313,6.90479,3.22852,15.36353,5.32471,24.00439,7.93701,7.52222,2.27393,15.96167,3.36475,24.58569,5.09399,7.84033,1.57202,16.26636,1.73877,24.8606,2.80347,8.0271.99438,16.14868,4.28052,24.70728,4.78638.52661.03101,1.05298.04565,1.58228.04565,7.64893,0,15.56006-3.04468,23.521-3.04468,8.08057,0,16.16235,4.06006,23.92383,4.06006.41406,0,.82764-.01147,1.23999-.03589,8.55762-.50562,16.67725-4.33667,24.70361-5.33105,8.59424-1.06445,17.198-.52905,25.03857-2.10107,8.62354-1.72925,17.13672-2.97339,24.65845-5.24731,8.64075-2.61206,15.46167-8.57422,22.36658-11.80249,8.59558-4.01855,15.79065-8.0708,21.17175-12.85327,7.41309-6.58887,12.22168-13.50146,12.22168-21.06226,0-7.55884-3.34888-16.10986-10.75867-22.69751-5.38098-4.78369-13.94666-7.38452-22.54346-11.40405-6.90491-3.22852-14.22583-7.63989-22.8667-10.25195-7.52209-2.27417-15.98254-3.09106-24.60645-4.82031-7.84033-1.57202-15.75671-5.47754-24.35071-6.54224-8.0271-.99438-16.54736-.96924-25.10596-1.47485-.52271-.03101-1.04541-.04541-1.57031-.04541h0Z" fill="#e97878"/>
    </g>
    <g>
      <path d="m489.0987,184.27939c2.4368,7.15721,2.76949,16.27099-2.12453,24.89736-3.5525,6.26176-11.56187,10.81392-18.40358,17.38856-5.49595,5.28142-12.27581,9.85479-19.61359,15.11237-6.38757,4.57675-13.10982,9.25122-20.71587,13.66737-6.91545,4.01518-13.96097,8.32843-21.7535,12.10616-7.27755,3.52807-14.56729,7.552-22.50527,10.78887-7.54934,3.07839-14.93032,7.20327-22.98791,9.94662s-16.21624,4.72608-24.07565,6.89387c-8.26491,2.27964-16.65652,3.01444-24.57581,4.66024-8.47861,1.76204-16.43971,4.70062-24.36834,5.73935-8.72102,1.14255-17.06819,3.01028-24.92175,3.28198-9.02174.31211-17.37397-2.3697-24.95091-3.20046-9.43357-1.03433-16.70658-4.55856-23.3422-7.35274-9.13762-3.84774-16.78965-6.82447-19.22589-13.98003-2.4368-7.15721-2.68515-16.737,2.20886-25.36337,3.5525-6.26176,11.83858-10.75396,18.68028-17.3286,5.49595-5.28142,11.83436-10.54369,19.17214-15.80126,6.38757-4.57675,13.16873-9.36092,20.77479-13.77707,6.91545-4.01518,15.13706-6.10245,22.9296-9.88018,7.27755-3.52807,14.20784-8.2042,22.14582-11.44107,7.54934-3.07839,14.85802-7.30456,22.9156-10.04791s15.94925-5.5861,23.80866-7.75389c8.26491-2.27964,16.2056-5.31486,24.1249-6.96066,8.47861-1.76204,16.9948-2.04654,24.92343-3.08528,8.72102-1.14255,17.11361-1.8248,24.96718-2.0965,9.02174-.31211,17.19864,2.46954,24.77558,3.3003,9.43357,1.03433,17.67704,1.33714,24.31266,4.13132,9.13762,3.84774,15.38906,8.9991,17.8253,16.15465Z" fill="#e97878"/>
      <path d="m489.0987,184.27939c2.4368,7.15721,2.76949,16.27099-2.12453,24.89736-3.5525,6.26176-11.56187,10.81392-18.40358,17.38856-5.49595,5.28142-12.27581,9.85479-19.61359,15.11237-6.38757,4.57675-13.10982,9.25122-20.71587,13.66737-6.91545,4.01518-13.96097,8.32843-21.7535,12.10616-7.27755,3.52807-14.56729,7.552-22.50527,10.78887-7.54934,3.07839-14.93032,7.20327-22.98791,9.94662s-16.21624,4.72608-24.07565,6.89387c-8.26491,2.27964-16.65652,3.01444-24.57581,4.66024-8.47861,1.76204-16.43971,4.70062-24.36834,5.73935-8.72102,1.14255-17.06819,3.01028-24.92175,3.28198-9.02174.31211-17.37397-2.3697-24.95091-3.20046-9.43357-1.03433-16.70658-4.55856-23.3422-7.35274-9.13762-3.84774-16.78965-6.82447-19.22589-13.98003-2.4368-7.15721-2.68515-16.737,2.20886-25.36337,3.5525-6.26176,11.83858-10.75396,18.68028-17.3286,5.49595-5.28142,11.83436-10.54369,19.17214-15.80126,6.38757-4.57675,13.16873-9.36092,20.77479-13.77707,6.91545-4.01518,15.13706-6.10245,22.9296-9.88018,7.27755-3.52807,14.20784-8.2042,22.14582-11.44107,7.54934-3.07839,14.85802-7.30456,22.9156-10.04791s15.94925-5.5861,23.80866-7.75389c8.26491-2.27964,16.2056-5.31486,24.1249-6.96066,8.47861-1.76204,16.9948-2.04654,24.92343-3.08528,8.72102-1.14255,17.11361-1.8248,24.96718-2.0965,9.02174-.31211,17.19864,2.46954,24.77558,3.3003,9.43357,1.03433,17.67704,1.33714,24.31266,4.13132,9.13762,3.84774,15.38906,8.9991,17.8253,16.15465Z" fill="none" stroke="#fff" stroke-miterlimit="10" stroke-width="6"/>
    </g>
    <path d="m468.47396,189.16341c2.09318,6.30734-4.24803,11.15549-15.23934,18.00257-6.71895,4.1856-13.10809,12.49202-22.63693,15.73629-.62792.21379-2.23103-2.53495-2.85963-2.34345-10.62268,3.23613-18.26281-2.26575-21.0184-10.35928-2.7556-8.09353-.33967-17.85601,10.05079-21.7742.61486-.23186,1.17474-.62699,1.80266-.84078,9.52103-3.24161,18.97126-2.6876,26.86343-3.4796,12.92762-1.29733,20.94319-1.25205,23.03743,5.05845Z" fill="none" stroke="#fff" stroke-miterlimit="10" stroke-width="6"/>
    <path d="m510.15039,332.21523c0,7.30352-6.4603,13.67797-13.56059,20.0833-5.15915,4.65419-10.667,11.27334-18.93571,15.22581-6.63311,3.17065-15.28138,3.44453-23.6036,6.05257-7.23176,2.26631-14.62414,5.83448-22.93541,7.6062-7.54224,1.60779-15.57484,2.69582-23.86295,3.84537-7.72532,1.07149-15.80714,1.32835-24.06617,1.96104-7.83902.60052-15.83478,2.88185-24.0578,3.05259-5.21415.10827-10.13999,2.86371-10.13999,8.07899,0,11.81139-1.26874,11.81139-1.26874,23.62277,0,11.81197-.06402,11.81197-.06402,23.62394,0,11.8136,1.0715,11.8136,1.0715,23.62719,0,11.8136,3.1889,11.8136,3.1889,23.62719,0,5.40895,2.23146,7.95762,7.63911,7.83931,8.19915-.17938,16.05533-1.54875,23.87027-2.15548,8.23558-.63938,16.3714.7123,24.07344-.36362,8.26297-1.15429,16.18207-2.38996,23.70014-4.00013,8.28578-1.77459,16.28135-3.04749,23.48945-5.31429,8.29554-2.60877,16.16177-4.93985,22.77174-8.10863,8.2403-3.95035,15.39781-8.38787,20.53612-13.03683,7.06384-6.39111,8.30031-14.2401,8.30031-21.52388,0-11.37351,2.27208-11.37351,2.27208-22.74702,0-11.37335.54276-11.37335.54276-22.74669,0-11.37391-.42684-11.37391-.42684-22.74781,0-11.37547,1.5635-11.23106,2.23367-22.58678.67355-11.41287-.76769-11.53964-.76769-22.91511Z" fill="none" stroke="#fff" stroke-miterlimit="10" stroke-width="6"/>
  </g>
</svg>