<?xml version="1.0" encoding="UTF-8"?>
<svg id="a" data-name="Ebene 1" xmlns="http://www.w3.org/2000/svg" width="210mm" height="209.99999mm" viewBox="0 0 595.27559 595.27557">
  <g id="b" data-name="njgkIW.tif">
    <path d="m53.01059,446.41549c-1.01352-.80166-2.14384-2.2303-3.15736-3.03195-2.73113-4.80493,1.20571-7.6029,4.40343-11.61689,3.52962-4.43061,3.41284-11.7599,6.93235-16.19856s7.36787-8.61359,10.88141-13.05698c3.51353-4.44338,9.14172-7.21515,12.65344-11.65997,3.51172-4.44482,4.20551-11.11775,7.71957-15.56071,1.16828-1.4771,5.5206-1.28365,6.78338-2.88016-1.12284-1.15776-1.17982-3.59963-1.83847-4.27213-4.42976-4.52309-8.18803-8.96414-11.66356-13.99406-3.58022-5.18143-8.46786-9.31591-11.02628-14.90216-2.60997-5.69881-6.25657-11.14497-7.79333-17.1232-1.55374-6.0443-3.88667-12.3666-4.33314-18.54923-.44761-6.19842,4.37697-12.41874,5.05261-18.60714.67144-6.14986-.96283-12.74673.82809-18.73975,1.76204-5.89637,4.71605-11.54716,7.57151-17.15107,2.77763-5.45117,7.7061-9.56504,11.52737-14.60927,4.62215-6.10144,8.66325-9.11397,14.46665-4.27343,3.47329,2.89699,4.50402,9.14494,8.03571,12.30282.23048-.7836,1.78129-2.79655,1.79683-3.0961.05018-.96793.13058-1.94919.14323-2.91869.0742-5.68798.81667-11.13531,1.71362-16.5424.92052-5.54912,4.08091-10.21963,5.87684-15.46947,1.79577-5.24937-.88726-12.52522,1.79275-17.47187,2.60914-4.81584,7.93554-8.28319,11.39117-12.80884,4.27559-5.5995,8.37383-5.56026,13.76471-1.11308,3.61264,2.98022,6.57125,7.71958,10.51128,11.20826.07521-1.77252,3.20719-4.86651,3.21574-5.97273.04364-5.64527-4.39611-11.6014-3.54062-16.9758.87768-5.51381,6.12839-10.03851,7.87105-15.26389,1.74244-5.22473,4.06962-9.97834,6.68744-14.91134,2.54894-4.8032,4.68529-9.78314,8.07407-14.30661,5.12379-6.83943,9.11823-8.47589,15.73934-2.84242,3.2093,2.73059,5.12962,7.82988,8.68797,11.00982.08421-1.88612-.5704-4.6365-.55083-5.90281.08715-5.64169,3.5977-10.84024,4.48078-16.21241.90554-5.50881-.26785-11.41301,1.49299-16.63237,1.76079-5.21923,3.8291-10.5045,6.46375-15.42815,2.56531-4.79409,7.56396-8.11288,10.97513-12.62102,4.77054-6.30465,6.93132-6.58788,13.02004-1.54025,5.1154,4.24074,9.59491,8.60645,13.68087,13.54216,4.16167,5.02717,10.83894,8.48637,13.94789,14.22676,3.05202,5.63527.83652,13.61064,2.88869,19.92579.31847.98002,3.55298.85902,4.17584,2.21141.83735-1.2203-.14495-2.75454.34512-3.56979,3.34946-5.57196,8.70122-9.64185,12.64189-14.33541,4.13425-4.92412,8.90691-8.92732,13.69368-12.88125,4.87465-4.02652,8.66304-9.87649,14.21632-12.89326,5.45671-2.96431,11.89075-4.62431,18.00456-6.61019,5.82761-1.89292,12.11835-3.3099,18.54461-4.31079,7.38671-1.15048,13.06325,2.51383,13.66704,9.94486.46703,5.74806.38778,11.63012.04177,17.11777-.35949,5.70131-4.26151,10.83959-5.50643,16.25653-1.26253,5.49356-4.22317,10.06181-6.40463,15.25939-2.15036,5.12347.14557,12.64322-2.90574,17.47571-2.93261,4.64449-7.12269,8.96102-10.89475,13.33369-2.87284,3.33025-9.44109,3.81659-12.42553,7.07029.46736.36967,2.87457.09059,3.00865.10819.95698.12557,1.75906,1.09214,2.72073,1.17533,6.61498.57226,13.61914.19984,19.7993,1.89936,6.29485,1.73106,11.67277,6.56478,17.51018,9.48297,5.73186,2.86542,12.19234,5.062,17.47706,9.08901,5.8168,4.43246,3.79515,8.6636-.77415,14.31491-3.47129,4.29327-5.69455,9.44248-9.69879,13.03754-4.05977,3.64492-8.83707,6.18973-13.44095,9.10382-4.55138,2.88087-8.50015,7.04175-13.57964,9.19554-6.75601,2.86463-12.69715,6.1079-19.87707,8.61411,2.10224,1.30035,3.46976-.92882,5.32812.33428,2.00214,1.36082,1.60734,5.99238,3.51993,7.47787,5.53022,4.29525,5.8584,5.41204,1.38908,10.94752-3.46775,4.29501-4.63953,10.62907-8.63829,14.23083-4.05404,3.65155-8.68398,6.94636-13.28512,9.86485-4.54789,2.88471-10.03154,4.40211-15.11522,6.55059-6.77466,2.86313-15.48833,2.71267-22.75925,5.24773,2.13828,1.29159,7.07693,2.31606,8.93583,3.56541,1.87435,1.25978,2.84202,3.98426,4.63629,5.35948,6.07403,4.65543,5.03816,8.80115.13924,14.7419-3.59588,4.3606-7.45917,8.04356-11.52543,11.65468-4.17578,3.70838-7.79873,7.87068-12.46484,10.79776-4.66625,2.92717-9.2703,6.10646-14.4211,8.26153-5.02058,2.10059-9.84299,5.84122-15.31849,7.21691-1.34706.33846-3.14316-1.7451-4.76175-1.24086,4.0927,2.84727,8.03027,5.0077,11.62764,7.70263,6.0635,4.5424,6.00201,9.02842,1.12437,14.95155-3.92012,4.76038-7.91405,9.39411-12.50127,13.30221-4.6718,3.98015-8.42688,9.68231-13.65131,12.73872-5.2777,3.08757-11.43081,5.35505-17.12829,7.4588-5.71853,2.11152-12.45508,1.13435-18.45024,2.21303-5.98132,1.07619-11.95681,4.02593-18.06781,4.03248-6.05461.00648-11.96436-3.30956-18.00409-4.39364-5.93034-1.06445-12.01217-1.64245-17.79297-3.7969-7.62495-2.84174-14.66429-7.45166-22.42875-11.04899-1.07602,1.3604-2.95908,3.07952-4.1546,4.59093-3.48913,4.41109-8.25272,7.81254-11.74421,12.22178s-3.77814,11.35532-7.26781,15.76599c-3.48968,4.41067-8.4665,7.64491-11.95017,12.06031-3.48368,4.41541-6.19393,9.43847-9.6674,13.8619-3.16943,4.03625-7.80468,6.83138-13.10929,5.28029Zm270.16175-206.98499c-4.84349-3.17919-9.0997-5.38363-14.25552-7.40077-5.34697-2.09193-10.18694-6.58862-15.68515-7.53047-5.63348-.96502-11.67113,3.26061-17.26356,3.39505-5.71646.13742-11.05247.35677-16.51237,1.52757-5.61513,1.2041-11.78336.34279-16.8954,2.51473-5.3209,2.26068-8.42428,8.0532-12.94039,11.22215-4.75849,3.33904-11.62206,5.19687-15.18498,9.38118,4.75069,3.21513,10.01939,7.91625,15.22304,9.9623,5.29313,2.08124,11.268,3.6281,16.81812,4.56462,5.59125.94346,11.65418-.86594,17.28877-1.01753,5.67475-.15267,10.99459-2.43952,16.49112-3.63479,5.56515-1.21019,10.20192-4.03642,15.35437-6.24487,5.25003-2.25027,12.44072-.8466,17.01972-4.05892,4.67293-3.27822,6.82572-8.4791,10.54222-12.68026Zm-75.71199-58.2175c3.16146-4.90239,5.36628-9.16341,7.37392-14.27597,2.11349-5.38212,6.6207-10.2006,7.57838-15.65381.99452-5.66302-3.21218-11.71189-3.32559-17.26914-.11727-5.7462-.32599-11.07705-1.47434-16.50804-1.19476-5.65051-.32195-11.81276-2.4605-16.89511-2.2627-5.37738-8.05292-8.50118-11.16971-12.97592-3.37841-4.85033-5.2235-11.71133-9.35058-15.16553-3.33084,4.49624-8.14298,9.74667-10.23432,15.08793-2.03028,5.18532-3.54227,11.21-4.43917,16.87914-.87457,5.52801.97404,11.58484,1.14493,17.2837.16917,5.64166,2.44077,10.98522,3.60351,16.5159,1.1714,5.57187,3.94874,10.25687,6.09714,15.43391,2.19636,5.29259.72396,12.48323,3.90809,17.06383,3.26808,4.70136,8.47559,6.85079,12.74824,10.47911Zm122.20682-.52585c-4.89295-3.15652-9.15492-5.34132-14.28288-7.34023-5.37658-2.09582-10.21105-6.58907-15.67893-7.5292-5.65593-.97246-11.69061,3.25468-17.25809,3.38855-5.73541.1379-11.06655.36356-16.50422,1.53288-5.63422,1.21158-11.79974.35705-16.88815,2.51772-5.3515,2.27239-8.45912,8.0691-12.94573,11.20852-4.81329,3.36801-11.673,5.24189-15.17148,9.38432,4.73585,3.21333,10.00522,7.90768,15.2211,9.95422,5.28423,2.07336,11.26135,3.61618,16.82146,4.54905,5.58376.93684,11.64497-.87591,17.28641-1.03122,5.66744-.15602,10.98584-2.44411,16.48791-3.64351,5.55662-1.21129,10.19092-4.03823,15.34918-6.25322,5.23802-2.24924,12.42848-.84775,17.01588-4.06882,4.65806-3.27069,6.81143-8.46248,10.54754-12.66906Zm-180.98145-47.64031c-3.28182,4.77141-5.52725,9.00395-7.59869,14.1708-2.13355,5.32178-6.65448,10.16182-7.61277,15.68973-.97587,5.62928,3.24183,11.69129,3.36917,17.30771.12985,5.72708.34013,11.08455,1.49466,16.55813,1.19086,5.64584.31006,11.82878,2.45751,16.9429,2.25742,5.37603,8.04672,8.50335,11.20745,12.99025,3.38975,4.81199,5.34069,11.64785,9.58156,15.06883,3.08171-4.79657,7.68472-10.09327,9.6954-15.30228,2.04088-5.28727,3.58209-11.21729,4.53942-16.74629.96383-5.5666-.80331-11.61344-.91743-17.23734-.11444-5.63977-2.36265-10.94535-3.54054-16.45307-1.17805-5.50849-3.98123-10.11929-6.20239-15.30568-2.21113-5.16298-.7732-12.32382-3.99762-16.9797-3.17933-4.59076-8.33092-6.78721-12.47574-10.70398Zm91.02895,23.27749c5.67589-1.19082,10.2632-2.64125,15.34035-4.86813,5.26508-2.30931,11.87218-2.5552,16.43308-5.77717,4.67605-3.30332,5.97265-10.5635,9.84316-14.60776,3.96166-4.1395,7.59524-8.06563,10.64284-12.74698,3.14074-4.82443,8.12599-8.56919,10.21945-13.71343,2.18544-5.37025.29929-11.66998,1.25691-17.09972,1.01316-5.74465,4.58081-11.89187,4.11785-17.36303-5.52781.783-12.67906,1.08216-17.96142,3.4074-5.08924,2.24023-10.42148,5.46011-15.07331,8.86912-4.51548,3.30909-7.48186,8.91619-11.39425,13.08713-3.86881,4.12448-6.0467,9.52269-9.14287,14.26058-3.12562,4.78296-4.49071,10.07189-6.64267,15.24647-2.21183,5.31855-8.34764,9.3686-9.33044,14.84954-1.01702,5.67181,1.17081,10.88783,1.6913,16.45598Zm-125.20508,142.41234c3.18389-4.86497,5.36321-9.11015,7.38875-14.23385,2.11842-5.35865,6.63341-10.17256,7.59844-15.6411.99624-5.64535-3.20282-11.69893-3.30996-17.2697-.11024-5.73219-.30824-11.06463-1.44943-16.50869-1.18196-5.63852-.29493-11.79924-2.43077-16.89702-2.24609-5.36091-8.02717-8.4901-11.15266-12.98559-3.35091-4.81973-5.17019-11.68427-9.31766-15.18277-3.2193,4.46092-8.03304,9.71555-10.16054,15.1114-2.02481,5.13541-3.59061,11.12196-4.549,16.81163-.92278,5.47825.85498,11.54161.98959,17.27408.13106,5.58141,2.37606,10.90631,3.57261,16.49044,1.17164,5.46787,3.96665,10.09506,6.21894,15.34248,2.1988,5.12278.77062,12.30035,4.05438,17.00517,3.16614,4.53628,8.3229,6.7233,12.54731,10.68353Zm15.36579,12.25846c4.96696,3.14172,9.23859,5.34018,14.31383,7.32431,5.42671,2.12154,10.24216,6.62131,15.65253,7.57012,5.70184.99992,11.74134-3.22012,17.25984-3.345,5.78135-.13083,11.10502-.36459,16.49467-1.52504,5.6898-1.22508,11.8536-.38443,16.88357-2.51683,5.44389-2.30788,8.55729-8.11977,12.94861-11.18961,4.99394-3.49111,11.83442-5.42824,15.0653-9.4726-4.4363-3.35114-9.69403-8.14339-15.0751-10.22085-5.16718-1.99488-11.20888-3.46789-16.90515-4.32761-5.51802-.83282-11.56174,1.05303-17.2667,1.24988-5.63735.19452-10.97796,2.48087-16.50214,3.64684-5.5799,1.17773-10.27153,3.9537-15.43455,6.08797-5.317,2.19792-12.51052.72343-17.05936,3.89836-4.72199,3.29578-6.84443,8.51322-10.37536,12.82007Zm-74.20855-60.05698c-3.28696,4.63413-5.59862,8.85103-7.67805,14.08369-2.08156,5.23804-6.57949,10.08874-7.5138,15.66958-.93077,5.55968,3.30726,11.58669,3.45284,17.23191.14603,5.66253.35478,11.00501,1.52121,16.49748,1.18468,5.57844.2971,11.74408,2.46923,16.88041,2.23463,5.28412,8.00989,8.37324,11.21912,12.90088,3.31901,4.68253,5.22186,11.51426,9.50552,15.06933,3.15258-4.88623,7.76578-10.15425,9.76118-15.25094,2.10097-5.36633,3.64248-11.29466,4.58736-16.73097.98135-5.64613-.81238-11.69106-.9351-17.22846-.12696-5.72894-2.40307-11.03524-3.55317-16.4434-1.19859-5.63617-4.01343-10.27088-6.14434-15.32812-2.26289-5.37047-.8369-12.54358-3.93887-16.98762-3.38689-4.85224-8.63863-6.96731-12.75314-10.36377Zm27.71967,118.66206c4.83917,3.19347,9.0787,5.37582,14.21327,7.40359,5.34313,2.11014,10.16313,6.61876,15.64434,7.57416,5.63207.98169,11.67483-3.22972,17.25421-3.34978,5.7183-.12304,11.04888-.33033,16.4979-1.48406,5.62263-1.19049,11.78307-.31244,16.88474-2.46173,5.33926-2.24939,8.45495-8.03224,12.95692-11.174,4.78885-3.34196,11.65288-5.14999,15.17587-9.31324-4.4216-3.24189-9.66847-8.08078-15.07693-10.21269-5.12059-2.01844-11.11507-3.5751-16.81724-4.51808-5.46863-.90436-11.5248.89375-17.26279,1.04911-5.57125.15084-10.88667,2.41327-16.47032,3.62729-5.4572,1.18653-10.0778,3.99264-15.32209,6.25445-5.11428,2.20574-12.29168.78307-16.99479,4.06687-4.53331,3.16523-6.71977,8.32132-10.68308,12.53811Zm85.45135-100.31445c-3.98471-3.15174-7.38986-5.8176-11.44348-9.02385-4.05359-3.20622-8.61091-9.22315-12.59566-12.37492-.53753,4.77595,1.88418,12.25084,1.33732,17.10969-.5484,4.87263-2.17491,8.14887-2.71086,12.9108,4.58475-1.64903,8.48005-1.01661,13.02176-2.65015,4.65866-1.67561,7.9256-4.36549,12.39092-5.97156Zm46.49514-58.72328c-3.98995-3.15589-7.38959-5.8092-11.43437-9.00846-4.04992-3.20332-8.64197-9.20023-12.62672-12.352-.55556,4.8718,1.90379,12.29696,1.36011,17.0646-.55779,4.89128-2.18091,8.13105-2.72224,12.87804,4.55855-1.63009,8.44698-.99233,13.02157-2.62815,4.62408-1.65352,7.89345-4.34195,12.40166-5.95404Zm-93.04501,117.45737c-4.0185-3.17847-7.39438-5.81959-11.39233-8.98181-4.05143-3.20452-8.58299-9.19721-12.54729-12.33281-.53892,4.76014,1.8861,12.20538,1.33742,17.05166-.54627,4.825-2.15327,8.08438-2.69463,12.86609,4.52502-1.62751,8.38195-1.0031,12.9537-2.64742,4.58597-1.64944,7.83252-4.33337,12.34314-5.9557Z" fill="#ffcacc"/>
  </g>
  <g>
    <path d="m546.74182,309.02398c0,8.2954-2.29402,16.57191-2.29402,24.86731-.23838,1.2944,2.66224,2.74171,2.54775,4.04803-.53922,6.15428-3.91097,14.68129-5.11664,24.57294-.95131,7.80478-3.67637,15.99191-5.05517,24.42095-1.38795,8.48496-2.03083,16.92444-3.86325,24.51519-2.35311,9.74773-2.46,19.03678-5.56738,24.42496-3.78516,6.56343-9.91869,11.7089-14.21897,18.03268-4.28352,6.29914-9.76402,11.52537-14.53705,17.45129-4.79933,5.95857-7.19407,13.89845-12.46646,19.34264-5.33956,5.51354-9.99531,11.93284-15.79742,16.77696-5.89992,4.92578-13.56204,7.57866-19.9165,11.66344-6.45547,4.1497-13.72108,6.43572-20.62076,9.56134-6.95096,3.14885-13.55239,6.71416-20.92861,8.66336-9.36295,2.47419-18.56916,5.51465-28.07835,6.17315-9.52832.65983-19.15019-2.26832-28.74506-2.43568-11.35374-.19807-22.8735,3.20497-34.16557,2.25164-8.23332-.69508-15.63607-5.45131-23.56468-7.34181-7.95725-1.89733-15.84982-3.21806-23.53419-6.13919-7.60432-2.89069-14.86582-6.3395-22.23614-10.05684-6.44771-3.252-14.82173-3.93169-20.7156-8.53371-5.68194-4.43655-10.83385-10.17153-15.96963-15.59272-4.98453-5.26153-7.98774-12.44798-12.42918-18.39097-4.37504-5.85413-11.16144-10.27745-14.98235-16.5594-3.83705-6.30849-5.86268-13.77169-9.11366-20.27751-3.34296-6.68987-4.22777-14.35045-6.92176-20.99739-2.50991-6.19276-5.22868-13.3004-7.03547-21.63853-1.53048-7.063-3.39781-14.55884-4.39031-22.51554-.92997-7.45539-1.24896-15.16931-1.6805-22.90577-.43106-7.72787-.27702-15.42144-.18557-22.94392.09735-8.00707.69449-15.64858,1.41327-22.85508.84395-8.46143,2.49283-15.85879,4.23898-22.339,2.18246-8.09943,3.91497-16.00515,7.40016-23.24503,3.61789-7.51552,9.10662-13.49443,13.97263-19.94809,4.98816-6.61567,9.17503-13.59912,15.30601-18.95195,6.19288-5.40688,12.7667-10.23961,19.95041-14.20542,7.13306-3.93785,14.99307-6.01177,22.93005-8.37812,7.73385-2.30579,15.51885-3.87404,23.85442-4.54699,8.8121-.71142,17.1986-1.0851,25.51803.21868,8.51076,1.33376,16.21631,4.48413,24.11034,8.09479,7.57293,3.4638,15.46062,6.65352,22.37376,12.36589,5.0591,4.18037,8.39793,11.48991,13.28399,16.25278,1.49372-1.70014,3.71983-6.19896,5.33049-7.87496,6.27093-6.52525,13.73045-10.86564,20.62541-15.29911,7.43148-4.77846,14.81892-8.78461,22.8945-11.23156,8.161-2.47284,16.56601-2.2903,25.29869-2.48693,8.30243-.18694,17.04922-2.4203,25.79209-.64276,7.90437,1.60706,15.08741,4.97301,22.02707,7.7135,7.40518,2.92433,15.79318,4.17708,22.12257,8.34476,6.51319,4.28872,12.9327,9.60717,18.33188,15.16011,5.32144,5.47299,8.72272,13.10055,12.98662,19.75037,4.06125,6.33377,7.94629,13.19841,11.06977,20.55474,2.92291,6.88396,5.05891,14.44932,7.17853,22.19147,1.84906,6.75393,2.3514,13.97833,3.57283,20.92102Zm-95.95241,93.26738c.67863-.52457,10.84054-4.41342,20.66487-15.49294,4.9879-5.62518,7.5821-14.59159,12.04978-23.21368,3.65224-7.04839,9.14653-14.25061,11.27416-23.41471,1.80792-7.7871,4.49444-16.71716,4.49444-26.09979-.59148-8.96009-3.41295-17.82335-6.31737-25.36893-3.10432-8.06491-9.94941-13.96877-15.684-20.22975-5.50847-6.0141-10.8135-13.14148-18.73767-17.3154-6.7687-3.5653-13.82841-7.43424-20.62981-8.57988-7.22493-1.21698-14.74176,2.39565-21.83215,4.22662-6.59035,1.70185-11.98511,5.91386-18.31202,10.52158-6.41365,4.67089-12.9454,8.88709-16.50177,15.74344-3.56046,6.86422-7.1976,14.50966-7.79841,22.30512-.59572,7.72954,1.42965,15.96004,3.8376,23.37165,2.37765,7.31831,7.67435,13.25103,13.07109,19.06937,5.59976,6.03721,9.13364,14.02508,14.82392,19.97,5.69203,5.94674,13.44835,9.90923,19.16923,15.82668,5.72067,5.91723,8.92004,14.25192,14.60783,20.20293,4.94759,5.17654,6.8636,3.11675,11.8203,8.47768Zm-198.83736-1.38992c5.34042-5.66502,11.75594-9.22617,16.51028-14.25517,5.18793-5.48765,7.76727-12.94759,12.69492-18.16843,4.94566-5.23991,11.70978-8.74844,16.85412-14.23617,4.7432-5.05982,10.83791-9.25631,16.1272-14.94962,8.08344-8.70088,11.79369-21.27939,13.0803-33.38475.8173-7.68984-2.74707-15.13115-4.89119-22.12489-2.22594-7.26065-3.79538-15.19672-8.52551-20.88995-4.82306-5.80508-10.68234-12.14466-17.37354-15.44611-6.61614-3.26442-15.2119-1.93477-22.93259-1.89341-7.753.04153-14.54508,2.77402-21.564,5.25411-7.16573,2.53197-14.73024,4.00425-20.65707,8.73295-5.84697,4.66499-12.30317,9.57029-16.48162,16.03633-4.00014,6.19011-6.28116,13.92705-8.33992,21.46769-2.52346,9.24272-2.00509,17.34581-2.01008,24.65621-.00583,8.52931-1.18251,16.89915,1.88754,24.90178,2.65641,6.92439,8.96224,12.93018,13.65647,21.04222,3.25612,5.62685,6.29961,14.24312,12.47252,20.1863,5.96764,5.74555,14.15677,8.95608,19.49217,13.07091Zm38.90154,19.82939c14.58965,7.46368,20.27306,16.73227,30.30974,17.4312,7.6898.53551,15.5486-2.49131,23.27195-2.44853,7.71555.04274,15.4574,2.42601,23.16368,2.24863,8.87059-.20417,18.15404.05771,26.95178-1.30935,5.15726-.80136,11.56782-14.90186,16.2898-16.2142-4.92771-5.17778-12.367-9.6155-17.25608-14.75269-4.92802-5.1781-8.04363-12.04371-12.93629-17.18466-4.92319-5.17302-8.88083-11.2311-13.77217-16.37067-4.92132-5.17107-11.87382-7.75821-16.76695-12.89965-4.94263,5.17447-8.36133,11.21663-13.34691,16.43606-4.92843,5.1596-11.64417,8.66797-16.64234,13.90059-4.91775,5.14842-10.96342,9.30042-15.97519,14.54727-4.90735,5.13753-8.26857,11.35795-13.29102,16.61599Z" fill="#e97878"/>
    <g>
      <path d="m313.75916,467.20082c0,2.44469-.84109,5.055-2.67461,5.055s-6.13255-2.6103-6.13255-5.055,4.29903-3.04089,6.13255-3.04089,2.67461.5962,2.67461,3.04089Z" fill="#fff"/>
      <path d="m324.09995,517.84531c0,2.44469,2.1979,1.75346,4.03142,1.75346s4.00996.69123,4.00996-1.75346-2.17644-2.61232-4.00996-2.61232-4.03142.16763-4.03142,2.61232Z" fill="#fff"/>
      <path d="m441.52472,447.40909c0-2.44469-3.66319-1.92544-5.49671-1.92544s-4.6048-.51925-4.6048,1.92544,2.77128,2.44363,4.6048,2.44363,5.49671.00106,5.49671-2.44363Z" fill="#fff"/>
      <path d="m382.76878,512.72113c0-2.44469.23674-5.21002,2.07026-5.21002s4.74875,2.76533,4.74875,5.21002-2.91523,2.06403-4.74875,2.06403-2.07026.38066-2.07026-2.06403Z" fill="#fff"/>
      <path d="m288.65419,502.36311c0,2.17852-2.70127,3.34168-5.17686,3.34168s-7.05861-1.16316-7.05861-3.34168,4.58302-3.77422,7.05861-3.77422,5.17686,1.5957,5.17686,3.77422Z" fill="#fff"/>
      <path d="m484.26886,447.30287c0,2.86729-4.49776,2.49338-7.75604,2.49338s-6.6963.37391-6.6963-2.49338,3.43802-6.63232,6.6963-6.63232,7.75604,3.76503,7.75604,6.63232Z" fill="#fff"/>
      <path d="m402.48832,478.10132c0-2.17852,4.20722-6.3631,6.68281-6.3631s3.73458,4.18458,3.73458,6.3631-1.25899,3.3633-3.73458,3.3633-6.68281-1.18478-6.68281-3.3633Z" fill="#fff"/>
      <path d="m459.28162,487.66066c0-2.17852-3.35407-2.01653-5.82966-2.01653s-5.8108-.16199-5.8108,2.01653,3.33521,4.32338,5.8108,4.32338,5.82966-2.14486,5.82966-4.32338Z" fill="#fff"/>
      <path d="m254.92226,430.38842c0-2.44469-1.41966-3.76912-3.25318-3.76912s-1.21831,1.32443-1.21831,3.76912-.61521,5.30674,1.21831,5.30674,3.25318-2.86205,3.25318-5.30674Z" fill="#fff"/>
      <path d="m219.5009,461.08065c0-2.17852,2.83571-5.8873,5.3113-5.8873s1.64781,3.70878,1.64781,5.8873.82778,4.31144-1.64781,4.31144-5.3113-2.13292-5.3113-4.31144Z" fill="#fff"/>
      <path d="m271.3516,470.63999c0-2.17852.21703-2.99616-2.25856-2.99616s-6.61828.81764-6.61828,2.99616,4.14269,2.89062,6.61828,2.89062,2.25856-.7121,2.25856-2.89062Z" fill="#fff"/>
      <path d="m348.21262,484.50704c0,2.17852,4.24996,3.04824,6.72555,3.04824s6.1475-.86972,6.1475-3.04824-3.6719-1.22739-6.14749-1.22739-6.72555-.95113-6.72555,1.22739Z" fill="#fff"/>
    </g>
  </g>
</svg>