<?xml version="1.0" encoding="UTF-8"?>
<svg id="a" data-name="Ebene 1" xmlns="http://www.w3.org/2000/svg" width="210mm" height="209.99999mm" viewBox="0 0 595.27559 595.27557">
  <g>
    <path d="m326.21732,186.00527c6.15281,3.59268,13.96173,5.26778,21.41305,4.60176,15.95307-1.42702,29.21079-13.18732,28.47325-21.45663-.40229-4.50454-5.13703-7.08926-9.03925-8.46375-4.39279-1.5477-9.88853-2.34893-15.88937-2.34893-2.08074,0-4.22182.0961-6.39978.29166-16.84481,1.50747-28.57494,8.16203-27.89217,15.82232.35983,4.03297,3.8497,8.352,9.33427,11.55357Z" fill="#d5e989"/>
    <path d="m478.42238,131.81781c-.26959,1.3365-.41794,2.55315-.56377,3.79159-.39559,3.37142-.84481,7.19318-3.75248,13.45998-2.76016,5.94943-4.51571,8.80905-6.21428,11.5748-1.66839,2.71882-3.24515,5.28565-5.83657,10.87303-2.84397,6.12935-5.01858,8.90068-7.12055,11.58151-1.94776,2.48191-3.786,4.82637-6.29473,10.23383-2.40369,5.17949-2.5769,8.03911-2.77692,11.35019-.21232,3.49993-.45258,7.46697-3.40159,13.82428-2.84062,6.12264-4.99846,8.89845-7.08591,11.58374-1.93658,2.49197-3.76589,4.84537-6.27797,10.26065-2.62607,5.66113-3.71449,8.49839-4.8666,11.50217-.03436.08996-.06928.18047-.10365.27043,1.68655-.77441,3.49071-1.28454,5.6195-1.83266,2.41375-.62132,5.15044-1.32532,8.87498-2.88085,6.02654-2.51655,8.79005-4.13354,11.71449-5.84663,2.9926-1.7522,6.08688-3.56363,12.53806-6.25786,6.8747-2.86967,11.12334-2.87079,14.89258-2.86297,3.55245-.01006,6.63892.00559,12.2397-2.33329,5.58402-2.33105,7.7251-4.54924,10.20478-7.1172,2.6283-2.72105,5.60637-5.80528,12.49784-8.68389,6.67356-2.78698,10.45397-3.25073,14.10923-3.70108,3.14625-.38609,6.15673-.77553,11.33454-2.83783-3.7279-9.4706-6.17321-9.10015-13.96117-18.13326-8.43582-9.78461-10.80793-7.73963-19.24375-17.52424-8.43721-9.786-10.74843-8.60344-17.26778-19.75919-5.90613-10.10672-3.39014-15.46557-9.258-20.53527Z" fill="#d5e989"/>
    <path d="m279.89241,101.60465c2.28915.41374,4.10029.77078,5.87792,1.12194,3.43176.67607,6.97975,1.37561,13.9986,2.47744,7.20659,1.13088,10.83056,1.96005,14.33496,2.76128,3.54686.81129,6.89594,1.57787,13.86786,2.67188,6.71937,1.0549,10.09862.84593,13.67901.62467,3.79159-.23243,7.70946-.47493,15.16636.69395,6.76743,1.06272,10.15784.94762,13.74382.83364,3.75024-.12404,7.62453-.25255,15.03227.91074,7.13508,1.12083,10.74675,1.79913,14.23886,2.45621,3.44406.64702,7.00545,1.31639,14.04666,2.42157,7.01998,1.10183,10.61154,1.51753,14.08465,1.91982,3.54016.41011,7.20101.83475,14.35731,1.95782,7.36639,1.15547,11.01159,2.36011,14.53723,3.52563,3.41277,1.12753,6.63668,2.1936,13.44434,3.26191.57243.08996,1.0792.32854,1.51306.65316.40285-1.83936,1.0183-3.93044,2.06593-6.46347-1.34544-2.71211-2.64646-5.79858-2.64646-9.45607,0-10.64171,10.48359-15.34935,2.69702-22.60344-9.95726-9.27699-14.27574-3.60777-27.75025-5.51921-13.47563-1.91172-13.81981.51264-27.29543-1.3988-13.47618-1.912-13.5382-1.47423-27.01439-3.38595-13.47591-1.91172-13.40606-2.40425-26.88197-4.31597-13.47674-1.91172-13.6533-.66546-27.13005-2.57718-13.47842-1.912-15.3175,3.3731-27.9743-1.63961-14.3805-5.69549-15.97737-16.40089-27.40327-9.00042-8.93225,5.78517.9384,13.03366.9384,23.67565,0,6.42799-2.92471,10.54281-3.52815,14.39279Z" fill="#d5e989"/>
    <path d="m542.64281,405.86057c0-13.99078-1.13424-13.99078-1.13424-27.98156,0-13.99302.9993-13.99302.9993-27.98547s-.02933-13.99302-.02933-27.98603-3.73544-13.99246-3.73544-27.98492c0-13.99358,3.69968-13.99358,3.69968-27.98659,0-13.99525-3.13591-13.99525-3.13591-27.99106,0-12.43805,3.53681-14.16231,1.03981-23.64967-5.80416,2.27797-9.30298,2.71043-12.69004,3.12781-3.34237.41011-6.49923.79788-12.30116,3.22168-5.58402,2.33105-7.7251,4.54924-10.20478,7.1172-2.6283,2.72105-5.60637,5.80528-12.49784,8.68389-6.8747,2.86967-11.12669,2.84174-14.89258,2.86297-3.56139.00335-6.63892-.0067-12.2397,2.33329-6.02654,2.51655-8.79005,4.13354-11.71449,5.84663-2.9926,1.7522-6.08688,3.56363-12.53806,6.25786-4.18047,1.7455-7.3027,2.54896-9.81031,3.19374-4.94706,1.2728-6.79872,1.74997-11.20603,8.3386-3.68767,5.51362-3.14234,7.2323-1.8226,11.3826.93309,2.93672,2.09415,6.59086,2.09415,12.28105,0,6.75625-.0704,10.19137-.13857,13.51362-.06705,3.28761-.13633,6.68697-.13633,13.37394,0,6.51152.38665,9.67621.79564,13.02528.41682,3.40718.84705,6.92834.84705,13.85892,0,7.48037-1.82931,11.41724-3.44294,14.89035-1.50412,3.23732-2.80374,6.03325-2.80374,11.99609,0,6.50035.40788,9.65945.84034,13.00293.44028,3.41277.89621,6.94175.89621,13.88462,0,6.9127-.39,10.42716-.76771,13.82428-.37324,3.36025-.72636,6.53387-.72636,13.06551,0,6.35061.67831,9.43931,1.39573,12.70904.76435,3.48429,1.55552,7.08702,1.55552,14.18187,0,6.99539-.56768,10.55008-1.11636,13.98743-.5308,3.3189-1.03143,6.45342-1.03143,12.90348,0,6.36961.64478,9.46724,1.32644,12.74591.72301,3.47535,1.4706,7.06914,1.4706,14.14611,0,7.19207-1.01467,10.8395-1.99469,14.36737-.89733,3.22615-1.74438,6.27238-1.74438,12.52801,0,6.27462.81464,9.3298,1.67621,12.56377.93756,3.51893,1.90753,7.15854,1.90753,14.33161,0,.50733-.11678.98505-.31429,1.41863,10.55902-2.58751,10.02626-8.68501,21.42953-14.90432,12.47521-6.80319,13.05434-5.74103,25.52954-12.54421,12.47577-6.80374,10.52354-10.38357,22.9993-17.18732,12.47744-6.80486,13.63068-4.69004,26.1084-11.49434,12.47744-6.80486,15.40942-2.57299,22.72161-14.76016,7.19849-11.99777-.77692-12.5593-.77692-26.55064,0-13.98966.58751-13.98966.58751-27.97821,0-13.99078,5.02612-13.99078,5.02612-27.98156Z" fill="#d5e989"/>
    <path d="m412.46624,557.84269c0-6.27462-.81464-9.3298-1.67621-12.56377-.93756-3.51893-1.90753-7.15854-1.90753-14.33161,0-7.19207,1.01467-10.8395,1.99469-14.36737.89733-3.22615,1.74438-6.27238,1.74438-12.52801,0-6.36961-.64478-9.46836-1.32644-12.74703-.72301-3.47535-1.4706-7.06914-1.4706-14.14499,0-6.99539.56768-10.55008,1.11636-13.98743.5308-3.3189,1.03143-6.45342,1.03143-12.90348,0-6.35061-.67831-9.43931-1.39573-12.70904-.76435-3.48429-1.55552-7.08702-1.55552-14.18187,0-6.9127.39-10.42604.76771-13.82316.37324-3.36025.72636-6.53387.72636-13.06663,0-6.50147-.40788-9.66057-.84034-13.00517-.44028-3.41165-.89621-6.94063-.89621-13.88239,0-7.48037,1.82931-11.41724,3.44294-14.89035,1.50412-3.23732,2.80374-6.03325,2.80374-11.99609,0-6.51152-.38665-9.67621-.79564-13.02528-.41682-3.40718-.84705-6.92834-.84705-13.85892,0-6.75737.0704-10.19249.13857-13.51474.06705-3.28761.13633-6.68697.13633-13.37282,0-4.62523-.94091-7.58765-1.77231-10.20143-1.23341-3.88322-1.95027-6.97863-.56879-11.0697-4.95125-1.20687-7.75946-2.35787-10.48079-3.47646-3.04624-1.25269-5.92485-2.43498-12.08325-3.74577-6.45789-1.37561-9.6885-2.05504-12.91912-2.73558-3.23509-.68054-6.46906-1.3622-12.93589-2.73781-6.5931-1.40467-9.88853-2.38134-13.07669-3.32672-3.20156-.94985-6.22657-1.84607-12.5593-3.19374-6.36849-1.35661-9.49965-1.83825-12.81408-2.34781-3.26414-.50063-6.6378-1.01914-13.19514-2.41486-6.66015-1.41808-9.96005-2.53555-13.15156-3.61615-3.14346-1.06495-6.11147-2.06956-12.37827-3.40383-5.93044-1.26386-9.02584-.94203-12.30228-.60455-3.66085.37771-7.44685.76994-14.44112-.71742-6.8233-1.45272-10.12767-2.94231-13.32365-4.38162-2.9993-1.35103-5.83098-2.62607-11.93686-3.92569-6.20087-1.32085-9.31639-1.48736-12.61405-1.6628-3.2837-.17488-6.6825-.35983-12.91158-1.64381-2.09778,7.70778-1.65414,9.69465-1.65414,20.73139,0,13.22531,2.79536,13.22531,2.79536,26.45062,0,13.22364,1.62034,13.22364,1.62034,26.44671,0,13.22419.78251,13.22419.78251,26.44895s-4.0718,13.22475-4.0718,26.44951c0,13.22643,4.10029,13.22643,4.10029,26.45286s-1.20212,13.22699-1.20212,26.45342-.33468,13.22643-.33468,26.45286-3.9634,13.22699-3.9634,26.45453c0,13.22866.2587,13.22866.2587,26.45733s-7.1753,16.92024,1.04931,27.28202c8.25618,10.40089,13.26107,5.19514,26.18522,8.24752,12.92443,3.05238,12.88364,3.22447,25.80808,6.27741,12.92611,3.05294,14.31094-2.81101,27.23705.24249,12.92611,3.05294,12.94874,2.95684,25.87484,6.01034,12.92583,3.05294,12.86465,3.31275,25.79047,6.36569,12.92667,3.05294,12.52745,4.74368,25.45384,7.79662,12.92862,3.05406,12.42241,5.19626,25.35103,8.24976,12.11231,2.86073,13.21972,8.11175,24.11901,7.16748-.57047-.61293-.92639-1.42813-.92639-2.33161Z" fill="#d5e989"/>
    <path d="m221.46972,218.52378c3.41724.18215,6.95069.371,13.67901,1.8036,6.82442,1.45272,10.12991,2.94231,13.32588,4.38162,2.99818,1.35103,5.82986,2.62607,11.93463,3.92569,5.93155,1.26386,9.02808.94538,12.30339.60455,3.66085-.37882,7.44797-.77106,14.43889.71742,6.65903,1.41808,9.96005,2.53555,13.15044,3.61615,3.14346,1.06495,6.11259,2.06956,12.3805,3.40383,6.36402,1.3555,9.49406,1.83601,12.80738,2.34558,3.26414.50175,6.64003,1.02025,13.20184,2.4171,6.59645,1.40467,9.893,2.38246,13.08116,3.32784,3.20156.94874,6.22545,1.84495,12.55483,3.19262,6.45789,1.37561,9.6885,2.05504,12.91912,2.73558,3.23509.68054,6.46906,1.3622,12.93589,2.73781,6.76519,1.44042,10.06845,2.79816,13.26331,4.11119,2.57857,1.06048,5.04484,2.07068,9.47367,3.15072.01285-.03017.0176-.06146.03157-.09107,2.6283-5.66448,3.71672-8.50286,4.86884-11.50775,1.14318-2.9803,2.32435-6.06118,5.04875-11.93463,2.84174-6.12376,4.99958-8.89957,7.08591-11.58486,1.93658-2.49085,3.76589-4.84425,6.27797-10.25953,2.40369-5.17949,2.5769-8.03911,2.77692-11.35019.21232-3.49993.45258-7.46697,3.40159-13.82428,2.84397-6.12935,5.01858-8.90068,7.12055-11.58151,1.94776-2.48191,3.786-4.82637,6.29473-10.23383,2.76016-5.94943,4.51683-8.80905,6.21428-11.5748,1.66839-2.71882,3.24515-5.28565,5.83657-10.87303,2.16902-4.67551,2.68781-7.53541,3.03562-10.31233-.35955.12739-.74256.20031-1.13815.20031-.17768,0-.35647-.01341-.53639-.04135-7.36416-1.15659-11.00936-2.36122-14.53499-3.52563-3.41277-1.12865-6.63668-2.1936-13.44657-3.26191-7.01998-1.10183-10.61154-1.51753-14.08465-1.91982-3.54016-.41011-7.20101-.83475-14.35731-1.95782-7.14401-1.12083-10.75793-1.80025-14.25227-2.45733-3.44182-.64702-7.00098-1.31639-14.03436-2.42045-6.76407-1.0616-10.15226-.95209-13.74158-.83252-3.75136.12404-7.62565.25031-15.03339-.91186-6.71937-1.05378-10.09862-.84481-13.67901-.62467-3.78824.23467-7.70834.47604-15.16636-.69395-7.20659-1.13088-10.83056-1.96005-14.33496-2.76128-3.54686-.81129-6.89594-1.57787-13.86786-2.67188-7.15184-1.12306-10.76687-1.83601-14.26233-2.52549-2.08158-.40983-4.21092-.82917-7.12725-1.34097-4.21958,5.09513-1.42282,11.67146-7.22922,20.44112-7.48876,11.31024-7.01383,11.62481-14.50258,22.93505-7.48931,11.3108-9.42171,10.03129-16.91074,21.34237-7.49015,11.3122-9.23956,10.15393-16.72971,21.46669-7.24207,10.93728-8.16678,11.09429-11.80081,22.82162,5.35913,1.0778,8.26652,1.23313,11.32728,1.39628Zm170.53276-95.91117c2.03939.28943,3.75555.61238,5.25269.95823-1.7251.07347-3.69577-.01006-6.05839-.34418-2.3168-.3277-4.214-.71071-5.84635-1.12865,1.85054-.00112,3.99916.13829,6.65205.5146Zm-47.83964,29.17782c9.41919-.84258,18.36011.01788,25.18341,2.42045,8.20115,2.88979,13.02975,7.97877,13.59631,14.32938,1.17335,13.15715-15.69046,27.2038-34.69982,28.90571-1.2661.11286-2.54114.16874-3.81953.16874-7.64353,0-15.36528-2.0014-21.66783-5.68012-7.51278-4.38497-12.14583-10.53555-12.71127-16.87275-1.06942-11.99721,12.64199-21.34935,34.11873-23.27141Z" fill="#d5e989"/>
  </g>
  <path d="m209.31185,467.32512c-1.77042-.03552-3.54841.55857-5.31884.52305-3.39248-1.39215-6.03895-3.4283-7.41308-5.95994-1.36269-2.51057-.95568-5.78998-.78292-9.33652.13184-2.70667.16417-5.4256.24065-8.13497.07645-2.70838-.30091-5.42921-.25581-8.13912.0451-2.70932-.36139-5.42508-.32366-8.13477s1.04267-5.4033,1.09701-8.11231c.02347-1.16966-.6638-1.9221-.631-3.55688-1.51396.74039-2.36592.50608-3.30648,1.01202-2.91913,1.57016-5.96576,2.9061-8.88128,4.48305-2.91552,1.57695-5.61027,3.56164-8.52915,5.13221s-5.80272,3.20639-8.73202,4.75747c-2.7744,1.46905-5.63154,2.48051-8.1914,2.15969-2.79627-.35045-5.43116-2.04215-7.29194-4.36341-2.46638-3.0767-3.43764-6.90135-2.62808-10.18948.77653-3.15398,3.61772-5.5384,7.14766-7.46889,2.57853-1.41016,5.14583-2.83809,7.7287-4.24036s4.88722-3.31835,7.474-4.71339,5.30957-2.53711,7.89987-3.9256,5.12694-2.87699,7.72036-4.25959,5.07525-2.97559,7.67142-4.35299c1.89496-1.00537,2.8603-1.91031,2.86203-4.12371.00198-2.50689.41203-5.00784.44859-7.51489.03655-2.50677-.87771-5.03365-.81302-7.53999s.6095-5.00108.69591-7.5065c.06632-1.92289-.776-2.52736-2.40475-3.49825-2.77613-1.65482-5.01437-4.2092-7.78575-5.87204s-5.82824-2.8501-8.59468-4.52111-5.32741-3.68022-8.08876-5.3596-5.60908-3.21583-8.3652-4.90376c-1.52924-.9366-2.99777-1.20815-4.52394-.34381-2.17904,1.23407-3.91893,3.24914-6.10538,4.47078s-4.7835,1.69816-6.98341,2.89468c-2.20031,1.19674-4.42921,2.32291-6.64908,3.48186-2.06602,1.07864-3.04595,2.8037-3.05423,5.05207-.01035,2.80945.42269,5.62021.40403,8.42965s.40983,5.6227.38375,8.43208-.26048,5.6171-.29307,8.4264-.24147,5.61648-.27969,8.42571-.0163,5.61933-.05925,8.42848c-.03342,2.18577-.39566,4.41236-1.06548,6.46752-.83022,2.54729-2.52862,4.4727-4.75022,5.79195-2.20773,1.31101-4.80911,2.46702-7.44256,2.10163-2.74295-.38057-5.32227-1.87849-7.09323-3.77644-1.77084-1.89782-2.677-4.57996-2.71667-7.40418-.03689-2.62647-.20598-5.25312-.20734-7.88008-.00135-2.62655.16693-5.25333.18533-7.88016.0184-2.62658-.44782-5.25743-.42542-7.88409s.88125-5.24783.89188-7.8744c.00467-1.15256-.20799-2.74583-.25881-4.2287-1.43482.74541-2.77853,1.60432-3.82051,2.17685-2.39674,1.31694-4.48741,3.19039-6.88348,4.50855s-5.21995,1.85879-7.61583,3.17731-4.82158,2.58264-7.21774,3.90064-4.72411,2.75966-7.12102,4.07628c-2.83396,1.55669-5.26695,2.26243-7.54252,2.47284-2.88439.26671-4.96703-.49275-7.10125-2.43686-1.68969-1.53918-3.38105-3.43746-4.69283-6.39239.03552-1.77041.01972-3.47923.05524-5.24964,1.84183-4.26591,5.33081-6.4866,9.3552-8.62164,2.39217-1.26908,4.67795-2.74389,7.05738-4.03698,2.37923-1.29298,4.72346-2.65283,7.09505-3.96018s4.53934-2.98311,6.90827-4.29514,5.11531-1.94026,7.4868-3.24742c.89145-.49137,1.68414-1.60906,2.79678-2.32254-1.39508-.89177-2.81495-1.20736-3.83808-1.8405-2.78844-1.72571-5.13453-4.16775-7.92579-5.88894s-6.00812-2.75335-8.79609-4.4798-5.33299-3.84398-8.11159-5.58548c-2.40402-1.50671-4.33017-3.21276-5.36176-5.29639-1.13437-2.29124-1.3973-4.91759-.74678-7.50549.68068-2.70784,2.04393-4.99965,3.86961-6.51956,1.94772-1.62151,4.51994-2.43835,7.14731-2.45221,2.33758-.01233,4.79601.78101,7.19014,2.23859,2.51145,1.529,5.24157,2.70123,7.74807,4.2384s4.73763,3.5225,7.23964,5.06696,4.83483,3.36073,7.33285,4.91161,5.38323,2.47933,7.87777,4.03578,4.87945,3.28898,7.37102,4.85015c1.6989,1.06452,3.03261,1.52167,4.83023.49153,2.20545-1.26387,4.23047-2.84626,6.4511-4.08399,2.22046-1.23764,4.24314-2.84282,6.47681-4.05656,2.23379-1.2138,4.87335-1.67518,7.11839-2.86732,1.70597-.90591,2.45138-2.22825,2.47756-4.11569.04451-3.20846-.61247-6.4278-.55908-9.63619s.19173-6.41638.25587-9.62454.71115-6.40367.78792-9.61154-.2278-6.42551-.13653-9.63298c.05959-2.09418-.73868-2.86195-2.44495-3.86206-3.194-1.87212-6.4669-3.62451-9.63551-5.54032-3.16894-1.91601-5.85493-4.61271-8.97886-6.59931-1.97203-1.25406-3.88558-1.16625-5.80243-.07236-2.49594,1.42437-4.94551,2.93012-7.44207,4.35386s-4.67026,3.41471-7.17075,4.83126c-2.50062,1.41663-4.91988,2.98126-7.42792,4.38424-2.50826,1.4031-5.27519,2.34171-7.79426,3.72465-2.51932,1.38308-5.18591,2.48862-7.71945,3.84502-2.73582,1.46471-6.17935,3.04541-9.26145,2.77645-2.41278-.21056-4.46138-1.86221-6.03508-3.59853-1.52433-1.68185-2.49892-3.90342-2.91529-6.24196-.42557-2.39024-.06248-4.76371,1.03925-6.89937,1.03183-2.00018,2.68079-3.73011,4.90545-5.01157,2.93736-1.692,5.98559-3.18668,8.93818-4.85226,2.95243-1.66549,5.53173-3.99595,8.48966-5.65192s6.33002-2.57379,9.28368-4.23712c1.01461-.57137,2.03203-1.57573,3.43147-2.40209-2.59401-1.56615-5.0918-3.44643-7.63109-4.98774-2.5854-1.5693-5.39945-2.71058-7.94864-4.25363-2.57737-1.5601-5.36458-2.73395-7.92622-4.26669-2.57751-1.54224-5.11162-3.13256-7.69494-4.64657-3.9301-2.30332-7.49613-5.20114-9.1657-9.53707.03552-1.77042.28358-3.75926.3191-5.52968,1.43551-2.91347,3.41872-4.84248,5.1504-6.32074,2.20793-1.88481,4.57399-2.95763,7.45078-2.56232,2.25457.30981,4.64192,1.61622,7.42237,3.29392,2.36537,1.42724,4.84006,2.67337,7.20445,4.10222s4.5187,3.20515,6.8827,4.63466,5.04003,2.34292,7.40423,3.77209,4.55896,3.13872,6.92395,4.56658c.99219.59904,2.11015,1.15667,3.53133,1.96596.04066-2.02638-.1037-3.52729-.05413-4.95337.11783-3.38996.34714-6.77635.45525-10.16684s.10024-6.78513.22746-10.17462c.12723-3.38988.82365-6.75161.99882-10.13901.12838-2.48247.37781-4.84807,1.84509-6.56449,1.46297-1.71138,3.68738-2.77176,6.04-3.43309,2.21878-.62371,4.54755-.48549,6.67325.15748,2.19367.66354,4.16509,1.84188,5.33234,3.88721,1.59868,2.80132,2.64899,6.41291,2.61889,9.64835-.02655,2.85376-.62415,5.69785-.68024,8.55138-.05608,2.85326.7698,5.72768.69133,8.58071-.07846,2.85274-.35908,5.70154-.45279,8.55403s-.15133,5.70691-.25314,8.55903-.93692,5.67807-1.03971,8.53003c-.07282,2.02053.67406,3.56267,2.44599,4.59534,2.1957,1.27964,4.67742,2.07256,6.859,3.37664,2.18143,1.30399,4.32943,2.66611,6.49932,3.98939s4.40766,2.53861,6.56866,3.87605c1.4835.91813,2.43872,1.1364,4.01284.25676,2.82157-1.57675,5.75449-2.95348,8.58119-4.52112s5.51658-3.3829,8.34811-4.94176,5.96049-2.5747,8.79661-4.12517,5.50899-3.39901,8.34945-4.94147c1.66265-.90287,2.0326-2.03306,2.04304-3.9629.01355-2.50711.5501-5.00963.58576-7.5169s.09072-5.0113.15495-7.51776c.06424-2.50677-.09756-5.0191.0017-7.52429.08797-2.22011-.67803-3.41048-2.52393-4.48813-2.51923-1.47075-4.95991-3.07498-7.47556-4.5519s-5.28236-2.52735-7.79467-4.00996-5.09005-2.8559-7.59927-4.34371-4.65967-3.57961-7.16607-5.07216-5.11631-2.81096-7.62015-4.30776c-3.12216-1.86644-5.69423-4.1452-6.62588-6.90319-.99998-2.96027-.22772-6.35378,1.53209-9.39477,1.7432-3.0123,4.5017-4.52345,7.59847-5.09918,2.87964-.53537,6.16387-.53123,9.28506,1.26951,2.82342,1.62894,5.32097,3.81357,8.12378,5.47821,2.80262,1.66453,6.0066,2.65155,8.81296,4.30964,2.00514,1.1847,3.84897,2.6421,5.93845,3.87274,1.94203,1.1438,3.80756,2.03641,5.95863,3.3039.03531-1.76007.49427-2.52812.51772-3.69695.05437-2.70951.03754-5.41928.10811-8.12891.07056-2.70939.05597-5.42153.11934-8.13086.06338-2.70976-.39415-5.42761-.36135-8.13713.03281-2.71026.67289-5.41854.65171-8.12838-.02773-3.5474-.00793-6.74941,1.45217-9.20741,1.47111-2.47654,4.0048-4.62652,7.45857-5.87608,1.77042.03552,3.58972.68367,5.36014.71919,3.40121,1.38721,5.82665,3.13038,7.19716,5.66418,1.36025,2.51485,2.15081,5.64817,1.98079,9.19181-.12989,2.70723-.45777,5.40117-.5337,8.11099-.07591,2.70889.10068,5.42052.05532,8.13088-.04535,2.7098-.576,5.41197-.61417,8.12212s.12588,5.4241.07154,8.1336c-.02344,1.16848-.22923,2.43037-.26285,4.10567,1.62847-.83113,2.58341-1.73864,3.62325-2.29764,2.95233-1.58714,6.22973-2.5731,9.1759-4.17208s5.52696-3.87522,8.48077-5.45936c2.95412-1.58431,6.01633-2.97245,8.99194-4.51531,3.63079-1.88257,7.72495-2.20043,10.85311-.8274,3.2076,1.4079,5.11468,4.84164,5.97992,8.77428.60195,2.73602.65404,5.3197-.65683,7.64169-1.18483,2.09874-3.14625,3.95887-5.76597,5.3812-2.56382,1.39198-5.2068,2.63794-7.77214,4.02717s-5.25954,2.53928-7.82696,3.92464-5.19351,2.65998-7.7636,4.04036-4.87335,3.25794-7.44669,4.63223-5.22898,2.59395-7.80615,3.96104c-1.90183,1.00884-2.18824,2.21154-2.19053,4.41956-.00261,2.50732-.94565,5.00786-.98213,7.51534-.03648,2.50721.64949,5.02836.58472,7.53512s-.82432,4.99218-.91181,7.49799c-.06748,1.93292,1.23977,2.5788,2.8618,3.54596,2.77639,1.65546,5.5766,3.27393,8.34846,4.93706,2.77183,1.66312,5.07931,4.09813,7.84623,5.76942s5.76936,2.95331,8.53101,4.63326,5.67621,3.11121,8.43224,4.80034c1.54306.94573,2.35048,1.0161,3.86417.16039,2.18038-1.23257,4.46426-2.2833,6.65113-3.50505s4.62179-1.98849,6.82211-3.18509c2.20075-1.19684,3.97596-3.19249,6.19712-4.34986,2.08373-1.08576,2.55064-2.00404,2.5597-4.23368.01141-2.80994.69054-5.61628.70967-8.42621s-.50042-5.62403-.47427-8.43389.65845-5.61319.69096-8.42299.06282-5.61885.10099-8.42856-.52012-5.62795-.47695-8.43758c.03357-2.18528.76995-4.35504,1.4459-6.40779.83828-2.54562,2.17748-4.85826,4.40646-6.17141,2.20809-1.30084,4.88744-1.22328,7.52835-.86413,2.7254.37065,5.11833,1.28116,6.88832,3.20134,1.75917,1.90845,2.98597,4.31393,3.02344,7.12835.03496,2.62696.37839,5.25431.37895,7.88173.00056,2.62703-.37783,5.25415-.39637,7.88143-.01853,2.62705.13185,5.25564.1095,7.88277s.18104,5.25459.17016,7.88164c-.00475,1.14624-.30888,2.65194-.25365,4.20905,2.71831-1.49534,5.22294-3.69185,7.89482-5.162,2.7136-1.4931,5.46394-2.87086,8.14334-4.34501,2.70462-1.48803,5.39845-2.96261,8.08233-4.43857,2.69793-1.48368,5.63838-2.50941,8.32973-3.98827,2.84387-1.56267,5.25751-2.71817,7.52598-2.93563,2.89182-.27722,5.59145.34796,7.71964,2.31343,1.67416,1.54615,3.4038,3.91541,4.71163,6.8845-.03552,1.77042-.91309,3.56617-.94861,5.33659-1.83675,4.27208-4.67492,7.31639-8.69481,9.45273-2.3911,1.27073-4.96624,2.19555-7.34507,3.4894-2.37863,1.29374-4.51883,3.02042-6.89008,4.32803s-4.91608,2.29968-7.28475,3.61184-4.90068,2.32848-7.27178,3.63602c-.8972.49476-1.89432,1.35325-3.01594,2.07188,1.38377.88453,2.8009,1.27966,3.82393,1.91161,2.82103,1.74262,5.55265,3.62974,8.37934,5.3634s5.70155,3.38997,8.52106,5.13491c2.8197,1.74505,5.35505,3.94179,8.15473,5.71837,3.41673,2.16814,6.03587,4.95837,6.52833,8.25099.51202,3.42345-1.31235,6.78409-4.14593,9.567-2.13553,2.09734-4.3842,3.53584-7.1199,3.61815-2.48332.07472-5.04702-.89873-7.74151-2.54893-2.48837-1.52397-5.3536-2.43406-7.83987-3.96151s-4.43363-3.93051-6.91733-5.46211-4.97024-3.05685-7.45093-4.5933-5.40853-2.3526-7.88577-3.8946-4.51799-3.78317-6.99133-5.3314c-1.69839-1.06313-3.4151-1.2576-5.21255-.22707-2.205,1.2642-4.2075,2.88112-6.42793,4.11882-2.22025,1.2376-4.40804,2.5346-6.64203,3.74733-2.23412,1.21281-4.69001,2.0079-6.93618,3.19746-1.72781.91505-1.54042,2.41079-1.56722,4.27312-.0462,3.20825-.17478,6.41652-.22988,9.62467s-.46486,6.41038-.52921,9.61835-.37725,6.41043-.4512,9.61818-.04558,6.41769-.12948,9.62518c-.04923,1.88212.608,2.85431,2.28142,3.8283,3.19946,1.86221,6.22863,4.01441,9.40003,5.92524,3.17171,1.91101,6.61655,3.386,9.74238,5.3691,2.01698,1.27961,3.1062,1.43054,5.24145.20168,2.49053-1.43336,5.38546-2.1624,7.87928-3.59054s4.61988-3.50039,7.11944-4.91822,5.32763-2.25207,7.83568-3.65466c2.50825-1.4027,4.77752-3.23427,7.29671-4.61663,2.51944-1.38249,4.93254-2.96573,7.46546-4.32283,2.73409-1.46488,6.52545-1.97721,9.55886-1.60629,2.56648.31383,4.41083,1.57138,5.92058,3.23984,1.4666,1.62078,2.75269,3.57893,3.2365,6.06719.46302,2.38148-.42722,4.61797-1.53539,6.76029-1.03546,2.00176-2.57707,3.51976-4.7942,4.79919-2.93585,1.69418-5.40075,4.21266-8.35195,5.88023-2.95105,1.66749-5.95188,3.24948-8.90846,4.90738s-6.29121,2.64361-9.2435,4.30893c-1.01849.57448-1.45154,1.36085-2.85,2.18821,2.59176,1.56425,4.99903,2.95111,7.5375,4.49139,2.58328,1.56747,5.1108,3.17613,7.65898,4.71802,2.57552,1.55843,4.88346,3.52624,7.44394,5.05776,2.57588,1.54074,5.36851,2.69646,7.9504,4.20917,3.92996,2.30254,6.98949,5.28322,8.65866,9.61923-.03552,1.77041.44369,3.6705.40817,5.44091-1.41901,2.8996-3.62976,4.72078-5.38602,6.19016-2.2083,1.84757-4.47144,2.3243-7.34224,1.94622-2.2685-.29876-5.05951-.4385-7.8222-2.10483-2.36542-1.4267-4.4731-3.28066-6.8374-4.70922s-4.75007-2.82158-7.11392-4.25089-4.4829-3.26361-6.84696-4.69257-4.96485-2.4663-7.32979-3.8938c-.98843-.59663-2.33672-1.52435-3.73459-2.31518-.03863,1.92555.55914,3.65987.51275,4.98104-.12036,3.42656-.12308,6.85624-.2326,10.28339s-.49323,6.84617-.62279,10.27224c-.12958,3.4265-.19779,6.85806-.3783,10.28187-.14744,2.79652-1.70409,5.09691-3.55874,6.93106-1.84595,1.82554-4.15936,3.44187-6.90627,3.71514-2.65269.26389-5.23494-.79988-7.38709-2.19964-2.15881-1.40409-3.97592-3.39165-4.71546-5.98063-.59314-2.07646-.56129-4.38697-.50687-6.57226.07052-2.83077.16794-5.66079.24336-8.49146s-.34047-5.67528-.25946-8.50579,1.10877-5.63281,1.19605-8.46313-.08435-5.66803.00989-8.49812-.05262-5.66824.04926-8.49806c.07263-2.01798-.6445-2.87905-2.42028-3.9122-2.19646-1.27794-3.97114-3.27115-6.15341-4.5737-2.18211-1.30245-4.44966-2.45737-6.62015-3.77929s-4.4968-2.38872-6.65828-3.725c-1.4857-.91848-2.51168-.88009-4.08328-.00197-2.82142,1.57647-5.86569,2.75235-8.69218,4.31981s-5.39786,3.59647-8.22915,5.15521-6.04949,2.41137-8.88535,3.96175-5.18234,3.99884-8.02255,5.5412c-1.66219.90261-2.2974,1.51023-2.30779,3.44036-.01351,2.50691-.32475,5.01259-.36062,7.51964s.3705,5.02544.30646,7.5317c-.06406,2.50655-.17498,5.01757-.27302,7.5226-.08636,2.20643.40902,3.06006,2.26695,4.14409,2.51942,1.46999,4.892,3.19184,7.40754,4.66852,2.51552,1.47667,5.10954,2.8205,7.62163,4.30304s4.6797,3.54679,7.18879,5.03439,5.15699,2.7404,7.66354,4.23226,4.90636,3.16196,7.41083,4.65727c3.10258,1.85242,5.32571,4.04317,6.27303,6.80116,1.02583,2.98654.4394,6.01255-1.34228,8.99706-1.79059,2.99941-4.07175,5.35849-7.14273,5.94346-2.87857.54832-6.17357-.26512-9.29719-2.07807-2.8668-1.66389-5.7138-3.36236-8.56764-5.04859s-5.57499-3.59552-8.42443-5.28908c-2.84942-1.69355-5.92238-3.00989-8.7762-4.6959-.91975-.54338-1.8289-1.32005-3.31273-2.12124-.03279,1.6342-.38618,2.90749-.40965,4.07702-.05437,2.70927.72035,5.43836.64934,8.14777-.07099,2.70915-.07581,5.4187-.13943,8.12778-.06363,2.70954-.45295,5.40898-.48518,8.11825-.03224,2.71005-.1512,5.41705-.12799,8.12662.03042,3.55078-.73607,6.52888-2.19833,8.98289-1.47454,2.47461-3.81244,4.08978-7.25823,5.34479Zm39.02569-168.75376c.0643-3.20502-.53997-6.42342-.47952-9.62859.06045-3.20549-.07444-6.42487.0501-9.62787.07755-1.99421.29339-3.53025-1.49287-4.59161-2.75301-1.63577-5.53548-3.2193-8.28209-4.86596s-5.7124-2.92813-8.45232-4.58584-5.70704-2.94399-8.44007-4.61299-4.95805-4.16635-7.68398-5.84687c-1.77501-1.09428-3.05051-.15127-4.77893.81696-2.76976,1.55157-5.9212,2.41999-8.69599,3.96263s-5.68371,2.84023-8.46348,4.37386-5.33785,3.46847-8.12259,4.993-5.53292,3.11592-8.32264,4.63129c-1.74136.9459-2.06959,1.97559-2.09442,4.06123-.03815,3.20551-.3095,6.40928-.36074,9.61469s.06544,6.41511.00113,9.62026-1.01174,6.39069-1.08909,9.59552-.13551,6.40843-.22589,9.61289c-.05876,2.08337,1.20899,3.01556,2.91222,4.03117,2.72673,1.62599,5.30533,3.49962,8.02672,5.13463s5.50029,3.17412,8.21631,4.818,5.55494,3.08613,8.26561,4.73878,5.28183,3.53402,7.98718,5.19533c1.68672,1.03576,3.1887,1.55467,5.00789.53142,2.79108-1.56994,5.11366-3.9776,7.91146-5.53569s5.82665-2.70175,8.63086-4.24823,5.38955-3.4943,8.19996-5.02943,6.12242-2.14797,8.93881-3.67203c1.82624-.98824,2.11238-2.59671,2.11382-4.59382.00227-3.15025.44504-6.29323.51224-9.44342.06719-3.14961.14712-6.29969.21031-9.44931Z" fill="#9b4"/>
</svg>