<?xml version="1.0" encoding="UTF-8"?>
<svg id="a" data-name="Ebene 1" xmlns="http://www.w3.org/2000/svg" width="210mm" height="209.99999mm" viewBox="0 0 595.27559 595.27557">
  <path d="m504.97307,297.6378c0-7.84342,1.34413-15.8006.49533-23.41753-.86651-7.77579-2.96257-15.46411-4.66543-22.95564-1.73017-7.61168-6.26243-14.36943-8.8053-21.63695-2.57273-7.35287-3.37562-15.39933-6.72762-22.34729-3.3791-7.00413-8.34128-13.16929-12.4583-19.70793-4.13754-6.57123-7.44587-13.79592-12.27381-19.84211-4.83938-6.06052-11.35331-10.68577-16.831-16.16339-5.47767-5.47761-9.20336-13.11813-15.26391-17.95743-6.04621-4.82785-13.3615-8.29434-19.93274-12.43179-6.53843-4.11679-14.32523-6.10899-21.32911-9.48792-6.94787-3.35191-13.93226-6.55159-21.28502-9.12424-7.26743-2.54279-14.82971-3.91913-22.44129-5.64926-7.49136-1.7028-14.58692-6.57555-22.36253-7.44204-7.6169-.8488-15.61116-.89935-23.45455-.89935s-15.86918-.23196-23.48611.61684c-7.77579.86651-14.97238,5.43959-22.46391,7.14245-7.61168,1.73017-15.28217,3.00159-22.54969,5.54446-7.35287,2.57273-15.51133,3.5279-22.45929,6.8799-7.00413,3.3791-11.55133,11.20244-18.08997,15.31946-6.57123,4.13754-14.13527,6.67953-20.18146,11.50747-6.06052,4.83938-10.30685,11.56139-15.78447,17.03908-5.47761,5.47767-10.26289,11.27047-15.10219,17.33102-4.82785,6.04621-10.73099,11.16687-14.86844,17.73811-4.11679,6.53843-9.82391,12.31598-13.20284,19.31985-3.35191,6.94787-4.34811,15.00019-6.92076,22.35295-2.54279,7.26743-5.70907,14.42738-7.43919,22.03895-1.7028,7.49136-3.49087,15.14233-4.35735,22.91795-.8488,7.6169-1.9949,15.47099-1.9949,23.31438s.52054,15.76724,1.36934,23.38417c.86651,7.77579,5.70394,14.80629,7.4068,22.29782,1.73017,7.61168,2.39011,15.35157,4.93298,22.61909,2.57273,7.35287,4.61329,14.91245,7.96529,21.86041,3.3791,7.00413,9.82991,12.1722,13.94693,18.71085,4.13754,6.57123,6.99281,13.83774,11.82075,19.88393,4.83938,6.06052,11.3773,10.37128,16.85499,15.84891,5.47767,5.47761,10.05893,11.67678,16.11949,16.51608,6.04621,4.82785,13.11622,7.90427,19.68746,12.04172,6.53843,4.11679,11.51268,10.93292,18.51656,14.31184,6.94787,3.35191,13.93358,7.12623,21.28634,9.69888,7.26743,2.54279,15.36416,2.70121,22.97574,4.43134,7.49136,1.7028,15.29138,1.17253,23.067,2.03901,7.6169.8488,15.10753,5.88683,22.95092,5.88683s15.89773.02016,23.51466-.82864c7.77579-.86651,14.90548-5.86451,22.397-7.56737,7.61168-1.73017,15.23675-3.07229,22.50427-5.61515,7.35287-2.57273,15.04576-4.42714,21.99372-7.77915,7.00413-3.3791,14.53904-6.19116,21.07768-10.30819,6.57123-4.13754,13.03691-8.874,19.0831-13.70194,6.06052-4.83938,12.02456-10.18184,17.50218-15.65953,5.47761-5.47767,7.08146-14.42694,11.92075-20.48749,4.82785-6.04621,9.28676-12.05531,13.42421-18.62655,4.11679-6.53843,10.35807-11.82749,13.737-18.83136,3.35191-6.94787,7.27384-13.83948,9.8465-21.19224,2.54279-7.26743,3.66477-15.12398,5.39489-22.73556,1.7028-7.49136,3.68569-15.10297,4.55217-22.87858.8488-7.6169.38713-15.47572.38713-23.31912Z" fill="#ffcacc"/>
  <g>
    <path d="m460.22594,297.6378c0-8.53609-.69998-17.26168-1.98464-25.43694-1.31877-8.39233-7.91475-15.43461-10.48209-23.34148-2.61276-8.04677-5.55537-15.51076-9.34989-22.94335-3.83422-7.51036-5.70218-16.06279-10.6277-22.83073-4.94899-6.8002-9.77694-13.94818-15.71034-19.88155-5.93339-5.93336-13.15246-10.66363-19.95267-15.61258-6.76784-4.92539-13.67537-9.97348-21.1856-13.80762-7.43256-3.79448-15.99149-5.12895-24.03822-7.74169-7.90677-2.56729-15.74229-5.68678-24.13451-7.00555-8.17531-1.28468-16.58635-.97009-25.12249-.97009s-16.8808.10724-25.05606,1.3919c-8.39233,1.31877-16.0538,4.75698-23.96067,7.32432-8.04677,2.61276-15.51255,5.81901-22.94514,9.61352-7.51036,3.83422-14.00904,8.66454-20.77698,13.59006-6.8002,4.94899-15.84184,7.20488-21.77521,13.13828-5.93336,5.93339-9.0045,14.38169-13.95346,21.18191-4.92539,6.76784-10.12041,13.2573-13.95454,20.76754-3.79448,7.43256-7.61334,14.91868-10.22608,22.96541-2.56729,7.90677-4.47887,16.10841-5.79763,24.50063-1.28468,8.17531-2.94284,16.56188-2.94284,25.09802s-.66295,17.28735.62171,25.46262c1.31877,8.39233,4.06533,16.71189,6.63267,24.61876,2.61276,8.04677,8.62403,14.68982,12.41855,22.12241,3.83422,7.51036,6.12734,15.95849,11.05285,22.72643,4.94899,6.8002,9.36872,14.4977,15.30212,20.43107,5.93339,5.93336,14.21051,9.55663,21.01072,14.50559,6.76784,4.92539,13.86221,9.53099,21.37245,13.36513,7.43256,3.79448,14.69697,8.7597,22.7437,11.37244,7.90677,2.56729,16.60429,3.40914,24.99651,4.7279,8.17531,1.28468,16.7012,1.10605,25.23734,1.10605s17.0203-.0863,25.19556-1.37096c8.39233-1.31877,16.90221-2.60217,24.80908-5.16951,8.04677-2.61276,14.46225-8.98377,21.89484-12.77829,7.51036-3.83422,16.77642-4.82553,23.54436-9.75104,6.8002-4.94899,10.64375-13.41478,16.57712-19.34818,5.93336-5.93339,13.04147-10.76504,17.99042-17.56525,4.92539-6.76784,8.58856-14.37474,12.4227-21.88497,3.79448-7.43256,4.81909-15.8282,7.43183-23.87493,2.56729-7.90677,5.13622-15.53893,6.45498-23.93116,1.28468-8.17531,6.26726-16.22797,6.26726-24.76411Z" fill="#ffcacc"/>
    <path d="m460.22594,297.6378c0-8.53609-.69998-17.26168-1.98464-25.43694-1.31877-8.39233-7.91475-15.43461-10.48209-23.34148-2.61276-8.04677-5.55537-15.51076-9.34989-22.94335-3.83422-7.51036-5.70218-16.06279-10.6277-22.83073-4.94899-6.8002-9.77694-13.94818-15.71034-19.88155-5.93339-5.93336-13.15246-10.66363-19.95267-15.61258-6.76784-4.92539-13.67537-9.97348-21.1856-13.80762-7.43256-3.79448-15.99149-5.12895-24.03822-7.74169-7.90677-2.56729-15.74229-5.68678-24.13451-7.00555-8.17531-1.28468-16.58635-.97009-25.12249-.97009s-16.8808.10724-25.05606,1.3919c-8.39233,1.31877-16.0538,4.75698-23.96067,7.32432-8.04677,2.61276-15.51255,5.81901-22.94514,9.61352-7.51036,3.83422-14.00904,8.66454-20.77698,13.59006-6.8002,4.94899-15.84184,7.20488-21.77521,13.13828-5.93336,5.93339-9.0045,14.38169-13.95346,21.18191-4.92539,6.76784-10.12041,13.2573-13.95454,20.76754-3.79448,7.43256-7.61334,14.91868-10.22608,22.96541-2.56729,7.90677-4.47887,16.10841-5.79763,24.50063-1.28468,8.17531-2.94284,16.56188-2.94284,25.09802s-.66295,17.28735.62171,25.46262c1.31877,8.39233,4.06533,16.71189,6.63267,24.61876,2.61276,8.04677,8.62403,14.68982,12.41855,22.12241,3.83422,7.51036,6.12734,15.95849,11.05285,22.72643,4.94899,6.8002,9.36872,14.4977,15.30212,20.43107,5.93339,5.93336,14.21051,9.55663,21.01072,14.50559,6.76784,4.92539,13.86221,9.53099,21.37245,13.36513,7.43256,3.79448,14.69697,8.7597,22.7437,11.37244,7.90677,2.56729,16.60429,3.40914,24.99651,4.7279,8.17531,1.28468,16.7012,1.10605,25.23734,1.10605s17.0203-.0863,25.19556-1.37096c8.39233-1.31877,16.90221-2.60217,24.80908-5.16951,8.04677-2.61276,14.46225-8.98377,21.89484-12.77829,7.51036-3.83422,16.77642-4.82553,23.54436-9.75104,6.8002-4.94899,10.64375-13.41478,16.57712-19.34818,5.93336-5.93339,13.04147-10.76504,17.99042-17.56525,4.92539-6.76784,8.58856-14.37474,12.4227-21.88497,3.79448-7.43256,4.81909-15.8282,7.43183-23.87493,2.56729-7.90677,5.13622-15.53893,6.45498-23.93116,1.28468-8.17531,6.26726-16.22797,6.26726-24.76411Z" fill="none" stroke="#fff" stroke-miterlimit="10" stroke-width="6"/>
  </g>
  <path d="m470.96902,473.89243c.09397.37496-.85797,1.06698-.71107,1.41988,5.05228,12.13976,4.51336,23.03713-4.45124,29.24295-9.52113,6.59107-21.92107,5.0446-31.58414-4.60855-5.46395-5.45835-10.00907-11.83645-15.47231-17.2955-5.46325-5.45906-9.06839-12.77719-14.53102-18.23686-5.46263-5.45967-11.46153-10.3825-16.92364-15.8427s-11.58567-10.25858-17.04734-15.7192c-5.46167-5.46063-10.47021-11.37432-15.93154-16.83529-5.46133-5.46097-12.80851-9.03602-18.2696-14.49724-5.46108-5.46122-11.41049-10.43419-16.87141-15.89557-5.46092-5.46138-11.60573-10.23897-17.06658-15.70042-5.46085-5.46145-7.23031-14.61391-12.69118-20.07534s-10.95204-10.89264-16.41303-16.35396c-5.46099-5.46131-11.32891-10.51582-16.7901-15.97693-1.87692-1.87692-5.48477-3.31417-7.57662-5.40601-4.35691,3.93354-7.2117,9.2889-11.27059,12.46916-10.12312,7.93171-24.54973,5.54371-32.37155-4.6681-4.78099-6.24182-7.82776-13.80839-12.60123-20.05597-4.77346-6.24757-9.99093-12.15394-14.75896-18.40567s-10.71401-11.60483-15.47871-17.85909c-4.7647-6.25426-11.56269-10.96005-16.32617-17.21524-4.76348-6.25519-8.58815-13.22513-13.35252-19.47965-4.76436-6.25452-7.93863-13.72085-12.70597-19.97309-5.42196-7.11075-13.02118-12.56113-18.44378-19.6714-5.4226-7.11026-11.62751-13.62284-17.05228-20.73145-5.42477-7.10862-7.86111-16.49841-13.28956-23.60421-5.42844-7.1058-12.19354-13.18983-17.62717-20.29166-8.37644-10.94808-8.13262-25.18997,1.1092-33.71734,9.22855-8.51512,24.2912-8.35857,34.19996,1.17226,5.22993,5.03047,10.88641,9.68042,16.01784,14.81327,5.13056,5.13199,6.83778,13.71365,12.00488,18.80827,2.73432,2.69592,8.23545,2.57088,11.09543,5.13935,5.73516,5.73516,11.97832,10.98714,17.71348,16.72229,5.73516,5.73516,10.37999,12.56063,16.11515,18.29578,5.73516,5.73516,9.52274,13.41788,15.2579,19.15303,5.73516,5.73516,12.07786,10.86276,17.81302,16.59791,5.73516,5.73516,12.62167,10.31895,18.35683,16.0541s12.77448,10.16614,18.50964,15.9013c5.73516,5.73516,12.03394,10.90668,17.7691,16.64183,5.73516,5.73516,8.32562,14.615,14.06078,20.35015,5.73516,5.73516,12.69545,10.24517,18.4306,15.98033,5.73516,5.73516,12.52833,10.41229,18.26348,16.14745,5.73515,5.73515,11.05606,11.88456,16.79121,17.61972,5.73515,5.73515,10.92723,12.01339,16.66239,17.74854s12.49248,10.44814,18.22764,16.18329c5.73515,5.73515,10.47579,12.46483,16.21094,18.19999,5.73515,5.73515,10.8767,12.06392,16.61186,17.79907,5.73515,5.73515,13.19901,9.74161,18.93416,15.47677,5.73515,5.73515,9.95436,12.98625,15.68952,18.72141,5.73515,5.73515,11.44352,11.4971,17.17867,17.23226,5.73515,5.73515,13.8221,9.11852,19.55725,14.85368,5.73515,5.73515,9.29325,13.63726,15.0284,19.37242Z" fill="#e97878"/>
  <g>
    <path d="m119.33537,525.01198c-6.00293,0-10.8916-3.36133-15.78418-7.10645-5.77295-4.41797-6.89697-9.57324-7.25146-14.48633-.7124-9.86719,2.10645-17.40625,9.13916-24.44336,2.87207-2.875,5.64746-6.00684,8.33105-9.03613,2.74219-3.0957,5.57812-6.29785,8.57812-9.2998,2.8877-2.88965,5.71875-5.98047,8.45605-8.96875,2.78467-3.04102,5.66406-6.18457,8.64893-9.1709,3.19385-3.19629,7.07568-5.54297,10.83008-7.8125,3.60449-2.17871,7.00928-4.23633,9.6875-6.91602,2.73877-2.74023,4.98047-6.01562,7.35352-9.4834,2.4248-3.54297,4.93164-7.20605,8.06592-10.34082,2.91699-2.91797,5.80469-5.86523,8.69238-8.81348,2.92627-2.98633,5.85205-5.97363,8.80908-8.92969,2.95557-2.95703,5.94141-5.88379,8.92676-8.81055,2.94727-2.88867,5.89404-5.77734,8.8125-8.69531,2.96875-2.96875,6.05908-5.88379,9.04785-8.70312,2.95557-2.78906,6.01172-5.67188,8.91748-8.57715,3.0752-3.07324,6.52734-5.73145,9.86572-8.30176,3.33398-2.56836,6.4834-4.99316,9.28418-7.79199,2.67773-2.6748,4.729-6.08496,6.90088-9.69531,2.26367-3.76172,4.604-7.65234,7.80371-10.84766,3.17676-3.17383,6.98486-5.57324,10.66797-7.89355,3.55908-2.24219,6.92139-4.36035,9.62305-7.05859,2.99561-2.99121,6.16602-5.85254,9.23242-8.62012,3.00488-2.71191,6.1123-5.5166,8.99609-8.39453,2.6416-2.63672,4.58203-6.125,6.63672-9.81836,2.1665-3.89453,4.40674-7.9209,7.646-11.15234,2.90771-2.90039,5.83545-5.89062,8.66699-8.7832,2.8833-2.94531,5.86475-5.99121,8.83984-8.95703.75049-.74805,1.44922-1.37793,2.06592-1.93262,2.4502-2.20703,2.5459-2.29297,1.77246-4.45996-2.17285-6.08398-2.28271-11.94629-2.38965-17.61621-.02441-1.29883-.04834-2.59277-.09863-3.88086-.30762-7.85352-.07764-14.49316,2.04639-21.36719.5293-1.71387.98047-3.50879,1.45752-5.41016,1.30713-5.20508,2.65918-10.58789,5.875-15.4668l.09082-.1377.10547-.12695c4.40771-5.31055,6.91992-6.8457,9.58008-8.47168,2.31787-1.41602,4.94482-3.02148,9.854-8.02832,2.31982-2.36523,4.66016-5.1709,7.1377-8.14062,2.91357-3.49316,5.92676-7.10449,9.43018-10.67188,2.8291-2.87988,6.04346-5.61426,9.15137-8.25879,3.18408-2.70898,6.47656-5.50977,9.46191-8.54395,2.78711-2.83203,5.27637-5.95898,7.91211-9.26953,2.63525-3.31055,5.35938-6.73242,8.39551-9.80957,3.29688-3.3418,7.10693-5.95508,10.79102-8.4834,3.37549-2.31543,6.56348-4.50293,9.10107-7.06348,3.22461-3.25488,5.86865-6.91699,8.42578-10.45898,2.42529-3.3584,4.71533-6.53027,7.34961-9.16406l.70947-.70996.99365-.13965c.19336-.03711.7251-.34668,1.07715-.55078.81348-.47363,1.82617-1.06348,3.08057-1.2793.75098-.12891,1.50586-.19434,2.24316-.19434,7.00293,0,11.48291,5.75195,14.24365,10.0791,4.24854,6.65918,4.16455,12.52734-.26465,18.46094-.1333.37402-.15234,1.46484-.16357,2.125-.03467,1.96094-.07715,4.40137-1.78516,6.1123-2.12598,2.13086-4.92139,4.00488-7.88135,5.98926-3.39697,2.27734-6.90967,4.63184-9.94238,7.66699-2.48193,2.48242-4.88818,5.37207-7.21484,8.16699-2.40771,2.8916-4.89795,5.88184-7.55957,8.54297-3.49658,3.49805-7.43896,6.16992-10.91748,8.52832-2.66162,1.80371-5.17529,3.50781-6.84473,5.17676-.65234.65234-1.45312,1.78027-.87988,4.03711.43506,1.71289,1.56934,3.60742,3.13232,5.24609.48779.28418.95654.55957,1.40771.82422,2.94531,1.73047,5.27148,3.09668,6.6543,3.09668.28955,0,.89111,0,2.04199-1.15234,1.75537-1.75781,3.61621-4.25098,5.58643-6.89062,2.5332-3.39355,5.40479-7.24023,8.93359-10.76758,2.73486-2.7334,5.83008-5.26172,8.82373-7.70605,2.87207-2.3457,5.8418-4.77051,8.37158-7.29297,3.43408-3.4248,6.9917-6.50977,10.13086-9.23047,2.50586-2.17285,4.87256-4.22461,6.74707-6.0791,2.31543-2.29102,5.39111-4.22363,9.14209-5.74512,1.90771-.77344,3.85498-1.16602,5.7876-1.16602,5.34717,0,10.30811,2.97852,13.60986,8.16992,4.22705,6.64551,6.37939,16.13477-.25586,22.83594-2.15625,2.17676-4.84717,4.51074-7.69629,6.98145-3.26465,2.83105-6.96484,6.04004-10.46387,9.5459-2.76514,2.77051-5.47949,5.92383-8.10449,8.97363-2.68896,3.12402-5.46973,6.35449-8.35742,9.24121-4.00391,4.00391-8.34082,7.11914-12.16699,9.86914-2.87793,2.06738-5.36377,3.85352-7.06543,5.55371-.38379.38281-.7207.8623-.27148,2.12109.43457,1.21875,1.47314,2.68945,2.9248,4.14062,1.92773,1.92773,1.96436,4.00293,1.98682,5.24316.01562.89355.03564.91309.22949,1.10742,1.29688,1.2959,4.00781,2.27344,6.30615,2.27344,1.29834,0,2.34619-.30273,2.87451-.83105,1.72412-1.72656,3.65869-3.97852,5.89893-6.58691,2.88867-3.36328,6.16309-7.1748,9.93359-10.94434,2.55225-2.55176,4.87354-5.52051,7.33154-8.66309,2.50293-3.20117,5.09082-6.51074,7.98926-9.40332,3.29199-3.28418,6.03906-6.83203,8.6958-10.2627,2.26367-2.92285,4.40137-5.68359,6.58398-7.84863,2.10742-2.08984,5.20264-2.12891,7.69043-2.16113,1.19824-.01465,2.55615-.03223,3.16504-.29199,2.83936-1.21094,5.65918-1.82422,8.38086-1.82422,5.05176,0,9.29736,2.16992,11.95361,6.11035,5.10498,7.56934,4.21973,17.31836-2.15234,23.70605-2.57666,2.58398-5.12305,5.32129-7.58594,7.96875-2.50977,2.69629-5.10449,5.48535-7.76758,8.1543-2.70703,2.71289-5.62793,5.21777-8.45312,7.64062-2.72949,2.33984-5.55127,4.76074-8.08691,7.29883-2.54883,2.55078-5.01221,5.33984-7.39404,8.03613-2.45654,2.78223-4.99707,5.6582-7.69482,8.35449-2.6792,2.67676-5.46045,5.3125-8.1499,7.86133-2.60791,2.47168-5.30469,5.02637-7.87744,7.5918-2.80518,2.79785-6.01904,5.10059-9.12744,7.32617-3.03418,2.17383-5.90039,4.22656-8.35303,6.66602-2.41162,2.39844-4.36572,5.33105-6.43506,8.43555-2.15088,3.22754-4.375,6.56543-7.22998,9.39551-2.86621,2.84277-6.53076,4.35449-10.07422,5.81641-1.97607.81445-3.84229,1.58496-5.46875,2.54199-8.28516,4.87598-17.38184,9.5127-27.7583,10.41797-1.15576.10059-2.33936.15234-3.51807.15234-8.80762,0-17.0918-2.78516-25.50879-5.8877-.91455-.33691-1.76367-.50098-2.59668-.50098-2.18848,0-4.30957,1.14844-6.87695,3.72168-2.49707,2.50391-4.44629,5.65723-6.51025,8.99512-2.15332,3.48242-4.38037,7.08496-7.37061,10.08105-3.05957,3.06641-6.90088,5.12012-10.61621,7.10645-3.47998,1.86035-6.76709,3.61816-9.1958,6.05078-2.59082,2.5957-4.80713,5.56738-7.15332,8.71387-2.37158,3.17969-4.82373,6.46777-7.72266,9.37012-2.71338,2.7168-5.41504,5.56348-8.02832,8.31641-2.64795,2.79004-5.38574,5.6748-8.1626,8.4541-2.83496,2.83789-5.91016,5.44141-8.88379,7.95801-2.87744,2.43555-5.85254,4.9541-8.50879,7.6123-2.85205,2.85449-5.98145,5.41992-9.0083,7.90039-3.04443,2.49609-5.92041,4.85254-8.56006,7.49414-2.42285,2.42383-4.15527,5.72754-5.98877,9.22559-1.96289,3.74316-3.9917,7.61426-7.06201,10.68457-2.87207,2.87305-6.06641,5.39062-9.15625,7.82617-3.08789,2.43359-6.00439,4.7334-8.62549,7.35449-2.90869,2.90918-6.22217,5.34375-9.42676,7.69922-3.16162,2.32324-6.14795,4.51758-8.73291,7.10254-2.59814,2.59863-4.83154,5.56055-7.19531,8.69531-2.38428,3.16211-4.8501,6.43164-7.74561,9.32617-2.70605,2.70605-5.37256,5.58301-7.95117,8.36426-2.61816,2.8252-5.32568,5.74512-8.11377,8.53223-2.91943,2.91992-6.27051,5.32715-9.51123,7.65527-3.18652,2.28906-6.1958,4.45117-8.77051,7.02441-2.74561,2.74512-5.4624,5.51855-8.17969,8.29297-2.71973,2.77637-5.43994,5.55273-8.18848,8.30078-2.5332,2.5332-4.57666,5.62305-6.74023,8.89453-2.23242,3.375-4.54102,6.86523-7.50195,9.8252-5.86426,5.86328-13.43066,6.80273-18.95557,7.48828-.70215.08691-1.40381.13086-2.09033.13086Z" fill="#e97878"/>
    <path d="m458.37834,71.46608c5.30371,0,8.96631,4.38477,11.7157,8.69336,3.36304,5.271,3.73645,9.89844-.18396,15.11182-1.38721,1.84473.01245,6.21484-1.62366,7.85449-4.19934,4.20752-11.85779,7.68506-17.82263,13.65332-5.15417,5.15723-9.6416,11.57812-14.77319,16.71045-6.02332,6.02393-13.63135,9.57471-17.76221,13.70459-3.89844,3.89795-1.38416,9.89697,2.51379,13.79492,4.48584,2.59766,7.37549,4.53027,9.9209,4.53027,1.42297,0,2.73792-.60352,4.16504-2.03223,4.21985-4.22461,8.35718-11.49756,14.51843-17.65625,5.24683-5.24463,11.91296-9.73193,17.19287-14.99707,6.10303-6.08545,12.54333-11.01953,16.86938-15.30029,2.28601-2.26172,5.22974-3.90967,8.15967-5.09766,1.59741-.64795,3.16101-.9458,4.6604-.9458,4.54688,0,8.50916,2.73975,11.07849,6.77979,3.77759,5.93994,5.43091,13.77441.14331,19.11475-4.51782,4.5625-11.53735,9.89111-18.15186,16.51953-5.68799,5.7002-10.84534,12.59961-16.45911,18.2124-6.84631,6.84473-14.97571,11.1709-19.23193,15.4209-3.07202,3.06787-.41711,7.43604,2.65271,10.50586,2.14172,2.1416.07458,4.20898,2.21631,6.35059,1.88184,1.88184,5.32874,3.15234,8.42688,3.15234,1.97083,0,3.80042-.51367,4.99695-1.71143,4.09937-4.10303,9.24048-10.93994,15.83154-17.52979,5.39758-5.396,9.81836-12.5752,15.31873-18.06348,6.33142-6.31787,10.81812-13.68604,15.27368-18.10547,2.15662-2.13916,7.18762-.65869,9.91931-1.82324,2.42273-1.0332,4.88562-1.58447,7.20422-1.58447,3.8175,0,7.245,1.49316,9.46606,4.78711,4.08472,6.05762,3.85547,14.25244-1.78882,19.91211-5.23901,5.25293-10.11279,10.87061-15.35339,16.12158-5.24048,5.25146-11.29553,9.68994-16.53906,14.93848-5.24341,5.24805-9.83923,11.14453-15.08691,16.38867s-10.77161,10.21289-16.02478,15.45166c-5.2533,5.23828-12.2179,8.75732-17.47803,13.98877-5.26013,5.23193-8.39355,12.60449-13.66174,17.82764-3.93286,3.89941-10.16919,5.08838-14.95251,7.90381-8.85571,5.21191-17.18494,9.20215-26.49707,10.01416-1.09302.09521-2.17847.14062-3.25854.14062-8.146,0-15.98779-2.57568-24.46973-5.70215-1.27954-.47168-2.48706-.68604-3.63354-.68604-3.43604,0-6.32812,1.92334-9.00195,4.60352-5.48657,5.50098-8.39258,13.57617-13.88037,19.07568-5.48755,5.49951-14.323,7.65771-19.81177,13.15625s-9.3855,12.58594-14.87524,18.0835-10.7002,11.27393-16.19092,16.77051-11.90063,10.07471-17.39209,15.57031c-5.49146,5.49609-12.07642,9.89844-17.5686,15.39355-5.49194,5.49512-7.55713,14.41602-13.0498,19.91016-5.49268,5.49463-12.28857,9.68652-17.78174,15.18066-5.49316,5.49365-12.66577,9.30859-18.15942,14.80225s-9.44702,12.52734-14.94092,18.02051c-5.4939,5.49365-10.5708,11.40381-16.06494,16.89697s-12.7876,9.18652-18.28174,14.6792c-5.49414,5.49316-10.87378,11.10059-16.36792,16.59375s-8.74829,13.22656-14.24219,18.71973c-5.13721,5.13623-11.90479,5.97559-17.20825,6.6333-.58423.07227-1.15601.10791-1.71655.10791-4.8335,0-8.89746-2.61328-13.96118-6.48877-4.31885-3.30566-5.69116-6.896-6.08252-12.32031-.69873-9.68164,2.32788-16.1626,8.26929-22.10742,5.87207-5.87598,11.03687-12.45898,16.90894-18.33496,5.87231-5.87598,11.23193-12.26416,17.10425-18.14014,5.87256-5.87549,14.64502-8.85303,20.51758-14.72803,5.8728-5.87549,9.54639-13.94922,15.41968-19.82422,5.87305-5.875,11.6272-11.86914,17.50098-17.74365,5.87378-5.87451,11.86475-11.63135,17.73926-17.50537,5.87451-5.87354,12.09009-11.40625,17.96533-17.27881,5.87549-5.87305,13.27344-10.22217,19.14966-16.09375,5.87622-5.87207,8.82642-14.67285,14.70386-20.54346,5.87744-5.87109,14.41187-9.08105,20.29053-14.95068,5.87842-5.86963,12.34814-11.14648,18.22803-17.01465s8.40088-15.10303,14.28223-20.96973,11.62256-11.875,17.50562-17.74023c3.69604-3.68506,6.33252-4.52246,4.5459-9.52637-2.49072-6.97656-2.05176-13.86475-2.31592-20.60449-.27686-7.06885-.18042-13.58154,1.91504-20.36523,1.99146-6.4458,2.90674-13.94531,6.97144-20.11084,7.99268-9.62988,8.68311-5.52148,19.26782-16.31494,5.1145-5.21582,10.11597-12.24414,16.56567-18.81104,5.5686-5.66943,12.56177-10.65332,18.61157-16.80127,5.81445-5.90869,10.47705-13.16992,16.30444-19.07617,6.05359-6.13525,14.28552-9.88867,19.88757-15.54248,6.46179-6.52148,10.58411-14.43164,15.76575-19.61328,1.47876-.20801,2.77686-1.59033,4.2478-1.84424.59668-.10303,1.1748-.15186,1.73413-.15186m.00061-6c-.90735,0-1.83386.08057-2.75342.23877-1.78674.30859-3.16589,1.11133-4.07849,1.64258-.12585.07275-.2804.16309-.40454.23193l-1.56958.22119-1.41919,1.41895c-2.80383,2.80371-5.16248,6.0708-7.65979,9.5293-2.48999,3.44873-5.06482,7.01465-8.12549,10.10352-2.33801,2.35986-5.41272,4.46924-8.66809,6.70264-3.80017,2.60742-7.72974,5.30322-11.22827,8.84863-3.14771,3.19043-5.92285,6.67627-8.60645,10.04736-2.58521,3.24756-5.02734,6.31494-7.70361,9.03467-2.89282,2.93994-6.13428,5.69775-9.26929,8.36475-3.15796,2.68701-6.42358,5.46484-9.34619,8.44043-3.58984,3.65527-6.64307,7.31543-9.59546,10.85498-2.43726,2.92139-4.73926,5.68115-6.97363,7.95996-4.64893,4.74023-7.00146,6.17822-9.27661,7.56836-2.7522,1.68213-5.59814,3.4209-10.32422,9.11523l-.21069.25391-.18164.27539c-3.49683,5.3042-4.97534,11.19141-6.28003,16.38574-.46729,1.86133-.90894,3.61914-1.41479,5.25684-2.50073,8.09619-2.4353,15.79248-2.17773,22.37109.04883,1.24854.07251,2.49854.09741,3.82227.1062,5.63428.22656,12.01953,2.56323,18.56494.03442.09668.06372.18408.08862.26172-.3064.29639-.71265.6626-1.04346.96045-.64307.5791-1.37183,1.23486-2.17676,2.0376-2.98364,2.97461-5.96753,6.02295-8.85327,8.9707-2.82886,2.89014-5.75439,5.87891-8.65332,8.77051-3.53784,3.52881-5.88208,7.74268-8.14917,11.81787-1.94922,3.50439-3.79053,6.81396-6.13428,9.15283-2.82959,2.82422-5.77051,5.479-8.88452,8.28906-3.09448,2.79346-6.29443,5.68164-9.34448,8.72705-2.46436,2.46045-5.68848,4.4917-9.10181,6.64209-3.82275,2.40869-7.77563,4.89893-11.1897,8.30908-3.46045,3.45654-5.89771,7.50781-8.25464,11.42578-2.07422,3.44727-4.0332,6.70361-6.44995,9.11865-2.66309,2.66113-5.73682,5.02783-8.99097,7.53369-3.41504,2.62988-6.94629,5.34912-10.15918,8.56055-2.8728,2.87158-5.9104,5.7373-8.8479,8.5083-3.00659,2.83643-6.11572,5.76953-9.11816,8.771-2.90918,2.90918-5.90698,5.84766-8.80591,8.68994-2.93433,2.87646-5.96851,5.85059-8.93384,8.81641-2.96606,2.96631-5.93994,6.00195-8.81616,8.9375-2.84033,2.89941-5.77759,5.89795-8.6853,8.80664-3.33057,3.33105-5.91724,7.11084-8.4187,10.76611-2.29297,3.3501-4.4585,6.51416-7.00122,9.05811-2.42041,2.42139-5.67383,4.38818-9.11841,6.47021-3.90698,2.36182-7.94727,4.8042-11.39917,8.25781-3.02881,3.03076-5.92871,6.19727-8.73315,9.25928-2.71777,2.96729-5.52783,6.03564-8.37134,8.88135-3.06372,3.06543-5.92993,6.30127-8.7019,9.43018-2.77637,3.13428-5.39868,6.09424-8.20728,8.90479-7.70288,7.70752-10.79004,15.9668-10.00952,26.78076.3855,5.34277,1.68726,11.49951,8.42017,16.65283,5.31812,4.07031,10.6665,7.72412,17.60791,7.72412.80933,0,1.63525-.05176,2.45557-.15381,5.62085-.69678,14.11621-1.75049,20.71143-8.34424,3.17505-3.1748,5.56836-6.79346,7.88306-10.29248,2.07764-3.1416,4.04028-6.10889,6.35938-8.42725,2.76855-2.76855,5.54321-5.60107,8.22656-8.34033,2.6626-2.71777,5.41577-5.52881,8.14136-8.25342,2.40137-2.40088,5.31421-4.49365,8.39819-6.70898,3.33862-2.39844,6.79102-4.87842,9.8833-7.97021,2.82886-2.82861,5.5564-5.77051,8.19385-8.61621,2.55957-2.76074,5.20605-5.61572,7.87134-8.28125,3.04321-3.04248,5.573-6.39697,8.01953-9.64111,2.29907-3.04883,4.47095-5.92871,6.92163-8.37939,2.42432-2.42432,5.32202-4.5542,8.38989-6.80859,3.29419-2.4209,6.70068-4.92432,9.76978-7.99414,2.49561-2.49609,5.34448-4.74121,8.3606-7.11865,3.1582-2.48975,6.42407-5.06348,9.42163-8.0625,3.39282-3.39355,5.52979-7.46973,7.59644-11.41162,1.72485-3.29004,3.354-6.39795,5.45386-8.49854,2.53442-2.53613,5.35474-4.84766,8.34033-7.29443,3.08325-2.52686,6.27148-5.14014,9.22876-8.1001,2.56763-2.56934,5.36377-4.93652,8.32422-7.44238,3.021-2.55713,6.14478-5.20117,9.06836-8.12842,2.80444-2.80713,5.55615-5.70605,8.21704-8.50977,2.6001-2.73877,5.28833-5.57129,7.97461-8.26123,3.05127-3.05566,5.56934-6.43213,8.00439-9.69727,2.27979-3.05713,4.43335-5.94434,6.87158-8.38721,2.11353-2.11719,5.20923-3.77197,8.48682-5.52441,3.90894-2.08936,7.95068-4.25,11.32593-7.63281,3.23535-3.24219,5.55493-6.99414,7.79834-10.62256,1.96973-3.18604,3.83057-6.19531,6.08301-8.4541,2.53979-2.5459,3.9292-2.84033,4.75342-2.84033.47266,0,.98242.10352,1.55859.31592,8.6814,3.19971,17.24414,6.07227,26.54492,6.07227,1.26562,0,2.53711-.05518,3.77979-.16309,10.97095-.95703,20.43066-5.76611,29.01917-10.8208,1.44458-.8501,3.21606-1.58105,5.09143-2.35498,3.63525-1.5,7.75549-3.2002,11.04224-6.45898,3.07056-3.04443,5.38062-6.51025,7.6145-9.8623,1.98315-2.97559,3.85645-5.78613,6.05396-7.97217,2.28125-2.26855,5.05225-4.25342,7.98584-6.35498,3.20544-2.2959,6.5199-4.66992,9.49756-7.63916,2.54651-2.53955,5.22974-5.08203,7.82458-7.54102,2.70337-2.56201,5.49854-5.21094,8.20483-7.91504,2.7644-2.7627,5.33667-5.6748,7.82434-8.4917,2.45972-2.78467,4.78284-5.41504,7.26587-7.90039,2.45374-2.45605,5.10718-4.73193,7.9165-7.14111,2.86902-2.46045,5.83569-5.00439,8.62512-7.7998,2.70068-2.70605,5.31396-5.51465,7.84131-8.23096,2.44519-2.62793,4.97363-5.3457,7.51331-7.89209,7.39832-7.41846,8.4325-18.72803,2.51514-27.50342-3.23181-4.79297-8.36035-7.43262-14.44067-7.43262-3.08936,0-6.26367.67773-9.43677,2.01416-.41113.08057-1.44922.09375-2.14673.10303-2.86853.03613-6.79712.08643-9.76538,3.03076-2.32214,2.30322-4.5188,5.13965-6.84436,8.14307-2.59875,3.35547-5.28601,6.82568-8.44202,9.9751-3.02893,3.02197-5.67493,6.40576-8.23376,9.67822-2.39978,3.06885-4.66638,5.96729-7.08887,8.38916-3.85144,3.85059-7.16492,7.70801-10.08838,11.11133-2.13477,2.48535-3.98718,4.64209-5.59717,6.27148-.14502.04248-.44592.10205-.901.10205-1.34985,0-2.71228-.46631-3.54797-.93994-.05457-1.59424-.35657-4.31006-2.85266-6.80615-1.13013-1.13037-1.73938-2.04102-2.03418-2.60693,1.52051-1.37793,3.65356-2.91064,6.07495-4.65039,3.91919-2.81641,8.36133-6.00781,12.53809-10.18359,2.96655-2.96631,5.78442-6.23975,8.50952-9.40527,2.70886-3.14697,5.26758-6.11914,7.95459-8.81201,3.42273-3.43018,7.07971-6.60156,10.30627-9.39941,2.89319-2.50879,5.62585-4.87842,7.86182-7.13672,6.58972-6.65527,6.84106-16.83105.65613-26.55615-3.86365-6.07568-9.74695-9.56006-16.14136-9.56006-2.32104,0-4.64758.46631-6.91504,1.38525-4.1189,1.67041-7.52551,3.82129-10.12488,6.39307-1.80493,1.78613-4.13672,3.80713-6.60535,5.94727-3.17505,2.75244-6.77368,5.87256-10.28076,9.36963-2.42468,2.41797-5.20667,4.68945-8.1521,7.09521-3.05054,2.49121-6.20496,5.06689-9.04602,7.90674-3.68152,3.68018-6.62134,7.61865-9.21509,11.09326-1.90442,2.55127-3.703,4.96094-5.30652,6.56641-.07458.07471-.14014.13623-.19678.18701-1.02759-.34717-3.13025-1.58252-4.85962-2.59814-.33276-.19531-.67493-.39648-1.02698-.60205-1.06177-1.18604-1.83948-2.50391-2.1228-3.61914-.21948-.86426-.04578-1.03809.09387-1.17725,1.46704-1.46729,3.86597-3.09326,6.40564-4.81494,3.58948-2.43311,7.65771-5.19092,11.35693-8.89062,2.75769-2.75781,5.29187-5.80127,7.74255-8.74463,2.38916-2.86914,4.646-5.57959,7.03174-7.9668,2.8252-2.82666,6.21411-5.09814,9.49133-7.29541,3.08545-2.06787,5.99976-4.02148,8.33411-6.36035,2.56311-2.56885,2.62207-5.9458,2.66101-8.18018.00537-.30371.01233-.70752.02869-1.02051,4.67322-6.69189,4.65125-13.83105-.07068-21.23145-3.14087-4.92236-8.29675-11.46631-16.77319-11.46631h0Z" fill="#fff"/>
  </g>
</svg>